<svg xmlns="http://www.w3.org/2000/svg" fill="none" viewBox="0 0 1143 752"><defs/><mask id="a" width="1143" height="752" x="0" y="0" mask-type="alpha" maskUnits="userSpaceOnUse"><path fill="#C4C4C4" d="M1111.03.421814H31.7283C14.6074.421814.728271 14.3009.728271 31.4218V720.427c0 17.121 13.879229 31 31.000029 31H1111.03c17.12 0 31-13.879 31-31V31.4218c0-17.1208-13.88-30.999986-31-30.999986z"/></mask><g mask="url(#a)"><path fill="url(#paint0_linear)" d="M1163.03-11.5782H.389648V693.478H1163.03V-11.5782z"/><path fill="url(#paint1_linear)" d="M1000.45-86.6707l8.14-5.9186c8.14 87.85462 31.07 174.4145 67.69 254.6863-4.06-95.4382-7.95-190.8761-12.02-286.314l18.5-10.727c20.53 166.8308 41.06 333.662 61.59 500.308 31.81-82.305 49.01-170.16 49.75-258.385l8.7-1.479c3.51 112.084-13.51 224.908-49.57 331.073 17.01 138.348 34.03 276.511 51.05 414.859l-98.59 7.768c-8.69-207.892-17.38-415.784-26.08-623.86-45.5-101.172-72.5-210.8515-79.16-322.0107z"/><path fill="url(#paint2_linear)" d="M627.209 115.487c8.508 24.415 56.782 161.838 65.29 186.252-.925-68.619-1.849-137.238-2.959-205.6721-12.022-30.8879-23.86-61.5907-35.882-92.47857l3.329-9.0629C667.715 17.83 678.443 41.3196 689.17 64.6241c-.555-41.8002-1.11-83.6005-1.665-125.4008l12.947-2.7744c6.289 37.5463 11.838 75.2775 16.646 113.0088 10.728-28.4834 19.421-57.70662 25.525-87.4847l11.837-9.2479c-5.179 43.09503-16.646 85.6351-33.662 125.5859 10.357 87.855 16.646 176.264 19.05 264.859 7.768-26.264 58.447-192.541 62.331-219.729l11.282 12.392c-4.809 45.684-58.816 230.456-72.688 274.291.37 81.566-2.774 162.947-9.433 244.328l-33.847-6.658c-1.295-96.548-2.774-193.28-4.069-289.828-14.797-34.772-64.735-184.587-69.914-221.948l3.699-20.531z"/><path fill="url(#paint3_linear)" d="M112.658 24.6734l9.618-6.1036c18.496 88.5942 43.095 175.7092 73.428 260.9742 8.138-112.084 21.455-223.6128 40.136-334.4021l42.54-1.2947c-9.988 62.14554-17.941 124.4761-24.229 186.9918 41.985-54.1927 75.277-114.8586 98.397-179.4086L363.09-38.397c-20.715 77.867-59.741 150.925-113.008 211.406-9.433 109.495-13.317 219.544-11.468 329.409 26.449-74.353 61.406-174.23 68.989-252.837l12.022 4.254c-9.247 94.328-47.719 209.742-79.716 298.891 2.404 73.243 7.213 146.486 14.612 219.544l-61.036-17.571c-9.063-142.787-9.248-286.129-.925-428.915-33.477-98.213-60.296-199.014-79.902-301.1106z"/><path fill="url(#paint4_linear)" d="M-63.4207 375.352C15.9259 228.311 56.0616 60.0003 51.4377-107.016l23.6745 14.7966C69.0086 38.7302 49.0332 168.755 15.556 295.451c40.1357-31.998 85.45-95.623 115.043-159.618l1.85 20.9C99.7115 237.559 54.9519 297.67 3.1639 339.47c-9.43281 32.183-19.6055 64.181-30.8878 95.993l-35.6968-60.111z"/><path fill="url(#paint5_linear)" d="M757.604 310.617l7.213-7.583c16.277 77.312 66.215 207.337 107.275 274.661 1.11-158.878 2.035-317.756 3.145-476.634-14.797-44.575-26.634-90.0744-35.697-136.1287l5.179-15.9063c10.172 31.4427 20.53 62.7004 30.703 94.1431.37-55.3021.74-110.6043 1.109-165.9061l17.941-5.549c10.358 87.8545 18.126 176.0791 23.12 264.489 32.367-81.5665 56.597-166.4618 72.688-252.652l12.76 1.295c-13.13 100.9864-41.428 200.1234-83.229 293.157 2.775 60.296 4.439 120.592 4.624 180.888 23.305-65.105 38.841-132.799 45.87-201.603l16.091 8.878c-6.104 85.635-27.374 170.16-61.961 248.767-.924 125.216-7.398 250.247-19.235 374.908l-34.772 65.105c.555-75.278.925-150.555 1.48-226.018l-3.884 6.659c-45.315-75.833-98.398-237.485-110.42-324.97z"/><path fill="url(#paint6_linear)" d="M374.743-3.99497l10.542-7.39833c20.161 93.9582 48.274 186.2523 83.971 275.4013-.925-114.674 2.959-229.5319 11.467-343.8354l14.797-2.9593c-3.884 285.2037 14.242 570.5927 54.192 853.0217l-63.44-29.778c-13.317-119.852-12.947-287.423-15.906-408.015-44.575-108.015-76.757-221.024-95.623-336.43697z"/><path fill="url(#paint7_linear)" d="M-31.7927 449.335c14.2417-11.098 35.14182-12.392 50.6782-3.514 15.5364 9.063 24.7843 27.928 22.1949 45.684 1.2947-14.427 12.577-27.374 26.6338-30.888 14.0567-3.329 29.963 2.96 37.9158 15.167-10.7271-15.352-7.028-38.841 7.769-50.124 14.981-11.282 38.471-8.323 50.308 6.104-1.48-19.605 16.461-38.286 36.067-37.731 19.605.555 36.436 20.345 33.847 39.765 6.658-17.755 31.257-25.894 47.164-15.721 16.091 10.173 18.865 35.882 5.548 49.384 19.976-8.323 42.911 19.605 30.888 37.546 18.866-10.913 44.945-7.398 60.111 8.138.37-16.091.74-32.367 1.11-48.459 19.421-4.809 41.615 6.104 49.569 24.415-6.289-19.421 5.918-42.725 25.524-48.459 19.605-5.734 42.54 7.398 47.534 27.189.37-16.462 20.53-28.854 35.326-21.64 14.797 7.213 17.386 30.887 4.624 41.245 7.214-10.727 23.675-13.872 34.402-6.658 10.728 7.213 13.872 23.674 6.474 34.402 10.357-10.173 27.189-12.947 40.321-6.659 13.131 6.289 21.27 21.27 19.605 35.697 13.502-12.947 39.581-7.398 46.424 9.988-11.282-8.139-13.687-26.264-4.994-37.177 8.878-10.912 27.004-12.207 37.362-2.774-5.364-14.982 1.849-33.477 16.091-40.876 14.242-7.398 33.477-2.774 42.725 10.358-11.282-17.941-5.734-44.39 11.837-56.412 17.571-11.837 44.205-7.398 56.782 9.803 17.571-21.455 59.186-12.023 65.66 15.166.925-15.721 14.426-29.778 30.148-31.073 15.721-1.479 31.443 9.803 35.327 25.155-1.85-16.647 9.432-33.663 25.337-38.471 15.91-4.809 34.77 2.959 42.54 17.57.93-18.68 14.24-36.251 32-42.17 17.76-5.918 39.03.37 50.86 14.797 23.86-20.715 64-8.138 82.31 17.571 18.49 25.709 20.9 59.186 21.64 90.814 1.85 65.474-.37 130.949-6.47 196.054H-31.7927V449.335z" opacity=".77"/><path fill="url(#paint8_linear)" d="M167.591 183.737c-8.693 207.891-17.386 415.783-26.079 623.86l-98.5824-7.768c17.016-138.348 34.0321-276.511 51.0481-414.859C57.9111 278.804 40.7101 165.981 44.4093 53.8967l8.6929 1.4796C53.8421 143.601 70.8581 231.64 102.856 313.761c20.53-166.831 41.06-333.6622 61.59-500.309l18.496 10.728c-4.069 95.4378-7.953 190.8757-12.022 286.314 36.621-80.2718 59.741-166.8318 67.694-254.686l8.138 5.918c-6.843 110.7895-33.847 220.4691-79.161 322.011zM739.663 15.6105C710.995 148.41 637.012 250.136 618.146 276.4c1.11-80.641 2.22-161.468 3.329-242.1088 14.057-36.2516 28.114-72.5032 42.171-108.9397l-3.885-10.7275c-12.577 27.5586-25.154 55.1172-37.731 82.49083.74-49.19853 1.295-98.39683 2.035-147.78083l-15.167-3.329c-7.398 44.205-13.872 88.5943-19.605 133.169-12.762-33.4772-22.75-67.8793-29.963-103.021l-13.872-10.913c6.104 50.8636 19.605 100.6171 39.766 147.7811-12.207 103.5759-19.606 207.5219-22.38 311.6529-9.248-30.888-91.924-208.262-87.115-363.0709l-13.317 14.6116c0 142.4173 83.046 375.6473 99.322 427.2513-.37 95.992 3.329 191.985 11.098 287.608l39.765-7.768c1.665-113.749 3.145-227.498 4.809-341.246 34.402-49.939 115.598-208.262 127.066-302.9599l-4.809-23.4896zm324.227-88.9643l-9.62-6.1036c-18.49 88.59444-43.09 175.7092-73.423 260.9744-8.138-112.084-21.455-223.6131-40.136-334.402l-42.54-1.295c9.988 62.1455 17.941 124.4761 24.229 186.9915-41.985-54.1924-75.277-114.8583-98.397-179.4085l-10.542 10.173C834.176-58.5573 873.202 14.5008 926.47 74.9817c9.432 109.4943 13.316 219.5443 11.467 329.4083-69.729-30.333-131.505-159.988-139.088-238.594l-12.022 4.254c9.248 94.328 62.885 231.011 149.815 284.649-2.404 73.243-7.213 146.486-14.612 219.544l61.036-17.571c9.063-142.787 9.248-286.129.925-428.916 33.479-98.212 60.299-199.0135 79.899-301.1098zM1226.84 318.57c-79.53-147.226-119.48-315.35159-115.04-482.553l-23.68 14.797c5.92 130.7644 26.08 260.974 59.56 387.67-40.51-36.622-96.92-113.009-125.03-159.9881l-6.85 14.4267c35.7 56.2274 92.48 147.9654 144.09 189.5814 9.43 32.182 19.6 64.18 30.88 95.992l36.07-59.926zm-1351.297 54.193c47.5344-66.77 87.6701-138.903 119.48273-214.551C23.879 89.7783 46.0739 18.3849 61.0554-54.4882l-3.8841-28.2984C29.9826 23.1938-18.4761 123.625-84.5058 210.74l-39.9512 162.023zm663.072-78.792l-7.214-7.583C515.125 363.7 460.748 490.58 419.502 557.905c-1.11-158.878-2.034-317.757-3.144-476.6347 14.797-44.5747 26.634-90.0741 35.697-136.1284l-5.179-15.9063-30.703 94.3281c-.37-55.3022-.74-110.6043-1.11-165.9067l-17.941-5.549c-10.357 87.8551-18.125 176.0796-23.119 264.489-32.368-81.566-56.597-166.4613-72.688-252.651l-12.762 1.294c13.132 100.987 41.43 200.124 83.23 293.157-2.774 60.296-4.439 120.592-4.624 180.888-43.28-72.318-101.726-177.743-115.598-362.7004l-16.091 8.8779c7.953 197.3495 96.917 331.2585 131.689 409.8645.925 125.216 7.399 250.247 19.236 374.908l34.772 65.105c-.555-75.277-.925-150.555-1.48-226.017l3.884 6.658c45.315-76.017 103.021-234.34 115.044-322.01zM853.966-55.5979l-10.542-7.3983C823.263 30.962 794.965 123.256 759.453 212.405c.925-114.6735-2.959-229.5319-11.467-343.835l-14.797-2.96c3.884 285.204-14.241 570.593-54.192 853.022l63.44-29.778c13.317-119.852 12.947-287.423 15.907-408.015 44.574-107.83 76.757-221.0237 95.622-336.4369z"/><path fill="url(#paint9_linear)" d="M1215.37 567.152c-.18-.184-.37-.184-.55-.369-.93-.555-1.67-1.11-2.59-1.665-17.39-11.098-35.51-27.189-54.01-54.008l11.47-11.837-21.46-3.144s-2.96-10.173-6.84-24.599c-.18-.37-.18-.925-.37-1.295-.74-2.959-1.66-6.289-2.4-9.433-.37-1.664-.93-3.514-1.3-5.179-4.07-17.016-8.32-36.436-9.99-52.158 0-.369 0-.554-.18-.739 0-.555-.19-.925-.19-1.48-.37-3.514-.74-6.474-1.11-9.248 0-.555-.18-1.11-.18-1.664-1.67-14.427-2.41-17.756-2.78-18.311l19.05-9.248-17.75-2.405s3.88-24.784 12.95-55.857c7.21 3.145 46.42 21.64 65.47 66.955l-11.28 11.097 13.5-2.034s1.66 5.364 4.07 13.872c.55 1.664.92 3.699 1.48 5.548 4.07 15.907 9.06 39.211 10.17 59.926 0 1.295.19 2.59.19 3.884v4.254c.55 37.547-5.37 99.137-5.37 99.137z"/><path fill="#004C39" d="M1219.81 605.624c-2.4-13.502-4.99-27.004-7.4-40.321-7.21-38.101-14.79-76.017-22.75-113.934-.74-3.514-1.48-7.028-2.22-10.357-8.13 5.179-17.01 9.248-24.97 14.796-7.21 4.994-14.24 10.358-21.08 16.092-.19-.37-.19-.925-.37-1.295 6.1-6.289 12.58-12.022 19.61-17.016 7.95-5.734 16.64-12.022 26.07-15.536-.18-.555-.18-.925-.37-1.48-9.24 2.219-18.12 5.549-26.44 10.173-5.18 2.774-9.99 5.918-14.8 9.432-2.22 1.665-4.07 3.884-6.47 4.994-.37-1.664-.93-3.514-1.3-5.179 1.67-1.849 3.88-3.329 5.55-4.624 4.81-4.254 9.99-8.138 15.54-11.652 8.32-5.179 17.2-8.878 26.63-9.063-2.4-10.727-4.99-21.455-7.77-31.997-8.51.37-17.2-.185-25.71.555-8.14.739-16.46 1.849-24.23 4.069 0-.555-.18-.925-.18-1.48 15.53-5.179 33.11-7.028 49.57-5.734v-.37c-16.83-2.404-33.67-5.178-50.5-3.144 0-.555-.18-1.11-.18-1.664 16.27-3.145 34.22-1.48 49.94 2.404-7.96-28.853-18.31-56.967-34.41-83.046 0-.185 0-.185.19-.185 24.04 31.998 41.98 104.501 43.65 112.454 7.03-9.618 14.98-18.865 23.67-27.558.56 1.664.93 3.699 1.48 5.548-8.13 7.584-16.09 15.537-23.67 23.86-.37.37-.56.37-.93.37.37 1.849 4.07 19.42 4.44 21.455 2.59 12.577 5.37 24.969 7.96 37.546 4.62-7.028 12.57-12.947 19.42-17.571 1.11-.74 2.03-1.295 3.14-2.034v4.254c-.55.369-1.29.739-1.85 1.109-7.4 4.809-13.32 11.283-20.16 16.461 5.74 27.004 11.28 54.008 16.09 81.012 2.22 12.762 4.44 25.709 6.29 38.656 0 .74-1.29.924-1.48 0z" opacity=".52"/><path fill="url(#paint10_linear)" d="M421.907 610.247c-1.295-9.062-1.85-18.495 1.109-27.188 2.775-8.693 9.433-16.646 18.311-18.866 10.728-2.774 22.38 3.144 29.223 11.837 7.029 8.693 10.358 19.606 13.502 30.333-3.884-14.611-7.953-29.778-6.658-44.944 1.294-15.167 8.693-30.703 22.38-37.362 13.686-6.658 33.292-.924 37.916 13.502 1.109 3.514 1.294 7.029 1.479 10.728.74 11.097 1.48 22.195 2.035 33.292 2.589-22.935 17.571-44.02 38.471-54.007 10.728-5.179 25.524-6.659 33.107 2.589 6.289 7.583 4.624 18.866 1.665 28.113-3.144 9.433-7.398 18.866-5.734 28.669 1.11-12.392 14.057-22.195 26.079-19.976.74 10.543 1.48 21.086 2.22 31.628 1.294-15.906 15.721-29.778 31.627-30.148 15.907-.555 31.258 12.207 33.663 28.114 1.849 12.947-3.885 25.524-9.803 36.991-13.502 26.079-29.593 52.343-54.932 67.139-26.264 15.352-58.447 15.722-88.78 15.907-29.778 0-62.515-.74-85.265-19.976-11.467-9.802-16.831-22.749-23.86-35.696-8.323-16.277-14.981-32.553-17.755-50.679z"/><path fill="url(#paint11_linear)" d="M675.298 593.047c-1.295-9.063-1.85-18.496 1.109-27.189 2.775-8.693 9.433-16.646 18.311-18.866 10.728-2.774 22.38 3.145 29.223 11.838 7.029 8.693 10.358 19.605 13.502 30.332-3.884-14.611-7.953-29.778-6.658-44.944 1.295-15.167 8.693-30.703 22.38-37.361 13.686-6.659 33.292-.925 37.916 13.502 1.11 3.514 1.295 7.028 1.479 10.727.74 11.097 1.48 22.195 2.035 33.292 2.589-22.934 17.571-44.019 38.471-54.007 10.728-5.179 25.524-6.659 33.107 2.589 6.289 7.583 4.624 18.866 1.665 28.114-3.144 9.432-7.398 18.865-5.734 28.668 1.11-12.392 14.057-22.195 26.079-19.975.74 10.542 1.48 21.085 2.22 31.627 1.295-15.906 15.721-29.778 31.627-30.148 15.907-.555 31.258 12.207 33.663 28.114 1.849 12.947-3.884 25.524-9.803 36.991-13.502 26.079-29.593 52.343-54.932 67.14-26.264 15.351-58.447 15.721-88.78 15.906-29.778 0-62.515-.74-85.265-19.975-11.467-9.803-16.831-22.75-23.859-35.697-8.508-16.276-14.982-32.553-17.756-50.678z"/><path fill="url(#paint12_linear)" d="M905.94 565.858c-1.295-9.063-1.85-18.496 1.109-27.189 2.775-8.693 9.433-16.646 18.311-18.866 10.728-2.774 22.38 3.145 29.223 11.838 7.029 8.693 10.358 19.605 13.502 30.333-3.884-14.612-7.953-29.778-6.658-44.945 1.294-15.166 8.693-30.703 22.38-37.361 13.686-6.659 33.293-.925 37.913 13.502 1.11 3.514 1.3 7.028 1.48 10.727.74 11.098 1.48 22.195 2.04 33.292 2.59-22.934 17.57-44.019 38.47-54.007 10.73-5.179 25.52-6.659 33.11 2.589 6.28 7.584 4.62 18.866 1.66 28.114-3.14 9.433-7.4 18.865-5.73 28.668 1.11-12.392 14.05-22.195 26.08-19.975.73 10.542 1.47 21.085 2.21 31.627 1.3-15.906 15.73-29.778 31.63-30.148 15.91-.554 31.26 12.208 33.66 28.114 1.85 12.947-3.88 25.524-9.8 36.991-13.5 26.079-29.59 52.343-54.93 67.14-26.26 15.351-58.45 15.721-88.78 15.906-29.78 0-62.515-.74-85.265-19.975-11.467-9.803-16.831-22.75-23.86-35.697-8.508-16.276-15.166-32.552-17.755-50.678z"/><path fill="url(#paint13_linear)" d="M147.43 533.12c-1.294-9.062-1.849-18.495 1.11-27.188 2.775-8.693 9.433-16.646 18.311-18.866 10.727-2.774 22.38 3.144 29.223 11.837 6.844 8.693 10.358 19.606 13.502 30.333-3.884-14.611-7.953-29.778-6.658-44.944 1.294-15.167 8.693-30.703 22.379-37.362 13.687-6.658 33.293-.924 37.917 13.502 1.109 3.515 1.294 7.029 1.479 10.728.74 11.097 1.48 22.195 2.035 33.292 2.589-22.935 17.571-44.02 38.471-54.007 10.727-5.179 25.524-6.659 33.107 2.589 6.289 7.583 4.624 18.866 1.665 28.114-3.145 9.432-7.399 18.865-5.734 28.668 1.11-12.392 14.057-22.195 26.079-19.975.74 10.542 1.48 21.085 2.22 31.627 1.294-15.906 15.721-29.778 31.627-30.148 15.907-.555 31.258 12.207 33.662 28.114 1.85 12.947-3.884 25.524-9.802 36.991-13.502 26.079-29.593 52.343-54.933 67.139-26.264 15.352-58.446 15.722-88.779 15.907-29.778 0-62.515-.74-85.265-19.976-11.468-9.802-16.831-22.749-23.86-35.696-8.508-16.277-15.166-32.553-17.756-50.679z"/><path fill="url(#paint14_linear)" d="M-53.2479 625.784c-1.2947-9.063-1.8496-18.496 1.1097-27.189 2.7744-8.693 9.4329-16.646 18.3108-18.865 10.7275-2.775 22.3798 3.144 29.22321 11.837 7.02836 8.693 10.3576 19.605 13.50187 30.333-3.8841-14.612-7.953153-29.778-6.65845-44.945 1.2947-15.166 8.69297-30.703 22.37977-37.361 13.6869-6.659 33.2923-.925 37.9162 13.502 1.1098 3.514 1.2947 7.028 1.4797 10.727.7398 11.098 1.4796 22.195 2.0345 33.293 2.5894-22.935 17.5709-44.02 38.4706-54.008 10.728-5.179 25.525-6.658 33.108 2.589 6.288 7.584 4.624 18.866 1.664 28.114-3.144 9.433-7.398 18.866-5.733 28.668 1.109-12.392 14.056-22.195 26.079-19.975.74 10.543 1.479 21.085 2.219 31.628 1.295-15.907 15.722-29.778 31.628-30.148 15.906-.555 31.258 12.207 33.662 28.113 1.85 12.947-3.884 25.524-9.803 36.992-13.502 26.078-29.593 52.342-54.932 67.139-26.264 15.351-58.446 15.721-88.7794 15.906-29.778 0-62.5154-.74-85.2652-19.975-11.4673-9.803-16.8311-22.75-23.8594-35.697-8.508-16.276-15.1665-32.552-17.7559-50.678z"/><path fill="url(#paint15_linear)" d="M921.846 696.253c20.53-22.195 32.552-52.158 32.922-82.306 0-6.289-.37-12.762-3.144-18.311-2.774-5.549-8.508-10.173-14.797-9.803-5.363.185-9.987 3.699-12.947 8.138-2.959 4.439-4.439 9.618-5.918 14.612 3.699-16.091 4.624-32.737 2.774-49.199-.925-7.583-3.699-16.461-10.912-18.495-5.179-1.295-10.728 1.664-13.872 6.103-3.144 4.254-4.439 9.618-5.734 14.982 24.045-76.572-19.79-99.877-29.408-49.384-8.693-21.085-16.646-92.848-54.192-75.462-37.547 17.201 7.213 77.682 17.571 94.143-8.693-7.213-36.992-29.038-46.61-14.797-14.056 20.716 19.976 50.124 46.794 72.134-10.727-4.809-22.009-9.618-33.662-9.063-11.837.555-24.044 8.508-25.524 20.16-1.295 9.988 5.549 19.236 12.762 26.449 16.461 16.461 36.992 28.668 59.371 35.142-7.583-.37-15.536-.555-22.564 2.404-7.029 2.959-13.502 9.988-12.207 17.571 8.323 45.869 117.077 21.455 119.297 14.982z"/><path fill="#00804F" d="M907.419 569.002c-4.439 22.195-10.727 44.02-15.166 66.215-6.844-15.722-13.687-31.258-20.716-46.979 2.59-22.38 2.405-45.315 2.22-67.695 0-.924-1.48-1.109-1.48-.185-.37 21.085-2.404 41.986-2.959 62.886-19.791-44.39-39.766-88.595-59.001-133.169-.185-.37-.925-.185-.74.37 17.756 43.279 35.327 86.929 53.637 130.209-17.756-13.502-37.546-24.599-55.302-38.101-.37-.185-.555.185-.37.37 17.756 14.612 36.437 30.703 57.152 41.061 7.768 18.31 15.721 36.436 23.859 54.562-24.044-6.474-47.533-8.878-69.543-22.01-.555-.37-.925.37-.555.74 20.53 13.132 46.609 21.64 71.023 23.489 8.138 17.756 16.277 35.512 24.785 53.083.739 1.48 2.959.37 2.219-1.11-7.583-18.31-15.351-36.436-23.305-54.562 7.954-21.825 11.468-46.424 14.057-69.544.555.185.185.185.185.37z" opacity=".64"/><path fill="url(#paint16_linear)" d="M442.437 647.609c5.364-4.254 10.358-9.988 10.913-16.831.74-6.844-4.624-14.427-11.468-14.057 6.659-.555 13.687-1.11 19.606-4.254 5.918-3.144 10.912-9.248 10.357-15.906-.554-6.659-8.323-12.392-14.241-9.433 6.473-1.85 13.132-3.884 18.495-7.768 5.549-3.884 9.618-10.358 9.248-17.016-.37-6.474-5.363-12.208-11.652-14.612-6.104-2.22-13.132-1.48-19.051 1.295 9.433-7.399 18.681-15.537 24.97-25.709 6.288-10.173 9.617-22.75 6.658-34.402-2.959-11.653-13.132-21.825-24.969-22.565-13.872-.925-26.079 10.172-31.258 22.934-4.994 12.947-4.439 27.189-3.699 41.061.185-11.097-13.132-18.866-23.675-15.721-10.542 3.144-17.201 14.426-17.94 25.339-.74 11.097 3.329 21.825 8.323 31.627-3.699-11.097-16.277-18.31-27.929-16.646-11.652 1.665-21.455 11.283-24.044 22.75-2.59 11.467 25.894 78.237 25.894 78.237s60.296 3.699 75.462-8.323z"/><path fill="#003C67" d="M422.647 587.128c19.236-32.738 35.882-69.914 43.465-107.275 0-.185-.185-.185-.185 0-7.213 17.571-12.022 36.066-19.236 53.637-7.398 18.126-16.091 35.512-26.079 52.343-19.79 33.107-44.389 61.776-71.393 88.964-.74.74.37 2.035 1.295 1.295 28.668-24.784 52.712-56.042 72.133-88.964z" opacity=".52"/><path fill="url(#paint17_linear)" d="M513.646 729.36c21.27-7.583 39.58-23.49 50.123-43.465 2.219-4.069 4.069-8.693 4.069-13.317 0-4.624-2.219-9.618-6.473-11.652-3.515-1.665-7.954-.925-11.468.925-3.514 1.849-6.288 4.809-9.063 7.768 7.953-9.433 14.242-20.345 18.681-31.813 2.035-5.363 3.329-12.207-.925-16.091-2.959-2.589-7.768-2.589-11.282-.74-3.514 1.85-6.289 4.994-8.878 7.953 42.355-42.725 21.27-73.243-2.59-42.91 1.48-17.016 20.716-67.509-10.172-68.804-30.888-1.479-21.825 54.193-20.53 68.619-3.33-7.768-14.612-31.997-26.079-25.894-16.462 8.878-3.884 40.136 6.473 63.995-5.549-6.843-11.282-13.871-19.42-17.57-7.953-3.7-18.866-2.59-23.86 4.624-4.254 6.288-2.959 14.611-.555 21.824 5.364 16.647 14.797 31.813 27.374 43.835-4.994-2.774-10.173-5.733-15.906-6.103-5.734-.555-12.392 2.034-14.057 7.398-9.988 33.847 70.838 54.932 74.538 51.418z"/><path fill="#00804F" d="M547.677 639.841c-10.542 13.132-22.379 25.524-32.922 38.841.925-12.762 1.665-25.524 2.405-38.287 9.432-13.871 17.016-29.408 24.784-44.389.37-.555-.555-1.295-.925-.555-7.583 13.872-15.906 27.189-23.49 40.875 2.035-36.251 3.885-72.688 6.474-108.939 0-.37-.555-.37-.555 0-3.144 34.957-6.473 69.913-9.063 105.055-7.213-14.981-16.461-29.223-23.674-44.389-.185-.185-.555 0-.37.185 6.843 15.906 13.687 32.922 23.859 46.979-1.11 14.796-2.034 29.593-2.774 44.574-13.687-12.577-28.483-22.195-38.656-38.471-.185-.37-.74 0-.555.37 9.248 15.906 23.49 30.518 39.211 40.136-.74 14.611-1.295 29.223-1.665 43.835 0 1.294 1.85 1.294 1.85 0 1.295-14.797 2.219-29.593 3.329-44.205 12.762-11.837 23.675-27.004 33.292-41.43-.37-.185-.555-.37-.555-.185z" opacity=".64"/><path fill="url(#paint18_linear)" d="M1111.61 630.223c-24.41-14.982-44.94-36.067-59.37-60.851-4.62-7.953-8.69-16.461-10.17-25.709-1.48-9.063 0-19.051 5.55-26.449 5.55-7.398 15.53-11.837 24.41-9.433-7.03-11.467-14.24-23.119-16.83-36.251-2.77-13.132-.18-28.114 9.8-37.177 9.99-9.063 28.12-8.878 35.33 2.405-5.18-9.063-5.55-21.27.74-29.593 7.4-9.618 22.01-11.653 33.11-6.474 11.09 5.179 18.49 15.906 22.38 27.559 3.88 11.467 4.44 23.859 5.18 35.881.18-11.097 10.72-20.345 21.64-21.085 11.09-.74 21.64 5.734 28.11 14.797 6.47 9.063 8.88 20.345 9.62 31.258 1.48 26.079-7.77 52.527-24.97 72.133-.19.185-83.42 67.694-84.53 68.989z"/><path fill="#003F55" d="M1112.35 646.684c8.32-39.396 13.5-78.792 14.8-118.002-23.12-14.242-39.58-35.327-56.04-56.597-.19-.37.18-.74.55-.37 16.65 20.16 33.66 39.581 55.67 54.007.93-37.176-1.85-74.538-9.24-112.084-.19-.74 1.11-1.11 1.29-.185 3.14 14.427 5.55 29.223 7.4 44.02 2.4-3.699 5.36-7.213 7.77-11.097 2.77-4.994 5.36-10.173 7.21-15.352.18-.74 1.11-.37.92.37-1.11 5.179-2.77 9.988-5.17 14.797-1.3 2.404-2.59 4.809-4.07 7.028-1.48 2.22-4.44 4.809-4.81 7.398-.19.74-.74 1.11-1.3.925 3.7 29.408 5 59.371 3.52 89.149 24.78-19.05 47.9-42.91 57.33-73.243.19-.554.74-.37.74.185-.37 16.092-10.54 29.963-20.34 41.801-10.91 13.317-23.31 25.709-38.1 34.772-1.85 31.812-6.85 63.255-15.54 93.588-.55 1.664-2.96.555-2.59-1.11z" opacity=".52"/><path fill="url(#paint19_linear)" d="M1088.86 604.514c20.16-14.242 34.77-36.252 40.14-60.296 1.11-4.994 1.85-10.173.55-15.167-1.29-4.994-5.18-9.432-10.17-10.357-4.25-.74-8.69 1.294-11.84 4.439-3.14 2.959-5.18 6.843-7.21 10.727 5.55-12.207 9.06-25.524 10.36-39.026.55-6.288-.19-13.872-5.74-16.646-3.88-1.849-8.87-.37-12.2 2.59-3.33 2.959-5.18 7.028-7.03 10.912 3.51-14.057 5.18-28.668 4.99-43.095 0-5.179-.55-10.728-4.25-14.427-3.7-3.514-12.76-6.288-16.09 13.132-3.52-18.31-8.51-36.436-14.8-53.822-2.77-7.583-7.95-16.461-15.91-15.537-7.95.74-11.28 10.728-11.83 18.681-1.11 15.906 4.8 44.575 10.35 59.556-5.73-7.213-24.78-29.408-34.95-19.605-14.615 14.241 7.58 43.465 25.52 65.475-7.77-5.549-16.09-11.283-25.52-12.947-9.436-1.48-20.719 2.774-23.678 11.837-2.589 7.768 1.295 16.276 5.734 23.119 10.357 15.907 24.964 29.039 41.614 38.102-6.1-1.48-12.39-2.96-18.49-1.85-6.11 1.11-12.582 5.734-12.582 12.022-.924 38.471 90.262 36.992 93.032 32.183z"/><path fill="#00706D" d="M1098.48 500.383c-7.21 17.016-15.91 33.477-23.12 50.493-2.77-13.687-5.73-27.373-8.69-41.06 5.92-17.386 9.43-35.882 13.13-53.823.18-.74-.93-1.109-1.11-.37-3.89 16.646-8.88 33.108-12.76 49.939-8.51-38.841-17.02-77.497-24.97-116.338 0-.37-.74-.185-.56.185 6.85 37.731 13.69 75.462 21.27 113.193-12.02-13.686-25.89-25.894-37.91-39.765-.19-.185-.56.185-.37.37 11.83 14.796 24.04 30.702 38.84 42.355 3.14 15.906 6.47 31.812 9.99 47.719-18.13-9.248-36.63-14.982-51.98-29.224-.37-.369-.92.185-.55.555 14.24 14.057 33.66 25.154 52.9 30.703 3.51 15.537 7.02 31.258 11.09 46.609.37 1.295 2.22.74 2.04-.555-2.96-15.906-6.29-31.627-9.44-47.533 9.99-16.277 17.02-35.327 22.94-53.268-.37-.37-.74-.37-.74-.185z"/><path fill="url(#paint20_linear)" d="M954.661 737.342s-28.668-109.124-28.483-187.916c0-48.274 2.219-104.871 31.257-143.342 22.75-30.148 55.305-13.132 64.185 17.386 12.39 42.17 2.21 104.871-6.66 147.411-17.019 83.046-60.299 166.461-60.299 166.461z"/><path fill="#007683" d="M1019.58 463.236c-19.42 22.01-37.175 45.314-53.267 69.914.37-3.885.74-7.954 1.11-11.838 16.831-25.709 34.777-50.678 53.457-74.907 0 0 0-.185-.19-.185-18.86 22.565-36.436 45.869-52.897 70.283 4.069-36.066 9.433-71.948 14.982-108.014 0-.185-.37-.37-.37-.185-1.85 10.357-3.7 20.715-5.364 31.257-.925-9.987-2.405-19.79-4.069-29.778 0-.185-.185 0-.185 0 1.665 10.543 2.959 21.27 3.884 31.813-6.659 40.32-12.392 80.641-15.536 121.332-5.549-34.032-13.317-67.88-22.565-101.172h-.185c9.063 34.772 16.276 69.914 22.38 105.426-.37 4.439-.555 8.878-.925 13.317l-.555 11.097c-6.288-37.361-17.016-73.983-24.414-110.974 0-.185-.185 0-.185 0 8.693 38.841 13.687 78.607 24.229 117.078-3.329 54.562-6.843 109.679-6.473 164.241 0 1.11 1.664 1.11 1.849 0 3.884-42.54 4.994-85.265 6.289-127.99 21.27-14.981 34.957-39.766 47.72-61.775.18-.37-.37-.555-.56-.37-13.683 22.194-27.925 42.17-47.16 59.741.185-4.439.37-8.878.37-13.502 19.79-20.9 35.326-44.945 49.01-70.284 0-.185-.18-.185-.18-.185-13.504 24.23-30.52 46.239-48.645 66.955.37-10.173.739-20.346 1.294-30.518.74-15.907 2.035-31.628 3.514-47.534 16.462-25.524 34.407-50.124 53.827-73.428.18.37 0 0-.19.185z"/><path fill="url(#paint21_linear)" d="M297.43 652.788c5.919-21.455 16.646-42.355 34.032-56.412 29.594-24.045 71.579-24.414 109.31-19.606 10.543 1.295 21.825 3.33 29.038 11.098 7.399 8.138 8.323 20.345 7.584 31.258-2.405 30.517-14.797 59.926-35.142 82.86-20.346 22.75-48.089 38.841-78.052 44.575-13.687 2.774-28.114 3.329-41.431-.925-13.316-4.069-30.148-15.906-33.107-30.518-4.069-17.756 3.144-44.944 7.768-62.33z"/><path fill="#003F55" d="M468.701 601.185c-8.693 4.069-17.386 8.323-26.079 12.762 4.439-6.659 7.583-14.427 10.542-21.825.185-.37-.37-.555-.555-.185-3.699 8.323-8.692 15.721-13.131 23.674-.925.37-1.85.925-2.775 1.295 5.734-8.508 8.693-18.496 11.652-28.298 0-.185-.184-.185-.369 0-3.885 10.727-7.954 21.085-14.982 30.148-20.53 10.357-40.875 21.27-60.296 33.477 3.699-20.53 6.104-40.506 12.762-60.481.185-.37-.37-.555-.555-.185-7.398 19.42-14.241 40.875-14.241 61.961-4.624 2.959-9.248 6.103-13.872 9.247 2.774-22.749 5.363-44.574 11.652-66.954.185-.555-.555-.555-.74-.185-7.768 21.455-13.687 45.869-13.502 68.804-3.884 2.589-7.583 5.364-11.282 8.138-12.022 9.063-23.86 19.051-34.402 30.333 1.665-9.988 2.219-20.16 4.254-30.148 2.404-12.022 6.104-23.674 10.542-35.142 0-.185-.369-.37-.369-.185-9.618 20.161-19.421 45.87-17.571 68.804-16.092 17.941-29.039 38.656-34.402 62.146-.555 2.219 2.589 2.959 3.329.925 11.097-28.299 27.558-52.158 48.274-72.688 20.345-1.295 42.91 7.953 61.59 14.056 1.11.37 1.665-1.294.74-1.664-11.097-5.549-22.935-8.878-34.957-11.468-8.323-1.664-16.831-3.329-25.154-2.959 1.665-1.665 3.329-3.144 4.994-4.809 25.524-1.295 49.014 6.844 73.613 12.947 1.11.37 1.48-1.295.555-1.665-22.935-8.877-48.089-15.351-72.688-12.577 7.028-6.288 14.426-12.207 22.195-17.94 11.652-8.324 23.674-16.277 36.066-23.86 14.242 3.699 28.668 9.803 41.246 17.386.185.185.369-.185.185-.37-9.803-9.248-25.525-16.276-39.026-18.496 3.699-2.219 7.398-4.439 10.912-6.658 7.213 1.11 14.057 1.85 20.9 4.809 6.659 2.959 12.947 6.658 19.051 10.358.925.554 1.479-.74.74-1.295-10.173-7.399-23.675-17.201-36.992-16.092 8.508-4.993 17.201-9.802 25.709-14.611.185 0 .185 0 .37-.185 12.207-6.659 24.23-13.132 36.437-19.605.924-.185.37-1.11-.37-.74z" opacity=".52"/><path fill="url(#paint22_linear)" d="M1088.12 699.952c-18.49-11.838-34.77-28.114-43.09-48.459-13.87-34.772-2.04-74.353 13.5-108.385 4.25-9.433 9.43-19.605 18.86-24.044 9.81-4.624 21.46-1.85 31.63 2.034 27.93 11.098 51.98 31.443 67.51 57.152 15.54 25.709 22.38 56.597 19.05 86.375-1.48 13.687-5.18 27.373-12.94 38.656-7.77 11.282-23.86 23.674-38.48 22.195-17.75-1.48-41.24-15.907-56.04-25.524z"/><path fill="#003F55" d="M1089.6 524.057c1.3 9.433 2.78 18.866 4.26 28.114-5-6.104-11.29-11.467-17.39-16.276-.18-.185-.55.185-.37.37 6.66 5.918 12.21 12.762 18.31 19.235.19.925.37 2.035.56 2.959-6.29-7.953-14.8-13.686-23.31-19.235-.18-.185-.37.185-.18.185 8.87 6.658 17.57 13.687 24.04 22.75 3.7 22.194 8.14 44.574 13.87 66.399-18.12-9.433-36.25-17.571-53.08-29.593-.37-.185-.56.185-.37.555 16.09 12.577 34.4 25.339 54.01 31.628 1.48 5.363 2.96 10.542 4.62 15.721-20.53-9.248-40.32-18.126-59.37-30.518-.37-.185-.74.37-.37.555 17.94 13.502 39.03 26.264 60.67 32.737 1.29 4.439 2.77 8.693 4.25 12.947 4.99 13.872 10.91 27.929 18.5 41.246-8.88-4.439-18.31-7.953-27.01-12.762-10.54-5.919-20.53-12.577-29.78-20.161-.18-.185-.37.185-.37.37 16.28 14.982 37.37 31.628 59.56 36.622 12.21 20.345 27.74 38.471 48.27 50.493 2.04 1.11 3.52-1.48 1.85-2.959-23.3-18.681-40.87-41.061-54.19-66.585 4.81-19.605 19.98-37.916 31.07-53.637.56-.925-.74-2.035-1.48-1.295-8.32 8.878-15.16 18.866-20.9 29.593-4.06 7.213-8.13 14.797-9.98 22.75-1.11-2.035-2.04-4.069-2.96-6.104 6.1-24.414 20.71-44.205 33.66-65.29.55-.924-.74-1.849-1.48-.924-14.98 18.865-28.48 40.69-33.11 64.55-3.88-8.324-7.21-17.017-10.36-26.079-4.43-13.317-8.32-27.004-11.83-40.876 7.77-12.207 17.57-24.044 28.48-33.477.19-.185 0-.555-.18-.37-11.47 6.473-22.75 19.051-28.86 31.258-1.11-4.069-2.03-8.138-2.96-12.207 3.15-6.474 5.92-12.578 10.73-18.126 4.62-5.364 9.99-10.173 15.17-14.982.74-.555-.19-1.664-.93-1.11-9.99 7.399-22.93 17.201-25.89 30.148-2.22-9.432-4.26-18.865-6.11-28.483v-.37c-2.77-13.317-5.17-26.634-7.76-39.951-.37-.924-1.3-.554-1.3.185z" opacity=".52"/><path fill="url(#paint23_linear)" d="M170.55 667.584c31.073-57.336 15.167-110.419-4.439-159.248-4.994-12.392-11.097-24.784-20.715-34.217-9.618-9.248-23.49-15.166-36.621-12.392-14.982 3.144-26.0794 16.831-29.2237 31.628-3.1442 14.981.9248 30.518 7.9532 44.019-4.8089-5.363-9.8027-10.912-16.2762-14.056-6.4735-3.33-14.7966-3.884-20.5303.555-7.3983 5.548-7.7682 16.461-6.4735 25.709 2.4045 18.68 8.693 36.991 18.1258 53.452-3.5142-5.734-7.2133-11.652-12.5771-15.906-5.3637-4.254-12.5771-6.659-19.0505-4.439-6.4735 2.219-10.5426 8.693-11.8373 15.351-1.2947 6.659-.1849 13.502 1.8496 19.976 24.5993 81.566 107.83 91.184 107.83 91.184s23.305-6.844 41.985-41.616z"/><path fill="#00804F" d="M102.116 500.013c-.185-.555-1.295-.37-.925.37 11.283 39.951 23.49 78.792 30.148 119.852 6.844 41.8 7.768 83.601 11.468 125.586.184 2.035 2.774 1.85 2.959 0 3.884-40.876-2.035-83.601-9.248-123.736-7.583-41.061-17.386-83.786-34.402-122.072z" opacity=".64"/><path fill="url(#paint24_linear)" d="M683.991 726.77c59.371-26.818 78.792-78.791 92.664-129.655 3.514-12.947 6.103-26.448 4.069-39.765-2.035-13.317-9.618-26.264-21.64-31.998-13.687-6.658-31.073-2.404-42.356 7.583-11.282 9.988-17.755 24.97-20.16 39.951-.555-7.213-1.295-14.612-4.439-21.085-3.144-6.474-9.433-12.022-16.646-12.022-9.248 0-16.091 8.508-20.715 16.646-9.433 16.461-15.537 34.772-17.941 53.452.555-6.843 1.295-13.686-.37-20.345-1.664-6.658-5.919-12.947-12.392-14.981-6.473-2.035-13.687.555-18.681 4.994-4.994 4.623-8.323 10.727-10.727 17.016-29.778 79.901 30.703 137.793 30.703 137.793s22.749 8.693 58.631-7.584z"/><path fill="#007683" d="M698.048 641.505c25.894-7.768 48.089-27.743 62.515-50.123.185-.37-.369-.74-.554-.37-15.352 22.38-35.882 36.252-60.111 46.794 12.762-27.743 24.044-56.782 30.887-86.005.185-.555-.739-1.11-.924-.37-14.797 37.916-28.484 75.648-47.349 111.714-5.734-23.489-8.693-46.794-7.584-71.208 0-.185-.37-.185-.37 0-1.294 24.229.74 49.014 7.214 72.503-.185.185-.185.37-.37.555-9.988 19.05-21.27 36.991-32.922 54.932-15.907-29.038-24.23-62.885-21.086-95.993 0-.184-.185-.184-.185 0-3.144 34.402 2.405 67.695 19.236 98.213.185.185.185.37.37.37-10.728 16.461-21.64 32.737-32.183 49.568-1.109 1.665 1.11 3.144 2.405 1.85 20.16-22.01 36.806-47.904 51.603-74.353 28.668-11.652 57.891-25.894 77.312-50.863.37-.37-.185-.925-.555-.555-19.42 24.414-47.349 36.621-75.278 48.644 4.994-9.063 9.803-18.126 14.242-27.189 4.624-9.248 9.248-18.681 13.687-28.114z" opacity=".4"/><path fill="url(#paint25_linear)" d="M580.97 722.886c-19.235-11.652-47.904-20.715-71.208-31.072-30.333-13.502-41.986-41.061-30.148-54.748 11.837-13.686 40.69-9.247 59.186 13.317 23.674 28.854 42.17 72.503 42.17 72.503z"/><path fill="#008380" d="M585.039 727.695c-27.928-28.853-57.891-55.857-88.039-82.305-.185-.185-.555.184-.37.369 29.408 27.559 59.001 54.748 86.744 83.601l1.665-1.665z"/><path fill="url(#paint26_linear)" d="M582.634 735.464c-7.398-26.819-25.524-59.742-37.731-88.965-15.721-38.101-2.774-72.873 19.606-75.092 22.379-2.22 44.574 26.448 41.985 62.515-3.144 46.424-23.86 101.542-23.86 101.542z"/><path fill="#008380" d="M582.265 743.417c-.37-49.939-4.439-99.877-8.878-149.261 0-.37-.555-.185-.555.185 2.959 49.939 6.288 99.692 6.658 149.445.74-.184 1.665-.369 2.775-.369z"/><path fill="url(#paint27_linear)" d="M347.369 502.048c-52.528 21.085-174.23 107.83-132.799 242.109 0 0 75.277-19.236 103.021-100.247 18.68-54.008 29.963-115.228 29.778-141.862z"/><path fill="#007A52" d="M214.385 787.067c.925-31.258 7.583-60.296 17.941-88.595h.185c22.01-7.213 44.389-11.097 66.954-15.536.185 0 .185-.37 0-.37-22.38 0-44.39 4.809-65.475 11.467.185-.37.37-.925.555-1.295 11.652-3.329 23.12-7.398 35.142-10.357 11.282-2.589 22.935-3.699 34.217-6.289.555-.185.555-.924 0-.924-21.64-.74-47.349 4.624-67.694 13.501 4.994-12.577 10.912-25.154 17.201-37.546.74-1.48 1.479-2.959 2.219-4.439 22.935-8.693 46.425-15.166 69.729-22.565.555-.185.37-.924-.185-.924-22.935 2.959-45.499 10.357-66.954 18.865 1.479-2.774 2.774-5.548 4.254-8.323 22.38-7.768 44.019-16.646 66.769-23.674.185 0 0-.185 0-.185-22.01 5.363-44.39 11.652-65.105 21.085 2.775-5.179 5.734-10.543 8.693-15.722.37-.184.74-.554.74-1.109 17.386-31.073 36.622-61.036 58.632-88.965.369-.369-.37-.924-.555-.37-18.866 22.75-35.882 46.795-51.233 71.764.184-12.947-4.809-27.929-11.283-38.471-.185-.37-.555 0-.555.37 2.22 7.398 4.809 14.796 6.289 22.379 1.295 6.659 1.479 13.502 2.959 19.976-1.664 2.774-3.329 5.549-4.994 8.323-2.774-16.091-4.254-31.998-11.467-46.979 0-.185-.185 0-.185 0 5.919 16.276 6.843 33.662 9.433 50.678-7.398 12.762-14.427 25.709-21.27 38.656-4.439 8.508-8.508 16.831-12.392 25.524-2.22-6.473-6.659-12.022-9.803-18.126-3.699-7.028-6.474-14.241-9.248-21.64-.555-1.664-3.144-1.294-3.329.37-.74 7.029 3.144 15.907 6.288 22.01 3.515 7.398 7.954 16.091 14.242 21.27 0 0 .185 0 .185.185-14.612 33.477-24.414 68.249-23.674 105.981-.74 1.849 2.589 1.849 2.774 0z" opacity=".66"/><path fill="url(#paint28_linear)" d="M1076.84 531.641c-52.53 21.085-174.23 107.83-132.799 242.109 0 0 75.279-19.236 103.019-100.247 18.68-54.193 29.96-115.413 29.78-141.862z"/><path fill="#007A52" d="M943.671 816.475c.925-31.258 7.583-60.296 17.941-88.595h.184c22.01-7.213 44.394-11.097 66.954-15.536.19 0 .19-.37 0-.37-22.38 0-44.389 4.809-65.474 11.467.185-.37.37-.924.555-1.294 11.652-3.329 23.12-7.399 35.142-10.358 11.287-2.589 22.937-3.699 34.217-6.288.55-.185.55-.925 0-.925-21.64-.74-47.349 4.624-67.694 13.502 4.993-12.577 10.912-25.154 17.201-37.547.74-1.479 1.479-2.959 2.219-4.439 22.934-8.693 46.424-15.166 69.724-22.564.56-.185.37-.925-.18-.925-22.93 2.959-45.5 10.357-66.954 18.865 1.479-2.774 2.774-5.548 4.254-8.323 22.38-7.768 44.02-16.646 66.77-23.674.18 0 0-.185 0-.185-22.01 5.364-44.39 11.652-65.106 21.085 2.775-5.179 5.734-10.543 8.696-15.721.37-.185.74-.555.74-1.11 17.38-31.073 36.62-61.036 58.63-88.964.37-.37-.37-.925-.56-.37-18.86 22.749-35.88 46.794-51.23 71.763.19-12.947-4.81-27.928-11.282-38.471-.185-.37-.555 0-.555.37 2.217 7.398 4.807 14.796 6.287 22.38 1.3 6.658 1.48 13.502 2.96 19.975-1.66 2.774-3.33 5.549-4.99 8.323-2.777-16.091-4.257-31.997-11.47-46.979 0-.185-.185 0-.185 0 5.918 16.276 6.843 33.662 9.433 50.678-7.399 12.762-14.427 25.709-21.27 38.656-4.439 8.508-8.508 16.831-12.392 25.524-2.22-6.473-6.659-12.022-9.803-18.125-3.699-7.029-6.474-14.242-9.248-21.64-.555-1.665-3.144-1.295-3.329.369-.74 7.029 3.144 15.907 6.288 22.01 3.514 7.399 7.953 16.092 14.242 21.27 0 0 .185 0 .185.185-14.612 33.478-24.414 68.25-23.675 105.981-.555 1.849 2.775 1.849 2.775 0z" opacity=".66"/><path fill="url(#paint29_linear)" d="M775.175 556.98c54.562 14.796 185.697 86.375 160.358 224.723 0 0-76.942-10.173-114.119-87.3-24.969-51.603-43.28-110.974-46.239-137.423z"/><path fill="#007A52" d="M940.896 824.243c-4.623-30.888-14.611-59.001-28.298-85.82h-.185c-22.75-4.439-45.314-5.734-68.434-7.398-.185 0-.185-.37 0-.37 22.195-2.59 44.575-.37 66.4 3.699-.185-.37-.37-.925-.555-1.295-12.022-2.034-23.86-4.624-36.067-6.104-11.467-1.294-23.12-.924-34.587-2.219-.555 0-.74-.925-.185-.925 21.455-3.329 47.534-.925 68.804 5.364-6.473-12.022-13.687-23.675-21.64-35.327-.925-1.295-1.849-2.774-2.774-4.069-23.86-5.918-47.719-9.618-71.763-14.242-.555-.185-.37-.924.184-.924 23.12.185 46.425 4.809 68.805 10.727-1.665-2.589-3.515-5.179-5.179-7.583-23.12-5.179-45.685-11.282-68.989-15.537-.185 0-.185-.184 0-.184 22.379 2.774 45.499 6.473 67.139 13.131-3.514-4.808-6.843-9.802-10.357-14.611-.37-.185-.74-.555-.74-1.11-20.9-28.668-43.465-56.227-68.804-81.381-.37-.37.185-.925.555-.555 21.455 20.345 41.06 42.17 59.371 65.29-1.85-12.947 1.479-28.298 6.658-39.396.185-.37.555 0 .555.185-1.295 7.583-2.959 15.167-3.699 22.935-.555 6.658.185 13.502-.555 20.16 2.035 2.59 4.069 5.179 5.919 7.768.74-16.276.37-32.367 5.918-48.089 0-.184.185 0 .185 0-4.069 16.832-2.774 34.218-3.329 51.419 8.878 11.837 17.386 23.674 25.709 35.881 5.364 7.768 10.543 15.722 15.351 23.86 1.48-6.659 5.179-12.762 7.584-19.051 2.774-7.398 4.624-14.981 6.658-22.565.37-1.664 2.959-1.664 3.329 0 1.665 6.844-1.294 16.092-3.514 22.565-2.774 7.768-5.918 16.831-11.652 22.75l-.185.185c18.496 31.627 32.183 64.92 35.882 102.281 0 2.035-3.145 2.404-3.515.555z" opacity=".66"/><path fill="url(#paint30_linear)" d="M1015.8 718.077c12.4-18.68 22.94-46.979 34.22-69.913 14.8-29.778 42.91-40.136 56.04-27.744 13.14 12.392 7.4 41.061-15.9 58.631-29.78 22.565-74.36 39.026-74.36 39.026z"/><path fill="#008380" d="M1010.81 721.961c30.15-26.633 58.45-55.302 86.19-84.155.19-.185-.18-.555-.37-.37-28.85 28.113-57.34 56.412-87.48 83.046.55.555 1.11.925 1.66 1.479z"/><path fill="url(#paint31_linear)" d="M942.376 743.047c-12.577-24.784-36.991-53.268-54.747-79.532-23.12-34.217-17.386-70.838 4.069-77.497 21.455-6.658 49.014 16.831 53.823 52.713 6.103 46.239-3.145 104.316-3.145 104.316z"/><path fill="#008380" d="M943.486 750.815c-10.542-48.829-24.414-96.918-38.841-144.452-.185-.37-.74-.185-.555.185 12.947 48.274 26.264 96.363 36.807 145.192.74-.37 1.664-.555 2.589-.925z"/><path fill="url(#paint32_linear)" d="M723.017 733.614c13.502-24.414 23.49-60.481 35.142-89.889 15.351-38.286 49.014-54.193 66.585-40.136 17.571 14.057 13.316 49.939-13.687 73.983-34.772 31.073-88.04 56.042-88.04 56.042z"/><path fill="#008380" d="M717.283 738.978c34.587-35.882 66.585-74.538 98.028-113.009.185-.37-.185-.555-.555-.37-32.738 37.731-65.105 75.648-99.692 111.714.74.37 1.48.925 2.219 1.665z"/><path fill="url(#paint33_linear)" d="M178.416 712.369c-19.236-11.653-47.904-20.716-71.209-31.073-30.3328-13.502-41.9851-41.061-30.1479-54.747 11.8373-13.687 40.6909-9.248 59.1859 13.316 23.675 28.854 42.171 72.504 42.171 72.504z"/><path fill="#008380" d="M182.485 717.178c-27.929-28.854-57.892-55.857-88.0398-82.306-.1849-.185-.5548.185-.3699.37 29.4077 27.558 59.0017 54.747 86.7447 83.6.74-.555 1.11-1.11 1.665-1.664z"/><path fill="url(#paint34_linear)" d="M192.472 712.739c-7.398-26.819-25.524-59.741-37.731-88.965-15.721-38.101-2.774-72.873 19.606-75.092 22.379-2.22 44.574 26.449 41.985 62.515-3.144 46.424-23.86 101.542-23.86 101.542z"/><path fill="#008380" d="M192.102 720.692c-.369-49.939-4.438-99.877-8.877-149.261 0-.37-.555-.185-.555.185 2.959 49.939 6.288 99.692 6.658 149.446.74-.185 1.85-.37 2.774-.37z"/><path fill="url(#paint35_radial)" d="M-138.607-175.109H1301.39v1024H-138.607v-1024z" opacity=".51"/><path fill="url(#paint36_linear)" d="M1165.62-124.587L614.632 821.654H273.201L1085.9-124.587h79.72zm57.15 30.1481L688.43 884.724l92.479 7.398L1245.34-85.376l-22.57-9.0629zM342.375-137.164L-6.63858 213.515l-6.47352 135.018S390.834-108.496 393.424-114.599l-51.049-22.565zm120.407 24.599L-55.8372 524.242 6.30841 578.62 516.975-112.565h-54.193zm256.536 0c-8.323 6.104-743.1576 827.868-743.1576 827.868L129.12 813.515l631.998-938.102-41.8 12.022z" opacity=".44"/><path fill="url(#paint37_linear)" d="M1303.04 284.28H-140.829v467.147H1303.04V284.28z"/><path fill="url(#paint38_linear)" d="M-22.6325 770.831c-.1741-.195-.3377-.575-.5119-.77-.8601-1.16-1.7097-2.506-2.5593-3.851-17.4143-26.002-33.1151-59.317-42.5767-107.838l23.1492-9.611-28.0967-17.348s1.8389-16.012 5.3282-38.229c.0421-.739.2689-1.467.311-2.206.6429-4.78 1.4705-9.549 2.3192-14.688.332-2.575.8591-5.324 1.3863-8.073 4.4595-26.237 10.401-55.725 17.6256-78.47.2057-.359.2372-.913.4429-1.272.2268-.728.4536-1.456.6803-2.184 1.5873-5.097 2.9583-9.65 4.1026-13.475.2268-.729.4641-1.641.6908-2.369 6.2066-21.137 7.2294-26.08 7.1078-27.199l32.319871-1.492-23.279271-14.11s20.34954-32.001 51.7776-69.855c8.2053 8.804 51.707 58.154 50.7896 132.76l-22.532 8.535 19.8961 5.209s-.8534 8.473-2.7191 21.705c-.3425 2.76-.8802 5.693-1.4179 8.627-4.006 24.781-11.0229 60.136-21.9607 89.524-.6592 1.815-1.3184 3.63-2.1728 5.619-.8544 1.989-1.7088 3.979-2.5632 5.968-22.1033 53.02-67.5375 135.093-67.5375 135.093z"/><path fill="#004C39" d="M-39.7231 826.917c4.6767-20.297 9.3429-40.41 14.0195-60.707 13.0915-57.424 25.444286-114.891 37.069-172.585 1.0438-5.313 2.0877-10.626 3.1315-15.938-14.3975377 2.328-29.2333 2.594-43.6624 5.477-13.1154 2.587-26.2625 5.728-38.8976 9.64.0421-.739.2688-1.467.3109-2.206 12.1444-5.051 24.6054-9.157 37.5572-12.124 14.6348-3.242 30.57277-6.594 45.7147-5.731.2267-.728.2688-1.467.4956-2.195-14.13445-2.288-28.7224-3.119-42.8721-1.888-8.9372.788-17.7319 2.324-26.363 4.241-3.9409.887-8.1297 2.871-12.0285 3.019.332-2.574.8592-5.323 1.3863-8.072 3.4186-1.472 7.5337-2.164 10.5619-3.288 9.4328-2.983 19.0187-5.4 28.7261-6.7 14.75635-2.123 29.19121-1.856 42.6033 3.355 3.163-16.493 6.1309-32.812 8.5554-49.347-12.1406-4.767-23.85913-10.437-36.21588-14.661-11.81332-4.008-24.03802-7.299-36.35742-8.927.2267-.728.4535-1.456.6803-2.184 24.8866 2.159 50.35977 10.28 72.4833 21.915.0105-.184.021-.369.0316-.554C5.17776 494.16-16.6137 479.95-41.2057 472.62c.2267-.728.464-1.64.6908-2.369 24.5125 5.473 48.5936 18.517 68.3013 33.534 6.2715-45.03 8.8605-90.456 2.2166-136.408.0105-.185.2057-.359.3798-.164 14.2273 59.167-4.5434 170.734-7.0846 182.816 15.5256-9.119 32.2911-17.241 49.7216-24.028-.3425 2.759-.8802 5.692-1.4179 8.626-16.0748 5.753-31.8013 11.896-47.3957 18.974-.575.337-1.1185.121-1.6619-.095-.5377 2.933-6.1367 29.662-6.6744 32.595-3.8644 19.047-7.72878 38.093-11.59315 57.14 10.77235-6.982 25.23295-10.418 37.58875-12.678 1.8676-.264 3.7458-.713 5.4287-.988-.8544 1.989-1.7088 3.978-2.5632 5.968-1.1184.121-2.2474.427-3.3659.549-13.0944 2.218-25.2598 7.638-38.02695 10.615-8.26645 41.027-16.90225 82.032-26.44025 122.616-4.6135 19.189-9.4222 38.552-14.5792 57.525-.3004 2.021-2.3106 1.535-2.0418.069z" opacity=".52"/></g><defs><linearGradient id="paint0_linear" x1="153.797" x2="1117.99" y1="641.037" y2="-34.8776" gradientUnits="userSpaceOnUse"><stop stop-color="#009E9D"/><stop offset=".2571" stop-color="#2AB6A1"/><stop offset=".9992" stop-color="#A0FAAB"/></linearGradient><linearGradient id="paint1_linear" x1="1102.3" x2="1102.3" y1="740.194" y2="25.5952" gradientUnits="userSpaceOnUse"><stop stop-color="#006182"/><stop offset=".3917" stop-color="#4E9E87" stop-opacity=".6083"/><stop offset="1" stop-color="#C4FA8F" stop-opacity="0"/></linearGradient><linearGradient id="paint2_linear" x1="718.324" x2="718.324" y1="740.194" y2="25.5957" gradientUnits="userSpaceOnUse"><stop stop-color="#006182"/><stop offset=".3917" stop-color="#4E9E87" stop-opacity=".6083"/><stop offset="1" stop-color="#C4FA8F" stop-opacity="0"/></linearGradient><linearGradient id="paint3_linear" x1="237.949" x2="237.949" y1="740.193" y2="25.595" gradientUnits="userSpaceOnUse"><stop stop-color="#006182"/><stop offset=".3917" stop-color="#4E9E87" stop-opacity=".6083"/><stop offset="1" stop-color="#C4FA8F" stop-opacity="0"/></linearGradient><linearGradient id="paint4_linear" x1="34.4819" x2="34.4819" y1="740.194" y2="25.5947" gradientUnits="userSpaceOnUse"><stop stop-color="#006182"/><stop offset=".3917" stop-color="#4E9E87" stop-opacity=".6083"/><stop offset="1" stop-color="#C4FA8F" stop-opacity="0"/></linearGradient><linearGradient id="paint5_linear" x1="880.373" x2="880.373" y1="740.194" y2="25.5953" gradientUnits="userSpaceOnUse"><stop stop-color="#006182"/><stop offset=".3917" stop-color="#4E9E87" stop-opacity=".6083"/><stop offset="1" stop-color="#C4FA8F" stop-opacity="0"/></linearGradient><linearGradient id="paint6_linear" x1="462.193" x2="462.193" y1="740.193" y2="25.595" gradientUnits="userSpaceOnUse"><stop stop-color="#006182"/><stop offset=".3917" stop-color="#4E9E87" stop-opacity=".6083"/><stop offset="1" stop-color="#C4FA8F" stop-opacity="0"/></linearGradient><linearGradient id="paint7_linear" x1="601.452" x2="601.452" y1="657.748" y2="286.866" gradientUnits="userSpaceOnUse"><stop stop-color="#00715D"/><stop offset="1" stop-color="#00C2A4"/></linearGradient><linearGradient id="paint8_linear" x1="76.7135" x2="1098.96" y1="609.801" y2="-160.99" gradientUnits="userSpaceOnUse"><stop stop-color="#008A92"/><stop offset=".0752804" stop-color="#0A9392"/><stop offset="1" stop-color="#80FA95"/></linearGradient><linearGradient id="paint9_linear" x1="1200.57" x2="1149.61" y1="537.655" y2="327.444" gradientUnits="userSpaceOnUse"><stop stop-color="#00332E"/><stop offset=".1706" stop-color="#004C3C"/><stop offset="1" stop-color="#00C281"/></linearGradient><linearGradient id="paint10_linear" x1="561.914" x2="561.914" y1="778.308" y2="534.922" gradientUnits="userSpaceOnUse"><stop stop-color="#000E00"/><stop offset=".0681045" stop-color="#001709"/><stop offset="1" stop-color="#00897F"/></linearGradient><linearGradient id="paint11_linear" x1="815.232" x2="815.232" y1="757.776" y2="507.726" gradientUnits="userSpaceOnUse"><stop stop-color="#000E00"/><stop offset=".0681045" stop-color="#001709"/><stop offset="1" stop-color="#00897F"/></linearGradient><linearGradient id="paint12_linear" x1="1093.15" x2="988.125" y1="666.724" y2="436.346" gradientUnits="userSpaceOnUse"><stop stop-color="#000E00"/><stop offset=".0681045" stop-color="#001709"/><stop offset="1" stop-color="#00897F"/></linearGradient><linearGradient id="paint13_linear" x1="287.347" x2="287.347" y1="661.684" y2="477.75" gradientUnits="userSpaceOnUse"><stop stop-color="#000E00"/><stop offset=".0681045" stop-color="#001709"/><stop offset="1" stop-color="#00897F"/></linearGradient><linearGradient id="paint14_linear" x1="86.6264" x2="86.6264" y1="712.79" y2="528.856" gradientUnits="userSpaceOnUse"><stop stop-color="#000E00"/><stop offset=".0681045" stop-color="#001709"/><stop offset="1" stop-color="#00897F"/></linearGradient><linearGradient id="paint15_linear" x1="893.438" x2="836.142" y1="738.881" y2="511.608" gradientUnits="userSpaceOnUse"><stop offset=".00114183" stop-color="#004432"/><stop offset=".2715" stop-color="#00714F"/><stop offset="1" stop-color="#00E79A"/></linearGradient><linearGradient id="paint16_linear" x1="330.018" x2="469.052" y1="734.408" y2="468.853" gradientUnits="userSpaceOnUse"><stop stop-color="#00332E"/><stop offset=".1706" stop-color="#004C3C"/><stop offset="1" stop-color="#00C281"/></linearGradient><linearGradient id="paint17_linear" x1="487.457" x2="531.864" y1="716.195" y2="526.172" gradientUnits="userSpaceOnUse"><stop offset=".00114183" stop-color="#004432"/><stop offset=".2715" stop-color="#00714F"/><stop offset="1" stop-color="#00E79A"/></linearGradient><linearGradient id="paint18_linear" x1="1162.78" x2="1044.61" y1="575.778" y2="338.031" gradientUnits="userSpaceOnUse"><stop stop-color="#00332E"/><stop offset=".1706" stop-color="#004C3C"/><stop offset="1" stop-color="#00C281"/></linearGradient><linearGradient id="paint19_linear" x1="1069.43" x2="1043.51" y1="644.237" y2="432.305" gradientUnits="userSpaceOnUse"><stop stop-color="#00332E"/><stop offset=".1706" stop-color="#004C3C"/><stop offset="1" stop-color="#00C281"/></linearGradient><linearGradient id="paint20_linear" x1="956.12" x2="989.809" y1="722.887" y2="363.118" gradientUnits="userSpaceOnUse"><stop stop-color="#008F9F"/><stop offset="1" stop-color="#47FAB0"/></linearGradient><linearGradient id="paint21_linear" x1="292.501" x2="477.059" y1="720.459" y2="584.576" gradientUnits="userSpaceOnUse"><stop stop-color="#009C9C"/><stop offset="1" stop-color="#4FFA5F"/></linearGradient><linearGradient id="paint22_linear" x1="1093.66" x2="1148.95" y1="711.074" y2="533.373" gradientUnits="userSpaceOnUse"><stop stop-color="#00332E"/><stop offset=".1706" stop-color="#004C3C"/><stop offset="1" stop-color="#00C281"/></linearGradient><linearGradient id="paint23_linear" x1="120.528" x2="81.0071" y1="709.284" y2="453.295" gradientUnits="userSpaceOnUse"><stop offset=".00114183" stop-color="#004432"/><stop offset=".2715" stop-color="#00714F"/><stop offset="1" stop-color="#00E79A"/></linearGradient><linearGradient id="paint24_linear" x1="670.385" x2="687.158" y1="787.015" y2="558.645" gradientUnits="userSpaceOnUse"><stop offset=".00230369" stop-color="#00D073"/><stop offset=".0170386" stop-color="#01D175"/><stop offset="1" stop-color="#25FAEB"/></linearGradient><linearGradient id="paint25_linear" x1="565.953" x2="483.878" y1="713.171" y2="628.573" gradientUnits="userSpaceOnUse"><stop stop-color="#009C9C"/><stop offset="1" stop-color="#4FFA5F"/></linearGradient><linearGradient id="paint26_linear" x1="577.464" x2="575.753" y1="714.061" y2="567.742" gradientUnits="userSpaceOnUse"><stop stop-color="#009C9C"/><stop offset="1" stop-color="#4FFA5F"/></linearGradient><linearGradient id="paint27_linear" x1="196.039" x2="363.804" y1="636.046" y2="610.681" gradientUnits="userSpaceOnUse"><stop stop-color="#008F9F"/><stop offset="1" stop-color="#47FAB0"/></linearGradient><linearGradient id="paint28_linear" x1="931.285" x2="1055.75" y1="802.649" y2="545.95" gradientUnits="userSpaceOnUse"><stop stop-color="#009C9C"/><stop offset="1" stop-color="#4FFA5F"/></linearGradient><linearGradient id="paint29_linear" x1="941.236" x2="771.654" y1="672.085" y2="666.707" gradientUnits="userSpaceOnUse"><stop stop-color="#009C9C"/><stop offset="1" stop-color="#4FFA5F"/></linearGradient><linearGradient id="paint30_linear" x1="1026.22" x2="1114.4" y1="703.666" y2="625.454" gradientUnits="userSpaceOnUse"><stop stop-color="#009C9C"/><stop offset="1" stop-color="#4FFA5F"/></linearGradient><linearGradient id="paint31_linear" x1="932.994" x2="901.849" y1="723.104" y2="580.128" gradientUnits="userSpaceOnUse"><stop stop-color="#009C9C"/><stop offset="1" stop-color="#00FAE8"/></linearGradient><linearGradient id="paint32_linear" x1="734.318" x2="835.355" y1="714.627" y2="608.779" gradientUnits="userSpaceOnUse"><stop stop-color="#009C9C"/><stop offset="1" stop-color="#4FFA5F"/></linearGradient><linearGradient id="paint33_linear" x1="150.775" x2="51.8308" y1="711.161" y2="567.73" gradientUnits="userSpaceOnUse"><stop stop-color="#009C9C"/><stop offset="1" stop-color="#4FFA5F"/></linearGradient><linearGradient id="paint34_linear" x1="187.308" x2="185.596" y1="691.307" y2="544.988" gradientUnits="userSpaceOnUse"><stop stop-color="#009C9C"/><stop offset="1" stop-color="#00FAE8"/></linearGradient><linearGradient id="paint36_linear" x1="922.203" x2="440.955" y1="-174.666" y2="479.505" gradientUnits="userSpaceOnUse"><stop offset=".00346554" stop-color="#EAFAC0"/><stop offset=".9988" stop-color="#DAFAD9" stop-opacity="0"/></linearGradient><linearGradient id="paint37_linear" x1="-59.5673" x2="-47.7813" y1="719.019" y2="284.599" gradientUnits="userSpaceOnUse"><stop offset=".00078125" stop-color="#06403C"/><stop offset=".457004" stop-color="#044742" stop-opacity=".702362"/><stop offset="1" stop-color="#005751" stop-opacity="0"/></linearGradient><linearGradient id="paint38_linear" x1="-25.4697" x2="30.4061" y1="720.765" y2="397.279" gradientUnits="userSpaceOnUse"><stop stop-color="#00332E"/><stop offset=".1706" stop-color="#004C3C"/><stop offset="1" stop-color="#00C281"/></linearGradient><radialGradient id="paint35_radial" cx="0" cy="0" r="1" gradientTransform="matrix(-1626.18 0 0 -1906.89 -204.843 -273.594)" gradientUnits="userSpaceOnUse"><stop offset=".00268429" stop-color="#D1FAA8"/><stop offset="1" stop-color="#E5FA51" stop-opacity="0"/></radialGradient></defs></svg>