<?xml version="1.0" encoding="utf-8"?>
<!-- Generator: Adobe Illustrator 24.1.2, SVG Export Plug-In . SVG Version: 6.00 Build 0)  -->
<svg version="1.1" xmlns="http://www.w3.org/2000/svg" xmlns:xlink="http://www.w3.org/1999/xlink" x="0px" y="0px"
	 viewBox="0 0 750 500" style="enable-background:new 0 0 750 500;" xml:space="preserve">
<style type="text/css">
	.st0{fill:#15211F;}
	.st1{fill:#1C3331;}
	.st2{fill:#254442;}
	.st3{fill:none;stroke:#1C3331;stroke-width:2.4672;stroke-linecap:round;stroke-miterlimit:10;}
	.st4{fill:#4FA193;}
	.st5{fill:#396F6A;}
	.st6{fill:#285650;}
	.st7{fill:#69C4B2;}
	.st8{fill:#FFC866;}
	.st9{fill:#DD4359;}
	.st10{fill:#EC5D3E;}
	.st11{fill:none;stroke:#285650;stroke-width:1.8649;stroke-miterlimit:10;}
	.st12{fill:#FFBB69;}
	.st13{fill:none;stroke:#285650;stroke-width:1.5214;stroke-miterlimit:10;}
	.st14{fill:#FFA733;}
	.st15{fill:#F9788B;}
	.st16{fill:#DD442A;}
</style>
<g id="BACKGROUND">
	<rect class="st0" width="750" height="500"/>
</g>
<g id="OBJECTS">
	<g>
		<g>
			
				<image style="overflow:visible;opacity:0.55;" width="3023" height="2015" xlink:href="DA63F8BAC5ED7B32.png"  transform="matrix(0.24 0 0 0.24 -4.7937 1.9663)">
			</image>
			<g>
				<path class="st1" d="M663.8,430.1H65.6c-8.3,0-14.9-6.7-14.9-14.9V59c0-8.3,6.7-14.9,14.9-14.9h598.1c8.3,0,14.9,6.7,14.9,14.9
					v356.2C678.7,423.4,672,430.1,663.8,430.1z"/>
			</g>
		</g>
		<g>
			<g>
				<path class="st2" d="M138.2,39.9c23.7,18.6,29.1,51.8,31.2,81.9c2.1,30.1,3.7,62.7,23.3,85.6c21.8,25.4,60.2,31.5,82,57
					c19.2,22.5,20.9,54.3,27.5,83.1c7.8,34.4,23.8,66.9,46.2,94.1c1.3,1.5,2.6,3.1,3.1,5c1.4,5.5-4.1,10.1-9.1,12.8
					c-39.9,21.9-86.4,27.7-131.7,31.9c-36.2,3.3-72.5,5.8-108.7,3.1c-24.4-1.8-49.1-6.2-70.7-17.6c-28.1-14.9-49.1-41.2-61.5-70.5
					C-42.6,377.1-47,345-47.3,313.2c-0.5-50.5,9.1-101,28-147.8c13.8-34.3,32.6-66.6,43.5-102c3.4-11.2,3.9-27.9,15-34.8
					c11.6-7.2,31.5-4.9,44.2-4.5C102.6,24.6,122.8,27.8,138.2,39.9z"/>
				<g>
					<path class="st3" d="M42.8,25.7c12.3,18.3,28,34,43.5,49.7c21.8,22.1,45.6,41.3,70.2,60"/>
					<path class="st4" d="M31.7,87.2c4.1-0.7,8-2.2,11.9-3.6c1.9-0.7,3.7-1.4,5.6-2.1c2.7-1,5.6-2.1,7.5-4.3
						c0.5-0.6,1.2-1.2,1.8-0.9c0.8-2.1,2.2-4,4-5.4c0.7-0.5,1.5-1.1,1.7-1.9c0.2-0.6,0-1.3-0.1-2c-1.7-6.7-3.9-13.3-6.6-19.7
						c-3.3-7.8-5.9-10.9-9.5-1.7c-2.7,6.9-5.5,13.9-8.2,20.8C39,68.8,33.7,86.9,31.7,87.2z"/>
					<path class="st5" d="M61.6,47.8c3.5,1.1,7.4,0.6,10.6-1.2c1.4-0.8,2.6-1.9,4.1-2.5c3-1.4,6.5-0.9,9.8-0.6
						c1.6,0.1,3.6-0.2,3.8-1.8c0.1-0.8-0.4-1.7-0.1-2.5c0.2-0.6,0.8-0.9,1.2-1.3c1.2-1.4,0.6-3.7,1.7-5.2c0.7-1,2.1-1.5,2.3-2.7
						c0.1-0.5-0.1-1.1,0.1-1.7c0.4-1.8,3.6-2,3.7-3.9c0-0.5-0.2-1.1-0.1-1.6c0.1-0.4,0.4-0.6,0.7-0.9c1-0.9,2-1.8,3.1-2.6
						c-3.3-2-7.5-2.2-11.2-1.3c-3.8,0.9-7.2,2.7-10.6,4.6c-7.8,4.2-15.9,8.2-23.6,12.7c-2.5,1.5-4.8,3.2-3.3,6.2
						C55.3,44.5,58.6,46.9,61.6,47.8z"/>
					<path class="st4" d="M51.4,82.2c-5.7,8.4-10.8,17.6-12.2,27.6c-0.1,0.4-0.1,0.9,0.2,1.3c0.5,0.7,1.7,0.3,2.4-0.3
						c0.7-0.6,1.4-1.4,2.3-1.2c0.5,0.1,0.8,0.5,1.3,0.7c2,0.8,3.7-2.5,5.8-2c0.6,0.1,1.1,0.5,1.6,0.5c1.1-0.1,1.7-1.6,2.8-1.8
						c1.2-0.1,1.9,1.5,3.1,1.7c1.3,0.2,2.4-1.4,3.7-1.1c0.9,0.2,1.4,1.3,2.3,1.5c2.1,0.5,3.5-3.7,5.3-2.6c0.3,0.2,0.5,0.5,0.8,0.6
						c1.6,0.8,2.5-2.8,4.3-2.6c0.5,0.1,1,0.5,1.5,0.5c1.8,0.2,1.9-3,3.6-3.5c0.4-0.1,0.9,0,1.4-0.1c0.5-0.1,0.9-0.5,1.2-0.9
						c0.8-0.8,1.5-1.6,2.3-2.5c0.8-0.9,1.7-1.9,1.8-3.1c0.1-1.5-1-2.8-1.9-4c-3.3-3.9-6.4-8.1-8-13c-0.9-2.7-1.4-5.5-2.2-8.3
						c-0.9-3-2.3-6.8-4.5-9.1c-2.9-3-4.1,0.6-5.7,3C60.5,69.8,55.7,75.9,51.4,82.2z"/>
					<g>
						<path class="st5" d="M52.3,40.9c-1.4,5.4-2.7,10.7-3.9,16.1c-1.2,5.4-2.1,10.8-3.1,16.2c0-5.5,0.8-11.1,1.9-16.5
							C48.5,51.3,50.1,45.9,52.3,40.9z"/>
					</g>
					<g>
						<path class="st6" d="M55.9,43.2c1.4,0.5,2.8,0.6,4.2,0.4c1.4-0.2,2.7-0.6,4-1.2c2.5-1.2,4.8-3,7.2-4.6
							c4.8-3.2,10.1-5.8,15.6-7.6c-5.1,2.7-10.1,5.5-14.9,8.6c-2.4,1.5-4.7,3.3-7.5,4.4c-1.4,0.5-2.9,0.9-4.3,0.9
							C58.7,44.2,57.2,43.9,55.9,43.2z"/>
					</g>
					<g>
						<path class="st5" d="M68.8,61c0.7,2.6,0.8,5.4,0.6,8.1c-0.2,2.7-0.8,5.4-1.4,8c-1.2,5.3-2.6,10.4-2.5,15.9
							c-0.5-2.7-0.5-5.4-0.2-8.1c0.3-2.7,0.9-5.4,1.5-8C68,71.7,69.3,66.5,68.8,61z"/>
					</g>
					<g>
						<path class="st5" d="M53.2,41.8c-0.1,2.4-0.2,4.8-0.5,7.2c-0.2,2.4-0.5,4.8-0.8,7.2c-0.6,4.7-0.9,9.5,0.3,14.2
							c-1.1-2.2-1.6-4.6-1.8-7.1c-0.2-2.4,0-4.9,0.3-7.3C51.3,51.3,52.1,46.6,53.2,41.8z"/>
					</g>
					<g>
						<path class="st5" d="M69,60.7c1.7,2.2,2.7,5,3.2,7.7c0.5,2.8,0.6,5.6,0.7,8.4c0.1,2.8,0.1,5.5,0.5,8.2
							c0.4,2.7,1.2,5.4,2.6,7.7c-1.9-2.1-3-4.8-3.6-7.6c-0.6-2.8-0.8-5.6-0.8-8.4c-0.1-2.8-0.1-5.5-0.4-8.2
							C70.9,65.9,70.3,63.2,69,60.7z"/>
					</g>
					<g>
						<path class="st6" d="M54.6,41.1c2.8,0.2,5.5-0.7,7.8-2c2.4-1.3,4.5-3.1,6.6-4.9c2.1-1.8,4.3-3.6,6.8-4.9
							c2.5-1.4,5.2-2.3,7.9-2.9c-2.6,1-5.1,2.2-7.4,3.7c-2.3,1.5-4.4,3.3-6.5,5.1c-2.1,1.8-4.4,3.6-7,4.8
							C60.3,41.2,57.3,41.8,54.6,41.1z"/>
					</g>
					<g>
						<path class="st5" d="M67.4,60.8c0.8,1.4,0.8,3.2,0.6,4.8c-0.2,1.6-0.8,3.2-1.3,4.7c-1.1,3-2.5,6-3.8,8.9
							c-1.4,2.9-2.8,5.7-4.2,8.6c-1.3,2.9-2.6,5.8-3.7,8.9c0.6-3.2,1.6-6.3,2.8-9.3c1.2-3,2.6-5.9,4-8.8c1.4-2.9,2.8-5.8,4.1-8.7
							c0.6-1.5,1.3-2.9,1.6-4.5C67.8,64,67.9,62.3,67.4,60.8z"/>
					</g>
					<g>
						<path class="st5" d="M52.7,42.1c1.5,1.4,2,3.6,2.4,5.5c0.4,2,0.7,3.9,1.1,5.9c0.6,3.9,1.1,7.9,1.2,11.9
							c-1.1-3.9-1.8-7.8-2.5-11.7c-0.3-2-0.6-3.9-0.8-5.9C54,45.8,53.8,43.8,52.7,42.1z"/>
					</g>
					<path class="st5" d="M92.6,41.9c4.2-2.9,8.5-5.9,13.2-7.8c4.8-1.9,10.2-2.7,15-1.1c0.5,0.2,1.1,0.4,1.4,0.9
						c0.5,0.9-0.1,2-0.9,2.7c-0.8,0.7-1.8,1.4-1.9,2.4c-0.1,0.6,0.1,1.2,0.1,1.8c-0.1,1.9-2.7,3.1-2.7,5.1c0,0.8,0.5,1.5,0.5,2.3
						c0,1.5-1.9,2.4-2.3,3.9c-0.5,1.8,1.5,3.8,0.7,5.5c-0.3,0.6-0.9,1.1-0.9,1.8c0,1.2,1.8,1.6,2.4,2.6c0.6,0.9,0.1,2.1-0.8,2.8
						c-0.9,0.6-2,0.7-3,0.7c-4.2,0-8.4-1.5-12.4-0.1c-2.4,0.9-4.4,2.7-6.8,3.5c-2.4,0.8-5,0.5-7.5-0.1c-3.9-1-17.3-5.6-15-11.6
						c1.1-3,6.8-5.5,9.3-7.2C84.9,47.3,88.8,44.6,92.6,41.9z"/>
					<g>
						<path class="st6" d="M71.6,59.8c1.3,0.5,2.7,0.6,4.1,0.5c1.4,0,2.8-0.1,4.2-0.2c2.8-0.3,5.5-0.7,8.2-1.4
							c2.7-0.7,5.3-1.5,7.9-2.6c1.3-0.5,2.5-1.1,3.8-1.7c0.6-0.3,1.3-0.6,2-0.8c0.7-0.2,1.5-0.3,2.1,0c-1.4-0.2-2.7,0.6-3.8,1.3
							c-1.2,0.7-2.4,1.5-3.7,2.1c-2.5,1.3-5.2,2.2-8,2.9c-2.8,0.7-5.6,1.1-8.4,1.1c-1.4,0-2.8,0-4.2-0.1
							C74.3,60.7,72.9,60.5,71.6,59.8z"/>
					</g>
					<g>
						<path class="st6" d="M71.9,58c2.7-0.3,5.3-0.6,7.8-1.3c2.5-0.7,4.9-1.8,7.1-3.2c2.3-1.3,4.5-2.8,6.7-4.2
							c2.2-1.4,4.6-2.8,7.1-3.8c-4.5,2.8-8.5,6.3-13.2,9.1c-2.3,1.4-4.9,2.5-7.5,3C77.3,58.2,74.6,58.1,71.9,58z"/>
					</g>
					<g>
						<path class="st6" d="M71.9,57c3.2-0.4,6.3-1.6,9.1-3.1c2.8-1.5,5.5-3.4,8-5.4c2.6-2,5.1-4.1,7.7-6c2.6-1.9,5.6-3.7,8.9-4.1
							c-3.2,0.9-5.8,2.8-8.3,4.8c-2.5,2-5,4.2-7.6,6.2c-2.6,2-5.3,3.9-8.3,5.3C78.4,56.2,75.2,57.1,71.9,57z"/>
					</g>
					<path class="st4" d="M70.6,125.4c4-1.1,7.8-2.8,11.6-4.6c1.8-0.8,3.6-1.7,5.4-2.5c2.7-1.2,5.4-2.5,7.2-4.9
						c0.4-0.6,1.1-1.3,1.8-1c0.6-2.2,1.9-4.2,3.6-5.7c0.6-0.6,1.4-1.2,1.6-2c0.1-0.6-0.1-1.3-0.3-1.9c-2.2-6.6-4.9-13-8.1-19.2
						c-3.9-7.5-6.7-10.5-9.6-0.9c-2.2,7.1-4.4,14.2-6.6,21.4C76.4,106.6,72.6,124.9,70.6,125.4z"/>
					<path class="st5" d="M97.4,83.9c3.6,0.8,7.4,0.1,10.4-2c1.3-0.9,2.5-2.1,3.9-2.8c2.9-1.6,6.4-1.4,9.7-1.4
						c1.6,0,3.6-0.5,3.7-2.1c0-0.8-0.5-1.6-0.3-2.4c0.2-0.6,0.8-0.9,1.1-1.4c1.1-1.4,0.3-3.7,1.2-5.3c0.6-1,2-1.7,2.1-2.9
						c0.1-0.6-0.2-1.1-0.1-1.7c0.3-1.8,3.4-2.3,3.4-4.2c0-0.5-0.3-1-0.2-1.6c0.1-0.4,0.4-0.7,0.6-1c1-1,1.9-1.9,2.9-2.9
						c-3.4-1.7-7.6-1.6-11.3-0.4c-3.7,1.2-7,3.3-10.2,5.4c-7.5,4.8-15.2,9.4-22.5,14.5c-2.4,1.7-4.5,3.5-2.8,6.4
						C90.7,81,94.3,83.2,97.4,83.9z"/>
					<path class="st4" d="M89.9,118.9c-5,8.8-9.4,18.3-10.1,28.5c0,0.5,0,1,0.3,1.3c0.6,0.7,1.7,0.2,2.4-0.5
						c0.6-0.7,1.3-1.6,2.2-1.4c0.5,0.1,0.9,0.4,1.3,0.6c2,0.7,3.5-2.7,5.6-2.5c0.6,0.1,1.1,0.4,1.7,0.4c1.1-0.1,1.6-1.8,2.7-2
						c1.2-0.2,2,1.4,3.3,1.4c1.3,0.1,2.3-1.6,3.6-1.4c0.9,0.1,1.5,1.1,2.4,1.3c2.1,0.3,3.2-3.9,5.1-3.1c0.3,0.1,0.6,0.4,0.9,0.5
						c1.7,0.6,2.3-3,4.1-2.9c0.5,0,1,0.4,1.5,0.4c1.8,0,1.6-3.2,3.3-3.8c0.4-0.2,0.9-0.1,1.3-0.2c0.5-0.2,0.8-0.6,1.2-1
						c0.7-0.9,1.4-1.7,2.1-2.6c0.8-1,1.6-2,1.6-3.3c0-1.5-1.2-2.7-2.2-3.8c-3.6-3.6-7-7.6-9-12.3c-1.1-2.6-1.8-5.4-2.8-8.1
						c-1.1-2.9-2.8-6.6-5.2-8.7c-3.1-2.8-4.1,0.9-5.5,3.4C97.9,105.9,93.7,112.3,89.9,118.9z"/>
					<g>
						<path class="st5" d="M87.6,77.6c-0.9,5.5-1.9,10.9-2.6,16.3c-0.8,5.4-1.3,10.9-1.8,16.4c-0.4-5.5-0.1-11.1,0.6-16.6
							C84.5,88.3,85.7,82.9,87.6,77.6z"/>
					</g>
					<g>
						<path class="st6" d="M91.3,79.6c1.4,0.4,2.8,0.4,4.2,0.1c1.4-0.3,2.7-0.8,3.9-1.5c2.4-1.4,4.5-3.3,6.8-5.1
							c4.6-3.5,9.6-6.6,14.9-8.8c-4.9,3.1-9.7,6.2-14.2,9.7c-2.3,1.7-4.5,3.7-7.1,5c-1.3,0.7-2.8,1.1-4.3,1.2
							C94.1,80.5,92.6,80.3,91.3,79.6z"/>
					</g>
					<g>
						<path class="st5" d="M105.6,96.4c0.9,2.6,1.2,5.3,1.2,8.1c0,2.7-0.4,5.4-0.8,8.1c-0.8,5.3-1.8,10.6-1.3,16
							c-0.7-2.6-0.9-5.4-0.8-8.1c0.1-2.7,0.5-5.4,0.9-8.1C105.6,107.1,106.4,101.8,105.6,96.4z"/>
					</g>
					<g>
						<path class="st5" d="M88.5,78.5c0.1,2.4,0.1,4.8,0.1,7.2c0,2.4-0.1,4.8-0.2,7.2c-0.2,4.8-0.2,9.5,1.4,14.1
							c-1.2-2.1-2-4.5-2.3-6.9c-0.4-2.4-0.4-4.9-0.3-7.3C87.3,88.1,87.7,83.3,88.5,78.5z"/>
					</g>
					<g>
						<path class="st5" d="M105.7,96.1c1.9,2.1,3.1,4.7,3.8,7.5c0.7,2.7,1,5.5,1.3,8.3c0.3,2.8,0.6,5.5,1.2,8.1
							c0.6,2.6,1.6,5.2,3.2,7.5c-2-1.9-3.4-4.6-4.2-7.2c-0.8-2.7-1.2-5.5-1.5-8.3c-0.3-2.8-0.5-5.5-1-8.2
							C108,101.1,107.2,98.5,105.7,96.1z"/>
					</g>
					<g>
						<path class="st6" d="M89.8,77.7c2.8,0,5.4-1.1,7.7-2.6c2.3-1.5,4.2-3.4,6.2-5.4c2-1.9,4-3.9,6.4-5.5c2.4-1.6,5-2.7,7.7-3.5
							c-2.5,1.2-4.9,2.6-7.1,4.2c-2.2,1.6-4.1,3.6-6.1,5.5c-2,1.9-4.1,3.9-6.6,5.3C95.5,77.3,92.6,78.1,89.8,77.7z"/>
					</g>
					<g>
						<path class="st5" d="M104.1,96.3c0.9,1.4,1.1,3.1,1,4.7c-0.1,1.6-0.5,3.2-1,4.8c-0.9,3.1-2,6.1-3.1,9.1c-1.2,3-2.4,6-3.5,8.9
							c-1.1,3-2.2,6-3,9.1c0.3-3.2,1.1-6.4,2.1-9.4c1-3.1,2.1-6.1,3.3-9.1c1.2-3,2.3-6,3.4-9c0.5-1.5,1-3,1.3-4.6
							C104.8,99.5,104.7,97.8,104.1,96.3z"/>
					</g>
					<g>
						<path class="st5" d="M88,78.8c1.6,1.3,2.3,3.4,2.8,5.3c0.6,1.9,1,3.8,1.5,5.8c0.9,3.9,1.7,7.8,2.2,11.8
							c-1.4-3.8-2.4-7.6-3.4-11.5c-0.4-1.9-0.9-3.9-1.2-5.8C89.6,82.4,89.2,80.4,88,78.8z"/>
					</g>
					<path class="st4" d="M115.2,165.4c4-1.1,7.8-2.8,11.6-4.6c1.8-0.8,3.6-1.7,5.4-2.5c2.7-1.2,5.4-2.5,7.2-4.9
						c0.4-0.6,1.1-1.3,1.8-1c0.6-2.2,1.9-4.2,3.6-5.7c0.6-0.6,1.4-1.2,1.6-2c0.1-0.6-0.1-1.3-0.3-1.9c-2.2-6.6-4.9-13-8.1-19.2
						c-3.9-7.5-6.7-10.5-9.6-0.9c-2.2,7.1-4.4,14.2-6.6,21.4C121,146.5,117.2,164.9,115.2,165.4z"/>
					<path class="st5" d="M141.9,123.8c3.6,0.8,7.4,0.1,10.4-2c1.3-0.9,2.5-2.1,3.9-2.8c2.9-1.6,6.4-1.4,9.7-1.4
						c1.6,0,3.6-0.5,3.7-2.1c0-0.8-0.5-1.6-0.3-2.4c0.2-0.6,0.8-0.9,1.1-1.4c1.1-1.4,0.3-3.7,1.2-5.3c0.6-1,2-1.7,2.1-2.9
						c0.1-0.6-0.2-1.1-0.1-1.7c0.3-1.8,3.4-2.3,3.4-4.2c0-0.5-0.3-1-0.2-1.6c0.1-0.4,0.4-0.7,0.6-1c1-1,1.9-1.9,2.9-2.9
						c-3.4-1.7-7.6-1.6-11.3-0.4c-3.7,1.2-7,3.3-10.2,5.4c-7.5,4.8-15.2,9.4-22.5,14.5c-2.4,1.7-4.5,3.5-2.8,6.5
						C135.3,121,138.9,123.1,141.9,123.8z"/>
					<g>
						<path class="st5" d="M132.2,117.6c-0.9,5.5-1.9,10.9-2.6,16.3c-0.8,5.4-1.3,10.9-1.8,16.4c-0.4-5.5-0.1-11.1,0.6-16.6
							C129.1,128.3,130.3,122.8,132.2,117.6z"/>
					</g>
					<g>
						<path class="st6" d="M135.9,119.6c1.4,0.4,2.8,0.4,4.2,0.1c1.4-0.3,2.7-0.8,3.9-1.5c2.4-1.4,4.5-3.3,6.8-5.1
							c4.6-3.5,9.6-6.6,14.9-8.8c-4.9,3.1-9.7,6.2-14.2,9.7c-2.3,1.7-4.5,3.7-7.1,5c-1.3,0.7-2.8,1.1-4.3,1.2
							C138.7,120.4,137.2,120.3,135.9,119.6z"/>
					</g>
					<g>
						<path class="st5" d="M133,118.5c0.1,2.4,0.1,4.8,0.1,7.2c0,2.4-0.1,4.8-0.2,7.2c-0.2,4.8-0.2,9.5,1.4,14.1
							c-1.2-2.1-2-4.5-2.3-6.9c-0.4-2.4-0.4-4.9-0.3-7.3C131.9,128.1,132.3,123.3,133,118.5z"/>
					</g>
					<g>
						<path class="st6" d="M134.4,117.6c2.8,0,5.4-1.1,7.7-2.6c2.3-1.5,4.2-3.4,6.2-5.4c2-1.9,4-3.9,6.4-5.5c2.4-1.6,5-2.7,7.7-3.5
							c-2.5,1.2-4.9,2.6-7.1,4.2c-2.2,1.6-4.1,3.6-6.1,5.5c-2,1.9-4.1,3.9-6.6,5.3C140.1,117.3,137.2,118.1,134.4,117.6z"/>
					</g>
					<path class="st4" d="M132.6,118.8c1.4,1.5,1.9,3.6,2.4,5.6c1.4,5.7,2.7,11.5,4.1,17.2"/>
					<path class="st5" d="M127.8,75.6c4-3.3,8-6.5,12.6-8.8c4.6-2.3,9.9-3.4,14.9-2.3c0.5,0.1,1.1,0.3,1.5,0.8c0.6,0.8,0,2-0.7,2.8
						c-0.7,0.8-1.6,1.5-1.7,2.6c0,0.6,0.2,1.2,0.2,1.7c0,2-2.5,3.3-2.3,5.3c0.1,0.8,0.6,1.5,0.7,2.3c0.1,1.5-1.7,2.5-2,4.1
						c-0.3,1.9,1.8,3.7,1.1,5.5c-0.2,0.6-0.8,1.2-0.8,1.8c0.1,1.2,1.9,1.4,2.6,2.4c0.6,0.8,0.3,2.1-0.5,2.8c-0.8,0.7-1.9,0.9-2.9,1
						c-4.1,0.3-8.5-0.8-12.3,0.8c-2.3,1-4.1,3-6.5,4c-2.3,1-5,0.9-7.4,0.5c-4-0.6-17.7-4.2-15.9-10.4c0.9-3.1,6.4-6,8.7-7.9
						C120.5,81.5,124.2,78.5,127.8,75.6z"/>
					<g>
						<path class="st6" d="M108.3,95c1.4,0.3,2.8,0.3,4.1,0.2c1.4-0.1,2.8-0.3,4.1-0.6c2.7-0.5,5.4-1.1,8-2c2.6-0.9,5.2-1.9,7.7-3.2
							c1.2-0.6,2.4-1.3,3.6-2c0.6-0.4,1.2-0.7,1.9-1c0.7-0.3,1.4-0.4,2.1-0.2c-1.4-0.1-2.6,0.8-3.7,1.6c-1.1,0.8-2.3,1.7-3.5,2.4
							c-2.4,1.5-5,2.6-7.7,3.5c-2.7,0.9-5.5,1.5-8.3,1.8c-1.4,0.2-2.8,0.2-4.2,0.2C111,95.7,109.6,95.6,108.3,95z"/>
					</g>
					<g>
						<path class="st6" d="M108.4,93.2c2.6-0.5,5.2-1,7.7-1.9c2.4-0.9,4.7-2.2,6.9-3.7c2.2-1.5,4.2-3.2,6.4-4.8
							c2.1-1.6,4.4-3.1,6.8-4.3c-4.3,3.2-8,7-12.4,10.1c-2.2,1.5-4.7,2.8-7.3,3.6C113.8,93,111.1,93.1,108.4,93.2z"/>
					</g>
					<g>
						<path class="st6" d="M108.3,92.2c3.2-0.7,6.2-2.1,8.9-3.8c2.7-1.7,5.2-3.8,7.6-6c2.4-2.2,4.7-4.5,7.3-6.6
							c2.5-2.1,5.3-4.1,8.6-4.7c-3.1,1.1-5.6,3.3-7.9,5.5c-2.4,2.2-4.6,4.5-7.1,6.8c-2.4,2.2-5,4.3-7.9,5.9
							C114.8,90.9,111.6,92,108.3,92.2z"/>
					</g>
					<path class="st4" d="M142.4,138.1c-0.2,3.9,0.5,7.8-0.3,11.5c-0.3,1.7-1,3.5-0.9,5.2c0.1,2.7,2,5,3.8,7.1
						c3.2,3.8,6.9,7.8,11.8,8.5c1.8,0.3,3.5,0.1,5.3-0.1c4.8-0.3,9.7,0.1,14.5,1.1c0.4,0.1,0.9,0.2,1.3,0.1c1-0.2,1.9-1.5,2.7-1
						c0.3,0.2,0.4,0.5,0.6,0.8c0.8,0.9,2.1,0.4,3.2,0c1.1-0.4,2.7-0.2,2.8,0.9c1-1,2.5-2,3.7-1.3c0.4,0.3,0.8,0.7,1.3,0.7
						c0.7-0.1,0.9-0.9,0.8-1.6c-0.2-2.6-2-4.8-3.9-6.7c-0.3-0.3-0.6-0.6-0.6-1.1c0-0.6,0.8-1,0.9-1.6c0.3-1.1-1.2-1.8-1.5-2.9
						c-0.2-0.8,0.4-1.7,0.6-2.5c0.3-1.2-0.3-2.4-0.5-3.5c-0.2-1.2,0.1-2.7,1.3-3c-1.7-0.7-1.6-3-1.5-4.8c0.2-3.4-0.5-6.8-1.6-10
						c-1.1-3-2.6-5.9-5-8c-3.4-3-8.4-4.2-12.8-3c-2.6,0.7-5.1,2.3-7.8,2.6c-4.4,0.6-8.8-1.1-12.8,1.5
						C144.5,129.6,142.6,134.1,142.4,138.1z"/>
					<g>
						<path class="st5" d="M146.1,129.2c5.4,4.8,10.6,9.9,15.4,15.4c4.8,5.5,9.1,11.4,12.4,18c-4-6-8.5-11.7-13.3-17.2
							C155.9,139.9,150.9,134.7,146.1,129.2z"/>
					</g>
					<g>
						<path class="st5" d="M147.2,129c5.5,4.2,11.1,8.4,16.9,12.2c2.9,1.9,5.8,3.8,8.8,5.6c1.5,0.9,3,1.8,4.5,2.7
							c1.5,0.9,3.1,1.6,4.8,1.9c-1.8-0.1-3.5-0.7-5.1-1.4c-1.6-0.7-3.1-1.5-4.7-2.4c-3.1-1.7-6.1-3.5-9-5.4
							C157.6,138.4,152.1,134,147.2,129z"/>
					</g>
					<g>
						<path class="st5" d="M145.4,130.4c3.8,4.2,6.8,9,9.1,14.2c1.2,2.6,2.1,5.3,3,7.9c0.9,2.6,1.9,5.2,3.3,7.7
							c-1.8-2.2-3.1-4.7-4.2-7.3c-1.1-2.6-2-5.2-3.2-7.7C151.1,140,148.4,135.2,145.4,130.4z"/>
					</g>
					<g>
						<path class="st5" d="M147.1,128.5c4.7,2.3,9.4,4.6,14.3,6.5c2.4,1,4.9,1.9,7.3,2.7c2.5,0.8,4.9,1.7,7.6,1.6
							c-2.6,0.6-5.4,0-7.9-0.7c-2.6-0.7-5.1-1.5-7.5-2.5C156,134.2,151.3,131.7,147.1,128.5z"/>
					</g>
				</g>
				<g>
					<path class="st5" d="M103.8,282.9c13.2-24.7,24.3-50.8,41.6-72.8c-39.4,13.5-71.2,44-93.9,78.9c-6.8,10.4-30.9,48.6-12.9,58.7
						c14,7.8,38.2-23.6,45.1-32.6C91.4,304.9,97.9,294,103.8,282.9z"/>
					<g>
						<path class="st6" d="M46.1,338.4c7.2-9,13.7-18.4,20-28c3.1-4.8,6.2-9.6,9.3-14.5l9.3-14.5c6.3-9.6,12.5-19.3,19.1-28.7
							c3.3-4.7,6.9-9.3,10.8-13.6c3.9-4.3,8.4-7.9,12.1-12.3c-3.1,4.9-7.4,8.9-10.8,13.4c-3.6,4.4-6.8,9.2-9.9,14l-9.2,14.6
							l-9.3,14.5c-6.3,9.6-12.5,19.3-19.3,28.7C61.5,321.2,54.3,330.3,46.1,338.4z"/>
					</g>
					<g>
						<path class="st6" d="M62.7,318c3-1.7,6.1-3.1,9.2-4.5c1.6-0.7,3.1-1.4,4.7-2.1c1.6-0.7,3.1-1.3,4.8-1.9c-1.4,1-2.8,2-4.3,2.8
							c-1.5,0.9-3,1.6-4.6,2.3C69.3,316.1,66.1,317.3,62.7,318z"/>
					</g>
					<g>
						<path class="st6" d="M69.7,305.7c-1.1-1.6-1.7-3.5-2-5.5c-0.3-1.9-0.4-3.9-0.6-5.7c-0.3-3.8-1-7.5-1.7-11.3
							c1.7,3.5,2.7,7.3,3,11.2C68.6,298.3,68.4,302,69.7,305.7z"/>
					</g>
					<g>
						<path class="st6" d="M82.4,288.1c2.3-1.7,4.8-2.9,7.4-3.9c1.3-0.5,2.6-1,4-1.3c1.3-0.4,2.7-0.7,4.1-0.8
							c-1.2,0.7-2.5,1.2-3.8,1.8c-1.3,0.5-2.5,1-3.8,1.6C87.7,286.3,85.1,287.3,82.4,288.1z"/>
					</g>
					<g>
						<path class="st6" d="M93.9,269.5c-1.2-3-1.7-6.4-1.6-9.6c0.1-3.3,0.8-6.6,2.2-9.5c-0.4,3.2-0.8,6.4-0.9,9.6
							C93.5,263.1,93.7,266.2,93.9,269.5z"/>
					</g>
					<g>
						<path class="st6" d="M106.2,251.6c1.5-1.4,3.3-2.5,5.1-3.3c0.9-0.4,1.9-0.8,2.9-1.1c1-0.3,2-0.5,3-0.6
							c-0.9,0.6-1.7,1.1-2.6,1.5c-0.9,0.5-1.8,0.9-2.7,1.3C110,250.2,108.2,251,106.2,251.6z"/>
					</g>
					<g>
						<path class="st6" d="M115.9,238.4c-0.2-2.2,0.3-4.4,1-6.5c0.7-2.1,1.7-4.1,3.2-5.8c-0.6,2.2-1.3,4.1-2,6.2
							C117.3,234.3,116.7,236.3,115.9,238.4z"/>
					</g>
				</g>
				<g>
					<path class="st5" d="M106.7,205.4c20.7-18.8,40-39.6,63.7-54.5c-41.7-0.6-81.8,17.5-115,42.7c-9.9,7.5-45.5,35.4-31.9,50.9
						c10.6,12.1,44-9.3,53.4-15.5C87.6,222,97.4,213.9,106.7,205.4z"/>
					<g>
						<path class="st6" d="M33.7,238.3c9.8-6.1,19.1-12.7,28.2-19.7c4.5-3.5,9.1-7,13.6-10.5l13.6-10.5c9.2-6.9,18.3-13.9,27.7-20.6
							c4.7-3.3,9.6-6.5,14.8-9.2c5.2-2.7,10.6-4.6,15.6-7.5c-4.6,3.6-9.9,5.9-14.7,9c-4.9,3-9.5,6.4-14,9.9l-13.5,10.6l-13.6,10.5
							c-9.2,6.9-18.3,13.9-27.8,20.5C54,227.3,44.2,233.5,33.7,238.3z"/>
					</g>
					<g>
						<path class="st6" d="M56.2,224.7c3.4-0.6,6.8-0.9,10.2-1.2c1.7-0.1,3.4-0.3,5.1-0.4c1.7-0.1,3.4-0.2,5.1-0.2
							c-1.6,0.5-3.3,0.9-5,1.2c-1.7,0.3-3.4,0.5-5.1,0.7C63,225.1,59.6,225.1,56.2,224.7z"/>
					</g>
					<g>
						<path class="st6" d="M66.9,215.4c-0.5-1.9-0.4-3.9-0.1-5.8c0.3-1.9,0.9-3.8,1.3-5.6c1-3.7,1.6-7.4,2.2-11.2
							c0.5,3.8,0,7.8-0.9,11.5C68.4,208.1,67,211.5,66.9,215.4z"/>
					</g>
					<g>
						<path class="st6" d="M84.9,203.1c2.7-0.8,5.5-1.1,8.2-1.2c1.4,0,2.8,0,4.2,0.1c1.4,0.1,2.8,0.3,4.1,0.6
							c-1.4,0.2-2.8,0.3-4.1,0.4c-1.4,0.1-2.7,0.1-4.1,0.2C90.4,203.3,87.7,203.3,84.9,203.1z"/>
					</g>
					<g>
						<path class="st6" d="M102,189.5c-0.1-3.3,0.6-6.6,1.7-9.6c1.2-3,2.9-5.9,5.3-8.2c-1.5,2.9-2.9,5.7-4,8.7
							C103.7,183.3,102.8,186.3,102,189.5z"/>
					</g>
					<g>
						<path class="st6" d="M119.5,176.8c1.9-0.8,3.9-1.2,5.9-1.4c1-0.1,2-0.1,3,0c1,0.1,2,0.2,3,0.4c-1,0.3-2,0.4-3,0.6
							c-1,0.1-2,0.2-3,0.3C123.6,176.8,121.6,176.9,119.5,176.8z"/>
					</g>
					<g>
						<path class="st6" d="M133.1,167.6c0.6-2.2,1.7-4.1,3.1-5.8c1.4-1.7,3-3.3,5-4.3c-1.3,1.8-2.7,3.5-4,5.1
							C135.8,164.3,134.6,166,133.1,167.6z"/>
					</g>
				</g>
				<g>
					<path class="st4" d="M116.7,409.3c3.6-5.8,9.3-10.5,11.4-17c1-3.1,1.1-6.4,2.2-9.5c0.9-2.3,2.3-4.3,3.3-6.5
						c1.3-2.6,2-5.5,3-8.2c2.8-7.3,7.7-13.8,14.1-18.4c4.4,5.7,7.5,12.3,9.3,19.3c0.2-8.7-1.9-17.4-6-25.1
						c13.1-1.3,22.9-12.6,29.1-24.2c2.7,2.7,4.7,6,5.9,9.6c0.1-5.2-1-10.5-3-15.3c9.9-0.9,17.4-9,25.3-15.1
						c8.2-6.3,17.7-10.9,27.7-13.4c7.5-1.8,15.8-2.8,21.4-8.2c5.3,13.4-16.4,54.6-20.6,60.1c-3.7,4.9-7.3,9.9-11,14.8
						c-5.2,7-10.5,14.3-12.8,22.7c-0.2,0.9-0.5,1.8-1.1,2.5c-0.5,0.6-1.3,0.9-2,1.2c-5.3,2.2-10.5,4.3-15.8,6.5
						c4.7-0.4,9.5-0.2,14.1,0.8c-6.7,7-7.9,17.6-13.5,25.4c-7.2,10.1-20.3,14-32.3,17.2c3.9,2.2,8.2,3.5,12.6,4
						c-0.6-0.1-5.8,6.3-6.8,7.1c-2.6,2.2-5.4,4.1-8.4,5.7c-6.1,3.3-12.9,5.3-19.8,5.9c-6,0.5-15.3,0.7-20.4-3
						c-4.7-3.4-8.1-11.1-9.4-16.5C111.5,424.2,112.5,415.9,116.7,409.3z"/>
					<path class="st5" d="M197.7,411.4c5.6-7.9,6.9-18.5,13.5-25.4c-4.6-1-9.4-1.3-14.1-0.8c5.3-2.2,10.5-4.3,15.8-6.5
						c0.7-0.3,1.5-0.6,2-1.2c0.6-0.7,0.8-1.6,1.1-2.5c2.3-8.4,7.6-15.7,12.8-22.7c3.7-4.9,14.8-16.9,19-21.5
						c13.4-14.8,17.8-39.8,12.7-53.2c-4.2,4.4-8.5,8.7-12.7,13.1c-7,7.2-13.9,14.4-20.7,21.8c-38.5,42.3-68.8,91.3-104.2,136.1
						c5.2,3.4,14.2,3.2,20,2.7c6.9-0.6,13.7-2.6,19.8-5.9c3-1.6,5.8-3.5,8.4-5.7c0.9-0.8,6.1-7.2,6.8-7.1c-4.4-0.4-8.7-1.8-12.6-4
						C177.4,425.4,190.5,421.5,197.7,411.4z"/>
					<g>
						<path class="st7" d="M260.7,277.7l-11,11.6c-3.7,3.9-7.3,7.8-10.9,11.7l-10.9,11.7c-3.5,4-7.1,8-10.4,12.1
							c-3.5,4.1-6.8,8.3-10.1,12.4c-3.3,4.2-6.6,8.4-9.8,12.7c-6.5,8.5-12.7,17.1-18.9,25.8c-12.4,17.4-24.6,35-37.2,52.3
							c-3.1,4.3-6.3,8.6-9.5,12.9l-9.7,12.8c-3.2,4.3-6.3,8.6-9.6,12.9c-3.3,4.2-6.7,8.6-10.9,12.4c-1.1,1-2.9,1-4-0.2s-1-2.9,0.2-4
							c0,0,0,0,0,0c3.8-3.3,7.2-7.3,10.5-11.5c3.3-4.1,6.5-8.4,9.8-12.6l10-12.6c3.3-4.2,6.5-8.4,9.8-12.7
							c12.9-17,25.4-34.3,38.2-51.5c6.4-8.6,12.9-17.1,19.5-25.5c3.3-4.2,6.7-8.3,10.1-12.5c3.4-4.1,6.9-8.2,10.4-12.2
							c3.5-4.1,7.1-8,10.7-12l11.2-11.5c3.7-3.8,7.4-7.7,11.2-11.5l11.3-11.4c0.1-0.1,0.2-0.1,0.3,0
							C260.7,277.5,260.7,277.6,260.7,277.7z"/>
					</g>
				</g>
				<g>
					<path class="st4" d="M45.7,390.9c3.6-8.1,10.2-15.1,11.7-23.9c0.7-4.2,0.3-8.5,1.2-12.6c0.7-3.1,2.1-6,3.1-9
						c1.2-3.6,1.6-7.4,2.4-11.1c2.3-9.9,7.5-19.1,14.8-26.1c6.6,6.6,11.9,14.5,15.3,23.2c-1.3-11.2-5.5-22-12.1-31.2
						c16.6-4,27.2-20.2,33.2-36.2c3.9,3,7.1,6.9,9.3,11.3c-0.8-6.7-3.1-13.3-6.6-19.1c12.6-3,20.8-14.7,29.8-23.9
						c9.4-9.6,20.8-17.2,33.3-22.1c9.3-3.7,19.8-6.4,26-14.2c9.2,16.3,9.5,37.3,0.8,53.8c-5.3,2-10.4,4.3-15.3,7.1
						c4.3-1,8.5-2,12.8-3c-5.5,7.2-9.8,15.1-14.1,23c-3.8,7-7.7,14-11.5,20.9c-5.5,9.9-11,20.2-12.5,31.4c-0.2,1.2-0.3,2.4-1,3.4
						c-0.6,0.9-1.5,1.4-2.4,1.9c-6.4,3.7-12.8,7.4-19.1,11.1c6-1.4,12.2-1.9,18.3-1.4c-7.3,10.2-7.1,24-12.9,35.1
						c-7.5,14.3-23.6,21.6-38.5,27.8c5.4,2.1,11.1,3.1,16.9,2.9c-0.8,0-6.4,9.2-7.4,10.3c-2.9,3.3-6.3,6.2-9.8,8.8
						c-7.3,5.3-15.7,9.1-24.4,11.1c-7.6,1.7-19.5,3.6-26.7-0.2c-6.7-3.5-12.4-12.8-15-19.6C41.7,411,41.6,400.2,45.7,390.9z"/>
					<path class="st5" d="M150.2,379.3c5.8-11.1,5.6-24.9,12.9-35.1c-6.1-0.5-12.3,0-18.3,1.4c6.4-3.7,12.8-7.4,19.1-11.1
						c0.9-0.5,1.8-1.1,2.4-1.9c0.7-1,0.8-2.2,1-3.4c1.5-11.2,7-21.5,12.5-31.4c3.8-7,7.7-14,11.5-20.9c4.3-7.9,8.7-15.8,14.1-23
						c-4.3,1-8.5,2-12.8,3c4.9-2.8,10-5.1,15.3-7.1c8.6-16.5,8.4-37.2-0.6-53.5c-4.7,6.4-9.3,12.7-14,19.1
						c-7.7,10.5-15.4,20.9-22.7,31.6c-42,61.1-72.3,129.4-109.9,193.3c7.3,3.5,18.8,1.7,26.2,0c8.8-2,17.2-5.8,24.4-11.1
						c3.6-2.6,6.9-5.5,9.8-8.8c1.1-1.2,6.6-10.3,7.4-10.3c-5.7,0.2-11.5-0.8-16.9-2.9C126.6,400.9,142.7,393.7,150.2,379.3z"/>
					<g>
						<path class="st7" d="M207.5,196.4l-12.1,16.9c-4,5.6-8,11.3-12,17l-12,17c-3.8,5.8-7.7,11.5-11.3,17.4
							c-3.7,5.8-7.2,11.8-10.8,17.7c-3.5,6-7,11.9-10.3,18c-6.8,12.1-13.3,24.3-19.8,36.5c-12.9,24.5-25.4,49.3-38.6,73.7
							c-3.3,6.1-6.6,12.2-10,18.3c-3.4,6.1-6.9,12.1-10.2,18.1c-3.3,6-6.5,12.2-10.1,18.3c-3.5,6-7.1,12.2-11.8,17.8
							c-1.3,1.5-3.6,1.8-5.1,0.5c-1.5-1.3-1.8-3.6-0.5-5.1c0,0,0,0,0.1-0.1c4.3-4.9,7.9-10.7,11.5-16.6c3.6-5.8,6.9-11.9,10.4-17.9
							c3.5-6.1,7.1-11.9,10.6-17.9c3.5-6,6.9-12,10.3-18c13.6-24.1,26.6-48.6,40-72.9c6.7-12.1,13.5-24.2,20.6-36.2
							c3.5-6,7.1-11.9,10.7-17.8c3.7-5.9,7.4-11.8,11.2-17.6c3.8-5.8,7.7-11.5,11.7-17.2l12.3-16.8c4.1-5.6,8.2-11.2,12.3-16.7
							l12.5-16.6c0.1-0.1,0.2-0.1,0.3,0C207.6,196.2,207.6,196.3,207.5,196.4z"/>
					</g>
				</g>
				<g>
					<path class="st8" d="M177.6,325.8c0.7-3.1,0.8-6.4,1.5-9.5c0.1-0.3,0.1-0.6,0.3-0.8c0.4-0.4,1.2-0.2,1.5,0.3
						c0.3,0.5,0.4,1.1,0.4,1.6c0.1,5.2-0.3,13.1-4.3,17.1C172.4,339.1,177.3,327.2,177.6,325.8z"/>
					<path class="st8" d="M185.7,317.3c0.3-0.8,1.1-1.7,1.7-1.2c0.2,0.2,0.3,0.4,0.3,0.6c0.2,1,0,2-0.3,2.9
						c-0.6,2.2-3.2,14.5-6,12.6C178.9,330.6,184.8,319.8,185.7,317.3z"/>
					<path class="st8" d="M191.1,319.4c0.3-0.5,0.8-1,1.3-0.8c0.5,0.2,0.5,0.9,0.4,1.4c-0.4,2-3.1,11.9-5.8,10.6
						C183.3,328.9,190.1,320.9,191.1,319.4z"/>
					<path class="st9" d="M130.9,355.1c6.4,8.3,17.3,12.7,21.9,22.1c1.9,3.8,2.4,8.3,1.6,12.5c-0.1,0.6-0.3,1.2-0.7,1.6
						c-0.4,0.4-1.1,0.6-1.7,0.6c-3,0.2-5.4-2.3-7.2-4.7c-3.2-4.2-6-8.6-8.7-13c-4.4-6.9-8.8-14-11.2-21.9c-0.3-0.9-2-7.6,0.6-7.1
						C126.4,345.4,130,353.9,130.9,355.1z"/>
					<path class="st8" d="M138.2,360.1c0-0.4,0-0.9,0.3-1.1c0.5-0.3,1.1,0.2,1.3,0.7c0.6,1.1,0.8,2.4,1,3.6
						c0.7,3.9,1.1,7.9,1.4,11.8c0.1,1-0.2,3.2-1.7,2.6c-1.1-0.4-1.1-3.5-1.3-4.5C138.6,369,138.4,364.5,138.2,360.1z"/>
					<path class="st8" d="M150.1,378.7c-0.8,3.4-1.5,7.2,0.4,10c0.1,0.2,0.3,0.4,0.5,0.4c0.3,0,0.5-0.2,0.6-0.4
						c0.7-1.1,0.9-2.5,1.1-3.9c0.6-4.5,1.6-8.9,3-13.1c0.6-1.8,2.1-9.4-1.6-5.6C151.4,368.9,150.9,375.1,150.1,378.7z"/>
					<path class="st8" d="M145.7,376.1c-0.5,2.8-1.1,5.7,0,8.3c0.1,0.2,0.2,0.4,0.3,0.5c0.3,0.2,0.7,0,0.9-0.2
						c0.2-0.3,0.3-0.6,0.4-1c0.7-3.3,1.4-6.5,2.3-9.7c0.4-1.6,2.9-6.6,1.8-8.1C148.1,361.3,146,374.9,145.7,376.1z"/>
					<path class="st10" d="M167.4,345.5c1.3-3.6,2.6-7.2,4.9-10.2c7-9.1,20.5-9.8,29.7-16.8c-4.1,13.1-14.7,23-25.8,31.1
						c-2.3,1.7-6.9,5.5-10,5.2C162.6,354.6,166.5,348.1,167.4,345.5z"/>
					<path class="st10" d="M173.9,309.6c-0.6-3-2-6-1.6-9.1c-0.7,7.2-3.7,14-5.9,20.9c-1,3-1.8,6-1.9,9.2c-0.1,3.1,0.8,6.4,2.8,8.8
						c0.6,0.8,1.4,1.4,2.4,1.8c2.9,1,5.8-1.4,6.7-4c1-2.7-0.5-4.9-1.2-7.5C173.3,323.1,175.3,316.2,173.9,309.6z"/>
					<path class="st8" d="M173.5,354.2c0.3-1.7,0.7-3.7,2.2-4.4c0.6,0.5,0.7,1.5,0.6,2.3c-0.1,2.2-0.7,14.8-3.6,15
						C169.2,367.2,173.2,356.1,173.5,354.2z"/>
					<path class="st8" d="M179.9,361.5c-0.2,1-0.4,2.2,0,3.1c0.2,0.3,0.6,0.1,0.8-0.2c0.9-1.1,1.3-2.6,1.7-4.1
						c0.8-3.1,1.5-6.1,2.3-9.2c0.1-0.6,0.3-1.1,0.2-1.7c-0.7-4.1-2.9,1.7-3,2.4C181.2,355.1,180.5,358.3,179.9,361.5z"/>
					<path class="st8" d="M168,364c-0.2,1.1-0.4,2.5,0.4,3.3c1.1-0.5,1.5-1.8,1.7-3c0.3-1.6,2.2-11.9,0.1-12.4
						C168.4,351.5,168.3,362.5,168,364z"/>
					<path class="st8" d="M176.7,362.5c-0.2,1.1-0.4,2.5,0.4,3.3c1.1-0.5,1.5-1.8,1.7-3c0.3-1.6,2.2-11.9,0.1-12.4
						C177.1,350,177,361,176.7,362.5z"/>
					<path class="st8" d="M141.2,379.7c0,0.5,0,1,0.4,1.3c0.4,0.3,0.9,0.1,1.2-0.2c0.3-0.3,0.5-0.7,0.6-1.2
						c0.8-2.2,4.5-17.4,1.2-17.6C140.4,361.9,141.2,377.3,141.2,379.7z"/>
					<path class="st10" d="M159.7,386.1c3.2-4.8,8.3-7.8,13.3-10.7c12.1-7,24.3-13.9,34.6-23.4c1.7-1.5,3.3-3.3,3.8-5.5
						c-7.3,5-14.8,10.1-23.4,12.8c-8.4,2.6-17.9,2.8-24.7,8.4c-6.3,5.2-8.6,13.8-9.9,21.9c-0.2,1.3-0.9,11.3,1.8,10
						c0.8-0.4,1.1-5.7,1.4-6.7C157.4,390.5,158.3,388.2,159.7,386.1z"/>
					<path class="st10" d="M162.7,355.1c-0.2-0.6-0.4-1.3-0.2-1.8c0.2-0.6,1.2-0.9,1.5-0.3c0.1,0.1,0.1,0.3,0.1,0.5
						c0.2,1.7,1.2,15.4-0.5,15.2c-1.2-0.1,0.1-5.1,0.1-6C163.9,360.1,163.5,357.5,162.7,355.1z"/>
					<path class="st9" d="M161.5,339c2.2,3,5.3,7.6,4.8,11.3c-0.1,0.8-0.3,3.5-0.9,4c-1.1,0.9-3.6-2.8-4.8-3.5
						c-5.5-3.4-8.8-9.5-10.7-15.7c-1.1-3.7-1.8-7.4-2.5-11.2c-0.5-2.5-3-10.8-0.6-7.2c2.2,3.4,6.6,10.1,8.5,13
						C157.2,332.9,159.3,336,161.5,339z"/>
					<path class="st8" d="M154.1,333c0.1-1.4-0.1-2.8-0.1-4.2c0-2,0.4-4.1,1.2-5.9c0.1-0.2,0.2-0.4,0.4-0.5c0.5-0.2,0.8,0.5,0.8,1
						c0.1,2.6,0.1,5.2,0.2,7.8c0.1,2.2,0.9,6.1,0.1,8.1c-0.7,1.8-1.6,2.3-2.8,0.3C152.7,338,154,334.8,154.1,333z"/>
					<path class="st8" d="M157.8,334.8c0.2-1.5,0.5-3,1.3-4.3c0.1-0.2,0.2-0.4,0.4-0.5c1.2-1.5,3.6-0.4,3.3,1.5
						c-0.2,1.8-0.7,3.7-1.2,5.5c-0.5,1.8-1.2,8.4-3.6,7.6C155.2,343.5,157.5,336.6,157.8,334.8z"/>
					<path class="st8" d="M162,338c0.2-0.6,0.4-1.3,0.9-1.8c0.5-0.5,1.3-0.7,1.8-0.2c0.6,0.5,0.5,1.4,0.3,2.1
						c-0.4,1.8-1.7,7.7-4.1,7.5C158,345.3,161.5,339.5,162,338z"/>
					<path class="st8" d="M151.3,324.4c0.1-0.6,0.3-1.4,0.9-1.6c0.5-0.1,1.1,0.2,1.3,0.7c0.2,0.5,0.2,1,0.2,1.6
						c-0.1,1.8-0.2,10-2.2,9.1C148.8,333,151,326.1,151.3,324.4z"/>
					<path class="st10" d="M166.9,354.6c-2.5-7.1-8.9-12.1-12.7-18.6c-4.7-7.8-5.7-17.5-10.7-25.1c0.9,6.9,1.9,13.8,3,20.6
						c0.9,5.2,1.8,10.5,4.3,15.2c3.2,6.3,9,11.5,9.7,18.6c0.1,1.2,0.1,2.4,0.4,3.6c1.3,4.5,5.2,2.6,6.1-0.7
						C168.3,363.7,168.5,358.9,166.9,354.6z"/>
					<path class="st10" d="M156.3,398.5c-1.4-4.7-4-9-6.6-13.2c-2.7-4.3-5.3-8.6-8.3-12.7c-4.1-5.8-8.7-11.2-11.9-17.5
						c-1.8-3.6-3.1-7.3-4.4-11.1c-1.4-4-2.8-8-4.2-12c0.8,15.2,1.8,31.2,10.3,43.9c3.2,4.8,7.3,9,10,14.1c4.9,9.3,4.5,20.4,7,30.6
						c1.7,6.7,5.5-5.1,6.5-6.9C157.3,408.9,157.9,403.8,156.3,398.5z"/>
					<path class="st8" d="M159.1,412c1.2-0.5,1.8-1.8,1.8-3.1c0.1-1.3-0.4-2.5-0.8-3.7c-0.8-2.2-6.9-17.6-10.4-13.3
						c-2,2.4,2.2,6.5,3.3,8.3C155.4,404,157.2,408,159.1,412z"/>
					<path class="st8" d="M153.5,407.6c-2.6-3.1-5.9-5.4-9.4-7.3c-0.6-0.3-1.2-0.7-1.6-1.2c-0.4-0.5-0.6-1.3-0.2-1.9
						c0.2-0.2,0.4-0.4,0.7-0.5c1.6-0.7,3.4,0.4,4.7,1.4c3.1,2.3,6.2,4.7,9,7.4c1.5,1.5,7.4,9.1,3.2,10.5
						C157.2,416.9,154.9,409.3,153.5,407.6z"/>
					<path class="st8" d="M163.5,398.3c-0.6-3-1.1-6.1-3.2-8.3c-0.2-0.3-0.6-0.5-0.9-0.5c-0.3,0.1-0.6,0.4-0.7,0.7
						c-1.1,2.2-0.8,4.9-0.4,7.3c0.5,3.6,1.1,7.3,3,10.5c1.4,2.5,4.7,3.4,4.9,0C166.2,405.2,164,401.1,163.5,398.3z"/>
					<path class="st8" d="M167.7,401.4c-0.3,1-0.5,2.3,0.4,2.7c0.9,0.5,1.9-0.4,2.4-1.3c1.2-1.9,6.7-12.8,3.6-14
						C170.7,387.4,168.5,399.2,167.7,401.4z"/>
					<path class="st8" d="M163.8,401.2c0,0.7-0.1,1.3,0.1,1.9c0.2,0.6,0.7,1.2,1.4,1.2c1.1,0.1,1.8-1.2,2.2-2.3
						c0.8-2.5,1.6-4.9,1.9-7.5c0.2-1.9-0.3-10.3-3.9-7.9C163,388.4,163.9,398.4,163.8,401.2z"/>
					<path class="st10" d="M148.9,417.5c0.4-3.8,2.8-7.2,5.7-9.6c3-2.4,6.5-4,9.9-5.7c21.8-10.8,41.7-25.4,58.5-43
						c-4.2,7.1-8.4,14.3-13.5,20.7c-10.7,13.6-25.2,23.7-37.5,35.9c-2.9,2.9-5.8,5.9-9.1,8.3c-2.6,1.8-7.6,5.1-10.8,3.3
						C149.3,425.7,148.6,420.3,148.9,417.5z"/>
					<g>
						<path class="st5" d="M188.3,408.3c16.5-5,33.7-8.5,49.1-16.3c-12.9,22.2-35.3,37.7-59.1,47.2c-7.1,2.8-33.2,12.8-37,0.6
							c-3-9.4,18.9-20.2,25.2-23.3C173.5,413.1,180.8,410.6,188.3,408.3z"/>
						<g>
							<path class="st6" d="M147.7,436.5c5.9-4,12.2-7.3,18.7-10.2c6.5-2.9,13.1-5.5,19.7-8.1l9.9-3.8l9.9-3.8
								c3.3-1.3,6.5-2.6,9.7-4.3c3.2-1.5,6.1-3.6,9.4-4.9c-3.1,1.7-5.9,3.9-8.9,5.8c-3.1,1.9-6.3,3.4-9.5,4.9
								c-6.5,2.8-13.1,5.4-19.7,8.1l-19.8,7.7C160.5,430.4,154,433.2,147.7,436.5z"/>
						</g>
						<g>
							<path class="st6" d="M162,428.9c0.9-1.9,2-3.7,3.2-5.5c1.3-1.7,2.6-3.3,4.2-4.7c-1.1,1.8-2.3,3.5-3.5,5.2
								C164.7,425.6,163.4,427.3,162,428.9z"/>
						</g>
						<g>
							<path class="st6" d="M170.3,426.2c2.1,1.2,4.4,1.5,6.7,2.2c2.3,0.7,4.5,1.7,6.4,3.2c-2.2-0.9-4.4-1.8-6.6-2.4
								c-1.1-0.3-2.3-0.6-3.4-1.1C172.3,427.6,171.2,427,170.3,426.2z"/>
						</g>
						<g>
							<path class="st6" d="M182.6,420.6c0.8-1.5,1.7-3,2.6-4.4c0.9-1.4,1.8-2.8,2.9-4.2c-0.5,1.7-1.3,3.2-2.3,4.6
								C184.9,418.1,183.8,419.5,182.6,420.6z"/>
						</g>
						<g>
							<path class="st6" d="M195.2,415.9c1.9,0.5,3.8,1,5.8,1.4c1.9,0.3,3.9,0.5,5.9,0.6c-2,0.5-4,0.5-6,0.2
								C198.8,417.7,196.9,417,195.2,415.9z"/>
						</g>
						<g>
							<path class="st6" d="M207.5,410.7c0.6-1.1,1.3-2.2,2-3.2c0.7-1,1.5-2,2.4-2.9c-0.4,1.2-1,2.3-1.7,3.3
								C209.4,409,208.6,410,207.5,410.7z"/>
						</g>
						<g>
							<path class="st6" d="M216.7,406.5c1.4-0.3,2.7-0.4,4-0.6c1.3-0.2,2.6-0.4,4-0.5c-1.2,0.7-2.5,1.1-3.9,1.3
								C219.4,406.9,218,406.8,216.7,406.5z"/>
						</g>
					</g>
					<g>
						<path class="st4" d="M125.3,395.9c-13.4-10.9-27.9-20.7-39.2-33.8c3.5,25.4,18.3,48.3,36.7,66.1c5.5,5.3,25.8,24.4,34,14.7
							c6.4-7.6-9.8-25.9-14.5-31.1C137.2,406,131.4,400.8,125.3,395.9z"/>
						<g>
							<path class="st5" d="M152.2,437.3c-4.6-5.4-9.6-10.4-14.6-15.4l-15.4-14.7c-5.1-4.9-10.2-9.8-15.1-15c-2.5-2.6-4.8-5.3-7-8.1
								c-2.1-2.9-3.8-6-6-8.8c2.6,2.4,4.5,5.5,6.8,8.1c2.3,2.7,4.8,5.2,7.3,7.6l7.7,7.3l7.7,7.3c5.1,4.9,10.2,9.8,15.1,15
								C143.6,426,148.2,431.4,152.2,437.3z"/>
						</g>
						<g>
							<path class="st5" d="M141.8,424.9c-0.7-2-1.2-4.1-1.7-6.1c-0.5-2-1-4.1-1.3-6.2c0.9,1.9,1.6,3.9,2.1,6
								C141.4,420.7,141.7,422.8,141.8,424.9z"/>
						</g>
						<g>
							<path class="st5" d="M135.1,419.2c-1.1,0.5-2.3,0.6-3.5,0.6c-1.2,0-2.4-0.2-3.5-0.3c-2.3-0.2-4.6-0.3-7-0.3
								c2.3-0.6,4.7-0.8,7.1-0.5C130.5,419,132.8,419.6,135.1,419.2z"/>
						</g>
						<g>
							<path class="st5" d="M126,409.4c-0.7-1.6-1.2-3.2-1.5-4.9c-0.3-1.7-0.5-3.4-0.3-5.1c0.5,1.7,0.8,3.3,1.1,5
								C125.5,406,125.8,407.7,126,409.4z"/>
						</g>
						<g>
							<path class="st5" d="M116.1,400.3c-2,0.4-4,0.3-6-0.2c-2-0.5-3.9-1.2-5.5-2.4c1.9,0.6,3.8,1.2,5.7,1.7
								C112.1,399.8,114.1,400,116.1,400.3z"/>
						</g>
						<g>
							<path class="st5" d="M106.7,390.7c-0.7-1.1-1.1-2.3-1.4-3.5c-0.3-1.2-0.5-2.5-0.3-3.7c0.5,1.2,0.8,2.4,1.1,3.6
								C106.3,388.3,106.6,389.5,106.7,390.7z"/>
						</g>
						<g>
							<path class="st5" d="M99.8,383.4c-1.4-0.2-2.7-0.7-3.8-1.3c-1.2-0.7-2.3-1.5-3.1-2.6c1.2,0.6,2.4,1.3,3.5,1.9
								C97.5,382,98.7,382.6,99.8,383.4z"/>
						</g>
					</g>
				</g>
				<g>
					<g>
						<path class="st4" d="M242.8,423.2c2.3,2.1,4.8,4.1,7.3,5.9l4.8-1.8l0.9,5.3c4.4,2.3,9,4.1,13.8,5.4c9.4,2.4,19.1,2.5,28.8,2.6
							l2.5-2.8l1.8,2.8c5.1,0.1,10.2,0.3,15.3,0.8c-6.2-10.8-16-19.1-26.4-26c-4.4-2.9-8.9-5.6-13.7-7.7c-0.9-0.4-4,1.4-4,1.4
							l-2.1-3.7c-0.9-0.3-1.8-0.5-2.7-0.8c-7.9-2-16.8-1.8-24.3,1.8c-2.7,1.3-6.9,3.4-7.7,6.6C236.2,417,240.3,420.9,242.8,423.2z"
							/>
						<path class="st5" d="M237.2,413.1c0.9-3.2,5-5.3,7.7-6.6c7.5-3.6,16.4-3.8,24.3-1.8c0.9,0.2,1.8,0.5,2.7,0.8l2.1,3.7
							c0,0,3.1-1.8,4-1.4c4.8,2.1,9.3,4.8,13.7,7.7c10.4,6.9,20.2,15.2,26.4,26C318,441.4,293.9,420.5,237.2,413.1z"/>
					</g>
					<g>
						<path class="st4" d="M233.1,395.1c-0.7-2.1-1.5-4.1-2.5-6l-3.6-0.5l1.2-3.5c-1.9-2.9-4.1-5.5-6.7-7.9
							c-4.9-4.6-10.8-7.9-16.7-11.2l-2.5,0.9l-0.1-2.3c-3.1-1.7-6.2-3.5-9-5.6c0.2,8.7,3.4,17,7.5,24.6c1.7,3.2,3.6,6.3,5.8,9.2
							c0.4,0.6,2.9,0.5,2.9,0.5l0,2.9c0.4,0.5,0.9,0.9,1.4,1.3c4.2,3.9,9.7,6.7,15.4,6.9c2.1,0.1,5.3,0.2,6.9-1.5
							C235.1,401.1,233.9,397.4,233.1,395.1z"/>
						<path class="st5" d="M233.2,403.1c-1.6,1.7-4.8,1.6-6.9,1.5c-5.8-0.3-11.3-3.1-15.4-6.9c-0.5-0.4-0.9-0.9-1.4-1.3l0-2.9
							c0,0-2.5,0.1-2.9-0.5c-2.2-2.9-4.1-6-5.8-9.2c-4.1-7.6-7.3-16-7.5-24.6C193.2,359.1,201,379.8,233.2,403.1z"/>
					</g>
					<g>
						<path class="st4" d="M220.8,404.6c-2.4,1-4.8,2.2-7,3.5l-0.3,4.3l-4.3-1.2c-3.3,2.5-6.3,5.4-8.9,8.7
							c-5.1,6.3-8.6,13.7-12.1,21.1l1.2,2.9l-2.8,0.3c-1.9,3.9-3.8,7.7-6,11.4c10.4-1,20.2-5.5,29.1-11c3.7-2.3,7.4-4.8,10.7-7.8
							c0.6-0.6,0.4-3.5,0.4-3.5l3.5-0.3c0.5-0.6,1-1.2,1.5-1.8c4.3-5.4,7.3-12.2,7.1-19.2c0-2.5-0.2-6.4-2.3-8.2
							C227.9,401.7,223.5,403.5,220.8,404.6z"/>
						<path class="st5" d="M230.5,403.9c2.2,1.8,2.3,5.7,2.3,8.2c0.1,7-2.8,13.8-7.1,19.2c-0.5,0.6-1,1.2-1.5,1.8l-3.5,0.3
							c0,0,0.3,3-0.4,3.5c-3.3,2.9-6.9,5.4-10.7,7.8c-8.9,5.5-18.7,10.1-29.1,11C180.5,455.7,205,444.6,230.5,403.9z"/>
					</g>
					<path class="st11" d="M229.4,389c-0.5-4.8-1.2-9.7-2-14.5"/>
					<path class="st10" d="M222.5,361.3c0.1-1.1,0.3-2.2,0.9-3.1c0.6-0.9,1.8-1.6,2.8-1.2c0.8,0.2,1.3,0.9,1.7,1.6
						c0.6,1.1,0.9,2.4,1.1,3.6c1,4.8,2.1,9.7,1.8,14.5c-0.1,1.8-0.7,4.3-3,4.2c-2.3-0.1-2.9-3.1-3.5-4.8
						C222.8,371.3,222,366.3,222.5,361.3z"/>
					<path class="st11" d="M257.6,388.7c3.1-1.8,6.3-3.7,9.4-5.5c3.4-2,7-4,10.9-4.1"/>
					<path class="st10" d="M278.1,381.5c4.6,0.1,9.3,0.2,13.9,0.1c2.2-0.1,4.5-0.2,6.4-1.3c0.7-0.4,1.4-1,1.5-1.9
						c0.2-1.5-1.6-2.4-3-2.7c-4.7-1.2-9.5-1.4-14.3-0.8c-2.4,0.3-6.3,0.9-8.1,2.9C272,380.6,275.9,381.5,278.1,381.5z"/>
					<path class="st11" d="M264.5,385c2.2,0.7,3.6,1.2,5.8,1.9"/>
					<path class="st10" d="M277.5,393.9c0.8,0.3,1.7,0.5,2.3-0.1c0.7-0.6,0.4-1.7,0-2.5c-1.5-3-6-7.8-9.5-4.9
						C266.2,389.7,275.2,393.1,277.5,393.9z"/>
					<path class="st11" d="M272.5,408.2c5-1.1,10-1.9,15.1-2.6"/>
					<path class="st10" d="M292,409c1.9-0.1,3.9-0.2,5.8-0.7c0.9-0.2,1.9-0.6,2.4-1.5c0.4-0.8,0.3-1.8-0.1-2.5
						c-0.5-0.8-1.2-1.3-2-1.7c-2.7-1.2-9.2-1.1-11.3,1.3C283.5,407.5,289.4,409.1,292,409z"/>
					<path class="st11" d="M240,430.3c0.2,1.7,1.2,3.2,1.6,4.8c0.5,1.7,0.4,3.5,0.3,5.2c-0.2,3.1-0.5,6.1-0.9,9.2"/>
					<path class="st10" d="M237.6,451.8c0,0.5,0.1,1,0.3,1.4c0.6,1,1.9,1.1,3,1.2c0.4,0,0.8,0,1.2-0.1c0.6-0.2,1-0.9,1.3-1.5
						c0.9-2.2,1.6-8.1-1.8-8.6C237.6,443.7,237.5,449.2,237.6,451.8z"/>
					<path class="st11" d="M219.9,412.9c-1.1,0.2-2.3,0.3-3.4,0.3c-4,0.2-8.1,0.4-11.8-1.1"/>
					<path class="st10" d="M200.7,413.2c0.9,0.5,2,0.9,3.1,0.7c1.1-0.2,2-1.2,1.8-2.2c-0.2-0.9-1.1-1.5-1.9-1.9
						c-1.1-0.6-2.2-1.2-3.4-1.3c-1.2-0.1-2.6,0.3-3.2,1.4C196.1,411.9,199.5,412.6,200.7,413.2z"/>
					<path class="st8" d="M220.1,411.9c-6.3-0.7-12.3-4.7-14.8-10.5c-2.5-5.7-1.5-12.2-0.6-18.3c5.7-0.9,11.6-0.9,17.1,0.9
						c5.5,1.8,10.5,5.4,13.2,10.5c2.2,4.3,4.2,9.6,0.1,13.1C231.2,410.9,225.1,412.4,220.1,411.9z"/>
					<path class="st12" d="M204.7,383c-1,6.1-1.9,12.6,0.6,18.3c2.5,5.8,8.5,9.9,14.8,10.5c5,0.5,11.1-0.9,15-4.3
						c0.5-0.4,0.8-0.8,1.2-1.2c-3.9,0.6-7.7,1.1-11.6,0.4c-5-0.8-9.9-3.4-12.6-7.6c-1.4-2.2-2.2-4.7-3.2-7.2c-1.1-3.1-2.5-6-4-8.9
						C204.8,383,204.8,383,204.7,383z"/>
					<g>
						<path class="st8" d="M229.7,390.5c0.3-6.3,3.9-12.5,9.6-15.4c5.5-2.8,12.1-2.3,18.2-1.7c1.3,5.6,1.6,11.5,0.2,17.1
							c-1.4,5.6-4.8,10.8-9.7,13.8c-4.1,2.5-9.3,4.8-13.1,0.9C231.4,401.5,229.5,395.6,229.7,390.5z"/>
						<path class="st12" d="M257.5,373.4c-6.2-0.6-12.7-1.1-18.2,1.7c-5.7,2.9-9.3,9.1-9.6,15.4c-0.2,5.1,1.6,11,5.2,14.7
							c0.4,0.4,0.9,0.8,1.3,1.1c-0.9-3.8-1.6-7.6-1.2-11.5c0.5-5,2.7-10.1,6.8-13.1c2.1-1.6,4.6-2.5,7-3.6c3-1.3,5.9-2.9,8.7-4.6
							C257.5,373.5,257.5,373.4,257.5,373.4z"/>
					</g>
					<g>
						<path class="st8" d="M245.8,392.1c5.4-3.3,12.6-3.7,18.1-0.6c5.4,3,8.6,8.8,11.5,14.2c-4,4.2-8.7,7.8-14.1,9.7
							c-5.4,1.9-11.6,2-16.9-0.4c-4.4-2-9.2-5.1-8-10.4C237.5,399.6,241.5,394.7,245.8,392.1z"/>
						<path class="st12" d="M275.5,405.8c-2.9-5.5-6.1-11.2-11.5-14.2c-5.5-3.1-12.7-2.7-18.1,0.6c-4.3,2.6-8.3,7.5-9.4,12.5
							c-0.1,0.6-0.2,1.2-0.2,1.7c2.7-2.8,5.5-5.5,9-7.3c4.5-2.4,9.9-3.3,14.7-1.6c2.5,0.9,4.6,2.4,6.9,3.8
							C269.5,403,272.4,404.5,275.5,405.8C275.4,405.9,275.4,405.8,275.5,405.8z"/>
					</g>
					<g>
						<path class="st8" d="M253.4,407.2c5.6,3,9.7,8.9,9.8,15.2c0.2,6.2-3.1,11.9-6.2,17.2c-5.6-1.2-11.1-3.4-15.6-7.1
							c-4.4-3.7-7.7-8.9-8.3-14.7c-0.5-4.8-0.4-10.5,4.7-12.3C242.7,403.9,248.9,404.8,253.4,407.2z"/>
						<path class="st12" d="M257,439.6c3.2-5.3,6.4-11,6.2-17.2c-0.2-6.3-4.2-12.3-9.8-15.2c-4.5-2.4-10.7-3.2-15.6-1.6
							c-0.6,0.2-1.1,0.4-1.5,0.7c3.8,0.8,7.5,1.8,10.9,3.9c4.3,2.6,7.9,6.8,8.9,11.7c0.5,2.6,0.3,5.2,0.3,7.9
							c-0.1,3.3,0.1,6.5,0.4,9.8C256.9,439.6,256.9,439.6,257,439.6z"/>
					</g>
					<g>
						<path class="st8" d="M243.5,421.8c0,6.3-3.4,12.7-8.9,15.8c-5.4,3-12,2.8-18.1,2.5c-1.5-5.6-2.1-11.5-0.9-17.1
							c1.2-5.6,4.3-11,9.1-14.2c4-2.7,9.1-5.2,13.1-1.5C241.4,410.9,243.5,416.8,243.5,421.8z"/>
						<path class="st12" d="M216.4,440.1c6.2,0.3,12.7,0.6,18.1-2.5c5.5-3.1,8.9-9.5,8.9-15.8c0-5.1-2.1-10.9-5.8-14.5
							c-0.4-0.4-0.9-0.7-1.4-1c1,3.8,1.9,7.5,1.6,11.5c-0.3,5.1-2.3,10.2-6.3,13.4c-2,1.7-4.5,2.7-6.8,3.9c-2.9,1.5-5.7,3.1-8.5,4.9
							C216.4,440,216.4,440.1,216.4,440.1z"/>
					</g>
					<polygon class="st10" points="239.3,398.8 239.2,400.8 241,399.9 240.4,401.8 242.4,401.4 241.3,403.1 243.3,403.2 
						241.8,404.6 243.8,405.2 241.9,406.1 243.7,407.2 241.7,407.6 243.1,409.1 241,409 242,410.9 240,410.2 240.5,412.2 
						238.8,411.1 238.7,413.2 237.3,411.6 236.7,413.6 235.8,411.8 234.7,413.5 234.2,411.5 232.7,412.9 232.8,410.9 231,411.8 
						231.6,409.9 229.6,410.3 230.7,408.6 228.7,408.5 230.2,407.2 228.2,406.6 230.1,405.6 228.3,404.5 230.3,404.1 228.9,402.6 
						231,402.7 230,400.9 232,401.5 231.5,399.5 233.2,400.6 233.3,398.5 234.7,400.1 235.3,398.1 236.2,399.9 237.3,398.2 
						237.8,400.2 					"/>
				</g>
				<g>
					<path class="st4" d="M110.8,251.9c23.2-15.7,45.2-33.6,70.8-44.9c-41.1-6.5-83.5,5.7-119.9,25.9c-10.8,6-50.1,28.6-38.8,45.9
						c8.8,13.4,44.8-3,55.1-7.8C89.5,265.6,100.4,259,110.8,251.9z"/>
					<g>
						<path class="st5" d="M33.8,274c10.5-4.6,20.7-9.9,30.7-15.5c5-2.8,10-5.6,15-8.5l15-8.5c10.1-5.6,20.1-11.2,30.3-16.5
							c5.1-2.6,10.4-5,15.9-7c5.5-2,11.1-3,16.5-5.2c-5,2.9-10.7,4.5-15.8,6.8c-5.2,2.3-10.3,5-15.3,7.8l-14.9,8.6l-15,8.5
							c-10.1,5.6-20.1,11.2-30.4,16.4C55.5,266.1,44.9,270.7,33.8,274z"/>
					</g>
					<g>
						<path class="st5" d="M58,263.8c3.4-0.1,6.8,0.1,10.2,0.3c1.7,0.1,3.4,0.2,5.1,0.3c1.7,0.1,3.4,0.3,5.1,0.5
							c-1.7,0.3-3.4,0.4-5.1,0.5c-1.7,0.1-3.4,0-5.1-0.1C64.8,265.1,61.4,264.7,58,263.8z"/>
					</g>
					<g>
						<path class="st5" d="M70,256.1c-0.2-1.9,0.2-3.9,0.8-5.8c0.6-1.9,1.4-3.6,2.1-5.4c1.5-3.5,2.6-7.1,3.7-10.8
							c-0.1,3.9-1.1,7.7-2.5,11.3C72.5,249.1,70.6,252.3,70,256.1z"/>
					</g>
					<g>
						<path class="st5" d="M89.5,246.5c2.8-0.4,5.6-0.3,8.3,0c1.4,0.2,2.8,0.4,4.1,0.7c1.4,0.3,2.7,0.7,4,1.2
							c-1.4,0-2.8-0.1-4.2-0.2c-1.4-0.1-2.7-0.3-4.1-0.4C95,247.4,92.2,247.1,89.5,246.5z"/>
					</g>
					<g>
						<path class="st5" d="M108.3,235.4c0.3-3.3,1.5-6.4,3.1-9.3c1.6-2.8,3.7-5.5,6.4-7.4c-1.9,2.7-3.7,5.3-5.2,8
							C111,229.6,109.7,232.4,108.3,235.4z"/>
					</g>
					<g>
						<path class="st5" d="M127.5,225.3c2-0.6,4.1-0.6,6.1-0.5c1,0.1,2,0.2,3,0.4c1,0.2,2,0.5,2.9,0.9c-1,0.1-2,0.1-3.1,0.1
							c-1,0-2-0.1-3-0.1C131.6,225.9,129.6,225.8,127.5,225.3z"/>
					</g>
					<g>
						<path class="st5" d="M142.2,218.2c0.9-2.1,2.3-3.8,3.9-5.3c1.6-1.5,3.5-2.8,5.6-3.6c-1.5,1.6-3.1,3-4.7,4.5
							C145.4,215.2,143.9,216.7,142.2,218.2z"/>
					</g>
				</g>
				<g>
					<path class="st13" d="M70,105.3c2.3,0.5,4.6,1.6,6.4,3.1c2.5,2,4.3,4.8,6,7.5c1,1.6,2.1,3.2,3.1,4.8"/>
					<path class="st5" d="M92.2,122.4c1.5,1.2,3.1,2.4,4.3,3.8c1.2,1.5,2.2,3.3,2.3,5.2c-3-0.8-6-2.1-8.6-3.8
						c-1.7-1.1-5.9-3.9-4.9-6.5C86.6,117.9,90.7,121.2,92.2,122.4z"/>
					<path class="st10" d="M93.1,139.5c0.4,1.3,17.2,32.6,19.2,35.8c1.9,2.9,3.8,5.8,5.7,8.7c0.3,0.4,0.6,0.9,1,1
						c0.4,0.2,0.9,0.1,1.3,0c4-0.8,7.8-2.3,11.9-2.2c1.9,0.1,3.8,0.5,5.6-0.1c1.6-0.5,2.8-1.8,3.9-3c0.3-0.3,0.6-0.7,0.7-1.1
						c0.1-0.6-0.2-1.2-0.6-1.8c-2.8-3.9-6.3-7.2-9.9-10.5c-5.2-4.9-26.5-27.9-28.1-29.5c-3.4-3.4-6.8-6.8-10.3-10.2
						c-0.7-0.7-1.5-1.4-2.4-1.8c-0.9-0.4-2.1-0.4-2.9,0.3c-0.7,0.7-0.8,1.8-0.5,2.7c0.5,1.6,1.7,3.2,2.5,4.7
						C91.3,134.8,92.3,137.2,93.1,139.5z"/>
					<path class="st10" d="M116.3,199.1c-0.4,0.2-0.8,0.5-1,0.8c-0.8,0.9-0.5,2.2-0.6,3.3c-0.2,2.5-2.1,4.5-4.3,5.6
						c-2.2,1.1-4.7,1.5-7.1,1.8c1.7,1.5,4.3,1.4,6.5,0.8c2.2-0.7,4.2-1.9,6.4-2.4c3.9-0.9,8.3,0.4,11,3.3c0.1-1.6,1.1-3,2.4-3.9
						c1.3-0.9,2.9-1.3,4.5-1.6c2.7-0.5,5.4-0.6,8.1-0.4c0.3,0,0.6,0,0.9-0.1c0.3-0.2,0.5-0.5,0.7-0.7c0.9-1.1,2.7-1,4.1-1.3
						c2.7-0.7,4.4-3.1,5.5-5.6c1.1-2.5,1.8-5.2,3.5-7.4c0.9-1.2,2.2-2.2,3.3-3.2c2.1-2.1,3.8-4.6,5-7.3c-0.8,0.8-1.8,1.5-2.8,1.8
						c-1.1,0.3-2.4,0.1-3.1-0.7c-0.7-0.8-0.9-2-1.7-2.8c-0.9-0.9-2.5-1.2-3-2.4c-0.5-1,0.1-2.2-0.2-3.2c-0.4-1.3-1.8-1.9-2.8-2.7
						c-2.1-1.8-2.6-4.8-3-7.5c-0.4-2.7-1-5.8-3.3-7.4c0.7,9-1.5,16.1-5.3,23.2c-0.5,0.9-1,1.8-1.8,2.4c-0.8,0.6-1.8,0.9-2.7,1.1
						c-3.4,0.9-6.8,1.9-10.2,2.8c-1.2,0.3-4.7,0.4-5.5,1.4c-0.8,1,0.4,3,0.5,4.2C120.3,194.1,118.9,197.4,116.3,199.1z"/>
					<g>
						<path class="st14" d="M126,187.1c0.4,1.3,0.6,2.8,0.7,4.2c0.1,1.4-0.1,2.9-0.4,4.3c-0.3,1.4-0.7,2.8-1.2,4.1
							c-0.3,0.7-0.5,1.3-0.8,2c-0.3,0.6-0.8,1.4-1.5,1.4c0.7-0.2,1-0.9,1.2-1.6l0.6-2c0.4-1.4,0.7-2.7,1-4c0.3-1.4,0.5-2.7,0.5-4.1
							C126.1,189.9,126.1,188.5,126,187.1z"/>
					</g>
					<g>
						<path class="st14" d="M128.5,186.4c0.2,1.5,0.4,3,0.5,4.6c0.1,1.5,0.2,3.1,0.1,4.6c-0.1,1.5-0.3,3.1-0.7,4.6
							c-0.4,1.5-1.1,2.9-2.1,4.1c0.7-1.4,1.2-2.8,1.5-4.3c0.3-1.5,0.5-3,0.5-4.5c0.1-1.5,0-3,0-4.5
							C128.4,189.4,128.4,187.9,128.5,186.4z"/>
					</g>
					<g>
						<path class="st14" d="M130.8,186.1c0.4,1.3,0.8,2.6,1.3,3.9c0.5,1.3,1,2.5,1.6,3.7c0.6,1.2,1.3,2.4,2,3.5
							c0.7,1.1,1.5,2.2,2.3,3.4c-1-0.9-1.9-1.9-2.8-3c-0.8-1.1-1.5-2.3-2.2-3.5c-0.6-1.2-1.1-2.5-1.5-3.8
							C131.2,188.8,130.9,187.5,130.8,186.1z"/>
					</g>
					<g>
						<path class="st14" d="M134,185.3c0.7,1.4,1.3,2.8,1.9,4.1c0.6,1.4,1.3,2.7,2,4.1c0.7,1.3,1.4,2.6,2.2,3.9
							c0.8,1.3,1.7,2.4,2.8,3.6c-1.2-0.9-2.3-2-3.2-3.3c-0.9-1.2-1.7-2.5-2.4-3.9c-0.7-1.4-1.3-2.8-1.8-4.2
							C134.9,188.3,134.4,186.8,134,185.3z"/>
					</g>
					<g>
						<path class="st14" d="M137.7,184.1c0.6,1.2,1.2,2.5,1.8,3.7c0.7,1.2,1.3,2.4,2.1,3.5c0.7,1.1,1.5,2.3,2.3,3.3
							c0.8,1.1,1.8,2,3,2.7c-1.3-0.4-2.5-1.3-3.4-2.4c-1-1-1.8-2.1-2.5-3.3c-0.7-1.2-1.4-2.4-1.9-3.7
							C138.5,186.7,138,185.4,137.7,184.1z"/>
					</g>
					<g>
						<path class="st14" d="M139.9,182.8c1.8,1.7,4.1,2.8,6.5,3.3c2.4,0.6,4.9,0.7,7.4,1c-2.5,0.3-5,0.3-7.5-0.2
							c-1.2-0.3-2.5-0.8-3.6-1.4C141.5,184.8,140.6,183.9,139.9,182.8z"/>
					</g>
					<g>
						<path class="st14" d="M142,181c1.5,0.5,2.9,0.7,4.4,0.7c1.5,0,3-0.2,4.6-0.3c-1.4,0.6-3,1-4.6,1
							C144.9,182.5,143.2,182.1,142,181z"/>
					</g>
					<g>
						<path class="st15" d="M91.5,131.1c2.4,4.5,4.6,9,7.4,13.2c1.4,2.1,2.8,4.1,4.4,6.2c1.5,2,2.9,4.2,4.1,6.5
							c1.1,2.3,2.1,4.6,3.2,6.9c1.1,2.3,2.3,4.5,3.5,6.7c2.4,4.4,5,8.7,7.8,13c-3.1-4-5.8-8.3-8.3-12.7c-1.3-2.2-2.4-4.4-3.6-6.7
							c-1.1-2.3-2.2-4.6-3.3-6.8c-2.1-4.6-5.7-8.3-8.2-12.7C95.7,140.3,93.5,135.7,91.5,131.1z"/>
					</g>
					<g>
						<path class="st15" d="M91.2,129c1.5,2.2,3,4.4,4.5,6.6l4.5,6.6l9.1,13.2c3,4.4,6.1,8.8,9.1,13.1c1.5,2.2,3.1,4.4,4.6,6.5
							c1.5,2.2,3.2,4.3,4.8,6.4c-3.5-4-6.7-8.3-9.9-12.6c-3.2-4.3-6.2-8.7-9.3-13c-3-4.4-6-8.8-8.9-13.3
							C96.8,138,93.9,133.6,91.2,129z"/>
					</g>
					<g>
						<path class="st15" d="M94.7,130.1l10.3,12.6c3.4,4.2,6.7,8.5,10.2,12.7c3.5,4.2,7.1,8.3,10.6,12.3l10.8,12.2l-5.6-5.9l-5.5-6
							c-3.7-4-7.3-8.1-10.8-12.2c-1.8-2.1-3.4-4.2-5.1-6.4c-1.7-2.1-3.4-4.3-5-6.4l-5-6.5L94.7,130.1z"/>
					</g>
					<g>
						<path class="st5" d="M52.8,150.3c-10.5,11.4-22.1,21.9-30.4,35c-0.1-23,10-45.2,24.1-63.4c4.2-5.4,19.8-25,28.3-17.4
							c6.6,5.9-5.4,24.3-8.9,29.5C62,139.8,57.5,145.1,52.8,150.3z"/>
						<g>
							<path class="st6" d="M71.3,110c-2.7,5.8-6.1,11.2-9.8,16.4c-3.7,5.2-7.6,10.2-11.5,15.3l-5.9,7.5l-5.9,7.4
								c-1.9,2.5-3.8,5-5.5,7.7c-1.7,2.6-3,5.6-5,8.1c1.6-2.7,2.7-5.7,4.2-8.6c1.5-2.8,3.3-5.5,5.1-8.1c3.7-5.2,7.6-10.2,11.5-15.2
								l11.8-15C64.1,120.5,67.9,115.4,71.3,110z"/>
						</g>
						<g>
							<path class="st6" d="M63.6,122.4c0.2,1.9,0.2,3.8,0,5.7c-0.2,1.9-0.5,3.8-1.1,5.6c0-1.9,0.2-3.8,0.4-5.6
								C63.1,126.2,63.3,124.3,63.6,122.4z"/>
						</g>
						<g>
							<path class="st6" d="M58.5,128.3c-2.1,0-4.1,0.8-6.1,1.3c-2.1,0.5-4.3,0.7-6.4,0.5c2.1-0.3,4.2-0.6,6.2-1.1
								c1-0.2,2-0.5,3.1-0.7C56.3,128.1,57.4,128,58.5,128.3z"/>
						</g>
						<g>
							<path class="st6" d="M51.6,138.2c0.1,1.5,0,3.1,0,4.6c-0.1,1.5-0.1,3-0.4,4.6c-0.3-1.5-0.4-3.1-0.4-4.6
								C50.9,141.2,51.1,139.7,51.6,138.2z"/>
						</g>
						<g>
							<path class="st6" d="M44,147.6c-1.7,0.5-3.4,0.9-5.1,1.6c-1.6,0.6-3.2,1.4-4.8,2.2c1.3-1.3,2.9-2.2,4.6-2.9
								C40.4,147.8,42.2,147.5,44,147.6z"/>
						</g>
						<g>
							<path class="st6" d="M36.9,157.2c0.1,1.1,0,2.2-0.1,3.3c-0.1,1.1-0.2,2.2-0.5,3.3c-0.3-1.1-0.3-2.2-0.2-3.4
								C36.2,159.4,36.4,158.3,36.9,157.2z"/>
						</g>
						<g>
							<path class="st6" d="M31.7,164.6c-0.9,0.8-1.9,1.5-2.8,2.3c-0.9,0.7-1.8,1.5-2.9,2.2c0.6-1.1,1.5-2,2.4-2.7
								C29.5,165.6,30.5,165,31.7,164.6z"/>
						</g>
					</g>
					<path class="st5" d="M85.6,128.6c1.9,3,3.2,6.3,3.7,9.8c1.5-3.8,1.7-7.9,1.8-11.9c0.1-2.7-0.7-8-4.8-6.8
						C82.5,121,84.1,126.2,85.6,128.6z"/>
					<path class="st16" d="M115.5,183.6c2.8,0.6,5.7,0.3,8.4-0.6c1.7-0.5,3.3-1.3,5.1-1.6c2.2-0.4,4.5,0,6.6-0.6
						c2.7-0.7,4.8-2.9,6-5.3c1.3-2.4,1.9-5.2,2.5-7.9c0.7-3.1,1.4-6.4,1-9.5c1.9,6.6,1.2,13.9-1.7,20.1c-0.5,1.1-1.1,2.1-1.9,3
						c-1.7,1.9-4.1,2.9-6.6,3.6c-2.4,0.6-5,0.9-7.4,1.6c-1.4,0.4-2.7,1-4.1,1.2c-2.1,0.3-4.3-0.1-6.4-0.5c-2.1-0.4-4.3-0.8-6.1-2
						c-0.8-0.5-4.5-4.8-1.6-4.7c0.7,0,2.1,1.6,2.8,2C113.3,183,114.4,183.4,115.5,183.6z"/>
				</g>
			</g>
		</g>
		<g>
			<g>
				<path class="st2" d="M591.1,39.9c-23.7,18.6-29.1,51.8-31.2,81.9c-2.1,30.1-3.7,62.7-23.3,85.6c-21.8,25.4-60.2,31.5-82,57
					c-19.2,22.5-20.9,54.3-27.5,83.1c-7.8,34.4-23.8,66.9-46.2,94.1c-1.3,1.5-2.6,3.1-3.1,5c-1.4,5.5,4.1,10.1,9.1,12.8
					c39.9,21.9,86.4,27.7,131.7,31.9c36.2,3.3,72.5,5.8,108.7,3.1c24.4-1.8,49.1-6.2,70.7-17.6c28.1-14.9,49.1-41.2,61.5-70.5
					c12.4-29.3,16.8-61.4,17.1-93.2c0.5-50.5-9.1-101-28-147.8c-13.8-34.3-32.6-66.6-43.5-102c-3.4-11.2-3.9-27.9-15-34.8
					c-11.6-7.2-31.5-4.9-44.2-4.5C626.8,24.6,606.6,27.8,591.1,39.9z"/>
				<g>
					<path class="st3" d="M686.5,25.7c-12.3,18.3-28,34-43.5,49.7c-21.8,22.1-45.6,41.3-70.2,60"/>
					<path class="st4" d="M697.7,87.2c-4.1-0.7-8-2.2-11.9-3.6c-1.9-0.7-3.7-1.4-5.6-2.1c-2.7-1-5.6-2.1-7.5-4.3
						c-0.5-0.6-1.2-1.2-1.8-0.9c-0.8-2.1-2.2-4-4-5.4c-0.7-0.5-1.5-1.1-1.7-1.9c-0.2-0.6,0-1.3,0.1-2c1.7-6.7,3.9-13.3,6.6-19.7
						c3.3-7.8,5.9-10.9,9.5-1.7c2.7,6.9,5.5,13.9,8.2,20.8C690.4,68.8,695.7,86.9,697.7,87.2z"/>
					<path class="st5" d="M667.8,47.8c-3.5,1.1-7.4,0.6-10.6-1.2c-1.4-0.8-2.6-1.9-4.1-2.5c-3-1.4-6.5-0.9-9.8-0.6
						c-1.6,0.1-3.6-0.2-3.8-1.8c-0.1-0.8,0.4-1.7,0.1-2.5c-0.2-0.6-0.8-0.9-1.2-1.3c-1.2-1.4-0.6-3.7-1.7-5.2
						c-0.7-1-2.1-1.5-2.3-2.7c-0.1-0.5,0.1-1.1-0.1-1.7c-0.4-1.8-3.6-2-3.7-3.9c0-0.5,0.2-1.1,0.1-1.6c-0.1-0.4-0.4-0.6-0.7-0.9
						c-1-0.9-2-1.8-3.1-2.6c3.3-2,7.5-2.2,11.2-1.3c3.8,0.9,7.2,2.7,10.6,4.6c7.8,4.2,15.9,8.2,23.6,12.7c2.5,1.5,4.8,3.2,3.3,6.2
						C674.1,44.5,670.8,46.9,667.8,47.8z"/>
					<path class="st4" d="M678,82.2c5.7,8.4,10.8,17.6,12.2,27.6c0.1,0.4,0.1,0.9-0.2,1.3c-0.5,0.7-1.7,0.3-2.4-0.3
						c-0.7-0.6-1.4-1.4-2.3-1.2c-0.5,0.1-0.8,0.5-1.3,0.7c-2,0.8-3.7-2.5-5.8-2c-0.6,0.1-1.1,0.5-1.6,0.5c-1.1-0.1-1.7-1.6-2.8-1.8
						c-1.2-0.1-1.9,1.5-3.1,1.7c-1.3,0.2-2.4-1.4-3.7-1.1c-0.9,0.2-1.4,1.3-2.3,1.5c-2.1,0.5-3.5-3.7-5.3-2.6
						c-0.3,0.2-0.5,0.5-0.8,0.6c-1.6,0.8-2.5-2.8-4.3-2.6c-0.5,0.1-1,0.5-1.5,0.5c-1.8,0.2-1.9-3-3.6-3.5c-0.4-0.1-0.9,0-1.4-0.1
						c-0.5-0.1-0.9-0.5-1.2-0.9c-0.8-0.8-1.5-1.6-2.3-2.5c-0.8-0.9-1.7-1.9-1.8-3.1c-0.1-1.5,1-2.8,1.9-4c3.3-3.9,6.4-8.1,8-13
						c0.9-2.7,1.4-5.5,2.2-8.3c0.9-3,2.3-6.8,4.5-9.1c2.9-3,4.1,0.6,5.7,3C668.9,69.8,673.7,75.9,678,82.2z"/>
					<g>
						<path class="st5" d="M677,40.9c2.3,5.1,3.9,10.4,5.1,15.8c1.2,5.4,1.9,10.9,1.9,16.5c-1-5.4-1.9-10.9-3.1-16.2
							C679.8,51.6,678.4,46.2,677,40.9z"/>
					</g>
					<g>
						<path class="st6" d="M673.5,43.2c-1.2,0.7-2.8,1-4.2,1c-1.5,0-3-0.4-4.3-0.9c-2.8-1.1-5.1-2.9-7.5-4.4
							c-4.8-3.2-9.8-6-14.9-8.6c5.5,1.8,10.7,4.4,15.6,7.6c2.4,1.6,4.7,3.4,7.2,4.6c1.3,0.6,2.6,1,4,1.2
							C670.7,43.8,672.1,43.7,673.5,43.2z"/>
					</g>
					<g>
						<path class="st5" d="M660.6,61c-0.4,5.4,0.8,10.6,2,15.9c0.6,2.6,1.2,5.3,1.5,8c0.3,2.7,0.3,5.5-0.2,8.1
							c0.1-5.4-1.3-10.6-2.5-15.9c-0.6-2.6-1.1-5.3-1.4-8C659.7,66.4,659.9,63.7,660.6,61z"/>
					</g>
					<g>
						<path class="st5" d="M676.2,41.8c1.1,4.7,1.9,9.5,2.5,14.2c0.3,2.4,0.4,4.8,0.3,7.3c-0.2,2.4-0.7,4.9-1.8,7.1
							c1.2-4.7,0.9-9.5,0.3-14.2c-0.3-2.4-0.6-4.8-0.8-7.2C676.5,46.7,676.3,44.3,676.2,41.8z"/>
					</g>
					<g>
						<path class="st5" d="M660.4,60.7c-1.3,2.5-1.9,5.2-2.3,7.9c-0.3,2.7-0.3,5.5-0.4,8.2c-0.1,2.8-0.2,5.6-0.8,8.4
							c-0.6,2.7-1.7,5.5-3.6,7.6c1.5-2.4,2.2-5,2.6-7.7c0.4-2.7,0.5-5.4,0.5-8.2c0.1-2.8,0.2-5.6,0.7-8.4
							C657.7,65.7,658.7,62.9,660.4,60.7z"/>
					</g>
					<g>
						<path class="st6" d="M674.8,41.1c-2.7,0.7-5.7,0.1-8.3-1.1c-2.6-1.2-4.8-3-7-4.8c-2.1-1.8-4.2-3.6-6.5-5.1
							c-2.3-1.5-4.8-2.7-7.4-3.7c2.7,0.5,5.4,1.5,7.9,2.9c2.5,1.3,4.7,3.2,6.8,4.9c2.1,1.8,4.2,3.5,6.6,4.9
							C669.3,40.4,672,41.3,674.8,41.1z"/>
					</g>
					<g>
						<path class="st5" d="M662,60.8c-0.5,1.5-0.4,3.2,0,4.7c0.4,1.5,1,3,1.6,4.5c1.3,2.9,2.7,5.8,4.1,8.7c1.4,2.9,2.8,5.8,4,8.8
							c1.2,3,2.2,6.1,2.8,9.3c-1.1-3-2.3-6-3.7-8.9c-1.4-2.9-2.8-5.7-4.2-8.6c-1.4-2.9-2.8-5.8-3.8-8.9c-0.6-1.5-1.1-3.1-1.3-4.7
							C661.2,64,661.2,62.2,662,60.8z"/>
					</g>
					<g>
						<path class="st5" d="M676.7,42.1c-1,1.7-1.2,3.7-1.5,5.6c-0.2,2-0.5,4-0.8,5.9c-0.6,3.9-1.4,7.8-2.5,11.7
							c0.1-4,0.6-8,1.2-11.9c0.3-2,0.7-3.9,1.1-5.9C674.6,45.6,675.2,43.5,676.7,42.1z"/>
					</g>
					<path class="st5" d="M636.8,41.9c-4.2-2.9-8.5-5.9-13.2-7.8c-4.8-1.9-10.2-2.7-15-1.1c-0.5,0.2-1.1,0.4-1.4,0.9
						c-0.5,0.9,0.1,2,0.9,2.7c0.8,0.7,1.8,1.4,1.9,2.4c0.1,0.6-0.1,1.2-0.1,1.8c0.1,1.9,2.7,3.1,2.7,5.1c0,0.8-0.5,1.5-0.5,2.3
						c0.1,1.5,1.9,2.4,2.3,3.9c0.5,1.8-1.5,3.8-0.7,5.5c0.3,0.6,0.9,1.1,0.9,1.8c0,1.2-1.8,1.6-2.4,2.6c-0.6,0.9-0.1,2.1,0.8,2.8
						c0.9,0.6,2,0.7,3,0.7c4.2,0,8.4-1.5,12.4-0.1c2.4,0.9,4.4,2.7,6.8,3.5c2.4,0.8,5,0.5,7.5-0.1c3.9-1,17.3-5.6,15-11.6
						c-1.1-3-6.8-5.5-9.3-7.2C644.5,47.3,640.6,44.6,636.8,41.9z"/>
					<g>
						<path class="st6" d="M657.7,59.8c-1.2,0.7-2.7,1-4.1,1.1c-1.4,0.1-2.8,0.2-4.2,0.1c-2.8-0.1-5.7-0.5-8.4-1.1
							c-2.7-0.7-5.4-1.6-8-2.9c-1.3-0.6-2.5-1.3-3.7-2.1c-1.1-0.7-2.4-1.5-3.8-1.3c0.7-0.2,1.4-0.2,2.1,0c0.7,0.2,1.3,0.5,2,0.8
							c1.3,0.6,2.5,1.2,3.8,1.7c2.6,1.1,5.2,1.9,7.9,2.6c2.7,0.7,5.4,1.1,8.2,1.4c1.4,0.1,2.8,0.2,4.2,0.2
							C655,60.3,656.4,60.2,657.7,59.8z"/>
					</g>
					<g>
						<path class="st6" d="M657.4,58c-2.7,0.1-5.4,0.2-8-0.4c-2.7-0.6-5.2-1.7-7.5-3c-4.7-2.7-8.6-6.3-13.2-9.1
							c2.5,1,4.8,2.3,7.1,3.8c2.3,1.4,4.4,2.9,6.7,4.2c2.3,1.3,4.6,2.4,7.1,3.2C652.1,57.4,654.8,57.7,657.4,58z"/>
					</g>
					<g>
						<path class="st6" d="M657.5,57c-3.3,0-6.6-0.8-9.6-2.2c-3-1.4-5.7-3.3-8.3-5.3c-2.6-2-5-4.2-7.6-6.2c-2.5-2-5.2-3.9-8.3-4.8
							c3.3,0.4,6.3,2.2,8.9,4.1c2.7,1.9,5.2,4,7.7,6c2.5,2,5.2,3.9,8,5.4C651.2,55.4,654.3,56.6,657.5,57z"/>
					</g>
					<path class="st4" d="M658.8,125.4c-4-1.1-7.8-2.8-11.6-4.6c-1.8-0.8-3.6-1.7-5.4-2.5c-2.7-1.2-5.4-2.5-7.2-4.9
						c-0.4-0.6-1.1-1.3-1.8-1c-0.6-2.2-1.9-4.2-3.6-5.7c-0.6-0.6-1.4-1.2-1.6-2c-0.1-0.6,0.1-1.3,0.3-1.9c2.2-6.6,4.9-13,8.1-19.2
						c3.9-7.5,6.7-10.5,9.6-0.9c2.2,7.1,4.4,14.2,6.6,21.4C653,106.6,656.8,124.9,658.8,125.4z"/>
					<path class="st5" d="M632,83.9c-3.6,0.8-7.4,0.1-10.4-2c-1.3-0.9-2.5-2.1-3.9-2.8c-2.9-1.6-6.4-1.4-9.7-1.4
						c-1.6,0-3.6-0.5-3.7-2.1c0-0.8,0.5-1.6,0.3-2.4c-0.2-0.6-0.8-0.9-1.1-1.4c-1.1-1.4-0.3-3.7-1.2-5.3c-0.6-1-2-1.7-2.1-2.9
						c-0.1-0.6,0.2-1.1,0.1-1.7c-0.3-1.8-3.4-2.3-3.4-4.2c0-0.5,0.3-1,0.2-1.6c-0.1-0.4-0.4-0.7-0.6-1c-1-1-1.9-1.9-2.9-2.9
						c3.4-1.7,7.6-1.6,11.3-0.4c3.7,1.2,7,3.3,10.2,5.4c7.5,4.8,15.2,9.4,22.5,14.5c2.4,1.7,4.5,3.5,2.8,6.4
						C638.6,81,635.1,83.2,632,83.9z"/>
					<path class="st4" d="M639.5,118.9c5,8.8,9.4,18.3,10.1,28.5c0,0.5,0,1-0.3,1.3c-0.6,0.7-1.7,0.2-2.4-0.5
						c-0.6-0.7-1.3-1.6-2.2-1.4c-0.5,0.1-0.9,0.4-1.3,0.6c-2,0.7-3.5-2.7-5.6-2.5c-0.6,0.1-1.1,0.4-1.7,0.4c-1.1-0.1-1.6-1.8-2.7-2
						c-1.2-0.2-2,1.4-3.3,1.4c-1.3,0.1-2.3-1.6-3.6-1.4c-0.9,0.1-1.5,1.1-2.4,1.3c-2.1,0.3-3.2-3.9-5.1-3.1
						c-0.3,0.1-0.6,0.4-0.9,0.5c-1.7,0.6-2.3-3-4.1-2.9c-0.5,0-1,0.4-1.5,0.4c-1.8,0-1.6-3.2-3.3-3.8c-0.4-0.2-0.9-0.1-1.3-0.2
						c-0.5-0.2-0.8-0.6-1.2-1c-0.7-0.9-1.4-1.7-2.1-2.6c-0.8-1-1.6-2-1.6-3.3c0-1.5,1.2-2.7,2.2-3.8c3.6-3.6,7-7.6,9-12.3
						c1.1-2.6,1.8-5.4,2.8-8.1c1.1-2.9,2.8-6.6,5.2-8.7c3.1-2.8,4.1,0.9,5.5,3.4C631.5,105.9,635.7,112.3,639.5,118.9z"/>
					<g>
						<path class="st5" d="M641.8,77.6c1.9,5.2,3.1,10.7,3.8,16.1c0.7,5.5,1,11.1,0.6,16.6c-0.6-5.5-1.1-11-1.8-16.4
							C643.7,88.5,642.7,83.1,641.8,77.6z"/>
					</g>
					<g>
						<path class="st6" d="M638.1,79.6c-1.3,0.6-2.8,0.8-4.3,0.7c-1.5-0.1-2.9-0.6-4.3-1.2c-2.7-1.3-4.9-3.3-7.1-5
							c-4.5-3.5-9.3-6.7-14.2-9.7c5.3,2.2,10.3,5.2,14.9,8.8c2.3,1.8,4.4,3.7,6.8,5.1c1.2,0.7,2.5,1.2,3.9,1.5
							C635.2,80,636.7,80,638.1,79.6z"/>
					</g>
					<g>
						<path class="st5" d="M623.8,96.4c-0.9,5.4,0,10.7,0.8,16c0.4,2.7,0.8,5.4,0.9,8.1c0.1,2.7-0.1,5.5-0.8,8.1
							c0.5-5.4-0.5-10.7-1.3-16c-0.4-2.7-0.7-5.4-0.8-8.1C622.6,101.8,622.9,99,623.8,96.4z"/>
					</g>
					<g>
						<path class="st5" d="M640.9,78.5c0.7,4.8,1.1,9.6,1.4,14.4c0.1,2.4,0.1,4.9-0.3,7.3c-0.3,2.4-1.1,4.8-2.3,6.9
							c1.6-4.6,1.6-9.4,1.4-14.1c-0.1-2.4-0.2-4.8-0.2-7.2C640.8,83.4,640.8,81,640.9,78.5z"/>
					</g>
					<g>
						<path class="st5" d="M623.7,96.1c-1.5,2.4-2.3,5-2.9,7.7c-0.5,2.7-0.8,5.4-1,8.2c-0.3,2.8-0.7,5.6-1.5,8.3
							c-0.8,2.7-2.1,5.3-4.2,7.2c1.7-2.3,2.6-4.9,3.2-7.5c0.6-2.7,0.9-5.4,1.2-8.1c0.3-2.8,0.6-5.6,1.3-8.3
							C620.6,100.9,621.8,98.2,623.7,96.1z"/>
					</g>
					<g>
						<path class="st6" d="M639.5,77.7c-2.8,0.5-5.7-0.4-8.2-1.8c-2.5-1.4-4.6-3.4-6.6-5.3c-2-2-3.9-3.9-6.1-5.5
							c-2.2-1.6-4.6-3.1-7.1-4.2c2.7,0.7,5.3,1.9,7.7,3.5c2.4,1.5,4.4,3.5,6.4,5.5c2,1.9,3.9,3.9,6.2,5.4
							C634.1,76.5,636.7,77.6,639.5,77.7z"/>
					</g>
					<g>
						<path class="st5" d="M625.3,96.3c-0.6,1.5-0.7,3.1-0.4,4.7c0.3,1.6,0.8,3.1,1.3,4.6c1,3,2.2,6,3.4,9c1.2,3,2.3,6,3.3,9.1
							c1,3.1,1.7,6.2,2.1,9.4c-0.8-3.1-1.9-6.1-3-9.1c-1.1-3-2.3-5.9-3.5-8.9c-1.2-3-2.3-6-3.1-9.1c-0.4-1.5-0.8-3.1-1-4.8
							C624.2,99.4,624.4,97.7,625.3,96.3z"/>
					</g>
					<g>
						<path class="st5" d="M641.3,78.8c-1.2,1.6-1.5,3.6-1.9,5.5c-0.4,2-0.8,3.9-1.2,5.8c-0.9,3.9-2,7.7-3.4,11.5
							c0.4-4,1.3-7.9,2.2-11.8c0.5-1.9,1-3.9,1.5-5.8C639,82.2,639.8,80.1,641.3,78.8z"/>
					</g>
					<path class="st4" d="M614.2,165.4c-4-1.1-7.8-2.8-11.6-4.6c-1.8-0.8-3.6-1.7-5.4-2.5c-2.7-1.2-5.4-2.5-7.2-4.9
						c-0.4-0.6-1.1-1.3-1.8-1c-0.6-2.2-1.9-4.2-3.6-5.7c-0.6-0.6-1.4-1.2-1.6-2c-0.1-0.6,0.1-1.3,0.3-1.9c2.2-6.6,4.9-13,8.1-19.2
						c3.9-7.5,6.7-10.5,9.6-0.9c2.2,7.1,4.4,14.2,6.6,21.4C608.4,146.5,612.2,164.9,614.2,165.4z"/>
					<path class="st5" d="M587.4,123.8c-3.6,0.8-7.4,0.1-10.4-2c-1.3-0.9-2.5-2.1-3.9-2.8c-2.9-1.6-6.4-1.4-9.7-1.4
						c-1.6,0-3.6-0.5-3.7-2.1c0-0.8,0.5-1.6,0.3-2.4c-0.2-0.6-0.8-0.9-1.1-1.4c-1.1-1.4-0.3-3.7-1.2-5.3c-0.6-1-2-1.7-2.1-2.9
						c-0.1-0.6,0.2-1.1,0.1-1.7c-0.3-1.8-3.4-2.3-3.4-4.2c0-0.5,0.3-1,0.2-1.6c-0.1-0.4-0.4-0.7-0.6-1c-1-1-1.9-1.9-2.9-2.9
						c3.4-1.7,7.6-1.6,11.3-0.4c3.7,1.2,7,3.3,10.2,5.4c7.5,4.8,15.2,9.4,22.5,14.5c2.4,1.7,4.5,3.5,2.8,6.5
						C594,121,590.5,123.1,587.4,123.8z"/>
					<g>
						<path class="st5" d="M597.2,117.6c1.9,5.2,3.1,10.7,3.8,16.1c0.7,5.5,1,11.1,0.6,16.6c-0.6-5.5-1.1-11-1.8-16.4
							C599.1,128.5,598.1,123.1,597.2,117.6z"/>
					</g>
					<g>
						<path class="st6" d="M593.5,119.6c-1.3,0.6-2.8,0.8-4.3,0.7c-1.5-0.1-2.9-0.6-4.3-1.2c-2.7-1.3-4.9-3.3-7.1-5
							c-4.5-3.5-9.3-6.7-14.2-9.7c5.3,2.2,10.3,5.2,14.9,8.8c2.3,1.8,4.4,3.7,6.8,5.1c1.2,0.7,2.5,1.2,3.9,1.5
							C590.6,120,592.1,120,593.5,119.6z"/>
					</g>
					<g>
						<path class="st5" d="M596.3,118.5c0.7,4.8,1.1,9.6,1.4,14.4c0.1,2.4,0.1,4.9-0.3,7.3c-0.3,2.4-1.1,4.8-2.3,6.9
							c1.6-4.6,1.6-9.4,1.4-14.1c-0.1-2.4-0.2-4.8-0.2-7.2C596.2,123.3,596.2,120.9,596.3,118.5z"/>
					</g>
					<g>
						<path class="st6" d="M595,117.6c-2.8,0.5-5.7-0.4-8.2-1.8c-2.5-1.4-4.6-3.4-6.6-5.3c-2-2-3.9-3.9-6.1-5.5
							c-2.2-1.6-4.6-3.1-7.1-4.2c2.7,0.7,5.3,1.9,7.7,3.5c2.4,1.5,4.4,3.5,6.4,5.5c2,1.9,3.9,3.9,6.2,5.4
							C589.6,116.5,592.1,117.6,595,117.6z"/>
					</g>
					<path class="st4" d="M596.7,118.8c-1.4,1.5-1.9,3.6-2.4,5.6c-1.4,5.7-2.7,11.5-4.1,17.2"/>
					<path class="st5" d="M601.6,75.6c-4-3.3-8-6.5-12.6-8.8c-4.6-2.3-9.9-3.4-14.9-2.3c-0.5,0.1-1.1,0.3-1.5,0.8
						c-0.6,0.8,0,2,0.7,2.8c0.7,0.8,1.6,1.5,1.7,2.6c0,0.6-0.2,1.2-0.2,1.7c0,2,2.5,3.3,2.3,5.3c-0.1,0.8-0.6,1.5-0.7,2.3
						c-0.1,1.5,1.7,2.5,2,4.1c0.3,1.9-1.8,3.7-1.1,5.5c0.2,0.6,0.8,1.2,0.8,1.8c-0.1,1.2-1.9,1.4-2.6,2.4c-0.6,0.8-0.3,2.1,0.5,2.8
						c0.8,0.7,1.9,0.9,2.9,1c4.1,0.3,8.5-0.8,12.3,0.8c2.3,1,4.1,3,6.5,4c2.3,1,5,0.9,7.4,0.5c4-0.6,17.7-4.2,15.9-10.4
						c-0.9-3.1-6.4-6-8.7-7.9C608.8,81.5,605.2,78.5,601.6,75.6z"/>
					<g>
						<path class="st6" d="M621.1,95c-1.3,0.6-2.7,0.7-4.2,0.8c-1.4,0-2.8-0.1-4.2-0.2c-2.8-0.3-5.6-0.9-8.3-1.8
							c-2.7-0.9-5.3-2.1-7.7-3.5c-1.2-0.7-2.4-1.5-3.5-2.4c-1.1-0.8-2.2-1.7-3.7-1.6c0.7-0.2,1.4-0.1,2.1,0.2c0.7,0.2,1.3,0.6,1.9,1
							c1.2,0.7,2.4,1.4,3.6,2c2.5,1.3,5,2.3,7.7,3.2c2.6,0.9,5.3,1.5,8,2c1.4,0.2,2.7,0.4,4.1,0.6C618.4,95.3,619.7,95.3,621.1,95z"
							/>
					</g>
					<g>
						<path class="st6" d="M620.9,93.2c-2.7-0.1-5.4-0.2-8-1c-2.6-0.8-5.1-2.1-7.3-3.6c-4.4-3.1-8.1-6.9-12.4-10.1
							c2.4,1.2,4.6,2.7,6.8,4.3c2.1,1.6,4.2,3.3,6.4,4.8c2.1,1.5,4.4,2.8,6.9,3.7C615.7,92.2,618.3,92.7,620.9,93.2z"/>
					</g>
					<g>
						<path class="st6" d="M621.1,92.2c-3.3-0.2-6.5-1.3-9.4-3c-2.9-1.6-5.5-3.7-7.9-5.9c-2.4-2.2-4.7-4.5-7.1-6.8
							c-2.4-2.2-4.8-4.3-7.9-5.5c3.2,0.7,6.1,2.6,8.6,4.7c2.5,2.1,4.9,4.4,7.3,6.6c2.4,2.2,4.9,4.3,7.6,6
							C614.9,90.1,617.9,91.5,621.1,92.2z"/>
					</g>
					<path class="st4" d="M587,138.1c0.2,3.9-0.5,7.8,0.3,11.5c0.3,1.7,1,3.5,0.9,5.2c-0.1,2.7-2,5-3.8,7.1
						c-3.2,3.8-6.9,7.8-11.8,8.5c-1.8,0.3-3.5,0.1-5.3-0.1c-4.8-0.3-9.7,0.1-14.5,1.1c-0.4,0.1-0.9,0.2-1.3,0.1
						c-1-0.2-1.9-1.5-2.7-1c-0.3,0.2-0.4,0.5-0.6,0.8c-0.8,0.9-2.1,0.4-3.2,0c-1.1-0.4-2.7-0.2-2.8,0.9c-1-1-2.5-2-3.7-1.3
						c-0.4,0.3-0.8,0.7-1.3,0.7c-0.7-0.1-0.9-0.9-0.8-1.6c0.2-2.6,2-4.8,3.9-6.7c0.3-0.3,0.6-0.6,0.6-1.1c0-0.6-0.8-1-0.9-1.6
						c-0.3-1.1,1.2-1.8,1.5-2.9c0.2-0.8-0.4-1.7-0.6-2.5c-0.3-1.2,0.3-2.4,0.5-3.5c0.2-1.2-0.1-2.7-1.3-3c1.7-0.7,1.6-3,1.5-4.8
						c-0.2-3.4,0.5-6.8,1.6-10c1.1-3,2.6-5.9,5-8c3.4-3,8.4-4.2,12.8-3c2.6,0.7,5.1,2.3,7.8,2.6c4.4,0.6,8.8-1.1,12.8,1.5
						C584.8,129.6,586.8,134.1,587,138.1z"/>
					<g>
						<path class="st5" d="M583.3,129.2c-4.8,5.5-9.8,10.7-14.5,16.2c-4.8,5.4-9.2,11.1-13.3,17.2c3.2-6.5,7.6-12.5,12.4-18
							C572.6,139.1,577.8,134,583.3,129.2z"/>
					</g>
					<g>
						<path class="st5" d="M582.2,129c-4.9,5-10.4,9.3-16.2,13.2c-2.9,1.9-5.9,3.8-9,5.4c-1.5,0.8-3.1,1.6-4.7,2.4
							c-1.6,0.7-3.3,1.3-5.1,1.4c1.7-0.3,3.3-1,4.8-1.9c1.5-0.8,3-1.8,4.5-2.7c3-1.8,5.9-3.7,8.8-5.6
							C571.1,137.4,576.6,133.2,582.2,129z"/>
					</g>
					<g>
						<path class="st5" d="M584,130.4c-3,4.8-5.7,9.6-8,14.7c-1.2,2.5-2.1,5.1-3.2,7.7c-1.1,2.6-2.4,5.2-4.2,7.3
							c1.4-2.4,2.4-5,3.3-7.7c0.9-2.6,1.8-5.3,3-7.9C577.2,139.5,580.2,134.6,584,130.4z"/>
					</g>
					<g>
						<path class="st5" d="M582.3,128.5c-4.2,3.2-8.9,5.7-13.8,7.7c-2.5,1-5,1.8-7.5,2.5c-2.5,0.7-5.3,1.3-7.9,0.7
							c2.7,0.1,5.1-0.8,7.6-1.6c2.5-0.9,4.9-1.8,7.3-2.7C572.9,133.1,577.6,130.9,582.3,128.5z"/>
					</g>
				</g>
				<g>
					<path class="st5" d="M625.6,282.9c-13.2-24.7-24.3-50.8-41.6-72.8c39.4,13.5,71.2,44,93.9,78.9c6.8,10.4,30.9,48.6,12.9,58.7
						c-14,7.8-38.2-23.6-45.1-32.6C638,304.9,631.5,294,625.6,282.9z"/>
					<g>
						<path class="st6" d="M683.3,338.4c-8.2-8.1-15.5-17.1-22.2-26.5c-6.7-9.4-13-19-19.3-28.7l-9.3-14.5l-9.2-14.6
							c-3.1-4.8-6.3-9.5-9.9-14c-3.5-4.5-7.7-8.5-10.8-13.4c3.7,4.4,8.2,8,12.1,12.3c3.9,4.3,7.5,8.9,10.8,13.6
							c6.6,9.5,12.8,19.1,19.1,28.7l9.3,14.5c3.1,4.9,6.2,9.7,9.3,14.5C669.6,320,676.2,329.4,683.3,338.4z"/>
					</g>
					<g>
						<path class="st6" d="M666.7,318c-3.4-0.7-6.6-2-9.7-3.4c-1.6-0.7-3.1-1.5-4.6-2.3c-1.5-0.8-2.9-1.8-4.3-2.8
							c1.6,0.6,3.2,1.2,4.8,1.9c1.6,0.7,3.1,1.4,4.7,2.1C660.6,314.9,663.7,316.3,666.7,318z"/>
					</g>
					<g>
						<path class="st6" d="M659.7,305.7c1.3-3.7,1-7.4,1.4-11.3c0.4-3.9,1.3-7.7,3-11.2c-0.7,3.8-1.4,7.5-1.7,11.3
							c-0.2,1.9-0.3,3.8-0.6,5.7C661.4,302.1,660.8,304.1,659.7,305.7z"/>
					</g>
					<g>
						<path class="st6" d="M647,288.1c-2.7-0.7-5.3-1.7-7.8-2.7c-1.3-0.5-2.6-1-3.8-1.6c-1.3-0.5-2.5-1.1-3.8-1.8
							c1.4,0.1,2.8,0.4,4.1,0.8c1.3,0.4,2.7,0.8,4,1.3C642.2,285.2,644.7,286.4,647,288.1z"/>
					</g>
					<g>
						<path class="st6" d="M635.4,269.5c0.2-3.3,0.4-6.4,0.3-9.6c-0.1-3.2-0.5-6.3-0.9-9.6c1.4,3,2.1,6.2,2.2,9.5
							C637.1,263.1,636.7,266.4,635.4,269.5z"/>
					</g>
					<g>
						<path class="st6" d="M623.2,251.6c-2-0.5-3.8-1.3-5.7-2.1c-0.9-0.4-1.8-0.8-2.7-1.3c-0.9-0.5-1.8-1-2.6-1.5c1,0.1,2,0.3,3,0.6
							c1,0.3,1.9,0.7,2.9,1.1C619.9,249.1,621.7,250.1,623.2,251.6z"/>
					</g>
					<g>
						<path class="st6" d="M613.5,238.4c-0.8-2.1-1.5-4.1-2.2-6.1c-0.7-2-1.4-4-2-6.2c1.5,1.7,2.5,3.7,3.2,5.8
							C613.3,234,613.7,236.2,613.5,238.4z"/>
					</g>
				</g>
				<g>
					<path class="st5" d="M622.6,205.4c-20.7-18.8-40-39.6-63.7-54.5c41.7-0.6,81.8,17.5,115,42.7c9.9,7.5,45.5,35.4,31.9,50.9
						c-10.6,12.1-44-9.3-53.4-15.5C641.8,222,632,213.9,622.6,205.4z"/>
					<g>
						<path class="st6" d="M695.7,238.3c-10.5-4.8-20.3-10.9-29.8-17.5c-9.5-6.6-18.6-13.6-27.8-20.5l-13.6-10.5l-13.5-10.6
							c-4.5-3.5-9.1-6.9-14-9.9c-4.8-3.1-10.2-5.4-14.7-9c5,2.9,10.4,4.8,15.6,7.5c5.1,2.7,10,5.8,14.8,9.2
							c9.4,6.7,18.5,13.7,27.7,20.6l13.6,10.5c4.5,3.6,9.1,7,13.6,10.5C676.6,225.5,685.9,232.2,695.7,238.3z"/>
					</g>
					<g>
						<path class="st6" d="M673.2,224.7c-3.4,0.4-6.9,0.4-10.3,0.1c-1.7-0.2-3.4-0.4-5.1-0.7c-1.7-0.3-3.4-0.7-5-1.2
							c1.7,0,3.4,0.1,5.1,0.2c1.7,0.1,3.4,0.2,5.1,0.4C666.4,223.8,669.8,224.1,673.2,224.7z"/>
					</g>
					<g>
						<path class="st6" d="M662.5,215.4c-0.1-3.9-1.5-7.3-2.5-11.1c-1-3.8-1.4-7.7-0.9-11.5c0.6,3.8,1.2,7.5,2.2,11.2
							c0.5,1.8,1,3.7,1.3,5.6C662.9,211.5,663,213.5,662.5,215.4z"/>
					</g>
					<g>
						<path class="st6" d="M644.5,203.1c-2.8,0.2-5.5,0.1-8.3,0.1c-1.4-0.1-2.7-0.1-4.1-0.2c-1.4-0.1-2.8-0.2-4.1-0.4
							c1.4-0.3,2.8-0.5,4.1-0.6c1.4-0.1,2.8-0.1,4.2-0.1C639.1,202,641.8,202.3,644.5,203.1z"/>
					</g>
					<g>
						<path class="st6" d="M627.4,189.5c-0.9-3.1-1.8-6.2-2.9-9.1c-1.1-3-2.6-5.8-4-8.7c2.3,2.3,4,5.2,5.3,8.2
							C626.9,182.9,627.6,186.2,627.4,189.5z"/>
					</g>
					<g>
						<path class="st6" d="M609.9,176.8c-2.1,0.2-4.1,0-6-0.1c-1-0.1-2-0.2-3-0.3c-1-0.1-2-0.3-3-0.6c1-0.3,2-0.4,3-0.4
							c1-0.1,2,0,3,0C605.9,175.6,607.9,175.9,609.9,176.8z"/>
					</g>
					<g>
						<path class="st6" d="M596.3,167.6c-1.5-1.7-2.8-3.4-4.1-5c-1.3-1.7-2.7-3.3-4-5.1c2,1.1,3.6,2.6,5,4.3
							C594.6,163.5,595.7,165.5,596.3,167.6z"/>
					</g>
				</g>
				<g>
					<path class="st4" d="M612.7,409.3c-3.6-5.8-9.3-10.5-11.4-17c-1-3.1-1.1-6.4-2.2-9.5c-0.9-2.3-2.3-4.3-3.3-6.5
						c-1.3-2.6-2-5.5-3-8.2c-2.8-7.3-7.7-13.8-14.1-18.4c-4.4,5.7-7.5,12.3-9.3,19.3c-0.2-8.7,1.9-17.4,6-25.1
						c-13.1-1.3-22.9-12.6-29.1-24.2c-2.7,2.7-4.7,6-5.9,9.6c-0.1-5.2,1-10.5,3-15.3c-9.9-0.9-17.4-9-25.3-15.1
						c-8.2-6.3-17.7-10.9-27.7-13.4c-7.5-1.8-15.8-2.8-21.4-8.2c-5.3,13.4,16.4,54.6,20.6,60.1c3.7,4.9,7.3,9.9,11,14.8
						c5.2,7,10.5,14.3,12.8,22.7c0.2,0.9,0.5,1.8,1.1,2.5c0.5,0.6,1.3,0.9,2,1.2c5.3,2.2,10.5,4.3,15.8,6.5
						c-4.7-0.4-9.5-0.2-14.1,0.8c6.7,7,7.9,17.6,13.5,25.4c7.2,10.1,20.3,14,32.3,17.2c-3.9,2.2-8.2,3.5-12.6,4
						c0.6-0.1,5.8,6.3,6.8,7.1c2.6,2.2,5.4,4.1,8.4,5.7c6.1,3.3,12.9,5.3,19.8,5.9c6,0.5,15.3,0.7,20.4-3c4.7-3.4,8.1-11.1,9.4-16.5
						C617.9,424.2,616.8,415.9,612.7,409.3z"/>
					<path class="st5" d="M531.7,411.4c-5.6-7.9-6.9-18.5-13.5-25.4c4.6-1,9.4-1.3,14.1-0.8c-5.3-2.2-10.5-4.3-15.8-6.5
						c-0.7-0.3-1.5-0.6-2-1.2c-0.6-0.7-0.8-1.6-1.1-2.5c-2.3-8.4-7.6-15.7-12.8-22.7c-3.7-4.9-14.8-16.9-19-21.5
						c-13.4-14.8-17.8-39.8-12.7-53.2c4.2,4.4,8.5,8.7,12.7,13.1c7,7.2,13.9,14.4,20.7,21.8c38.5,42.3,68.8,91.3,104.2,136.1
						c-5.2,3.4-14.2,3.2-20,2.7c-6.9-0.6-13.7-2.6-19.8-5.9c-3-1.6-5.8-3.5-8.4-5.7c-0.9-0.8-6.1-7.2-6.8-7.1
						c4.4-0.4,8.7-1.8,12.6-4C551.9,425.4,538.9,421.5,531.7,411.4z"/>
					<g>
						<path class="st7" d="M469,277.4l11.3,11.4c3.8,3.8,7.5,7.7,11.2,11.5l11.2,11.5c3.6,4,7.2,7.9,10.7,12c3.5,4,7,8.1,10.4,12.2
							c3.4,4.2,6.8,8.3,10.1,12.5c6.6,8.4,13.1,16.9,19.5,25.5c12.8,17.1,25.3,34.5,38.2,51.5c3.2,4.3,6.5,8.5,9.8,12.7l10,12.6
							c3.3,4.3,6.5,8.5,9.8,12.6c3.3,4.1,6.7,8.1,10.5,11.5c1.2,1,1.3,2.8,0.3,4c-1,1.2-2.8,1.3-4,0.3c0,0,0,0,0,0
							c-4.2-3.8-7.6-8.1-10.9-12.4c-3.3-4.3-6.5-8.6-9.6-12.9l-9.7-12.8c-3.2-4.3-6.4-8.6-9.5-12.9c-12.6-17.3-24.7-34.9-37.2-52.3
							c-6.2-8.7-12.5-17.3-18.9-25.8c-3.2-4.3-6.5-8.5-9.8-12.7c-3.4-4.2-6.7-8.3-10.1-12.4c-3.4-4.1-6.9-8.1-10.4-12.1L490.7,301
							c-3.6-3.9-7.3-7.8-10.9-11.7l-11-11.6c-0.1-0.1-0.1-0.2,0-0.3C468.8,277.3,468.9,277.3,469,277.4z"/>
					</g>
				</g>
				<g>
					<path class="st4" d="M683.7,390.9c-3.6-8.1-10.2-15.1-11.7-23.9c-0.7-4.2-0.3-8.5-1.2-12.6c-0.7-3.1-2.1-6-3.1-9
						c-1.2-3.6-1.6-7.4-2.4-11.1c-2.3-9.9-7.5-19.1-14.8-26.1c-6.6,6.6-11.9,14.5-15.3,23.2c1.3-11.2,5.5-22,12.1-31.2
						c-16.6-4-27.2-20.2-33.2-36.2c-3.9,3-7.1,6.9-9.3,11.3c0.8-6.7,3.1-13.3,6.6-19.1c-12.6-3-20.8-14.7-29.8-23.9
						c-9.4-9.6-20.8-17.2-33.3-22.1c-9.3-3.7-19.8-6.4-26-14.2c-9.2,16.3-9.5,37.3-0.8,53.8c5.3,2,10.4,4.3,15.3,7.1
						c-4.3-1-8.5-2-12.8-3c5.5,7.2,9.8,15.1,14.1,23c3.8,7,7.7,14,11.5,20.9c5.5,9.9,11,20.2,12.5,31.4c0.2,1.2,0.3,2.4,1,3.4
						c0.6,0.9,1.5,1.4,2.4,1.9c6.4,3.7,12.8,7.4,19.1,11.1c-6-1.4-12.2-1.9-18.3-1.4c7.3,10.2,7.1,24,12.9,35.1
						c7.5,14.3,23.6,21.6,38.5,27.8c-5.4,2.1-11.1,3.1-16.9,2.9c0.8,0,6.4,9.2,7.4,10.3c2.9,3.3,6.3,6.2,9.8,8.8
						c7.3,5.3,15.7,9.1,24.4,11.1c7.6,1.7,19.5,3.6,26.7-0.2c6.7-3.5,12.4-12.8,15-19.6C687.7,411,687.8,400.2,683.7,390.9z"/>
					<path class="st5" d="M579.1,379.3c-5.8-11.1-5.6-24.9-12.9-35.1c6.1-0.5,12.3,0,18.3,1.4c-6.4-3.7-12.8-7.4-19.1-11.1
						c-0.9-0.5-1.8-1.1-2.4-1.9c-0.7-1-0.8-2.2-1-3.4c-1.5-11.2-7-21.5-12.5-31.4c-3.8-7-7.7-14-11.5-20.9
						c-4.3-7.9-8.7-15.8-14.1-23c4.3,1,8.5,2,12.8,3c-4.9-2.8-10-5.1-15.3-7.1c-8.6-16.5-8.4-37.2,0.6-53.5
						c4.7,6.4,9.3,12.7,14,19.1c7.7,10.5,15.4,20.9,22.7,31.6c42,61.1,72.3,129.4,109.9,193.3c-7.3,3.5-18.8,1.7-26.2,0
						c-8.8-2-17.2-5.8-24.4-11.1c-3.6-2.6-6.9-5.5-9.8-8.8c-1.1-1.2-6.6-10.3-7.4-10.3c5.7,0.2,11.5-0.8,16.9-2.9
						C602.7,400.9,586.7,393.7,579.1,379.3z"/>
					<g>
						<path class="st7" d="M522.3,196.1l12.5,16.6c4.2,5.5,8.2,11.2,12.3,16.7l12.3,16.8c3.9,5.7,7.9,11.4,11.7,17.2
							c3.9,5.8,7.5,11.7,11.2,17.6c3.6,5.9,7.2,11.8,10.7,17.8c7.1,11.9,13.9,24,20.6,36.2c13.4,24.3,26.4,48.8,40,72.9
							c3.4,6,6.8,12,10.3,18c3.5,6,7,11.8,10.6,17.9c3.5,6.1,6.8,12.1,10.4,17.9c3.6,5.9,7.2,11.6,11.5,16.6
							c1.3,1.5,1.2,3.8-0.4,5.1c-1.5,1.3-3.8,1.2-5.1-0.4c0,0,0,0-0.1-0.1c-4.7-5.6-8.3-11.8-11.8-17.8c-3.5-6.1-6.8-12.2-10.1-18.3
							c-3.3-6-6.8-12-10.2-18.1c-3.3-6.1-6.7-12.2-10-18.3c-13.2-24.5-25.6-49.2-38.6-73.7c-6.5-12.3-13-24.5-19.8-36.5
							c-3.4-6.1-6.9-12-10.3-18c-3.6-5.9-7.1-11.9-10.8-17.7c-3.6-5.9-7.5-11.6-11.3-17.4l-12-17c-4-5.7-7.9-11.3-12-17l-12.1-16.9
							c-0.1-0.1-0.1-0.3,0.1-0.3C522,196,522.2,196,522.3,196.1z"/>
					</g>
				</g>
				<g>
					<path class="st8" d="M551.8,325.8c-0.7-3.1-0.8-6.4-1.5-9.5c-0.1-0.3-0.1-0.6-0.3-0.8c-0.4-0.4-1.2-0.2-1.5,0.3
						c-0.3,0.5-0.4,1.1-0.4,1.6c-0.1,5.2,0.3,13.1,4.3,17.1C557,339.1,552.1,327.2,551.8,325.8z"/>
					<path class="st8" d="M543.6,317.3c-0.3-0.8-1.1-1.7-1.7-1.2c-0.2,0.2-0.3,0.4-0.3,0.6c-0.2,1,0,2,0.3,2.9
						c0.6,2.2,3.2,14.5,6,12.6C550.5,330.6,544.6,319.8,543.6,317.3z"/>
					<path class="st8" d="M538.3,319.4c-0.3-0.5-0.8-1-1.3-0.8c-0.5,0.2-0.5,0.9-0.4,1.4c0.4,2,3.1,11.9,5.8,10.6
						C546.1,328.9,539.3,320.9,538.3,319.4z"/>
					<path class="st9" d="M598.5,355.1c-6.4,8.3-17.3,12.7-21.9,22.1c-1.9,3.8-2.4,8.3-1.6,12.5c0.1,0.6,0.3,1.2,0.7,1.6
						c0.4,0.4,1.1,0.6,1.7,0.6c3,0.2,5.4-2.3,7.2-4.7c3.2-4.2,6-8.6,8.7-13c4.4-6.9,8.8-14,11.2-21.9c0.3-0.9,2-7.6-0.6-7.1
						C603,345.4,599.4,353.9,598.5,355.1z"/>
					<path class="st8" d="M591.2,360.1c0-0.4,0-0.9-0.3-1.1c-0.5-0.3-1.1,0.2-1.3,0.7c-0.6,1.1-0.8,2.4-1,3.6
						c-0.7,3.9-1.1,7.9-1.4,11.8c-0.1,1,0.2,3.2,1.7,2.6c1.1-0.4,1.1-3.5,1.3-4.5C590.8,369,591,364.5,591.2,360.1z"/>
					<path class="st8" d="M579.3,378.7c0.8,3.4,1.5,7.2-0.4,10c-0.1,0.2-0.3,0.4-0.5,0.4c-0.3,0-0.5-0.2-0.6-0.4
						c-0.7-1.1-0.9-2.5-1.1-3.9c-0.6-4.5-1.6-8.9-3-13.1c-0.6-1.8-2.1-9.4,1.6-5.6C578,368.9,578.4,375.1,579.3,378.7z"/>
					<path class="st8" d="M583.7,376.1c0.5,2.8,1.1,5.7,0,8.3c-0.1,0.2-0.2,0.4-0.3,0.5c-0.3,0.2-0.7,0-0.9-0.2
						c-0.2-0.3-0.3-0.6-0.4-1c-0.7-3.3-1.4-6.5-2.3-9.7c-0.4-1.6-2.9-6.6-1.8-8.1C581.3,361.3,583.4,374.9,583.7,376.1z"/>
					<path class="st10" d="M562,345.5c-1.3-3.6-2.6-7.2-4.9-10.2c-7-9.1-20.5-9.8-29.7-16.8c4.1,13.1,14.7,23,25.8,31.1
						c2.3,1.7,6.9,5.5,10,5.2C566.8,354.6,562.9,348.1,562,345.5z"/>
					<path class="st10" d="M555.4,309.6c0.6-3,2-6,1.6-9.1c0.7,7.2,3.7,14,5.9,20.9c1,3,1.8,6,1.9,9.2c0.1,3.1-0.8,6.4-2.8,8.8
						c-0.6,0.8-1.4,1.4-2.4,1.8c-2.9,1-5.8-1.4-6.7-4c-1-2.7,0.5-4.9,1.2-7.5C556.1,323.1,554.1,316.2,555.4,309.6z"/>
					<path class="st8" d="M555.9,354.2c-0.3-1.7-0.7-3.7-2.2-4.4c-0.6,0.5-0.7,1.5-0.6,2.3c0.1,2.2,0.7,14.8,3.6,15
						C560.2,367.2,556.2,356.1,555.9,354.2z"/>
					<path class="st8" d="M549.5,361.5c0.2,1,0.4,2.2,0,3.1c-0.2,0.3-0.6,0.1-0.8-0.2c-0.9-1.1-1.3-2.6-1.7-4.1
						c-0.8-3.1-1.5-6.1-2.3-9.2c-0.1-0.6-0.3-1.1-0.2-1.7c0.7-4.1,2.9,1.7,3,2.4C548.2,355.1,548.9,358.3,549.5,361.5z"/>
					<path class="st8" d="M561.4,364c0.2,1.1,0.4,2.5-0.4,3.3c-1.1-0.5-1.5-1.8-1.7-3c-0.3-1.6-2.2-11.9-0.1-12.4
						C561,351.5,561.1,362.5,561.4,364z"/>
					<path class="st8" d="M552.7,362.5c0.2,1.1,0.4,2.5-0.4,3.3c-1.1-0.5-1.5-1.8-1.7-3c-0.3-1.6-2.2-11.9-0.1-12.4
						C552.3,350,552.4,361,552.7,362.5z"/>
					<path class="st8" d="M588.2,379.7c0,0.5,0,1-0.4,1.3c-0.4,0.3-0.9,0.1-1.2-0.2c-0.3-0.3-0.5-0.7-0.6-1.2
						c-0.8-2.2-4.5-17.4-1.2-17.6C589,361.9,588.2,377.3,588.2,379.7z"/>
					<path class="st10" d="M569.7,386.1c-3.2-4.8-8.3-7.8-13.3-10.7c-12.1-7-24.3-13.9-34.6-23.4c-1.7-1.5-3.3-3.3-3.8-5.5
						c7.3,5,14.8,10.1,23.4,12.8c8.4,2.6,17.9,2.8,24.7,8.4c6.3,5.2,8.6,13.8,9.9,21.9c0.2,1.3,0.9,11.3-1.8,10
						c-0.8-0.4-1.1-5.7-1.4-6.7C572,390.5,571.1,388.2,569.7,386.1z"/>
					<path class="st10" d="M566.7,355.1c0.2-0.6,0.4-1.3,0.2-1.8c-0.2-0.6-1.2-0.9-1.5-0.3c-0.1,0.1-0.1,0.3-0.1,0.5
						c-0.2,1.7-1.2,15.4,0.5,15.2c1.2-0.1-0.1-5.1-0.1-6C565.5,360.1,565.9,357.5,566.7,355.1z"/>
					<path class="st9" d="M567.9,339c-2.2,3-5.3,7.6-4.8,11.3c0.1,0.8,0.3,3.5,0.9,4c1.1,0.9,3.6-2.8,4.8-3.5
						c5.5-3.4,8.8-9.5,10.7-15.7c1.1-3.7,1.8-7.4,2.5-11.2c0.5-2.5,3-10.8,0.6-7.2c-2.2,3.4-6.6,10.1-8.5,13
						C572.2,332.9,570.1,336,567.9,339z"/>
					<path class="st8" d="M575.3,333c-0.1-1.4,0.1-2.8,0.1-4.2c0-2-0.4-4.1-1.2-5.9c-0.1-0.2-0.2-0.4-0.4-0.5
						c-0.5-0.2-0.8,0.5-0.8,1c-0.1,2.6-0.1,5.2-0.2,7.8c-0.1,2.2-0.9,6.1-0.1,8.1c0.7,1.8,1.6,2.3,2.8,0.3
						C576.7,338,575.4,334.8,575.3,333z"/>
					<path class="st8" d="M571.6,334.8c-0.2-1.5-0.5-3-1.3-4.3c-0.1-0.2-0.2-0.4-0.4-0.5c-1.2-1.5-3.6-0.4-3.3,1.5
						c0.2,1.8,0.7,3.7,1.2,5.5c0.5,1.8,1.2,8.4,3.6,7.6C574.2,343.5,571.9,336.6,571.6,334.8z"/>
					<path class="st8" d="M567.4,338c-0.2-0.6-0.4-1.3-0.9-1.8c-0.5-0.5-1.3-0.7-1.8-0.2c-0.6,0.5-0.5,1.4-0.3,2.1
						c0.4,1.8,1.7,7.7,4.1,7.5C571.4,345.3,567.8,339.5,567.4,338z"/>
					<path class="st8" d="M578.1,324.4c-0.1-0.6-0.3-1.4-0.9-1.6c-0.5-0.1-1.1,0.2-1.3,0.7c-0.2,0.5-0.2,1-0.2,1.6
						c0.1,1.8,0.2,10,2.2,9.1C580.6,333,578.4,326.1,578.1,324.4z"/>
					<path class="st10" d="M562.5,354.6c2.5-7.1,8.9-12.1,12.7-18.6c4.7-7.8,5.7-17.5,10.7-25.1c-0.9,6.9-1.9,13.8-3,20.6
						c-0.9,5.2-1.8,10.5-4.3,15.2c-3.2,6.3-9,11.5-9.7,18.6c-0.1,1.2-0.1,2.4-0.4,3.6c-1.3,4.5-5.2,2.6-6.1-0.7
						C561.1,363.7,560.9,358.9,562.5,354.6z"/>
					<path class="st10" d="M573,398.5c1.4-4.7,4-9,6.6-13.2c2.7-4.3,5.3-8.6,8.3-12.7c4.1-5.8,8.7-11.2,11.9-17.5
						c1.8-3.6,3.1-7.3,4.4-11.1c1.4-4,2.8-8,4.2-12c-0.8,15.2-1.8,31.2-10.3,43.9c-3.2,4.8-7.3,9-10,14.1c-4.9,9.3-4.5,20.4-7,30.6
						c-1.7,6.7-5.5-5.1-6.5-6.9C572.1,408.9,571.5,403.8,573,398.5z"/>
					<path class="st8" d="M570.3,412c-1.2-0.5-1.8-1.8-1.8-3.1c-0.1-1.3,0.4-2.5,0.8-3.7c0.8-2.2,6.9-17.6,10.4-13.3
						c2,2.4-2.2,6.5-3.3,8.3C574,404,572.1,408,570.3,412z"/>
					<path class="st8" d="M575.9,407.6c2.6-3.1,5.9-5.4,9.4-7.3c0.6-0.3,1.2-0.7,1.6-1.2c0.4-0.5,0.6-1.3,0.2-1.9
						c-0.2-0.2-0.4-0.4-0.7-0.5c-1.6-0.7-3.4,0.4-4.7,1.4c-3.1,2.3-6.2,4.7-9,7.4c-1.5,1.5-7.4,9.1-3.2,10.5
						C572.2,416.9,574.5,409.3,575.9,407.6z"/>
					<path class="st8" d="M565.9,398.3c0.6-3,1.1-6.1,3.2-8.3c0.2-0.3,0.6-0.5,0.9-0.5c0.3,0.1,0.6,0.4,0.7,0.7
						c1.1,2.2,0.8,4.9,0.4,7.3c-0.5,3.6-1.1,7.3-3,10.5c-1.4,2.5-4.7,3.4-4.9,0C563.2,405.2,565.3,401.1,565.9,398.3z"/>
					<path class="st8" d="M561.6,401.4c0.3,1,0.5,2.3-0.4,2.7c-0.9,0.5-1.9-0.4-2.4-1.3c-1.2-1.9-6.7-12.8-3.6-14
						C558.7,387.4,560.9,399.2,561.6,401.4z"/>
					<path class="st8" d="M565.6,401.2c0,0.7,0.1,1.3-0.1,1.9c-0.2,0.6-0.7,1.2-1.4,1.2c-1.1,0.1-1.8-1.2-2.2-2.3
						c-0.8-2.5-1.6-4.9-1.9-7.5c-0.2-1.9,0.3-10.3,3.9-7.9C566.4,388.4,565.4,398.4,565.6,401.2z"/>
					<path class="st10" d="M580.5,417.5c-0.4-3.8-2.8-7.2-5.7-9.6c-3-2.4-6.5-4-9.9-5.7c-21.8-10.8-41.7-25.4-58.5-43
						c4.2,7.1,8.4,14.3,13.5,20.7c10.7,13.6,25.2,23.7,37.5,35.9c2.9,2.9,5.8,5.9,9.1,8.3c2.6,1.8,7.6,5.1,10.8,3.3
						C580.1,425.7,580.8,420.3,580.5,417.5z"/>
					<g>
						<path class="st5" d="M541.1,408.3c-16.5-5-33.7-8.5-49.1-16.3c12.9,22.2,35.3,37.7,59.1,47.2c7.1,2.8,33.2,12.8,37,0.6
							c3-9.4-18.9-20.2-25.2-23.3C555.9,413.1,548.5,410.6,541.1,408.3z"/>
						<g>
							<path class="st6" d="M581.7,436.5c-6.3-3.3-12.8-6-19.4-8.6l-19.8-7.7c-6.6-2.6-13.2-5.2-19.7-8.1c-3.3-1.4-6.5-3-9.5-4.9
								c-3.1-1.9-5.8-4.1-8.9-5.8c3.3,1.3,6.3,3.4,9.4,4.9c3.1,1.6,6.4,3,9.7,4.3l9.9,3.8l9.9,3.8c6.6,2.6,13.2,5.2,19.7,8.1
								C569.4,429.2,575.8,432.5,581.7,436.5z"/>
						</g>
						<g>
							<path class="st6" d="M567.3,428.9c-1.4-1.6-2.6-3.3-3.9-5c-1.2-1.7-2.4-3.4-3.5-5.2c1.6,1.4,2.9,3,4.2,4.7
								C565.4,425.1,566.5,426.9,567.3,428.9z"/>
						</g>
						<g>
							<path class="st6" d="M559,426.2c-0.8,0.9-1.9,1.5-3,1.9c-1.1,0.4-2.3,0.7-3.4,1.1c-2.2,0.7-4.4,1.5-6.6,2.4
								c1.9-1.5,4.1-2.5,6.4-3.2C554.7,427.7,557,427.4,559,426.2z"/>
						</g>
						<g>
							<path class="st6" d="M546.8,420.6c-1.3-1.2-2.3-2.5-3.3-4c-0.9-1.4-1.7-3-2.3-4.6c1.1,1.3,2,2.8,2.9,4.2
								C545.1,417.6,546,419.1,546.8,420.6z"/>
						</g>
						<g>
							<path class="st6" d="M534.2,415.9c-1.7,1.1-3.6,1.8-5.6,2.1c-2,0.3-4.1,0.3-6-0.2c2-0.1,4-0.3,5.9-0.6
								C530.4,417,532.2,416.5,534.2,415.9z"/>
						</g>
						<g>
							<path class="st6" d="M521.9,410.7c-1-0.7-1.9-1.7-2.6-2.7c-0.7-1-1.4-2.1-1.7-3.3c0.9,0.9,1.6,1.9,2.4,2.9
								C520.6,408.5,521.3,409.6,521.9,410.7z"/>
						</g>
						<g>
							<path class="st6" d="M512.7,406.5c-1.3,0.4-2.7,0.4-4.1,0.2c-1.4-0.2-2.7-0.6-3.9-1.3c1.4,0.1,2.7,0.3,4,0.5
								C510.1,406.1,511.4,406.2,512.7,406.5z"/>
						</g>
					</g>
					<g>
						<path class="st4" d="M604,395.9c13.4-10.9,27.9-20.7,39.2-33.8c-3.5,25.4-18.3,48.3-36.7,66.1c-5.5,5.3-25.8,24.4-34,14.7
							c-6.4-7.6,9.8-25.9,14.5-31.1C592.2,406,598,400.8,604,395.9z"/>
						<g>
							<path class="st5" d="M577.2,437.3c3.9-5.9,8.5-11.4,13.4-16.5c4.9-5.2,10-10.1,15.1-15l7.7-7.3l7.7-7.3
								c2.5-2.4,5-4.9,7.3-7.6c2.3-2.6,4.2-5.7,6.8-8.1c-2.2,2.8-3.9,5.9-6,8.8c-2.1,2.9-4.5,5.6-7,8.1c-5,5.1-10.1,10-15.1,15
								L591.9,422C586.8,426.9,581.8,431.9,577.2,437.3z"/>
						</g>
						<g>
							<path class="st5" d="M587.6,424.9c0-2.1,0.4-4.2,0.9-6.3c0.5-2.1,1.1-4.1,2.1-6c-0.3,2.1-0.8,4.1-1.3,6.2
								C588.8,420.8,588.3,422.9,587.6,424.9z"/>
						</g>
						<g>
							<path class="st5" d="M594.3,419.2c2.4,0.3,4.6-0.3,7-0.5c2.4-0.2,4.8-0.1,7.1,0.5c-2.4,0-4.7,0-7,0.3
								c-1.2,0.1-2.3,0.3-3.5,0.3C596.6,419.8,595.4,419.7,594.3,419.2z"/>
						</g>
						<g>
							<path class="st5" d="M603.4,409.4c0.1-1.7,0.4-3.4,0.7-5.1c0.3-1.7,0.6-3.3,1.1-5c0.1,1.7,0,3.4-0.3,5.1
								C604.6,406.2,604.2,407.9,603.4,409.4z"/>
						</g>
						<g>
							<path class="st5" d="M613.3,400.3c2-0.2,3.9-0.5,5.8-0.9c1.9-0.4,3.8-1,5.7-1.7c-1.6,1.2-3.5,2-5.5,2.4
								C617.4,400.5,615.3,400.7,613.3,400.3z"/>
						</g>
						<g>
							<path class="st5" d="M622.7,390.7c0.1-1.3,0.4-2.5,0.6-3.7c0.3-1.2,0.6-2.4,1.1-3.6c0.1,1.3,0,2.5-0.3,3.7
								C623.8,388.5,623.4,389.7,622.7,390.7z"/>
						</g>
						<g>
							<path class="st5" d="M629.6,383.4c1.2-0.8,2.3-1.4,3.5-2c1.2-0.6,2.3-1.3,3.5-1.9c-0.8,1.1-1.9,2-3.1,2.6
								C632.2,382.7,630.9,383.2,629.6,383.4z"/>
						</g>
					</g>
				</g>
				<g>
					<g>
						<path class="st4" d="M486.6,423.2c-2.3,2.1-4.8,4.1-7.3,5.9l-4.8-1.8l-0.9,5.3c-4.4,2.3-9,4.1-13.8,5.4
							c-9.4,2.4-19.1,2.5-28.8,2.6l-2.5-2.8l-1.8,2.8c-5.1,0.1-10.2,0.3-15.3,0.8c6.2-10.8,16-19.1,26.4-26
							c4.4-2.9,8.9-5.6,13.7-7.7c0.9-0.4,4,1.4,4,1.4l2.1-3.7c0.9-0.3,1.8-0.5,2.7-0.8c7.9-2,16.8-1.8,24.3,1.8
							c2.7,1.3,6.9,3.4,7.7,6.6C493.2,417,489.1,420.9,486.6,423.2z"/>
						<path class="st5" d="M492.2,413.1c-0.9-3.2-5-5.3-7.7-6.6c-7.5-3.6-16.4-3.8-24.3-1.8c-0.9,0.2-1.8,0.5-2.7,0.8l-2.1,3.7
							c0,0-3.1-1.8-4-1.4c-4.8,2.1-9.3,4.8-13.7,7.7c-10.4,6.9-20.2,15.2-26.4,26C411.3,441.4,435.5,420.5,492.2,413.1z"/>
					</g>
					<g>
						<path class="st4" d="M496.2,395.1c0.7-2.1,1.5-4.1,2.5-6l3.6-0.5l-1.2-3.5c1.9-2.9,4.1-5.5,6.7-7.9
							c4.9-4.6,10.8-7.9,16.7-11.2l2.5,0.9l0.1-2.3c3.1-1.7,6.2-3.5,9-5.6c-0.2,8.7-3.4,17-7.5,24.6c-1.7,3.2-3.6,6.3-5.8,9.2
							c-0.4,0.6-2.9,0.5-2.9,0.5l0,2.9c-0.4,0.5-0.9,0.9-1.4,1.3c-4.2,3.9-9.7,6.7-15.4,6.9c-2.1,0.1-5.3,0.2-6.9-1.5
							C494.3,401.1,495.5,397.4,496.2,395.1z"/>
						<path class="st5" d="M496.2,403.1c1.6,1.7,4.8,1.6,6.9,1.5c5.8-0.3,11.3-3.1,15.4-6.9c0.5-0.4,0.9-0.9,1.4-1.3l0-2.9
							c0,0,2.5,0.1,2.9-0.5c2.2-2.9,4.1-6,5.8-9.2c4.1-7.6,7.3-16,7.5-24.6C536.2,359.1,528.4,379.8,496.2,403.1z"/>
					</g>
					<g>
						<path class="st4" d="M508.6,404.6c2.4,1,4.8,2.2,7,3.5l0.3,4.3l4.3-1.2c3.3,2.5,6.3,5.4,8.9,8.7c5.1,6.3,8.6,13.7,12.1,21.1
							l-1.2,2.9l2.8,0.3c1.9,3.9,3.8,7.7,6,11.4c-10.4-1-20.2-5.5-29.1-11c-3.7-2.3-7.4-4.8-10.7-7.8c-0.6-0.6-0.4-3.5-0.4-3.5
							l-3.5-0.3c-0.5-0.6-1-1.2-1.5-1.8c-4.3-5.4-7.3-12.2-7.1-19.2c0-2.5,0.2-6.4,2.3-8.2C501.5,401.7,505.9,403.5,508.6,404.6z"/>
						<path class="st5" d="M498.9,403.9c-2.2,1.8-2.3,5.7-2.3,8.2c-0.1,7,2.8,13.8,7.1,19.2c0.5,0.6,1,1.2,1.5,1.8l3.5,0.3
							c0,0-0.3,3,0.4,3.5c3.3,2.9,6.9,5.4,10.7,7.8c8.9,5.5,18.7,10.1,29.1,11C548.9,455.7,524.4,444.6,498.9,403.9z"/>
					</g>
					<path class="st11" d="M500,389c0.5-4.8,1.2-9.7,2-14.5"/>
					<path class="st10" d="M506.9,361.3c-0.1-1.1-0.3-2.2-0.9-3.1c-0.6-0.9-1.8-1.6-2.8-1.2c-0.8,0.2-1.3,0.9-1.7,1.6
						c-0.6,1.1-0.9,2.4-1.1,3.6c-1,4.8-2.1,9.7-1.8,14.5c0.1,1.8,0.7,4.3,3,4.2c2.3-0.1,2.9-3.1,3.5-4.8
						C506.6,371.3,507.4,366.3,506.9,361.3z"/>
					<path class="st11" d="M471.8,388.7c-3.1-1.8-6.3-3.7-9.4-5.5c-3.4-2-7-4-10.9-4.1"/>
					<path class="st10" d="M451.3,381.5c-4.6,0.1-9.3,0.2-13.9,0.1c-2.2-0.1-4.5-0.2-6.4-1.3c-0.7-0.4-1.4-1-1.5-1.9
						c-0.2-1.5,1.6-2.4,3-2.7c4.7-1.2,9.5-1.4,14.3-0.8c2.4,0.3,6.3,0.9,8.1,2.9C457.4,380.6,453.5,381.5,451.3,381.5z"/>
					<path class="st11" d="M464.9,385c-2.2,0.7-3.6,1.2-5.8,1.9"/>
					<path class="st10" d="M451.9,393.9c-0.8,0.3-1.7,0.5-2.3-0.1c-0.7-0.6-0.4-1.7,0-2.5c1.5-3,6-7.8,9.5-4.9
						C463.2,389.7,454.2,393.1,451.9,393.9z"/>
					<path class="st11" d="M456.9,408.2c-5-1.1-10-1.9-15.1-2.6"/>
					<path class="st10" d="M437.4,409c-1.9-0.1-3.9-0.2-5.8-0.7c-0.9-0.2-1.9-0.6-2.4-1.5c-0.4-0.8-0.3-1.8,0.1-2.5
						c0.5-0.8,1.2-1.3,2-1.7c2.7-1.2,9.2-1.1,11.3,1.3C445.9,407.5,440,409.1,437.4,409z"/>
					<path class="st11" d="M489.4,430.3c-0.2,1.7-1.2,3.2-1.6,4.8c-0.5,1.7-0.4,3.5-0.3,5.2c0.2,3.1,0.5,6.1,0.9,9.2"/>
					<path class="st10" d="M491.8,451.8c0,0.5-0.1,1-0.3,1.4c-0.6,1-1.9,1.1-3,1.2c-0.4,0-0.8,0-1.2-0.1c-0.6-0.2-1-0.9-1.3-1.5
						c-0.9-2.2-1.6-8.1,1.8-8.6C491.8,443.7,491.9,449.2,491.8,451.8z"/>
					<path class="st11" d="M509.4,412.9c1.1,0.2,2.3,0.3,3.4,0.3c4,0.2,8.1,0.4,11.8-1.1"/>
					<path class="st10" d="M528.7,413.2c-0.9,0.5-2,0.9-3.1,0.7c-1.1-0.2-2-1.2-1.8-2.2c0.2-0.9,1.1-1.5,1.9-1.9
						c1.1-0.6,2.2-1.2,3.4-1.3c1.2-0.1,2.6,0.3,3.2,1.4C533.3,411.9,529.9,412.6,528.7,413.2z"/>
					<path class="st8" d="M509.3,411.9c6.3-0.7,12.3-4.7,14.8-10.5c2.5-5.7,1.5-12.2,0.6-18.3c-5.7-0.9-11.6-0.9-17.1,0.9
						c-5.5,1.8-10.5,5.4-13.2,10.5c-2.2,4.3-4.2,9.6-0.1,13.1C498.2,410.9,504.3,412.4,509.3,411.9z"/>
					<path class="st12" d="M524.7,383c1,6.1,1.9,12.6-0.6,18.3c-2.5,5.8-8.5,9.9-14.8,10.5c-5,0.5-11.1-0.9-15-4.3
						c-0.5-0.4-0.8-0.8-1.2-1.2c3.9,0.6,7.7,1.1,11.6,0.4c5-0.8,9.9-3.4,12.6-7.6c1.4-2.2,2.2-4.7,3.2-7.2c1.1-3.1,2.5-6,4-8.9
						C524.6,383,524.6,383,524.7,383z"/>
					<g>
						<path class="st8" d="M499.7,390.5c-0.3-6.3-3.9-12.5-9.6-15.4c-5.5-2.8-12.1-2.3-18.2-1.7c-1.3,5.6-1.6,11.5-0.2,17.1
							c1.4,5.6,4.8,10.8,9.7,13.8c4.1,2.5,9.3,4.8,13.1,0.9C498,401.5,499.9,395.6,499.7,390.5z"/>
						<path class="st12" d="M471.9,373.4c6.2-0.6,12.7-1.1,18.2,1.7c5.7,2.9,9.3,9.1,9.6,15.4c0.2,5.1-1.6,11-5.2,14.7
							c-0.4,0.4-0.9,0.8-1.3,1.1c0.9-3.8,1.6-7.6,1.2-11.5c-0.5-5-2.7-10.1-6.8-13.1c-2.1-1.6-4.6-2.5-7-3.6c-3-1.3-5.9-2.9-8.7-4.6
							C471.8,373.5,471.9,373.4,471.9,373.4z"/>
					</g>
					<g>
						<path class="st8" d="M483.6,392.1c-5.4-3.3-12.6-3.7-18.1-0.6c-5.4,3-8.6,8.8-11.5,14.2c4,4.2,8.7,7.8,14.1,9.7
							c5.4,1.9,11.6,2,16.9-0.4c4.4-2,9.2-5.1,8-10.4C491.8,399.6,487.9,394.7,483.6,392.1z"/>
						<path class="st12" d="M453.9,405.8c2.9-5.5,6.1-11.2,11.5-14.2c5.5-3.1,12.7-2.7,18.1,0.6c4.3,2.6,8.3,7.5,9.4,12.5
							c0.1,0.6,0.2,1.2,0.2,1.7c-2.7-2.8-5.5-5.5-9-7.3c-4.5-2.4-9.9-3.3-14.7-1.6c-2.5,0.9-4.6,2.4-6.9,3.8
							C459.9,403,457,404.5,453.9,405.8C454,405.9,453.9,405.8,453.9,405.8z"/>
					</g>
					<g>
						<path class="st8" d="M476,407.2c-5.6,3-9.7,8.9-9.8,15.2c-0.2,6.2,3.1,11.9,6.2,17.2c5.6-1.2,11.1-3.4,15.6-7.1
							c4.4-3.7,7.7-8.9,8.3-14.7c0.5-4.8,0.4-10.5-4.7-12.3C486.7,403.9,480.5,404.8,476,407.2z"/>
						<path class="st12" d="M472.4,439.6c-3.2-5.3-6.4-11-6.2-17.2c0.2-6.3,4.2-12.3,9.8-15.2c4.5-2.4,10.7-3.2,15.6-1.6
							c0.6,0.2,1.1,0.4,1.5,0.7c-3.8,0.8-7.5,1.8-10.9,3.9c-4.3,2.6-7.9,6.8-8.9,11.7c-0.5,2.6-0.3,5.2-0.3,7.9
							c0.1,3.3-0.1,6.5-0.4,9.8C472.5,439.6,472.5,439.6,472.4,439.6z"/>
					</g>
					<g>
						<path class="st8" d="M485.9,421.8c0,6.3,3.4,12.7,8.9,15.8c5.4,3,12,2.8,18.1,2.5c1.5-5.6,2.1-11.5,0.9-17.1
							c-1.2-5.6-4.3-11-9.1-14.2c-4-2.7-9.1-5.2-13.1-1.5C488,410.9,485.9,416.8,485.9,421.8z"/>
						<path class="st12" d="M513,440.1c-6.2,0.3-12.7,0.6-18.1-2.5c-5.5-3.1-8.9-9.5-8.9-15.8c0-5.1,2.1-10.9,5.8-14.5
							c0.4-0.4,0.9-0.7,1.4-1c-1,3.8-1.9,7.5-1.6,11.5c0.3,5.1,2.3,10.2,6.3,13.4c2,1.7,4.5,2.7,6.8,3.9c2.9,1.5,5.7,3.1,8.5,4.9
							C513,440,513,440.1,513,440.1z"/>
					</g>
					<polygon class="st10" points="490.1,398.8 490.2,400.8 488.4,399.9 489,401.8 487,401.4 488.1,403.1 486.1,403.2 487.6,404.6 
						485.6,405.2 487.5,406.1 485.7,407.2 487.7,407.6 486.3,409.1 488.4,409 487.4,410.9 489.4,410.2 488.9,412.2 490.6,411.1 
						490.7,413.2 492.1,411.6 492.7,413.6 493.6,411.8 494.7,413.5 495.2,411.5 496.7,412.9 496.6,410.9 498.4,411.8 497.8,409.9 
						499.8,410.3 498.6,408.6 500.7,408.5 499.2,407.2 501.2,406.6 499.3,405.6 501.1,404.5 499.1,404.1 500.5,402.6 498.4,402.7 
						499.4,400.9 497.4,401.5 497.9,399.5 496.1,400.6 496.1,398.5 494.7,400.1 494.1,398.1 493.1,399.9 492.1,398.2 491.6,400.2 
											"/>
				</g>
				<g>
					<path class="st4" d="M618.6,251.9c-23.2-15.7-45.2-33.6-70.8-44.9c41.1-6.5,83.5,5.7,119.9,25.9c10.8,6,50.1,28.6,38.8,45.9
						c-8.8,13.4-44.8-3-55.1-7.8C639.9,265.6,629,259,618.6,251.9z"/>
					<g>
						<path class="st5" d="M695.5,274c-11-3.3-21.7-7.9-32-13.1c-10.3-5.1-20.3-10.8-30.4-16.4l-15-8.5l-14.9-8.6
							c-5-2.8-10-5.5-15.3-7.8c-5.2-2.4-10.8-3.9-15.8-6.8c5.3,2.2,11,3.3,16.5,5.2c5.5,1.9,10.8,4.3,15.9,7
							c10.3,5.3,20.3,10.9,30.3,16.5l15,8.5c5,2.9,10,5.7,15,8.5C674.8,264.1,685,269.4,695.5,274z"/>
					</g>
					<g>
						<path class="st5" d="M671.3,263.8c-3.3,0.9-6.7,1.3-10.2,1.6c-1.7,0.1-3.4,0.1-5.1,0.1c-1.7-0.1-3.4-0.2-5.1-0.5
							c1.7-0.3,3.4-0.4,5.1-0.5c1.7-0.1,3.4-0.2,5.1-0.3C664.5,263.9,667.9,263.7,671.3,263.8z"/>
					</g>
					<g>
						<path class="st5" d="M659.4,256.1c-0.6-3.8-2.6-7-4.1-10.6c-1.5-3.6-2.4-7.4-2.5-11.3c1.1,3.7,2.3,7.3,3.7,10.8
							c0.7,1.7,1.5,3.5,2.1,5.4C659.3,252.2,659.7,254.2,659.4,256.1z"/>
					</g>
					<g>
						<path class="st5" d="M639.9,246.5c-2.7,0.6-5.5,0.9-8.2,1.2c-1.4,0.1-2.7,0.3-4.1,0.4c-1.4,0.1-2.8,0.2-4.2,0.2
							c1.3-0.5,2.6-0.9,4-1.2c1.4-0.3,2.7-0.5,4.1-0.7C634.3,246.2,637.1,246.1,639.9,246.5z"/>
					</g>
					<g>
						<path class="st5" d="M621,235.4c-1.3-3-2.6-5.9-4.2-8.6c-1.6-2.8-3.4-5.4-5.2-8c2.6,1.9,4.7,4.6,6.4,7.4
							C619.6,229,620.7,232.2,621,235.4z"/>
					</g>
					<g>
						<path class="st5" d="M601.8,225.3c-2,0.5-4,0.6-6,0.8c-1,0-2,0.1-3,0.1c-1,0-2,0-3.1-0.1c1-0.4,1.9-0.7,2.9-0.9
							c1-0.2,2-0.3,3-0.4C597.8,224.7,599.8,224.8,601.8,225.3z"/>
					</g>
					<g>
						<path class="st5" d="M587.2,218.2c-1.7-1.4-3.2-2.9-4.8-4.4c-1.5-1.5-3.1-2.9-4.7-4.5c2.1,0.8,3.9,2.1,5.6,3.6
							C584.9,214.4,586.3,216.1,587.2,218.2z"/>
					</g>
				</g>
				<g>
					<path class="st13" d="M659.4,105.3c-2.3,0.5-4.6,1.6-6.4,3.1c-2.5,2-4.3,4.8-6,7.5c-1,1.6-2.1,3.2-3.1,4.8"/>
					<path class="st5" d="M637.2,122.4c-1.5,1.2-3.1,2.4-4.3,3.8c-1.2,1.5-2.2,3.3-2.3,5.2c3-0.8,6-2.1,8.6-3.8
						c1.7-1.1,5.9-3.9,4.9-6.5C642.8,117.9,638.7,121.2,637.2,122.4z"/>
					<path class="st10" d="M636.3,139.5c-0.4,1.3-17.2,32.6-19.2,35.8c-1.9,2.9-3.8,5.8-5.7,8.7c-0.3,0.4-0.6,0.9-1,1
						c-0.4,0.2-0.9,0.1-1.3,0c-4-0.8-7.8-2.3-11.9-2.2c-1.9,0.1-3.8,0.5-5.6-0.1c-1.6-0.5-2.8-1.8-3.9-3c-0.3-0.3-0.6-0.7-0.7-1.1
						c-0.1-0.6,0.2-1.2,0.6-1.8c2.8-3.9,6.3-7.2,9.9-10.5c5.2-4.9,26.5-27.9,28.1-29.5c3.4-3.4,6.8-6.8,10.3-10.2
						c0.7-0.7,1.5-1.4,2.4-1.8c0.9-0.4,2.1-0.4,2.9,0.3c0.7,0.7,0.8,1.8,0.5,2.7c-0.5,1.6-1.7,3.2-2.5,4.7
						C638.1,134.8,637.1,137.2,636.3,139.5z"/>
					<path class="st10" d="M613.1,199.1c0.4,0.2,0.8,0.5,1,0.8c0.8,0.9,0.5,2.2,0.6,3.3c0.2,2.5,2.1,4.5,4.3,5.6
						c2.2,1.1,4.7,1.5,7.1,1.8c-1.7,1.5-4.3,1.4-6.5,0.8c-2.2-0.7-4.2-1.9-6.4-2.4c-3.9-0.9-8.3,0.4-11,3.3c-0.1-1.6-1.1-3-2.4-3.9
						s-2.9-1.3-4.5-1.6c-2.7-0.5-5.4-0.6-8.1-0.4c-0.3,0-0.6,0-0.9-0.1c-0.3-0.2-0.5-0.5-0.7-0.7c-0.9-1.1-2.7-1-4.1-1.3
						c-2.7-0.7-4.4-3.1-5.5-5.6c-1.1-2.5-1.8-5.2-3.5-7.4c-0.9-1.2-2.2-2.2-3.3-3.2c-2.1-2.1-3.8-4.6-5-7.3c0.8,0.8,1.8,1.5,2.8,1.8
						c1.1,0.3,2.4,0.1,3.1-0.7c0.7-0.8,0.9-2,1.7-2.8c0.9-0.9,2.5-1.2,3-2.4c0.5-1-0.1-2.2,0.2-3.2c0.4-1.3,1.8-1.9,2.8-2.7
						c2.1-1.8,2.6-4.8,3-7.5c0.4-2.7,1-5.8,3.3-7.4c-0.7,9,1.5,16.1,5.3,23.2c0.5,0.9,1,1.8,1.8,2.4c0.8,0.6,1.8,0.9,2.7,1.1
						c3.4,0.9,6.8,1.9,10.2,2.8c1.2,0.3,4.7,0.4,5.5,1.4c0.8,1-0.4,3-0.5,4.2C609.1,194.1,610.5,197.4,613.1,199.1z"/>
					<g>
						<path class="st14" d="M603.4,187.1c-0.1,1.4-0.2,2.8-0.1,4.2c0.1,1.4,0.2,2.8,0.5,4.1c0.3,1.4,0.7,2.7,1,4l0.6,2
							c0.2,0.6,0.5,1.3,1.2,1.6c-0.8-0.1-1.2-0.8-1.5-1.4c-0.3-0.7-0.5-1.3-0.8-2c-0.5-1.3-0.9-2.7-1.2-4.1
							c-0.3-1.4-0.4-2.8-0.4-4.3C602.8,189.9,603,188.5,603.4,187.1z"/>
					</g>
					<g>
						<path class="st14" d="M600.9,186.4c0.1,1.5,0.1,3.1,0.1,4.6c0,1.5,0,3,0,4.5c0.1,1.5,0.2,3,0.5,4.5c0.3,1.5,0.8,2.9,1.5,4.3
							c-1-1.2-1.6-2.6-2.1-4.1c-0.5-1.5-0.7-3-0.7-4.6c-0.1-1.5,0-3.1,0.1-4.6C600.5,189.4,600.7,187.9,600.9,186.4z"/>
					</g>
					<g>
						<path class="st14" d="M598.6,186.1c-0.1,1.4-0.3,2.7-0.7,4c-0.4,1.3-0.9,2.6-1.5,3.8c-0.6,1.2-1.3,2.4-2.2,3.5
							c-0.8,1.1-1.7,2.1-2.8,3c0.8-1.1,1.6-2.2,2.3-3.4c0.7-1.1,1.4-2.3,2-3.5c0.6-1.2,1.1-2.4,1.6-3.7
							C597.8,188.7,598.2,187.4,598.6,186.1z"/>
					</g>
					<g>
						<path class="st14" d="M595.4,185.3c-0.4,1.5-0.9,2.9-1.4,4.4c-0.5,1.4-1.1,2.8-1.8,4.2c-0.7,1.4-1.5,2.7-2.4,3.9
							c-0.9,1.2-2,2.3-3.2,3.3c1-1.1,1.9-2.3,2.8-3.6c0.8-1.3,1.6-2.6,2.2-3.9c0.7-1.3,1.3-2.7,2-4.1
							C594.1,188.1,594.7,186.7,595.4,185.3z"/>
					</g>
					<g>
						<path class="st14" d="M591.7,184.1c-0.3,1.4-0.7,2.7-1.3,3.9c-0.5,1.3-1.2,2.5-1.9,3.7c-0.8,1.2-1.6,2.3-2.5,3.3
							c-0.9,1-2.1,1.9-3.4,2.4c1.2-0.7,2.1-1.7,3-2.7c0.8-1.1,1.6-2.2,2.3-3.3c0.7-1.1,1.4-2.3,2.1-3.5
							C590.5,186.6,591.1,185.3,591.7,184.1z"/>
					</g>
					<g>
						<path class="st14" d="M589.5,182.8c-0.7,1.1-1.6,2-2.7,2.6c-1.1,0.7-2.3,1.1-3.6,1.4c-2.5,0.6-5.1,0.5-7.5,0.2
							c2.5-0.3,5-0.4,7.4-1C585.4,185.6,587.7,184.6,589.5,182.8z"/>
					</g>
					<g>
						<path class="st14" d="M587.4,181c-1.2,1.1-2.9,1.5-4.4,1.5c-1.6,0-3.1-0.4-4.6-1c1.6,0,3.1,0.2,4.6,0.3
							C584.4,181.8,585.9,181.6,587.4,181z"/>
					</g>
					<g>
						<path class="st15" d="M637.9,131.1c-2.1,4.6-4.2,9.2-6.9,13.5c-2.6,4.4-6.2,8.1-8.2,12.7c-1.1,2.2-2.1,4.6-3.3,6.8
							c-1.1,2.3-2.3,4.5-3.6,6.7c-2.5,4.4-5.3,8.6-8.3,12.7c2.8-4.2,5.4-8.5,7.8-13c1.2-2.2,2.4-4.5,3.5-6.7
							c1.1-2.3,2.1-4.6,3.2-6.9c1.1-2.3,2.5-4.5,4.1-6.5c1.5-2,3-4,4.4-6.2C633.3,140.1,635.6,135.5,637.9,131.1z"/>
					</g>
					<g>
						<path class="st15" d="M638.2,129c-2.7,4.6-5.6,9.1-8.5,13.5c-2.9,4.5-5.9,8.9-8.9,13.3c-3.1,4.4-6.1,8.7-9.3,13
							c-3.2,4.3-6.4,8.5-9.9,12.6c1.6-2.1,3.2-4.2,4.8-6.4c1.6-2.1,3.1-4.3,4.6-6.5c3.1-4.4,6.1-8.7,9.1-13.1l9.1-13.2l4.5-6.6
							C635.2,133.4,636.7,131.2,638.2,129z"/>
					</g>
					<g>
						<path class="st15" d="M634.7,130.1l-4.9,6.5l-5,6.5c-1.7,2.2-3.3,4.3-5,6.4c-1.7,2.1-3.3,4.3-5.1,6.4
							c-3.5,4.1-7.1,8.2-10.8,12.2l-5.5,6l-5.6,5.9l10.8-12.2c3.6-4.1,7.2-8.2,10.6-12.3c3.5-4.2,6.8-8.5,10.2-12.7L634.7,130.1z"/>
					</g>
					<g>
						<path class="st5" d="M676.6,150.3c10.5,11.4,22.1,21.9,30.4,35c0.1-23-10-45.2-24.1-63.4c-4.2-5.4-19.8-25-28.3-17.4
							c-6.6,5.9,5.4,24.3,8.9,29.5C667.4,139.8,671.9,145.1,676.6,150.3z"/>
						<g>
							<path class="st6" d="M658.1,110c3.4,5.4,7.1,10.5,11,15.5l11.8,15c3.9,5,7.8,10,11.5,15.2c1.9,2.6,3.6,5.3,5.1,8.1
								c1.5,2.8,2.6,5.8,4.2,8.6c-2-2.5-3.3-5.5-5-8.1c-1.7-2.7-3.6-5.2-5.5-7.7l-5.9-7.4l-5.9-7.5c-3.9-5-7.8-10-11.5-15.3
								C664.2,121.2,660.9,115.8,658.1,110z"/>
						</g>
						<g>
							<path class="st6" d="M665.7,122.4c0.3,1.9,0.5,3.7,0.7,5.6c0.2,1.9,0.3,3.7,0.4,5.6c-0.6-1.8-0.9-3.7-1.1-5.6
								C665.6,126.2,665.5,124.3,665.7,122.4z"/>
						</g>
						<g>
							<path class="st6" d="M670.9,128.3c1-0.3,2.2-0.2,3.2-0.1c1.1,0.2,2.1,0.5,3.1,0.7c2,0.5,4.1,0.8,6.2,1.1
								c-2.1,0.3-4.3,0.1-6.4-0.5C675,129.1,673,128.3,670.9,128.3z"/>
						</g>
						<g>
							<path class="st6" d="M677.8,138.2c0.5,1.5,0.6,3,0.7,4.6c0,1.5,0,3.1-0.4,4.6c-0.2-1.5-0.3-3.1-0.4-4.6
								C677.7,141.2,677.7,139.7,677.8,138.2z"/>
						</g>
						<g>
							<path class="st6" d="M685.4,147.6c1.8-0.1,3.6,0.3,5.3,0.9c1.7,0.7,3.3,1.6,4.6,2.9c-1.6-0.8-3.2-1.6-4.8-2.2
								C688.8,148.5,687.1,148,685.4,147.6z"/>
						</g>
						<g>
							<path class="st6" d="M692.5,157.2c0.5,1,0.7,2.2,0.8,3.3c0.1,1.1,0.1,2.3-0.2,3.4c-0.3-1.1-0.4-2.2-0.5-3.3
								C692.5,159.4,692.4,158.3,692.5,157.2z"/>
						</g>
						<g>
							<path class="st6" d="M697.6,164.6c1.2,0.3,2.3,0.9,3.2,1.7c1,0.8,1.8,1.7,2.4,2.7c-1-0.7-1.9-1.4-2.9-2.2
								C699.5,166.2,698.6,165.5,697.6,164.6z"/>
						</g>
					</g>
					<path class="st5" d="M643.7,128.6c-1.9,3-3.2,6.3-3.7,9.8c-1.5-3.8-1.7-7.9-1.8-11.9c-0.1-2.7,0.7-8,4.8-6.8
						C646.9,121,645.3,126.2,643.7,128.6z"/>
					<path class="st16" d="M613.9,183.6c-2.8,0.6-5.7,0.3-8.4-0.6c-1.7-0.5-3.3-1.3-5.1-1.6c-2.2-0.4-4.5,0-6.6-0.6
						c-2.7-0.7-4.8-2.9-6-5.3c-1.3-2.4-1.9-5.2-2.5-7.9c-0.7-3.1-1.4-6.4-1-9.5c-1.9,6.6-1.2,13.9,1.7,20.1c0.5,1.1,1.1,2.1,1.9,3
						c1.7,1.9,4.1,2.9,6.6,3.6c2.4,0.6,5,0.9,7.4,1.6c1.4,0.4,2.7,1,4.1,1.2c2.1,0.3,4.3-0.1,6.4-0.5c2.1-0.4,4.3-0.8,6.1-2
						c0.8-0.5,4.5-4.8,1.6-4.7c-0.7,0-2.1,1.6-2.8,2C616.1,183,615,183.4,613.9,183.6z"/>
				</g>
			</g>
		</g>
	</g>
</g>
<g id="DESIGNED_BY_FREEPIK">
</g>
</svg>
