<?xml version="1.0" encoding="utf-8"?>
<!-- Generator: Adobe Illustrator 24.1.2, SVG Export Plug-In . SVG Version: 6.00 Build 0)  -->
<svg version="1.1" xmlns="http://www.w3.org/2000/svg" xmlns:xlink="http://www.w3.org/1999/xlink" x="0px" y="0px"
	 viewBox="0 0 750 500" style="enable-background:new 0 0 750 500;" xml:space="preserve">
<style type="text/css">
	.st0{fill:url(#SVGID_1_);}
	.st1{fill:url(#SVGID_2_);}
	.st2{fill:url(#SVGID_3_);}
	.st3{fill:url(#SVGID_4_);}
	.st4{fill:url(#SVGID_5_);}
	.st5{fill:url(#SVGID_6_);}
	.st6{fill:url(#SVGID_7_);}
	.st7{fill:url(#SVGID_8_);}
	.st8{opacity:0.77;fill:url(#SVGID_9_);}
	.st9{fill:url(#SVGID_10_);}
	.st10{fill:url(#SVGID_11_);}
	.st11{opacity:0.52;fill:#004C39;}
	.st12{fill:url(#SVGID_12_);}
	.st13{fill:url(#SVGID_13_);}
	.st14{fill:url(#SVGID_14_);}
	.st15{fill:url(#SVGID_15_);}
	.st16{fill:url(#SVGID_16_);}
	.st17{fill:url(#SVGID_17_);}
	.st18{fill:url(#SVGID_18_);}
	.st19{fill:url(#SVGID_19_);}
	.st20{fill:url(#SVGID_20_);}
	.st21{fill:url(#SVGID_21_);}
	.st22{fill:url(#SVGID_22_);}
	.st23{fill:url(#SVGID_23_);}
	.st24{fill:url(#SVGID_24_);}
	.st25{fill:url(#SVGID_25_);}
	.st26{fill:url(#SVGID_26_);}
	.st27{opacity:0.64;fill:#00804F;}
	.st28{fill:url(#SVGID_27_);}
	.st29{fill:url(#SVGID_28_);}
	.st30{opacity:0.52;fill:#003C67;}
	.st31{fill:url(#SVGID_29_);}
	.st32{fill:url(#SVGID_30_);}
	.st33{opacity:0.52;fill:#003F55;}
	.st34{fill:url(#SVGID_31_);}
	.st35{fill:#00706D;}
	.st36{fill:url(#SVGID_32_);}
	.st37{fill:#007683;}
	.st38{fill:url(#SVGID_33_);}
	.st39{fill:url(#SVGID_34_);}
	.st40{fill:url(#SVGID_35_);}
	.st41{fill:url(#SVGID_36_);}
	.st42{opacity:0.4;fill:#007683;}
	.st43{fill:url(#SVGID_37_);}
	.st44{fill:#008380;}
	.st45{fill:url(#SVGID_38_);}
	.st46{fill:url(#SVGID_39_);}
	.st47{fill:url(#SVGID_40_);}
	.st48{fill:url(#SVGID_41_);}
	.st49{opacity:0.66;fill:#007A52;}
	.st50{fill:url(#SVGID_42_);}
	.st51{fill:url(#SVGID_43_);}
	.st52{fill:url(#SVGID_44_);}
	.st53{fill:url(#SVGID_45_);}
	.st54{fill:url(#SVGID_46_);}
	.st55{fill:url(#SVGID_47_);}
	.st56{opacity:0.51;fill:url(#SVGID_48_);}
	.st57{opacity:0.44;fill:url(#SVGID_49_);}
</style>
<g id="BACKGROUND">
	<linearGradient id="SVGID_1_" gradientUnits="userSpaceOnUse" x1="42.2107" y1="472.0008" x2="824.4874" y2="-49.8491">
		<stop  offset="7.812500e-04" style="stop-color:#00253D"/>
		<stop  offset="1" style="stop-color:#005751"/>
	</linearGradient>
	<rect class="st0" width="750" height="500"/>
</g>
<g id="OBJECTS">
	<g>
		<linearGradient id="SVGID_2_" gradientUnits="userSpaceOnUse" x1="176.7424" y1="379.8466" x2="698.0477" y2="14.4028">
			<stop  offset="0" style="stop-color:#009E9D"/>
			<stop  offset="0.2571" style="stop-color:#2AB6A1"/>
			<stop  offset="0.9992" style="stop-color:#A0FAAB"/>
		</linearGradient>
		<rect x="93.8" y="27" class="st1" width="628.6" height="381.2"/>
		<linearGradient id="SVGID_3_" gradientUnits="userSpaceOnUse" x1="689.5636" y1="433.4575" x2="689.5636" y2="47.0983">
			<stop  offset="0" style="stop-color:#006182"/>
			<stop  offset="0.3917" style="stop-color:#4E9E87;stop-opacity:0.6083"/>
			<stop  offset="1" style="stop-color:#C4FA8F;stop-opacity:0"/>
		</linearGradient>
		<path class="st2" d="M634.5-13.6l4.4-3.2c4.4,47.5,16.8,94.3,36.6,137.7c-2.2-51.6-4.3-103.2-6.5-154.8l10-5.8
			c11.1,90.2,22.2,180.4,33.3,270.5c17.2-44.5,26.5-92,26.9-139.7l4.7-0.8c1.9,60.6-7.3,121.6-26.8,179
			c9.2,74.8,18.4,149.5,27.6,224.3l-53.3,4.2c-4.7-112.4-9.4-224.8-14.1-337.3C652.7,105.8,638.1,46.5,634.5-13.6z"/>
		<linearGradient id="SVGID_4_" gradientUnits="userSpaceOnUse" x1="481.9623" y1="433.4576" x2="481.9623" y2="47.0986">
			<stop  offset="0" style="stop-color:#006182"/>
			<stop  offset="0.3917" style="stop-color:#4E9E87;stop-opacity:0.6083"/>
			<stop  offset="1" style="stop-color:#C4FA8F;stop-opacity:0"/>
		</linearGradient>
		<path class="st3" d="M432.7,95.7c4.6,13.2,30.7,87.5,35.3,100.7c-0.5-37.1-1-74.2-1.6-111.2c-6.5-16.7-12.9-33.3-19.4-50l1.8-4.9
			c5.8,12.6,11.6,25.3,17.4,37.9c-0.3-22.6-0.6-45.2-0.9-67.8l7-1.5c3.4,20.3,6.4,40.7,9,61.1c5.8-15.4,10.5-31.2,13.8-47.3l6.4-5
			c-2.8,23.3-9,46.3-18.2,67.9c5.6,47.5,9,95.3,10.3,143.2c4.2-14.2,31.6-104.1,33.7-118.8l6.1,6.7c-2.6,24.7-31.8,124.6-39.3,148.3
			c0.2,44.1-1.5,88.1-5.1,132.1l-18.3-3.6c-0.7-52.2-1.5-104.5-2.2-156.7c-8-18.8-35-99.8-37.8-120L432.7,95.7z"/>
		<linearGradient id="SVGID_5_" gradientUnits="userSpaceOnUse" x1="222.2405" y1="433.4574" x2="222.2405" y2="47.0983">
			<stop  offset="0" style="stop-color:#006182"/>
			<stop  offset="0.3917" style="stop-color:#4E9E87;stop-opacity:0.6083"/>
			<stop  offset="1" style="stop-color:#C4FA8F;stop-opacity:0"/>
		</linearGradient>
		<path class="st4" d="M154.5,46.6l5.2-3.3c10,47.9,23.3,95,39.7,141.1c4.4-60.6,11.6-120.9,21.7-180.8l23-0.7
			c-5.4,33.6-9.7,67.3-13.1,101.1c22.7-29.3,40.7-62.1,53.2-97l5.7,5.5c-11.2,42.1-32.3,81.6-61.1,114.3
			c-5.1,59.2-7.2,118.7-6.2,178.1c14.3-40.2,33.2-94.2,37.3-136.7l6.5,2.3c-5,51-25.8,113.4-43.1,161.6c1.3,39.6,3.9,79.2,7.9,118.7
			l-33-9.5c-4.9-77.2-5-154.7-0.5-231.9C179.6,156.3,165.1,101.8,154.5,46.6z"/>
		<linearGradient id="SVGID_6_" gradientUnits="userSpaceOnUse" x1="112.2326" y1="433.4574" x2="112.2326" y2="47.0981">
			<stop  offset="0" style="stop-color:#006182"/>
			<stop  offset="0.3917" style="stop-color:#4E9E87;stop-opacity:0.6083"/>
			<stop  offset="1" style="stop-color:#C4FA8F;stop-opacity:0"/>
		</linearGradient>
		<path class="st5" d="M59.3,236.2c42.9-79.5,64.6-170.5,62.1-260.8l12.8,8C130.9,54.2,120.1,124.5,102,193
			c21.7-17.3,46.2-51.7,62.2-86.3l1,11.3c-17.7,43.7-41.9,76.2-69.9,98.8c-5.1,17.4-10.6,34.7-16.7,51.9L59.3,236.2z"/>
		<linearGradient id="SVGID_7_" gradientUnits="userSpaceOnUse" x1="569.5768" y1="433.4574" x2="569.5768" y2="47.0984">
			<stop  offset="0" style="stop-color:#006182"/>
			<stop  offset="0.3917" style="stop-color:#4E9E87;stop-opacity:0.6083"/>
			<stop  offset="1" style="stop-color:#C4FA8F;stop-opacity:0"/>
		</linearGradient>
		<path class="st6" d="M503.2,201.2l3.9-4.1c8.8,41.8,35.8,112.1,58,148.5c0.6-85.9,1.1-171.8,1.7-257.7
			c-8-24.1-14.4-48.7-19.3-73.6l2.8-8.6c5.5,17,11.1,33.9,16.6,50.9c0.2-29.9,0.4-59.8,0.6-89.7l9.7-3c5.6,47.5,9.8,95.2,12.5,143
			c17.5-44.1,30.6-90,39.3-136.6l6.9,0.7c-7.1,54.6-22.4,108.2-45,158.5c1.5,32.6,2.4,65.2,2.5,97.8c12.6-35.2,21-71.8,24.8-109
			l8.7,4.8c-3.3,46.3-14.8,92-33.5,134.5c-0.5,67.7-4,135.3-10.4,202.7l-18.8,35.2c0.3-40.7,0.5-81.4,0.8-122.2l-2.1,3.6
			C538.4,335.9,509.7,248.5,503.2,201.2z"/>
		<linearGradient id="SVGID_8_" gradientUnits="userSpaceOnUse" x1="343.4811" y1="433.4574" x2="343.4811" y2="47.0983">
			<stop  offset="0" style="stop-color:#006182"/>
			<stop  offset="0.3917" style="stop-color:#4E9E87;stop-opacity:0.6083"/>
			<stop  offset="1" style="stop-color:#C4FA8F;stop-opacity:0"/>
		</linearGradient>
		<path class="st7" d="M296.2,31.1l5.7-4C312.8,77.9,328,127.8,347.3,176c-0.5-62,1.6-124.1,6.2-185.9l8-1.6
			c-2.1,154.2,7.7,308.5,29.3,461.2l-34.3-16.1c-7.2-64.8-7-155.4-8.6-220.6C323.8,154.6,306.4,93.5,296.2,31.1z"/>
		<linearGradient id="SVGID_9_" gradientUnits="userSpaceOnUse" x1="418.774" y1="388.8817" x2="418.774" y2="188.3584">
			<stop  offset="0" style="stop-color:#00715D"/>
			<stop  offset="1" style="stop-color:#00C2A4"/>
		</linearGradient>
		<path class="st8" d="M76.4,276.2c7.7-6,19-6.7,27.4-1.9c8.4,4.9,13.4,15.1,12,24.7c0.7-7.8,6.8-14.8,14.4-16.7
			c7.6-1.8,16.2,1.6,20.5,8.2c-5.8-8.3-3.8-21,4.2-27.1c8.1-6.1,20.8-4.5,27.2,3.3c-0.8-10.6,8.9-20.7,19.5-20.4
			c10.6,0.3,19.7,11,18.3,21.5c3.6-9.6,16.9-14,25.5-8.5c8.7,5.5,10.2,19.4,3,26.7c10.8-4.5,23.2,10.6,16.7,20.3
			c10.2-5.9,24.3-4,32.5,4.4c0.2-8.7,0.4-17.5,0.6-26.2c10.5-2.6,22.5,3.3,26.8,13.2c-3.4-10.5,3.2-23.1,13.8-26.2
			c10.6-3.1,23,4,25.7,14.7c0.2-8.9,11.1-15.6,19.1-11.7c8,3.9,9.4,16.7,2.5,22.3c3.9-5.8,12.8-7.5,18.6-3.6
			c5.8,3.9,7.5,12.8,3.5,18.6c5.6-5.5,14.7-7,21.8-3.6c7.1,3.4,11.5,11.5,10.6,19.3c7.3-7,21.4-4,25.1,5.4
			c-6.1-4.4-7.4-14.2-2.7-20.1c4.8-5.9,14.6-6.6,20.2-1.5c-2.9-8.1,1-18.1,8.7-22.1c7.7-4,18.1-1.5,23.1,5.6
			c-6.1-9.7-3.1-24,6.4-30.5c9.5-6.4,23.9-4,30.7,5.3c9.5-11.6,32-6.5,35.5,8.2c0.5-8.5,7.8-16.1,16.3-16.8
			c8.5-0.8,17,5.3,19.1,13.6c-1-9,5.1-18.2,13.7-20.8c8.6-2.6,18.8,1.6,23,9.5c0.5-10.1,7.7-19.6,17.3-22.8c9.6-3.2,21.1,0.2,27.5,8
			c12.9-11.2,34.6-4.4,44.5,9.5c10,13.9,11.3,32,11.7,49.1c1,35.4-0.2,70.8-3.5,106H76.4V276.2z"/>
		<linearGradient id="SVGID_10_" gradientUnits="userSpaceOnUse" x1="135.0658" y1="362.9588" x2="687.7579" y2="-53.7818">
			<stop  offset="0" style="stop-color:#008A92"/>
			<stop  offset="7.528043e-02" style="stop-color:#0A9392"/>
			<stop  offset="1" style="stop-color:#80FA95"/>
		</linearGradient>
		<path class="st9" d="M184.2,132.6c-4.7,112.4-9.4,224.8-14.1,337.3l-53.3-4.2c9.2-74.8,18.4-149.5,27.6-224.3
			c-19.5-57.4-28.8-118.4-26.8-179l4.7,0.8c0.4,47.7,9.6,95.3,26.9,139.7c11.1-90.2,22.2-180.4,33.3-270.5l10,5.8
			c-2.2,51.6-4.3,103.2-6.5,154.8c19.8-43.4,32.3-90.2,36.6-137.7l4.4,3.2C223.3,18.4,208.7,77.7,184.2,132.6z M493.5,41.7
			c-15.5,71.8-55.5,126.8-65.7,141c0.6-43.6,1.2-87.3,1.8-130.9c7.6-19.6,15.2-39.2,22.8-58.9l-2.1-5.8
			c-6.8,14.9-13.6,29.8-20.4,44.6c0.4-26.6,0.7-53.2,1.1-79.9l-8.2-1.8c-4,23.9-7.5,47.9-10.6,72c-6.9-18.1-12.3-36.7-16.2-55.7
			l-7.5-5.9c3.3,27.5,10.6,54.4,21.5,79.9c-6.6,56-10.6,112.2-12.1,168.5c-5-16.7-49.7-112.6-47.1-196.3l-7.2,7.9
			c0,77,44.9,203.1,53.7,231c-0.2,51.9,1.8,103.8,6,155.5l21.5-4.2c0.9-61.5,1.7-123,2.6-184.5c18.6-27,62.5-112.6,68.7-163.8
			L493.5,41.7z M668.8-6.4l-5.2-3.3c-10,47.9-23.3,95-39.7,141.1c-4.4-60.6-11.6-120.9-21.7-180.8l-23-0.7
			c5.4,33.6,9.7,67.3,13.1,101.1c-22.7-29.3-40.7-62.1-53.2-97l-5.7,5.5c11.2,42.1,32.3,81.6,61.1,114.3
			c5.1,59.2,7.2,118.7,6.2,178.1c-37.7-16.4-71.1-86.5-75.2-129l-6.5,2.3c5,51,34,124.9,81,153.9c-1.3,39.6-3.9,79.2-7.9,118.7
			l33-9.5c4.9-77.2,5-154.7,0.5-231.9C643.7,103.3,658.2,48.8,668.8-6.4z M756.9,205.5C713.9,125.9,692.3,35,694.7-55.4l-12.8,8
			c3.2,70.7,14.1,141.1,32.2,209.6c-21.9-19.8-52.4-61.1-67.6-86.5l-3.7,7.8c19.3,30.4,50,80,77.9,102.5
			c5.1,17.4,10.6,34.7,16.7,51.9L756.9,205.5z M26.3,234.8c25.7-36.1,47.4-75.1,64.6-116c15.6-37,27.6-75.6,35.7-115l-2.1-15.3
			c-14.7,57.3-40.9,111.6-76.6,158.7L26.3,234.8z M384.8,192.2l-3.9-4.1c-8.8,41.8-38.2,110.4-60.5,146.8
			c-0.6-85.9-1.1-171.8-1.7-257.7c8-24.1,14.4-48.7,19.3-73.6l-2.8-8.6L318.6,46c-0.2-29.9-0.4-59.8-0.6-89.7l-9.7-3
			c-5.6,47.5-9.8,95.2-12.5,143c-17.5-44.1-30.6-90-39.3-136.6l-6.9,0.7c7.1,54.6,22.4,108.2,45,158.5c-1.5,32.6-2.4,65.2-2.5,97.8
			c-23.4-39.1-55-96.1-62.5-196.1l-8.7,4.8c4.3,106.7,52.4,179.1,71.2,221.6c0.5,67.7,4,135.3,10.4,202.7l18.8,35.2
			c-0.3-40.7-0.5-81.4-0.8-122.2l2.1,3.6C347.1,325.2,378.3,239.6,384.8,192.2z M555.3,3.2l-5.7-4c-10.9,50.8-26.2,100.7-45.4,148.9
			c0.5-62-1.6-124.1-6.2-185.9l-8-1.6c2.1,154.2-7.7,308.5-29.3,461.2l34.3-16.1c7.2-64.8,7-155.4,8.6-220.6
			C527.7,126.8,545.1,65.6,555.3,3.2z"/>
		<g>
			
				<linearGradient id="SVGID_11_" gradientUnits="userSpaceOnUse" x1="738.9344" y1="393.5591" x2="746.5645" y2="276.8618" gradientTransform="matrix(0.9544 -0.2985 0.2985 0.9544 -80.0202 168.9106)">
				<stop  offset="0" style="stop-color:#00332E"/>
				<stop  offset="0.1706" style="stop-color:#004C3C"/>
				<stop  offset="1" style="stop-color:#00C281"/>
			</linearGradient>
			<path class="st10" d="M750.7,339.9c-0.1-0.1-0.2-0.1-0.3-0.2c-0.5-0.3-0.9-0.6-1.4-0.9c-9.4-6-19.2-14.7-29.2-29.2l6.2-6.4
				l-11.6-1.7c0,0-1.6-5.5-3.7-13.3c-0.1-0.2-0.1-0.5-0.2-0.7c-0.4-1.6-0.9-3.4-1.3-5.1c-0.2-0.9-0.5-1.9-0.7-2.8
				c-2.2-9.2-4.5-19.7-5.4-28.2c0-0.2,0-0.3-0.1-0.4c0-0.3-0.1-0.5-0.1-0.8c-0.2-1.9-0.4-3.5-0.6-5c0-0.3-0.1-0.6-0.1-0.9
				c-0.9-7.8-1.3-9.6-1.5-9.9l10.3-5l-9.6-1.3c0,0,2.1-13.4,7-30.2c3.9,1.7,25.1,11.7,35.4,36.2l-6.1,6l7.3-1.1c0,0,0.9,2.9,2.2,7.5
				c0.3,0.9,0.5,2,0.8,3c2.2,8.6,4.9,21.2,5.5,32.4c0,0.7,0.1,1.4,0.1,2.1c0,0.8,0,1.5,0,2.3C753.9,306.6,750.7,339.9,750.7,339.9z"
				/>
			<path class="st11" d="M753.1,360.7c-1.3-7.3-2.7-14.6-4-21.8c-3.9-20.6-8-41.1-12.3-61.6c-0.4-1.9-0.8-3.8-1.2-5.6
				c-4.4,2.8-9.2,5-13.5,8c-3.9,2.7-7.7,5.6-11.4,8.7c-0.1-0.2-0.1-0.5-0.2-0.7c3.3-3.4,6.8-6.5,10.6-9.2c4.3-3.1,9-6.5,14.1-8.4
				c-0.1-0.3-0.1-0.5-0.2-0.8c-5,1.2-9.8,3-14.3,5.5c-2.8,1.5-5.4,3.2-8,5.1c-1.2,0.9-2.2,2.1-3.5,2.7c-0.2-0.9-0.5-1.9-0.7-2.8
				c0.9-1,2.1-1.8,3-2.5c2.6-2.3,5.4-4.4,8.4-6.3c4.5-2.8,9.3-4.8,14.4-4.9c-1.3-5.8-2.7-11.6-4.2-17.3c-4.6,0.2-9.3-0.1-13.9,0.3
				c-4.4,0.4-8.9,1-13.1,2.2c0-0.3-0.1-0.5-0.1-0.8c8.4-2.8,17.9-3.8,26.8-3.1c0-0.1,0-0.1,0-0.2c-9.1-1.3-18.2-2.8-27.3-1.7
				c0-0.3-0.1-0.6-0.1-0.9c8.8-1.7,18.5-0.8,27,1.3c-4.3-15.6-9.9-30.8-18.6-44.9c0-0.1,0-0.1,0.1-0.1c13,17.3,22.7,56.5,23.6,60.8
				c3.8-5.2,8.1-10.2,12.8-14.9c0.3,0.9,0.5,2,0.8,3c-4.4,4.1-8.7,8.4-12.8,12.9c-0.2,0.2-0.3,0.2-0.5,0.2c0.2,1,2.2,10.5,2.4,11.6
				c1.4,6.8,2.9,13.5,4.3,20.3c2.5-3.8,6.8-7,10.5-9.5c0.6-0.4,1.1-0.7,1.7-1.1c0,0.8,0,1.5,0,2.3c-0.3,0.2-0.7,0.4-1,0.6
				c-4,2.6-7.2,6.1-10.9,8.9c3.1,14.6,6.1,29.2,8.7,43.8c1.2,6.9,2.4,13.9,3.4,20.9C753.9,361.1,753.2,361.2,753.1,360.7z"/>
		</g>
		<g>
			<linearGradient id="SVGID_12_" gradientUnits="userSpaceOnUse" x1="725.108" y1="377.465" x2="675.4022" y2="212.5121">
				<stop  offset="0" style="stop-color:#004AC9"/>
				<stop  offset="0.9938" style="stop-color:#008A7B"/>
			</linearGradient>
			<path class="st12" d="M732.7,376.4c-7.5-13.3-14.4-26.9-20.9-40.7c-2.1-4.5-4.1-9.1-6.1-13.7c0,0.1-0.1,0.2-0.2,0.2
				c-0.7,0.6-3.7,0-4.6,0c-1.5-0.1-3.1-0.2-4.6-0.3c-2.4-0.3-4.9-0.7-7.1-1.7c-2.2-1-4.2-2.7-5.2-4.9c-1-2.2-0.8-5.1,0.9-6.9
				c2.2-2.4,6.1-2.4,9-0.9c2.9,1.5,4.9,4.2,6.8,6.9c1.1,1.5,2.1,2.9,3.2,4.4c0.3,0.4,0.7,0.9,1.2,1.4c-2.9-6.9-5.6-13.9-8.1-21
				c0,0-0.1,0.1-0.1,0.1c-0.7,0.4-3.3-0.3-4.1-0.4c-1.4-0.2-2.7-0.4-4.1-0.7c-2.1-0.5-4.3-1.1-6.1-2.2c-1.9-1.1-3.5-2.8-4.1-4.9
				c-0.6-2.1-0.2-4.6,1.4-6c2.2-1.9,5.7-1.5,8,0.1c2.4,1.6,3.9,4.2,5.3,6.7c0.8,1.4,1.6,2.8,2.4,4.2c0.1,0.2,0.3,0.5,0.6,0.8
				c-2.2-6.4-4.2-12.8-6-19.3c-0.8,0.2-3-0.4-3.7-0.5c-1.3-0.2-2.6-0.4-3.8-0.7c-2-0.4-4-1-5.7-2.1c-1.8-1-3.3-2.6-3.9-4.6
				c-0.6-2-0.2-4.3,1.3-5.7c2-1.8,5.3-1.5,7.5,0.1c2.2,1.5,3.7,4,5,6.3c0.8,1.3,1.5,2.6,2.3,3.9c0.1,0.1,0.1,0.2,0.2,0.3
				c-1.1-4.2-2.2-8.5-3.1-12.8c-2.6-12-4.4-24.1-5.3-36.3c-0.1-1.4-0.2-2.7-0.3-4.1c-0.6-0.2-1.6-0.8-2-0.9
				c-0.8-0.3-1.6-0.7-2.3-1.1c-1.2-0.6-2.4-1.4-3.3-2.3c-0.9-1-1.6-2.3-1.6-3.6s0.7-2.8,1.9-3.3c1.6-0.8,3.6,0,4.8,1.4
				c1.1,1.4,1.6,3.2,2,4.9c0.1,0.4,0.2,0.8,0.3,1.2c-0.2-4.4-0.3-8.8-0.1-13.2c-0.5-0.1-1.2-0.6-1.5-0.7c-0.6-0.3-1.2-0.5-1.7-0.9
				c-0.9-0.5-1.8-1-2.5-1.8c-0.7-0.7-1.2-1.7-1.2-2.7c0-1,0.5-2.1,1.4-2.5c1.2-0.6,2.8,0,3.6,1.1c0.9,1,1.2,2.4,1.5,3.7
				c0.2,0.6,0.3,1.2,0.5,1.9c0.1-2.5,0.3-4.9,0.6-7.4c-0.3-0.3-0.6-1.4-0.7-1.7c-0.2-0.6-0.5-1.2-0.7-1.8c-0.3-1-0.6-2-0.6-3
				s0.3-2.1,1-2.8c0.7-0.8,1.8-1.2,2.8-0.8c1.3,0.4,2,1.9,1.9,3.3c-0.1,1.4-0.8,2.6-1.5,3.8c-0.4,0.7-0.8,1.3-1.1,2
				c-0.1,0.1-0.1,0.2-0.2,0.4c-0.1,2.5-0.1,5.1-0.2,7.6c0.4-1.8,1.1-3.5,1.9-4.5c0.6-0.8,1.2-1.5,2.1-1.9c0.9-0.4,2-0.3,2.7,0.4
				c0.6,0.6,0.7,1.6,0.4,2.5c-0.3,0.8-0.9,1.5-1.5,2.2c-1.5,1.5-3.6,3.2-5.7,3.8c-0.2,8.8-0.1,17.5,0.7,26.3c0.3,2.7,0.6,5.4,1,8.1
				c0-4.2,2-9.4,3.9-12c1-1.4,2.3-2.8,3.9-3.4c1.6-0.7,3.7-0.5,4.9,0.7c1.1,1.2,1.3,3,0.8,4.5c-0.5,1.5-1.6,2.8-2.7,4
				c-2.8,2.9-6.7,6-10.6,7c0.4,3.2,0.9,6.3,1.5,9.5c0.1-2.4,0.5-4.7,1-6.2c0.6-1.6,1.4-3.3,2.8-4.4c1.4-1.1,3.4-1.5,4.9-0.6
				c1.4,0.8,2.1,2.5,2,4.1c-0.1,1.6-0.7,3.1-1.5,4.5c-1.9,3.4-4.6,7.2-7.9,9.4c3,14.5,7.1,28.6,12.1,42.4c-1.5-4.8-1-11.7,0.3-15.3
				c0.7-1.9,1.7-3.8,3.3-5.1c1.6-1.3,4-1.8,5.7-0.8c1.6,0.9,2.4,3,2.4,4.9c-0.1,1.9-0.9,3.7-1.8,5.3c-2.3,4.2-5.7,8.9-9.8,11.4
				c5.7,15.9,12.6,31.4,19.9,46.7c-2.2-5.8-2.4-14-1.3-18.5c0.6-2.5,1.6-5.1,3.4-7c1.9-1.8,4.8-2.8,7.2-1.8c2.2,1,3.5,3.4,3.7,5.8
				c0.2,2.4-0.6,4.8-1.5,7c-2.3,5.6-5.9,12.1-10.8,15.7c4.7,9.8,9.6,19.4,14.5,29C733.7,376.5,733,376.9,732.7,376.4z M705.8,304.1
				c-1,4.3-0.8,12.3,1.7,17.5c4.3-3.2,7.5-9,9.6-13.9c0.8-2,1.5-4,1.3-6.2c-0.2-2.1-1.3-4.3-3.2-5.1c-2.1-0.9-4.7-0.1-6.3,1.5
				C707.1,299.6,706.3,301.8,705.8,304.1z M684.9,212.3c-1.4,2-3,6.2-2.8,9.3c2.9-0.7,5.7-3,7.8-5.1c0.8-0.8,1.6-1.8,2-2.9
				c0.4-1.1,0.2-2.5-0.6-3.3c-0.9-0.9-2.4-1-3.6-0.5S685.6,211.3,684.9,212.3z M692,262.4c-1.3,3.5-1.8,10.2-0.2,14.7
				c3.9-2.3,7.1-6.7,9.2-10.6c0.9-1.6,1.6-3.2,1.7-5c0.1-1.8-0.7-3.7-2.2-4.5c-1.7-1-3.9-0.5-5.4,0.7
				C693.6,258.8,692.7,260.6,692,262.4z M675.3,237c1,0.6,2.1,1.1,3.2,1.6c0.6,0.3,2.6,1.5,3.3,1.3c0.8-0.3,0-2.1-0.2-3
				c-0.3-1.3-0.7-2.7-1-4c-0.6-2.4-1.2-4.9-2.8-6.8c-1.6-1.9-4.4-3-6.6-2c-1.7,0.8-2.6,2.8-2.6,4.6c0,1.9,1,3.6,2.2,5
				C672.1,235.1,673.7,236.1,675.3,237z M711.2,338.9c-2.2-3-4.5-6.1-7.7-7.8c-3.3-1.8-7.8-1.8-10.2,1c-1.9,2.1-2.1,5.3-1,7.9
				c1.1,2.6,3.4,4.5,5.9,5.6c2.5,1.2,5.3,1.6,8.1,1.9c1.8,0.2,3.5,0.3,5.3,0.4c1,0,4.5,0.6,5.3,0c1-0.8-1.3-2.9-2-4
				C713.6,342.2,712.4,340.6,711.2,338.9z M680.8,256.5c0.7,0.1,2.9,0.7,3.5,0.4c0.7-0.5-0.6-2-1-2.8c-0.7-1.2-1.4-2.4-2.1-3.6
				c-1.2-2.1-2.5-4.4-4.6-5.8c-2-1.4-5-1.7-6.9-0.1c-1.4,1.2-1.8,3.4-1.2,5.1c0.6,1.8,1.9,3.2,3.5,4.2c1.6,1,3.4,1.5,5.2,1.9
				C678.4,256.1,679.6,256.3,680.8,256.5z"/>
			<linearGradient id="SVGID_13_" gradientUnits="userSpaceOnUse" x1="615.1068" y1="420.3477" x2="561.8981" y2="243.7704">
				<stop  offset="0" style="stop-color:#004AC9"/>
				<stop  offset="0.3215" style="stop-color:#3584C3"/>
				<stop  offset="0.993" style="stop-color:#A0FAB7"/>
			</linearGradient>
			<path class="st13" d="M623.3,419.2c-8-14.2-15.5-28.7-22.3-43.5c-2.3-4.8-4.4-9.7-6.5-14.6c0,0.1-0.1,0.2-0.2,0.3
				c-0.7,0.6-4,0.1-5,0c-1.7-0.1-3.3-0.2-5-0.4c-2.6-0.3-5.2-0.7-7.6-1.8c-2.4-1.1-4.5-2.9-5.6-5.3c-1-2.4-0.8-5.4,0.9-7.4
				c2.3-2.6,6.6-2.6,9.6-0.9c3.1,1.6,5.2,4.5,7.3,7.4c1.1,1.6,2.3,3.1,3.4,4.7c0.3,0.4,0.8,0.9,1.3,1.5c-3.1-7.4-6-14.9-8.7-22.5
				c0,0-0.1,0.1-0.1,0.1c-0.7,0.5-3.6-0.3-4.4-0.5c-1.5-0.2-2.9-0.5-4.4-0.8c-2.3-0.5-4.6-1.2-6.6-2.4c-2-1.2-3.7-3-4.4-5.2
				c-0.7-2.2-0.2-4.9,1.5-6.5c2.3-2.1,6.1-1.7,8.6,0.1c2.6,1.8,4.2,4.5,5.7,7.2c0.9,1.5,1.7,3,2.6,4.5c0.1,0.2,0.4,0.6,0.6,0.9
				c-2.4-6.8-4.5-13.7-6.5-20.7c-0.9,0.3-3.2-0.4-3.9-0.5c-1.4-0.2-2.7-0.4-4.1-0.7c-2.1-0.5-4.3-1.1-6.2-2.2
				c-1.9-1.1-3.5-2.8-4.1-4.9c-0.6-2.1-0.2-4.6,1.4-6c2.2-1.9,5.7-1.6,8.1,0.1c2.4,1.6,3.9,4.3,5.4,6.8c0.8,1.4,1.6,2.8,2.4,4.2
				c0.1,0.1,0.1,0.2,0.2,0.4c-1.2-4.5-2.3-9.1-3.3-13.7c-2.8-12.8-4.8-25.8-5.7-38.9c-0.1-1.4-0.2-2.9-0.3-4.4
				c-0.7-0.2-1.7-0.8-2.1-1c-0.8-0.4-1.7-0.8-2.5-1.2c-1.3-0.7-2.5-1.5-3.5-2.5c-1-1.1-1.7-2.4-1.7-3.9c0-1.4,0.7-2.9,2-3.6
				c1.7-0.8,3.9,0,5.1,1.5c1.2,1.5,1.7,3.4,2.2,5.3c0.1,0.4,0.2,0.9,0.3,1.3c-0.2-4.7-0.3-9.4-0.2-14.1c-0.5-0.1-1.3-0.6-1.6-0.8
				c-0.6-0.3-1.3-0.6-1.9-0.9c-1-0.5-1.9-1.1-2.7-1.9c-0.8-0.8-1.3-1.8-1.3-2.9c0-1.1,0.5-2.2,1.5-2.7c1.3-0.6,3,0,3.9,1.2
				c0.9,1.1,1.3,2.6,1.7,4c0.2,0.7,0.3,1.3,0.5,2c0.1-2.6,0.3-5.3,0.6-7.9c-0.3-0.3-0.7-1.5-0.8-1.8c-0.3-0.6-0.5-1.3-0.7-2
				c-0.3-1-0.6-2.1-0.6-3.2c0-1.1,0.3-2.2,1.1-3c0.7-0.8,1.9-1.2,3-0.9c1.4,0.4,2.1,2.1,2,3.5c-0.1,1.5-0.8,2.8-1.6,4
				c-0.4,0.7-0.8,1.4-1.2,2.1c-0.1,0.1-0.1,0.3-0.2,0.4c-0.1,2.7-0.1,5.4-0.2,8.2c0.4-1.9,1.2-3.8,2-4.8c0.6-0.8,1.3-1.6,2.3-2
				c1-0.4,2.2-0.3,2.9,0.4c0.7,0.7,0.8,1.8,0.5,2.7c-0.3,0.9-0.9,1.7-1.6,2.3c-1.6,1.6-3.8,3.4-6.1,4.1c-0.2,9.4-0.1,18.7,0.8,28.2
				c0.3,2.9,0.6,5.8,1,8.7c0-4.5,2.1-10.1,4.1-12.8c1.1-1.5,2.4-3,4.1-3.7c1.7-0.7,3.9-0.6,5.2,0.8c1.2,1.2,1.4,3.2,0.9,4.8
				c-0.5,1.6-1.7,3-2.9,4.2c-3,3.1-7.1,6.4-11.4,7.5c0.5,3.4,1,6.8,1.6,10.1c0.1-2.6,0.5-5,1.1-6.7c0.6-1.8,1.5-3.5,3-4.7
				c1.5-1.2,3.6-1.6,5.2-0.7c1.5,0.9,2.2,2.7,2.2,4.4c-0.1,1.7-0.8,3.4-1.6,4.9c-2,3.6-4.9,7.8-8.5,10c3.2,15.5,7.7,30.6,13,45.4
				c-1.6-5.1-1.1-12.5,0.4-16.4c0.7-2.1,1.8-4.1,3.5-5.5c1.7-1.4,4.2-1.9,6.2-0.8c1.8,1,2.6,3.2,2.5,5.2c-0.1,2-0.9,3.9-1.9,5.7
				c-2.4,4.4-6.1,9.6-10.5,12.2c6.2,17,13.4,33.6,21.3,50c-2.4-6.2-2.6-15-1.4-19.8c0.7-2.7,1.7-5.5,3.7-7.4c2-2,5.1-3,7.7-1.9
				c2.4,1,3.7,3.7,3.9,6.2c0.2,2.6-0.6,5.1-1.6,7.5c-2.5,6-6.3,12.9-11.6,16.8c5,10.4,10.2,20.8,15.5,31.1
				C624.3,419.3,623.6,419.7,623.3,419.2z M594.4,341.8c-1.1,4.6-0.8,13.2,1.8,18.7c4.6-3.4,8.1-9.6,10.2-14.8
				c0.9-2.1,1.6-4.3,1.4-6.6c-0.2-2.3-1.4-4.6-3.5-5.5c-2.3-1-5-0.1-6.8,1.7C595.9,337,595,339.4,594.4,341.8z M572,243.6
				c-1.5,2.1-3.2,6.6-3,9.9c3.1-0.8,6.1-3.2,8.3-5.5c0.9-0.9,1.7-1.9,2.1-3.1c0.4-1.2,0.2-2.6-0.6-3.5c-0.9-1-2.5-1.1-3.8-0.6
				C573.8,241.4,572.8,242.5,572,243.6z M579.7,297.2c-1.3,3.7-1.9,10.9-0.2,15.7c4.2-2.4,7.6-7.2,9.9-11.4c0.9-1.7,1.7-3.5,1.8-5.3
				c0.1-1.9-0.7-3.9-2.4-4.9c-1.8-1-4.2-0.5-5.8,0.8C581.4,293.3,580.4,295.3,579.7,297.2z M561.8,270c1.1,0.6,2.2,1.2,3.4,1.7
				c0.7,0.3,2.8,1.6,3.5,1.4c0.9-0.3,0-2.3-0.3-3.2c-0.4-1.4-0.7-2.9-1.1-4.3c-0.6-2.6-1.3-5.2-3-7.3c-1.7-2-4.7-3.3-7-2.1
				c-1.8,0.9-2.8,2.9-2.8,4.9c0,2,1,3.9,2.4,5.3C558.4,268,560.1,269,561.8,270z M600.2,379.1c-2.3-3.2-4.8-6.5-8.3-8.4
				c-3.5-1.9-8.3-1.9-10.9,1.1c-2,2.2-2.2,5.7-1,8.4c1.2,2.7,3.6,4.8,6.3,6c2.7,1.2,5.7,1.7,8.7,2.1c1.9,0.2,3.8,0.3,5.7,0.4
				c1.1,0,4.8,0.7,5.7,0c1.1-0.9-1.3-3.1-2.1-4.2C602.8,382.6,601.5,380.8,600.2,379.1z M567.6,290.8c0.7,0.1,3.2,0.8,3.8,0.4
				c0.8-0.5-0.7-2.2-1.1-3c-0.7-1.3-1.5-2.6-2.2-3.8c-1.3-2.3-2.7-4.7-4.9-6.2s-5.4-1.9-7.3-0.1c-1.5,1.3-1.9,3.6-1.3,5.5
				c0.6,1.9,2.1,3.4,3.8,4.5c1.7,1,3.7,1.6,5.6,2C565.1,290.4,566.4,290.7,567.6,290.8z"/>
			
				<linearGradient id="SVGID_14_" gradientUnits="userSpaceOnUse" x1="620.9806" y1="388.9968" x2="567.7713" y2="212.4171" gradientTransform="matrix(0.9758 0.2186 -0.2186 0.9758 91.2242 -119.1392)">
				<stop  offset="0" style="stop-color:#004AC9"/>
				<stop  offset="0.321" style="stop-color:#2084A9"/>
				<stop  offset="0.9915" style="stop-color:#62FA69"/>
			</linearGradient>
			<path class="st14" d="M620.4,396.9c-4.7-15.6-8.8-31.4-12.3-47.4c-1.1-5.2-2.2-10.5-3.2-15.7c-0.1,0.1-0.1,0.2-0.2,0.2
				c-0.9,0.4-3.9-0.8-4.9-1.1c-1.6-0.4-3.2-0.9-4.8-1.4c-2.5-0.8-4.9-1.9-7-3.4c-2.1-1.6-3.8-3.8-4.3-6.4c-0.5-2.6,0.4-5.5,2.5-7
				c2.8-2,7-1.1,9.6,1.2c2.6,2.3,4.1,5.6,5.5,8.8c0.8,1.8,1.6,3.6,2.3,5.3c0.2,0.4,0.6,1.1,0.9,1.7c-1.4-7.9-2.6-15.9-3.6-23.8
				c0,0-0.1,0.1-0.2,0.1c-0.8,0.3-3.4-1.1-4.2-1.4c-1.4-0.5-2.8-1.1-4.1-1.7c-2.1-1-4.2-2.1-5.9-3.7c-1.7-1.6-3-3.7-3.2-6.1
				c-0.2-2.3,0.9-4.8,2.9-6c2.7-1.5,6.3-0.3,8.4,2c2.1,2.3,3.1,5.3,4,8.3c0.5,1.7,1,3.3,1.5,5c0.1,0.3,0.2,0.6,0.4,1
				c-0.8-7.2-1.4-14.4-1.8-21.6c-0.9,0.1-3-1.1-3.7-1.4c-1.3-0.5-2.6-1-3.8-1.6c-2-0.9-3.9-2-5.5-3.5c-1.6-1.5-2.8-3.5-3-5.7
				s0.8-4.5,2.7-5.6c2.5-1.4,5.9-0.3,7.9,1.9c2,2.1,2.9,5,3.8,7.8c0.5,1.5,1,3.1,1.4,4.6c0,0.1,0.1,0.3,0.1,0.4
				c-0.2-4.7-0.3-9.4-0.3-14.1c0.1-13.1,1-26.2,3-39.2c0.2-1.4,0.4-2.9,0.7-4.3c-0.6-0.3-1.5-1.2-1.9-1.4c-0.7-0.5-1.5-1.1-2.1-1.7
				c-1.1-0.9-2.1-2-2.9-3.2c-0.7-1.2-1.1-2.7-0.9-4.2c0.3-1.4,1.3-2.7,2.7-3.1c1.9-0.4,3.8,0.9,4.7,2.6s0.9,3.7,1,5.6
				c0,0.5,0,0.9,0,1.4c0.8-4.6,1.8-9.2,2.9-13.8c-0.5-0.2-1.2-0.9-1.4-1.1c-0.6-0.4-1.1-0.8-1.6-1.3c-0.8-0.7-1.6-1.5-2.2-2.4
				c-0.6-0.9-0.9-2.1-0.6-3.2c0.2-1.1,1-2.1,2.1-2.3c1.4-0.3,2.9,0.7,3.5,2c0.7,1.3,0.7,2.8,0.7,4.3c0,0.7,0,1.4,0.1,2.1
				c0.7-2.6,1.5-5.1,2.3-7.6c-0.3-0.3-0.3-1.6-0.4-2c-0.1-0.7-0.2-1.4-0.3-2.1c-0.1-1.1-0.1-2.2,0.1-3.3c0.3-1.1,0.8-2.1,1.7-2.7
				c0.9-0.6,2.2-0.8,3.1-0.2c1.3,0.7,1.6,2.5,1.2,3.9c-0.4,1.4-1.4,2.5-2.4,3.6c-0.5,0.6-1.1,1.2-1.6,1.8c-0.1,0.1-0.2,0.2-0.3,0.4
				c-0.7,2.6-1.3,5.3-2,7.9c0.8-1.7,2-3.4,3-4.3c0.8-0.7,1.7-1.3,2.7-1.5c1-0.2,2.2,0.2,2.7,1c0.5,0.8,0.4,1.9-0.1,2.7
				c-0.5,0.8-1.3,1.4-2.1,1.9c-1.9,1.3-4.5,2.5-6.8,2.6c-2.2,9.1-4.2,18.2-5.4,27.7c-0.4,2.9-0.7,5.8-0.9,8.7
				c1-4.4,4.3-9.4,6.8-11.6c1.4-1.2,3-2.4,4.9-2.7c1.8-0.3,4,0.3,4.9,1.9c0.9,1.5,0.7,3.4-0.2,4.9c-0.9,1.5-2.3,2.6-3.7,3.5
				c-3.6,2.3-8.4,4.7-12.7,4.8c-0.3,3.4-0.5,6.8-0.7,10.2c0.7-2.5,1.6-4.8,2.6-6.3c1-1.6,2.2-3.1,3.9-3.9c1.7-0.8,3.9-0.8,5.3,0.5
				c1.3,1.2,1.6,3.1,1.1,4.8c-0.4,1.7-1.5,3.1-2.6,4.4c-2.7,3.1-6.5,6.5-10.5,7.9c-0.3,15.8,0.8,31.5,2.8,47.1
				c-0.5-5.4,1.7-12.5,3.9-15.9c1.2-1.9,2.6-3.6,4.6-4.6c2-1,4.6-0.9,6.2,0.6c1.5,1.4,1.8,3.7,1.3,5.6c-0.5,2-1.8,3.6-3.1,5.2
				c-3.3,3.8-8,8-12.9,9.6c2.3,17.9,5.8,35.8,9.8,53.5c-0.9-6.6,0.8-15.2,3-19.6c1.2-2.5,2.8-5,5.2-6.5c2.4-1.5,5.7-1.8,7.9-0.2
				c2.1,1.5,2.9,4.4,2.5,6.9c-0.4,2.6-1.7,4.9-3.2,7c-3.7,5.3-9,11.2-15,13.9c2.6,11.3,5.4,22.5,8.3,33.7
				C621.4,397.1,620.5,397.4,620.4,396.9z M609.1,315c-2.1,4.3-3.7,12.7-2.3,18.7c5.3-2.3,10-7.6,13.2-12.3c1.3-1.9,2.5-3.9,2.8-6.1
				c0.3-2.2-0.3-4.8-2.2-6.1c-2-1.5-4.9-1.2-7,0.1C611.6,310.6,610.2,312.8,609.1,315z M608.8,214.3c-2,1.7-4.5,5.7-5.1,9.1
				c3.2-0.1,6.7-1.8,9.3-3.5c1.1-0.7,2.1-1.5,2.7-2.5c0.6-1.1,0.8-2.5,0.2-3.6c-0.7-1.2-2.2-1.6-3.6-1.4
				C611,212.6,609.8,213.4,608.8,214.3z M604.5,268.3c-2.1,3.3-4.2,10.2-3.7,15.3c4.6-1.5,9-5.4,12.1-9c1.3-1.4,2.4-3,2.9-4.8
				c0.5-1.8,0.2-4-1.2-5.3c-1.5-1.4-3.9-1.4-5.8-0.5C607,264.9,605.6,266.5,604.5,268.3z M593,237.8c0.9,0.8,1.9,1.6,3,2.4
				c0.6,0.4,2.4,2.2,3.1,2.1c0.9-0.1,0.5-2.2,0.4-3.1c0-1.5-0.1-2.9-0.1-4.4c-0.1-2.6-0.2-5.4-1.3-7.7c-1.2-2.4-3.8-4.2-6.4-3.6
				c-1.9,0.5-3.4,2.3-3.8,4.2c-0.4,2,0.2,4,1.2,5.7C590.1,235.1,591.5,236.5,593,237.8z M606.6,352.6c-1.6-3.6-3.3-7.4-6.2-10
				c-3-2.6-7.7-3.7-10.9-1.3c-2.4,1.7-3.4,5-2.9,8c0.6,2.9,2.5,5.5,4.9,7.3c2.4,1.8,5.2,3,8,3.9c1.8,0.6,3.6,1.2,5.4,1.6
				c1.1,0.3,4.6,1.7,5.5,1.2c1.3-0.6-0.6-3.4-1.2-4.6C608.4,356.7,607.5,354.7,606.6,352.6z M594.1,259.4c0.7,0.3,2.9,1.5,3.6,1.2
				c0.9-0.3-0.2-2.3-0.4-3.1c-0.4-1.4-0.9-2.8-1.3-4.2c-0.8-2.5-1.6-5.1-3.4-7.1c-1.8-1.9-4.8-3-7.1-1.7c-1.7,1-2.6,3.1-2.5,5.1
				s1.3,3.8,2.7,5.2c1.4,1.4,3.2,2.3,5,3.2C591.8,258.5,593,259,594.1,259.4z"/>
			
				<linearGradient id="SVGID_15_" gradientUnits="userSpaceOnUse" x1="513.4544" y1="474.7516" x2="460.2451" y2="298.1719" gradientTransform="matrix(0.9758 0.2186 -0.2186 0.9758 91.2242 -119.1392)">
				<stop  offset="0" style="stop-color:#004AC9"/>
				<stop  offset="0.321" style="stop-color:#2084A9"/>
				<stop  offset="0.9915" style="stop-color:#62FA69"/>
			</linearGradient>
			<path class="st15" d="M496.7,457.1c-4.7-15.6-8.8-31.4-12.3-47.4c-1.1-5.2-2.2-10.5-3.2-15.7c-0.1,0.1-0.1,0.2-0.2,0.2
				c-0.9,0.4-3.9-0.8-4.9-1.1c-1.6-0.4-3.2-0.9-4.8-1.4c-2.5-0.8-4.9-1.9-7-3.4c-2.1-1.6-3.8-3.8-4.3-6.4c-0.5-2.6,0.4-5.5,2.5-7
				c2.8-2,7-1.1,9.6,1.2c2.6,2.3,4.1,5.6,5.5,8.8c0.8,1.8,1.6,3.6,2.3,5.3c0.2,0.4,0.6,1.1,0.9,1.7c-1.4-7.9-2.6-15.9-3.6-23.8
				c0,0-0.1,0.1-0.2,0.1c-0.8,0.3-3.4-1.1-4.2-1.4c-1.4-0.5-2.8-1.1-4.1-1.7c-2.1-1-4.2-2.1-5.9-3.7c-1.7-1.6-3-3.7-3.2-6.1
				c-0.2-2.3,0.9-4.8,2.9-6c2.7-1.5,6.3-0.3,8.4,2c2.1,2.3,3.1,5.3,4,8.3c0.5,1.7,1,3.3,1.5,5c0.1,0.3,0.2,0.6,0.4,1
				c-0.8-7.2-1.4-14.4-1.8-21.6c-0.9,0.1-3-1.1-3.7-1.4c-1.3-0.5-2.6-1-3.8-1.6c-2-0.9-3.9-2-5.5-3.5c-1.6-1.5-2.8-3.5-3-5.7
				c-0.2-2.2,0.8-4.5,2.7-5.6c2.5-1.4,5.9-0.3,7.9,1.9c2,2.1,2.9,5,3.8,7.8c0.5,1.5,1,3.1,1.4,4.6c0,0.1,0.1,0.3,0.1,0.4
				c-0.2-4.7-0.3-9.4-0.3-14.1c0.1-13.1,1-26.2,3-39.2c0.2-1.4,0.4-2.9,0.7-4.3c-0.6-0.3-1.5-1.2-1.9-1.4c-0.7-0.5-1.5-1.1-2.1-1.7
				c-1.1-0.9-2.1-2-2.9-3.2c-0.7-1.2-1.1-2.7-0.9-4.2c0.3-1.4,1.3-2.7,2.7-3.1c1.9-0.4,3.8,0.9,4.7,2.6c0.9,1.7,0.9,3.7,1,5.6
				c0,0.5,0,0.9,0,1.4c0.8-4.6,1.8-9.2,2.9-13.8c-0.5-0.2-1.2-0.9-1.4-1.1c-0.6-0.4-1.1-0.8-1.6-1.3c-0.8-0.7-1.6-1.5-2.2-2.4
				c-0.6-0.9-0.9-2.1-0.6-3.1c0.2-1.1,1-2.1,2.1-2.3c1.4-0.3,2.9,0.7,3.5,2s0.7,2.8,0.7,4.3c0,0.7,0,1.4,0.1,2.1
				c0.7-2.6,1.5-5.1,2.3-7.6c-0.3-0.3-0.3-1.6-0.4-2c-0.1-0.7-0.2-1.4-0.3-2.1c-0.1-1.1-0.1-2.2,0.1-3.3c0.3-1.1,0.8-2.1,1.7-2.7
				c0.9-0.6,2.2-0.8,3.1-0.2c1.3,0.7,1.6,2.5,1.2,3.9c-0.4,1.4-1.4,2.5-2.4,3.6c-0.5,0.6-1.1,1.2-1.6,1.8c-0.1,0.1-0.2,0.2-0.3,0.4
				c-0.7,2.6-1.3,5.3-2,7.9c0.8-1.7,2-3.4,3-4.3c0.8-0.7,1.7-1.3,2.7-1.5s2.2,0.2,2.7,1c0.5,0.8,0.4,1.9-0.1,2.7s-1.3,1.4-2.1,1.9
				c-1.9,1.3-4.5,2.5-6.8,2.6c-2.2,9.1-4.2,18.2-5.4,27.7c-0.4,2.9-0.7,5.8-0.9,8.7c1-4.4,4.3-9.4,6.8-11.6c1.4-1.2,3-2.4,4.9-2.7
				c1.8-0.3,4,0.3,4.9,1.9c0.9,1.5,0.7,3.4-0.2,4.9c-0.9,1.5-2.3,2.6-3.7,3.5c-3.6,2.3-8.4,4.7-12.7,4.8c-0.3,3.4-0.5,6.8-0.7,10.2
				c0.7-2.5,1.6-4.8,2.6-6.3c1-1.6,2.2-3.1,3.9-3.9c1.7-0.8,3.9-0.8,5.3,0.5c1.3,1.2,1.6,3.1,1.1,4.8c-0.4,1.7-1.5,3.1-2.6,4.4
				c-2.7,3.1-6.5,6.5-10.5,7.9c-0.3,15.8,0.8,31.5,2.8,47.1c-0.5-5.4,1.7-12.5,3.9-15.9c1.2-1.9,2.6-3.6,4.6-4.6
				c2-1,4.6-0.9,6.2,0.6c1.5,1.4,1.8,3.7,1.3,5.6c-0.5,2-1.8,3.6-3.1,5.2c-3.3,3.8-8,8-12.9,9.6c2.3,17.9,5.8,35.8,9.8,53.5
				c-0.9-6.6,0.8-15.2,3-19.6c1.2-2.5,2.8-5,5.2-6.5c2.4-1.5,5.7-1.8,7.9-0.2c2.1,1.5,2.9,4.4,2.5,6.9c-0.4,2.6-1.7,4.9-3.2,7
				c-3.7,5.3-9,11.2-15,13.9c2.6,11.3,5.4,22.5,8.3,33.7C497.7,457.3,496.9,457.6,496.7,457.1z M485.4,375.2
				c-2.1,4.3-3.7,12.7-2.3,18.7c5.3-2.3,10-7.6,13.2-12.3c1.3-1.9,2.5-3.9,2.8-6.1c0.3-2.2-0.3-4.8-2.2-6.1c-2-1.5-4.9-1.2-7,0.1
				C487.9,370.8,486.5,372.9,485.4,375.2z M485.1,274.4c-2,1.7-4.5,5.7-5.1,9.1c3.2-0.1,6.7-1.8,9.3-3.5c1.1-0.7,2.1-1.5,2.7-2.5
				c0.6-1.1,0.8-2.5,0.2-3.6c-0.7-1.2-2.2-1.6-3.6-1.4C487.3,272.7,486.1,273.5,485.1,274.4z M480.8,328.4
				c-2.1,3.3-4.2,10.2-3.7,15.3c4.6-1.5,9-5.4,12.1-9c1.3-1.4,2.4-3,2.9-4.8c0.5-1.8,0.2-4-1.2-5.3c-1.5-1.4-3.9-1.4-5.8-0.5
				C483.3,325,481.9,326.7,480.8,328.4z M469.4,298c0.9,0.8,1.9,1.6,3,2.4c0.6,0.4,2.4,2.2,3.1,2.1c0.9-0.1,0.5-2.2,0.4-3.1
				c0-1.5-0.1-2.9-0.1-4.4c-0.1-2.6-0.2-5.4-1.3-7.7c-1.2-2.4-3.8-4.2-6.4-3.6c-1.9,0.5-3.4,2.3-3.8,4.2c-0.4,2,0.2,4,1.2,5.7
				C466.4,295.3,467.9,296.7,469.4,298z M482.9,412.8c-1.6-3.6-3.3-7.4-6.2-10c-3-2.6-7.7-3.7-10.9-1.3c-2.4,1.7-3.4,5-2.9,8
				c0.6,2.9,2.5,5.5,4.9,7.3c2.4,1.8,5.2,3,8,3.9c1.8,0.6,3.6,1.2,5.4,1.6c1.1,0.3,4.6,1.7,5.5,1.2c1.3-0.6-0.6-3.4-1.2-4.6
				C484.7,416.9,483.8,414.8,482.9,412.8z M470.5,319.6c0.7,0.3,2.9,1.5,3.6,1.2c0.9-0.3-0.2-2.3-0.4-3.1c-0.4-1.4-0.9-2.8-1.3-4.2
				c-0.8-2.5-1.6-5.1-3.4-7.1c-1.8-1.9-4.8-3-7.1-1.7c-1.7,1-2.6,3.1-2.5,5.1c0.2,2,1.3,3.8,2.7,5.2c1.4,1.4,3.2,2.3,5,3.2
				C468.1,318.7,469.3,319.2,470.5,319.6z"/>
			
				<linearGradient id="SVGID_16_" gradientUnits="userSpaceOnUse" x1="92.7122" y1="388.8795" x2="39.5036" y2="212.3021" gradientTransform="matrix(-1 0 0 1 196.3634 0)">
				<stop  offset="0" style="stop-color:#004AC9"/>
				<stop  offset="0.9938" style="stop-color:#008A7B"/>
			</linearGradient>
			<path class="st16" d="M94.7,387.3c5.3-10.3,10.5-20.6,15.5-31.1c-5.2-3.9-9.1-10.9-11.6-16.8c-1-2.4-1.8-4.9-1.6-7.5
				c0.2-2.6,1.6-5.2,3.9-6.2c2.6-1.1,5.7-0.1,7.7,1.9c2,2,3,4.7,3.7,7.4c1.2,4.8,1,13.6-1.4,19.8c7.8-16.4,15.1-33,21.3-50
				c-4.4-2.6-8.1-7.7-10.5-12.2c-1-1.8-1.8-3.7-1.9-5.7c-0.1-2,0.8-4.2,2.5-5.2c1.9-1.1,4.4-0.6,6.2,0.8c1.7,1.4,2.8,3.4,3.5,5.5
				c1.4,3.9,2,11.3,0.4,16.4c5.3-14.8,9.8-29.9,13-45.4c-3.6-2.3-6.5-6.4-8.5-10c-0.8-1.5-1.6-3.1-1.6-4.9c-0.1-1.7,0.7-3.6,2.2-4.4
				c1.6-0.9,3.8-0.5,5.2,0.7c1.5,1.2,2.3,2.9,3,4.7c0.6,1.7,1,4.1,1.1,6.7c0.6-3.4,1.1-6.7,1.6-10.1c-4.2-1.1-8.4-4.4-11.4-7.5
				c-1.2-1.2-2.4-2.6-2.9-4.2c-0.5-1.6-0.3-3.6,0.9-4.8c1.3-1.3,3.5-1.5,5.2-0.8c1.7,0.7,3.1,2.2,4.1,3.7c2,2.7,4.1,8.3,4.1,12.8
				c0.4-2.9,0.7-5.8,1-8.7c0.9-9.5,1-18.8,0.8-28.2c-2.3-0.7-4.5-2.4-6.1-4.1c-0.7-0.7-1.3-1.4-1.6-2.3c-0.3-0.9-0.2-2,0.5-2.7
				c0.7-0.7,1.9-0.8,2.9-0.4c1,0.4,1.7,1.2,2.3,2c0.8,1.1,1.6,2.9,2,4.8c-0.1-2.7-0.1-5.4-0.2-8.2c-0.1-0.2-0.1-0.3-0.2-0.4
				c-0.4-0.7-0.8-1.4-1.2-2.1c-0.7-1.3-1.5-2.6-1.6-4c-0.1-1.5,0.6-3.1,2-3.5c1-0.3,2.2,0.1,3,0.9c0.7,0.8,1.1,1.9,1.1,3
				c0,1.1-0.3,2.2-0.6,3.2c-0.2,0.7-0.5,1.3-0.7,2c-0.1,0.4-0.5,1.6-0.8,1.8c0.3,2.6,0.5,5.2,0.6,7.9c0.2-0.7,0.3-1.3,0.5-2
				c0.4-1.4,0.7-2.9,1.7-4c0.9-1.1,2.6-1.8,3.9-1.2c1,0.5,1.5,1.6,1.5,2.7c0,1.1-0.6,2.1-1.3,2.9c-0.8,0.8-1.7,1.4-2.7,1.9
				c-0.6,0.3-1.2,0.6-1.9,0.9c-0.3,0.1-1.1,0.6-1.6,0.8c0.1,4.7,0.1,9.4-0.2,14.1c0.1-0.4,0.2-0.9,0.3-1.3c0.5-1.9,1-3.8,2.2-5.3
				c1.2-1.5,3.4-2.4,5.1-1.5c1.3,0.6,2,2.1,2,3.6c0,1.4-0.8,2.8-1.7,3.9c-1,1.1-2.2,1.8-3.5,2.5c-0.8,0.4-1.6,0.8-2.5,1.2
				c-0.4,0.2-1.4,0.8-2.1,1c-0.1,1.5-0.2,2.9-0.3,4.4c-0.9,13.1-2.9,26.1-5.7,38.9c-1,4.6-2.1,9.2-3.3,13.7c0.1-0.1,0.2-0.3,0.2-0.4
				c0.8-1.4,1.6-2.8,2.4-4.2c1.4-2.5,3-5.1,5.4-6.8c2.4-1.6,5.9-2,8.1-0.1c1.6,1.5,2.1,4,1.4,6c-0.6,2.1-2.3,3.8-4.1,4.9
				c-1.9,1.1-4,1.7-6.2,2.2c-1.4,0.3-2.7,0.5-4.1,0.7c-0.7,0.1-3.1,0.8-3.9,0.5c-1.9,7-4.1,13.9-6.5,20.7c0.2-0.3,0.5-0.7,0.6-0.9
				c0.9-1.5,1.7-3,2.6-4.5c1.5-2.7,3.2-5.5,5.7-7.2c2.6-1.8,6.3-2.2,8.6-0.1c1.7,1.6,2.2,4.2,1.5,6.5c-0.7,2.2-2.4,4-4.4,5.2
				c-2,1.2-4.3,1.9-6.6,2.4c-1.4,0.3-2.9,0.6-4.4,0.8c-0.9,0.1-3.7,0.9-4.4,0.5c-0.1,0-0.1-0.1-0.1-0.1c-2.7,7.6-5.6,15.1-8.7,22.5
				c0.5-0.6,1-1.1,1.3-1.5c1.1-1.6,2.3-3.1,3.4-4.7c2.1-2.8,4.2-5.7,7.3-7.4c3.1-1.6,7.3-1.7,9.6,0.9c1.7,2,2,5,0.9,7.4
				c-1,2.4-3.2,4.2-5.6,5.3c-2.4,1.1-5,1.5-7.6,1.8c-1.6,0.2-3.3,0.3-5,0.4c-1,0-4.2,0.6-5,0c-0.1-0.1-0.1-0.2-0.2-0.3
				c-2.1,4.9-4.3,9.8-6.5,14.6c-6.9,14.8-14.3,29.3-22.3,43.5C95.2,388.3,94.4,387.8,94.7,387.3z M121.1,303.8
				c-1.7-1.7-4.5-2.6-6.8-1.7c-2.1,0.9-3.3,3.2-3.5,5.5c-0.2,2.3,0.6,4.5,1.4,6.6c2.2,5.3,5.6,11.4,10.2,14.8
				c2.6-5.5,2.9-14.1,1.8-18.7C123.8,307.9,122.9,305.5,121.1,303.8z M143.7,209.4c-1.3-0.5-2.9-0.4-3.8,0.6c-0.9,0.9-1,2.3-0.6,3.5
				c0.4,1.2,1.2,2.2,2.1,3.1c2.2,2.2,5.2,4.7,8.3,5.5c0.2-3.4-1.5-7.8-3-9.9C145.9,211,145,210,143.7,209.4z M135.8,260.6
				c-1.6-1.3-4-1.8-5.8-0.8c-1.6,0.9-2.4,3-2.4,4.9c0.1,1.9,0.9,3.7,1.8,5.3c2.3,4.2,5.7,9,9.9,11.4c1.7-4.8,1.1-12-0.2-15.7
				C138.4,263.8,137.4,261.9,135.8,260.6z M161.8,235.1c1.4-1.5,2.4-3.3,2.4-5.3c0-2-1-4.1-2.8-4.9c-2.4-1.2-5.4,0.1-7,2.1
				c-1.7,2-2.4,4.7-3,7.3c-0.4,1.4-0.7,2.9-1.1,4.3c-0.2,0.9-1.2,2.9-0.3,3.2c0.7,0.2,2.8-1.1,3.5-1.4c1.2-0.5,2.3-1.1,3.4-1.7
				C158.7,237.6,160.4,236.5,161.8,235.1z M114.7,352.9c-0.8,1.1-3.2,3.3-2.1,4.2c0.8,0.7,4.6,0.1,5.7,0c1.9-0.1,3.8-0.2,5.7-0.4
				c3-0.3,6-0.8,8.7-2.1c2.7-1.2,5.1-3.3,6.3-6c1.2-2.7,0.9-6.2-1-8.4c-2.6-3-7.5-3-10.9-1.1c-3.5,1.9-5.9,5.2-8.3,8.4
				C117.3,349.4,116,351.2,114.7,352.9z M154.8,258.7c1.9-0.4,3.9-1,5.6-2c1.7-1,3.2-2.6,3.8-4.5c0.6-1.9,0.2-4.2-1.3-5.5
				c-2-1.8-5.2-1.4-7.3,0.1c-2.2,1.5-3.6,3.9-4.9,6.2c-0.7,1.3-1.5,2.6-2.2,3.8c-0.5,0.8-1.9,2.4-1.1,3c0.6,0.4,3-0.3,3.8-0.4
				C152.4,259.2,153.6,259,154.8,258.7z"/>
			
				<linearGradient id="SVGID_17_" gradientUnits="userSpaceOnUse" x1="-43.5656" y1="441.7101" x2="-96.7742" y2="265.1328" gradientTransform="matrix(-1 0 0 1 196.3634 0)">
				<stop  offset="0" style="stop-color:#004AC9"/>
				<stop  offset="0.3215" style="stop-color:#3584C3"/>
				<stop  offset="0.993" style="stop-color:#A0FAB7"/>
			</linearGradient>
			<path class="st17" d="M231,440.1c5.3-10.3,10.5-20.6,15.5-31.1c-5.2-3.9-9.1-10.9-11.6-16.8c-1-2.4-1.8-4.9-1.6-7.5
				c0.2-2.6,1.6-5.2,3.9-6.2c2.6-1.1,5.7-0.1,7.7,1.9c2,2,3,4.7,3.7,7.4c1.2,4.8,1,13.6-1.4,19.8c7.8-16.4,15.1-33,21.3-50
				c-4.4-2.6-8.1-7.7-10.5-12.2c-1-1.8-1.8-3.7-1.9-5.7c-0.1-2,0.8-4.2,2.5-5.2c1.9-1.1,4.4-0.6,6.2,0.8c1.7,1.4,2.8,3.4,3.5,5.5
				c1.4,3.9,2,11.3,0.4,16.4c5.3-14.8,9.8-29.9,13-45.4c-3.6-2.3-6.5-6.4-8.5-10c-0.8-1.5-1.6-3.1-1.6-4.9c-0.1-1.7,0.7-3.6,2.2-4.4
				c1.6-0.9,3.8-0.5,5.2,0.7c1.5,1.2,2.3,2.9,3,4.7c0.6,1.7,1,4.1,1.1,6.7c0.6-3.4,1.1-6.7,1.6-10.1c-4.2-1.1-8.4-4.4-11.4-7.5
				c-1.2-1.2-2.4-2.6-2.9-4.2c-0.5-1.6-0.3-3.6,0.9-4.8c1.3-1.3,3.5-1.5,5.2-0.8c1.7,0.7,3.1,2.2,4.1,3.7c2,2.7,4.1,8.3,4.1,12.8
				c0.4-2.9,0.7-5.8,1-8.7c0.9-9.5,1-18.8,0.8-28.2c-2.3-0.7-4.5-2.4-6.1-4.1c-0.7-0.7-1.3-1.4-1.6-2.3c-0.3-0.9-0.2-2,0.5-2.7
				c0.7-0.7,1.9-0.8,2.9-0.4c1,0.4,1.7,1.2,2.3,2c0.8,1.1,1.6,2.9,2,4.8c-0.1-2.7-0.1-5.4-0.2-8.2c-0.1-0.2-0.1-0.3-0.2-0.4
				c-0.4-0.7-0.8-1.4-1.2-2.1c-0.7-1.3-1.5-2.6-1.6-4c-0.1-1.5,0.6-3.1,2-3.5c1-0.3,2.2,0.1,3,0.9s1.1,1.9,1.1,3
				c0,1.1-0.3,2.2-0.6,3.2c-0.2,0.7-0.5,1.3-0.7,2c-0.1,0.4-0.5,1.6-0.8,1.8c0.3,2.6,0.5,5.2,0.6,7.9c0.2-0.7,0.3-1.3,0.5-2
				c0.4-1.4,0.7-2.9,1.7-4c0.9-1.1,2.6-1.8,3.9-1.2c1,0.5,1.5,1.6,1.5,2.7c0,1.1-0.6,2.1-1.3,2.9c-0.8,0.8-1.7,1.4-2.7,1.9
				c-0.6,0.3-1.2,0.6-1.9,0.9c-0.3,0.1-1.1,0.6-1.6,0.8c0.1,4.7,0.1,9.4-0.2,14.1c0.1-0.4,0.2-0.9,0.3-1.3c0.5-1.9,1-3.8,2.2-5.3
				c1.2-1.5,3.4-2.4,5.1-1.5c1.3,0.6,2,2.1,2,3.6c0,1.4-0.8,2.8-1.7,3.9c-1,1.1-2.2,1.8-3.5,2.5c-0.8,0.4-1.6,0.8-2.5,1.2
				c-0.4,0.2-1.4,0.8-2.1,1c-0.1,1.5-0.2,2.9-0.3,4.4c-0.9,13.1-2.9,26.1-5.7,38.9c-1,4.6-2.1,9.2-3.3,13.7c0.1-0.1,0.2-0.3,0.2-0.4
				c0.8-1.4,1.6-2.8,2.4-4.2c1.4-2.5,3-5.1,5.4-6.8c2.4-1.6,5.9-2,8.1-0.1c1.6,1.5,2.1,4,1.4,6c-0.6,2.1-2.3,3.8-4.1,4.9
				c-1.9,1.1-4,1.7-6.2,2.2c-1.4,0.3-2.7,0.5-4.1,0.7c-0.7,0.1-3.1,0.8-3.9,0.5c-1.9,7-4.1,13.9-6.5,20.7c0.2-0.3,0.5-0.7,0.6-0.9
				c0.9-1.5,1.7-3,2.6-4.5c1.5-2.7,3.2-5.5,5.7-7.2c2.6-1.8,6.3-2.2,8.6-0.1c1.7,1.6,2.2,4.2,1.5,6.5c-0.7,2.2-2.4,4-4.4,5.2
				c-2,1.2-4.3,1.9-6.6,2.4c-1.4,0.3-2.9,0.6-4.4,0.8c-0.9,0.1-3.7,0.9-4.4,0.5c-0.1,0-0.1-0.1-0.1-0.1c-2.7,7.6-5.6,15.1-8.7,22.5
				c0.5-0.6,1-1.1,1.3-1.5c1.1-1.6,2.3-3.1,3.4-4.7c2.1-2.8,4.2-5.7,7.3-7.4c3.1-1.6,7.3-1.7,9.6,0.9c1.7,2,2,5,0.9,7.4
				c-1,2.4-3.2,4.2-5.6,5.3c-2.4,1.1-5,1.5-7.6,1.8c-1.6,0.2-3.3,0.3-5,0.4c-1,0-4.2,0.6-5,0c-0.1-0.1-0.1-0.2-0.2-0.3
				c-2.1,4.9-4.3,9.8-6.5,14.6c-6.9,14.8-14.3,29.3-22.3,43.5C231.5,441.1,230.7,440.6,231,440.1z M257.4,356.6
				c-1.7-1.7-4.5-2.6-6.8-1.7c-2.1,0.9-3.3,3.2-3.5,5.5c-0.2,2.3,0.6,4.5,1.4,6.6c2.2,5.3,5.6,11.4,10.2,14.8
				c2.6-5.5,2.9-14.1,1.8-18.7C260.1,360.7,259.2,358.3,257.4,356.6z M280,262.3c-1.3-0.5-2.9-0.4-3.8,0.6c-0.9,0.9-1,2.3-0.6,3.5
				c0.4,1.2,1.2,2.2,2.1,3.1c2.2,2.2,5.2,4.7,8.3,5.5c0.2-3.4-1.5-7.8-3-9.9C282.2,263.8,281.2,262.8,280,262.3z M272.1,313.4
				c-1.6-1.3-4-1.8-5.8-0.8c-1.6,0.9-2.4,3-2.4,4.9c0.1,1.9,0.9,3.7,1.8,5.3c2.3,4.2,5.7,9,9.9,11.4c1.7-4.8,1.1-12-0.2-15.7
				C274.7,316.6,273.7,314.7,272.1,313.4z M298,287.9c1.4-1.5,2.4-3.3,2.4-5.3c0-2-1-4.1-2.8-4.9c-2.4-1.2-5.4,0.1-7,2.1
				c-1.7,2-2.4,4.7-3,7.3c-0.4,1.4-0.7,2.9-1.1,4.3c-0.2,0.9-1.2,2.9-0.3,3.2c0.7,0.2,2.8-1.1,3.5-1.4c1.2-0.5,2.3-1.1,3.4-1.7
				C294.9,290.4,296.7,289.3,298,287.9z M250.9,405.8c-0.8,1.1-3.2,3.3-2.1,4.2c0.8,0.7,4.6,0.1,5.7,0c1.9-0.1,3.8-0.2,5.7-0.4
				c3-0.3,6-0.8,8.7-2.1c2.7-1.2,5.1-3.3,6.3-6c1.2-2.7,0.9-6.2-1-8.4c-2.6-3-7.5-3-10.9-1.1s-5.9,5.2-8.3,8.4
				C253.6,402.2,252.2,404,250.9,405.8z M291.1,311.5c1.9-0.4,3.9-1,5.6-2c1.7-1,3.2-2.6,3.8-4.5c0.6-1.9,0.2-4.2-1.3-5.5
				c-2-1.8-5.2-1.4-7.3,0.1c-2.2,1.5-3.6,3.9-4.9,6.2c-0.7,1.3-1.5,2.6-2.2,3.8c-0.5,0.8-1.9,2.4-1.1,3c0.6,0.4,3-0.3,3.8-0.4
				C288.6,312,289.9,311.8,291.1,311.5z"/>
			
				<linearGradient id="SVGID_18_" gradientUnits="userSpaceOnUse" x1="-186.6892" y1="459.8179" x2="-239.8959" y2="283.2467" gradientTransform="matrix(-0.9794 0.2021 0.2021 0.9794 120.6026 42.211)">
				<stop  offset="0" style="stop-color:#004AC9"/>
				<stop  offset="0.321" style="stop-color:#2084A9"/>
				<stop  offset="0.9915" style="stop-color:#62FA69"/>
			</linearGradient>
			<path class="st18" d="M387.3,455.1c3.1-11.1,6.1-22.3,8.9-33.6c-5.9-2.8-11.1-8.8-14.7-14.2c-1.4-2.1-2.8-4.5-3.1-7
				c-0.3-2.6,0.5-5.4,2.6-6.9c2.3-1.6,5.6-1.2,7.9,0.3c2.3,1.5,3.9,4,5.1,6.6c2.1,4.5,3.7,13.1,2.6,19.7
				c4.4-17.6,8.1-35.4,10.7-53.3c-4.9-1.6-9.5-5.9-12.7-9.8c-1.3-1.5-2.5-3.2-3-5.2c-0.5-2-0.1-4.3,1.4-5.6c1.6-1.5,4.2-1.4,6.2-0.5
				c2,1,3.4,2.8,4.5,4.7c2.2,3.5,4.2,10.7,3.7,16c2.2-15.6,3.6-31.3,3.6-47.1c-4-1.5-7.7-5-10.3-8.1c-1.1-1.3-2.2-2.8-2.6-4.4
				s-0.1-3.6,1.2-4.8c1.4-1.2,3.6-1.2,5.3-0.4s2.9,2.4,3.9,4c0.9,1.5,1.8,3.8,2.4,6.3c-0.1-3.4-0.3-6.8-0.5-10.2
				c-4.4-0.2-9.1-2.6-12.6-5c-1.4-1-2.8-2.1-3.7-3.6c-0.9-1.5-1.1-3.5-0.1-4.9c1-1.6,3.1-2.2,5-1.8c1.8,0.4,3.4,1.5,4.8,2.8
				c2.5,2.3,5.7,7.3,6.6,11.7c-0.2-2.9-0.4-5.8-0.8-8.7c-1-9.5-2.9-18.6-4.9-27.8c-2.3-0.2-4.9-1.5-6.8-2.8c-0.8-0.5-1.6-1.1-2-2
				c-0.5-0.8-0.6-1.9-0.1-2.7c0.6-0.9,1.7-1.2,2.7-1c1,0.2,1.9,0.8,2.6,1.5c1,0.9,2.1,2.6,2.9,4.3c-0.6-2.6-1.2-5.3-1.8-8
				c-0.1-0.1-0.2-0.3-0.3-0.4c-0.5-0.6-1.1-1.2-1.6-1.8c-1-1.1-2-2.2-2.4-3.6c-0.4-1.4,0-3.1,1.2-3.8c1-0.5,2.2-0.4,3.1,0.3
				c0.9,0.6,1.4,1.7,1.7,2.8c0.2,1.1,0.2,2.2,0.1,3.3c-0.1,0.7-0.2,1.4-0.3,2.1c-0.1,0.4-0.1,1.6-0.4,2c0.8,2.5,1.6,5,2.2,7.6
				c0-0.7,0.1-1.4,0.1-2.1c0.1-1.5,0.1-3,0.8-4.2c0.7-1.3,2.2-2.3,3.6-1.9c1.1,0.3,1.8,1.3,2,2.4c0.2,1.1-0.1,2.2-0.7,3.1
				c-0.6,0.9-1.4,1.7-2.2,2.4c-0.5,0.5-1.1,0.9-1.6,1.3c-0.3,0.2-1,0.8-1.4,1.1c1.1,4.6,2,9.2,2.7,13.8c0-0.5,0-0.9,0.1-1.4
				c0.1-1.9,0.2-3.9,1.1-5.6c0.9-1.7,2.8-3,4.7-2.5c1.4,0.4,2.4,1.7,2.7,3.1s-0.2,2.9-0.9,4.1c-0.8,1.2-1.8,2.2-2.9,3.2
				c-0.7,0.6-1.4,1.2-2.2,1.7c-0.3,0.3-1.3,1.1-1.9,1.4c0.2,1.5,0.4,2.9,0.6,4.3c1.8,13,2.5,26.1,2.3,39.3
				c-0.1,4.7-0.2,9.4-0.5,14.1c0.1-0.1,0.1-0.3,0.1-0.4c0.5-1.5,1-3.1,1.5-4.6c0.9-2.8,1.9-5.6,3.9-7.7c2-2.1,5.4-3.2,7.9-1.7
				c1.9,1.1,2.8,3.5,2.6,5.6c-0.2,2.2-1.5,4.2-3.1,5.6c-1.6,1.5-3.6,2.5-5.6,3.4c-1.3,0.6-2.6,1.1-3.9,1.6c-0.7,0.3-2.9,1.4-3.8,1.3
				c-0.5,7.2-1.2,14.4-2.1,21.6c0.2-0.4,0.3-0.7,0.4-1c0.5-1.6,1.1-3.3,1.6-4.9c1-2.9,2-6,4.1-8.2c2.1-2.2,5.7-3.4,8.4-1.8
				c2,1.2,3,3.7,2.8,6c-0.2,2.3-1.5,4.4-3.3,6c-1.7,1.6-3.8,2.7-6,3.6c-1.3,0.6-2.7,1.2-4.1,1.7c-0.8,0.3-3.4,1.7-4.2,1.4
				c-0.1,0-0.1-0.1-0.2-0.1c-1.1,8-2.4,15.9-4,23.8c0.3-0.7,0.7-1.3,0.9-1.7c0.8-1.8,1.6-3.5,2.4-5.3c1.4-3.2,3-6.4,5.6-8.7
				c2.7-2.2,6.8-3.1,9.6-1c2.1,1.6,2.9,4.5,2.4,7c-0.5,2.6-2.3,4.8-4.4,6.3s-4.6,2.5-7.1,3.3c-1.6,0.5-3.2,1-4.8,1.3
				c-0.9,0.2-4,1.4-4.9,1c-0.1-0.1-0.2-0.1-0.2-0.2c-1.1,5.2-2.2,10.5-3.4,15.7c-3.8,15.9-8.1,31.6-13.1,47.2
				C388,455.9,387.1,455.6,387.3,455.1z M396.3,367.9c-2.1-1.3-4.9-1.7-7-0.3c-1.9,1.3-2.6,3.8-2.3,6.1c0.3,2.3,1.5,4.3,2.7,6.2
				c3.2,4.7,7.8,10.1,13,12.5c1.4-5.9,0-14.4-2-18.7C399.7,371.5,398.4,369.3,396.3,367.9z M399.3,271c-1.3-0.3-2.9,0.2-3.6,1.3
				c-0.7,1.1-0.5,2.5,0.1,3.6c0.6,1.1,1.6,1.9,2.7,2.6c2.6,1.7,6.1,3.5,9.3,3.7c-0.5-3.3-3-7.4-4.9-9.1
				C401.8,272.1,400.7,271.2,399.3,271z M401.9,322.7c-1.8-0.9-4.3-0.9-5.8,0.4c-1.4,1.3-1.8,3.4-1.3,5.2c0.5,1.8,1.6,3.4,2.8,4.9
				c3.1,3.6,7.4,7.6,12,9.2c0.6-5-1.3-12-3.4-15.3C405.1,325.3,403.8,323.6,401.9,322.7z M422.2,292.4c1-1.7,1.6-3.7,1.3-5.7
				c-0.4-2-1.8-3.8-3.7-4.3c-2.6-0.7-5.2,1.1-6.5,3.5c-1.2,2.3-1.4,5.1-1.5,7.7c-0.1,1.5-0.1,2.9-0.2,4.4c0,0.9-0.6,3.1,0.4,3.1
				c0.7,0.1,2.5-1.7,3.1-2.1c1-0.7,2-1.5,3-2.3C419.7,295.5,421.1,294.1,422.2,292.4z M399.9,417.4c-0.6,1.2-2.5,3.9-1.2,4.6
				c1,0.5,4.5-0.9,5.5-1.1c1.8-0.4,3.7-0.9,5.5-1.5c2.8-0.9,5.7-2,8.1-3.8c2.4-1.8,4.4-4.3,5-7.2c0.6-2.9-0.3-6.2-2.7-8
				c-3.2-2.4-7.9-1.4-10.9,1.2c-3,2.5-4.8,6.3-6.4,9.9C401.7,413.4,400.8,415.4,399.9,417.4z M420.2,317c1.8-0.8,3.6-1.8,5.1-3.1
				s2.6-3.2,2.8-5.1c0.2-2-0.7-4.1-2.4-5.1c-2.3-1.3-5.3-0.3-7.2,1.6c-1.8,1.9-2.7,4.5-3.5,7c-0.5,1.4-0.9,2.8-1.4,4.2
				c-0.3,0.9-1.4,2.8-0.5,3.1c0.7,0.3,2.9-0.9,3.6-1.2C417.9,318,419,317.5,420.2,317z"/>
			
				<linearGradient id="SVGID_19_" gradientUnits="userSpaceOnUse" x1="-199.3941" y1="472.6295" x2="-252.6028" y2="296.0522" gradientTransform="matrix(-1 0 0 1 196.3634 0)">
				<stop  offset="0" style="stop-color:#004AC9"/>
				<stop  offset="0.3215" style="stop-color:#3584C3"/>
				<stop  offset="0.993" style="stop-color:#A0FAB7"/>
			</linearGradient>
			<path class="st19" d="M386.8,471c5.3-10.3,10.5-20.6,15.5-31.1c-5.2-3.9-9.1-10.9-11.6-16.8c-1-2.4-1.8-4.9-1.6-7.5
				c0.2-2.6,1.6-5.2,3.9-6.2c2.6-1.1,5.7-0.1,7.7,1.9c2,2,3,4.7,3.7,7.4c1.2,4.8,1,13.6-1.4,19.8c7.8-16.4,15.1-33,21.3-50
				c-4.4-2.6-8.1-7.7-10.5-12.2c-1-1.8-1.8-3.7-1.9-5.7c-0.1-2,0.8-4.2,2.5-5.2c1.9-1.1,4.4-0.6,6.2,0.8c1.7,1.4,2.8,3.4,3.5,5.5
				c1.4,3.9,2,11.3,0.4,16.4c5.3-14.8,9.8-29.9,13-45.4c-3.6-2.3-6.5-6.4-8.5-10c-0.8-1.5-1.6-3.1-1.6-4.9c-0.1-1.7,0.7-3.6,2.2-4.4
				c1.6-0.9,3.8-0.5,5.2,0.7c1.5,1.2,2.3,2.9,3,4.7c0.6,1.7,1,4.1,1.1,6.7c0.6-3.4,1.1-6.7,1.6-10.1c-4.2-1.1-8.4-4.4-11.4-7.5
				c-1.2-1.2-2.4-2.6-2.9-4.2c-0.5-1.6-0.3-3.6,0.9-4.8c1.3-1.3,3.5-1.5,5.2-0.8c1.7,0.7,3.1,2.2,4.1,3.7c2,2.7,4.1,8.3,4.1,12.8
				c0.4-2.9,0.7-5.8,1-8.7c0.9-9.5,1-18.8,0.8-28.2c-2.3-0.7-4.5-2.4-6.1-4.1c-0.7-0.7-1.3-1.4-1.6-2.3c-0.3-0.9-0.2-2,0.5-2.7
				c0.7-0.7,1.9-0.8,2.9-0.4c1,0.4,1.7,1.2,2.3,2c0.8,1.1,1.6,2.9,2,4.8c-0.1-2.7-0.1-5.4-0.2-8.2c-0.1-0.2-0.1-0.3-0.2-0.4
				c-0.4-0.7-0.8-1.4-1.2-2.1c-0.7-1.3-1.5-2.6-1.6-4c-0.1-1.5,0.6-3.1,2-3.5c1-0.3,2.2,0.1,3,0.9c0.7,0.8,1.1,1.9,1.1,3
				c0,1.1-0.3,2.2-0.6,3.2c-0.2,0.7-0.5,1.3-0.7,2c-0.1,0.4-0.5,1.6-0.8,1.8c0.3,2.6,0.5,5.2,0.6,7.9c0.2-0.7,0.3-1.3,0.5-2
				c0.4-1.4,0.7-2.9,1.7-4c0.9-1.1,2.6-1.8,3.9-1.2c1,0.5,1.5,1.6,1.5,2.7s-0.6,2.1-1.3,2.9c-0.8,0.8-1.7,1.4-2.7,1.9
				c-0.6,0.3-1.2,0.6-1.9,0.9c-0.3,0.1-1.1,0.6-1.6,0.8c0.1,4.7,0.1,9.4-0.2,14.1c0.1-0.4,0.2-0.9,0.3-1.3c0.5-1.9,1-3.8,2.2-5.3
				c1.2-1.5,3.4-2.4,5.1-1.5c1.3,0.6,2,2.1,2,3.6c0,1.4-0.8,2.8-1.7,3.9c-1,1.1-2.2,1.8-3.5,2.5c-0.8,0.4-1.6,0.8-2.5,1.2
				c-0.4,0.2-1.4,0.8-2.1,1c-0.1,1.5-0.2,2.9-0.3,4.4c-0.9,13.1-2.9,26.1-5.7,38.9c-1,4.6-2.1,9.2-3.3,13.7c0.1-0.1,0.2-0.3,0.2-0.4
				c0.8-1.4,1.6-2.8,2.4-4.2c1.4-2.5,3-5.1,5.4-6.8c2.4-1.6,5.9-2,8.1-0.1c1.6,1.5,2.1,4,1.4,6c-0.6,2.1-2.3,3.8-4.1,4.9
				c-1.9,1.1-4,1.7-6.2,2.2c-1.4,0.3-2.7,0.5-4.1,0.7c-0.7,0.1-3.1,0.8-3.9,0.5c-1.9,7-4.1,13.9-6.5,20.7c0.2-0.3,0.5-0.7,0.6-0.9
				c0.9-1.5,1.7-3,2.6-4.5c1.5-2.7,3.2-5.5,5.7-7.2c2.6-1.8,6.3-2.2,8.6-0.1c1.7,1.6,2.2,4.2,1.5,6.5c-0.7,2.2-2.4,4-4.4,5.2
				c-2,1.2-4.3,1.9-6.6,2.4c-1.4,0.3-2.9,0.6-4.4,0.8c-0.9,0.1-3.7,0.9-4.4,0.5c-0.1,0-0.1-0.1-0.1-0.1c-2.7,7.6-5.6,15.1-8.7,22.5
				c0.5-0.6,1-1.1,1.3-1.5c1.1-1.6,2.3-3.1,3.4-4.7c2.1-2.8,4.2-5.7,7.3-7.4c3.1-1.6,7.3-1.7,9.6,0.9c1.7,2,2,5,0.9,7.4
				c-1,2.4-3.2,4.2-5.6,5.3c-2.4,1.1-5,1.5-7.6,1.8c-1.6,0.2-3.3,0.3-5,0.4c-1,0-4.2,0.6-5,0c-0.1-0.1-0.1-0.2-0.2-0.3
				c-2.1,4.9-4.3,9.8-6.5,14.6c-6.9,14.8-14.3,29.3-22.3,43.5C387.3,472,386.5,471.5,386.8,471z M413.2,387.5
				c-1.7-1.7-4.5-2.6-6.8-1.7c-2.1,0.9-3.3,3.2-3.5,5.5c-0.2,2.3,0.6,4.5,1.4,6.6c2.2,5.3,5.6,11.4,10.2,14.8
				c2.6-5.5,2.9-14.1,1.8-18.7C415.9,391.7,415,389.2,413.2,387.5z M435.8,293.2c-1.3-0.5-2.9-0.4-3.8,0.6c-0.9,0.9-1,2.3-0.6,3.5
				c0.4,1.2,1.2,2.2,2.1,3.1c2.2,2.2,5.2,4.7,8.3,5.5c0.2-3.4-1.5-7.8-3-9.9C438,294.7,437.1,293.7,435.8,293.2z M427.9,344.3
				c-1.6-1.3-4-1.8-5.8-0.8c-1.6,0.9-2.4,3-2.4,4.9c0.1,1.9,0.9,3.7,1.8,5.3c2.3,4.2,5.7,9,9.9,11.4c1.7-4.8,1.1-12-0.2-15.7
				C430.5,347.5,429.5,345.6,427.9,344.3z M453.9,318.8c1.4-1.5,2.4-3.3,2.4-5.3c0-2-1-4.1-2.8-4.9c-2.4-1.2-5.4,0.1-7,2.1
				c-1.7,2-2.4,4.7-3,7.3c-0.4,1.4-0.7,2.9-1.1,4.3c-0.2,0.9-1.2,2.9-0.3,3.2c0.7,0.2,2.8-1.1,3.5-1.4c1.2-0.5,2.3-1.1,3.4-1.7
				C450.8,321.3,452.5,320.3,453.9,318.8z M406.8,436.7c-0.8,1.1-3.2,3.3-2.1,4.2c0.8,0.7,4.6,0.1,5.7,0c1.9-0.1,3.8-0.2,5.7-0.4
				c3-0.3,6-0.8,8.7-2.1c2.7-1.2,5.1-3.3,6.3-6c1.2-2.7,0.9-6.2-1-8.4c-2.6-3-7.5-3-10.9-1.1c-3.5,1.9-5.9,5.2-8.3,8.4
				C409.4,433.1,408.1,434.9,406.8,436.7z M446.9,342.4c1.9-0.4,3.9-1,5.6-2c1.7-1,3.2-2.6,3.8-4.5c0.6-1.9,0.2-4.2-1.3-5.5
				c-2-1.8-5.2-1.4-7.3,0.1c-2.2,1.5-3.6,3.9-4.9,6.2c-0.7,1.3-1.5,2.6-2.2,3.8c-0.5,0.8-1.9,2.4-1.1,3c0.6,0.4,3-0.3,3.8-0.4
				C444.5,342.9,445.7,342.7,446.9,342.4z"/>
			
				<linearGradient id="SVGID_20_" gradientUnits="userSpaceOnUse" x1="-84.8846" y1="414.7086" x2="-138.0932" y2="238.1312" gradientTransform="matrix(-1 0 0 1 196.3634 0)">
				<stop  offset="0" style="stop-color:#004AC9"/>
				<stop  offset="0.321" style="stop-color:#2084A9"/>
				<stop  offset="0.9915" style="stop-color:#62FA69"/>
			</linearGradient>
			<path class="st20" d="M272.3,413.1c5.3-10.3,10.5-20.6,15.5-31.1c-5.2-3.9-9.1-10.9-11.6-16.8c-1-2.4-1.8-4.9-1.6-7.5
				c0.2-2.6,1.6-5.2,3.9-6.2c2.6-1.1,5.7-0.1,7.7,1.9c2,2,3,4.7,3.7,7.4c1.2,4.8,1,13.6-1.4,19.8c7.8-16.4,15.1-33,21.3-50
				c-4.4-2.6-8.1-7.7-10.5-12.2c-1-1.8-1.8-3.7-1.9-5.7c-0.1-2,0.8-4.2,2.5-5.2c1.9-1.1,4.4-0.6,6.2,0.8c1.7,1.4,2.8,3.4,3.5,5.5
				c1.4,3.9,2,11.3,0.4,16.4c5.3-14.8,9.8-29.9,13-45.4c-3.6-2.3-6.5-6.4-8.5-10c-0.8-1.5-1.6-3.1-1.6-4.9c-0.1-1.7,0.7-3.6,2.2-4.4
				c1.6-0.9,3.8-0.5,5.2,0.7c1.5,1.2,2.3,2.9,3,4.7c0.6,1.7,1,4.1,1.1,6.7c0.6-3.4,1.1-6.7,1.6-10.1c-4.2-1.1-8.4-4.4-11.4-7.5
				c-1.2-1.2-2.4-2.6-2.9-4.2c-0.5-1.6-0.3-3.6,0.9-4.8c1.3-1.3,3.5-1.5,5.2-0.8c1.7,0.7,3.1,2.2,4.1,3.7c2,2.7,4.1,8.3,4.1,12.8
				c0.4-2.9,0.7-5.8,1-8.7c0.9-9.5,1-18.8,0.8-28.2c-2.3-0.7-4.5-2.4-6.1-4.1c-0.7-0.7-1.3-1.4-1.6-2.3c-0.3-0.9-0.2-2,0.5-2.7
				c0.7-0.7,1.9-0.8,2.9-0.4c1,0.4,1.7,1.2,2.3,2c0.8,1.1,1.6,2.9,2,4.8c-0.1-2.7-0.1-5.4-0.2-8.2c-0.1-0.2-0.1-0.3-0.2-0.4
				c-0.4-0.7-0.8-1.4-1.2-2.1c-0.7-1.3-1.5-2.6-1.6-4c-0.1-1.5,0.6-3.1,2-3.5c1-0.3,2.2,0.1,3,0.9c0.7,0.8,1.1,1.9,1.1,3
				c0,1.1-0.3,2.2-0.6,3.2c-0.2,0.7-0.5,1.3-0.7,2c-0.1,0.4-0.5,1.6-0.8,1.8c0.3,2.6,0.5,5.2,0.6,7.9c0.2-0.7,0.3-1.3,0.5-2
				c0.4-1.4,0.7-2.9,1.7-4c0.9-1.1,2.6-1.8,3.9-1.2c1,0.5,1.5,1.6,1.5,2.7s-0.6,2.1-1.3,2.9c-0.8,0.8-1.7,1.4-2.7,1.9
				c-0.6,0.3-1.2,0.6-1.9,0.9c-0.3,0.1-1.1,0.6-1.6,0.8c0.1,4.7,0.1,9.4-0.2,14.1c0.1-0.4,0.2-0.9,0.3-1.3c0.5-1.9,1-3.8,2.2-5.3
				c1.2-1.5,3.4-2.4,5.1-1.5c1.3,0.6,2,2.1,2,3.6c0,1.4-0.8,2.8-1.7,3.9c-1,1.1-2.2,1.8-3.5,2.5c-0.8,0.4-1.6,0.8-2.5,1.2
				c-0.4,0.2-1.4,0.8-2.1,1c-0.1,1.5-0.2,2.9-0.3,4.4c-0.9,13.1-2.9,26.1-5.7,38.9c-1,4.6-2.1,9.2-3.3,13.7c0.1-0.1,0.2-0.3,0.2-0.4
				c0.8-1.4,1.6-2.8,2.4-4.2c1.4-2.5,3-5.1,5.4-6.8c2.4-1.6,5.9-2,8.1-0.1c1.6,1.5,2.1,4,1.4,6c-0.6,2.1-2.3,3.8-4.1,4.9
				c-1.9,1.1-4,1.7-6.2,2.2c-1.4,0.3-2.7,0.5-4.1,0.7c-0.7,0.1-3.1,0.8-3.9,0.5c-1.9,7-4.1,13.9-6.5,20.7c0.2-0.3,0.5-0.7,0.6-0.9
				c0.9-1.5,1.7-3,2.6-4.5c1.5-2.7,3.2-5.5,5.7-7.2c2.6-1.8,6.3-2.2,8.6-0.1c1.7,1.6,2.2,4.2,1.5,6.5c-0.7,2.2-2.4,4-4.4,5.2
				c-2,1.2-4.3,1.9-6.6,2.4c-1.4,0.3-2.9,0.6-4.4,0.8c-0.9,0.1-3.7,0.9-4.4,0.5c-0.1,0-0.1-0.1-0.1-0.1c-2.7,7.6-5.6,15.1-8.7,22.5
				c0.5-0.6,1-1.1,1.3-1.5c1.1-1.6,2.3-3.1,3.4-4.7c2.1-2.8,4.2-5.7,7.3-7.4c3.1-1.6,7.3-1.7,9.6,0.9c1.7,2,2,5,0.9,7.4
				c-1,2.4-3.2,4.2-5.6,5.3c-2.4,1.1-5,1.5-7.6,1.8c-1.6,0.2-3.3,0.3-5,0.4c-1,0-4.2,0.6-5,0c-0.1-0.1-0.1-0.2-0.2-0.3
				c-2.1,4.9-4.3,9.8-6.5,14.6c-6.9,14.8-14.3,29.3-22.3,43.5C272.8,414.1,272,413.6,272.3,413.1z M298.7,329.6
				c-1.7-1.7-4.5-2.6-6.8-1.7c-2.1,0.9-3.3,3.2-3.5,5.5c-0.2,2.3,0.6,4.5,1.4,6.6c2.2,5.3,5.6,11.4,10.2,14.8
				c2.6-5.5,2.9-14.1,1.8-18.7C301.4,333.7,300.5,331.3,298.7,329.6z M321.3,235.3c-1.3-0.5-2.9-0.4-3.8,0.6c-0.9,0.9-1,2.3-0.6,3.5
				c0.4,1.2,1.2,2.2,2.1,3.1c2.2,2.2,5.2,4.7,8.3,5.5c0.2-3.4-1.5-7.8-3-9.9C323.5,236.8,322.6,235.8,321.3,235.3z M313.4,286.4
				c-1.6-1.3-4-1.8-5.8-0.8c-1.6,0.9-2.4,3-2.4,4.9c0.1,1.9,0.9,3.7,1.8,5.3c2.3,4.2,5.7,9,9.9,11.4c1.7-4.8,1.1-12-0.2-15.7
				C316,289.6,315,287.7,313.4,286.4z M339.4,260.9c1.4-1.5,2.4-3.3,2.4-5.3c0-2-1-4.1-2.8-4.9c-2.4-1.2-5.4,0.1-7,2.1
				c-1.7,2-2.4,4.7-3,7.3c-0.4,1.4-0.7,2.9-1.1,4.3c-0.2,0.9-1.2,2.9-0.3,3.2c0.7,0.2,2.8-1.1,3.5-1.4c1.2-0.5,2.3-1.1,3.4-1.7
				C336.3,263.4,338,262.3,339.4,260.9z M292.3,378.8c-0.8,1.1-3.2,3.3-2.1,4.2c0.8,0.7,4.6,0.1,5.7,0c1.9-0.1,3.8-0.2,5.7-0.4
				c3-0.3,6-0.8,8.7-2.1c2.7-1.2,5.1-3.3,6.3-6c1.2-2.7,0.9-6.2-1-8.4c-2.6-3-7.5-3-10.9-1.1c-3.5,1.9-5.9,5.2-8.3,8.4
				C294.9,375.2,293.6,377,292.3,378.8z M332.4,284.5c1.9-0.4,3.9-1,5.6-2c1.7-1,3.2-2.6,3.8-4.5c0.6-1.9,0.2-4.2-1.3-5.5
				c-2-1.8-5.2-1.4-7.3,0.1c-2.2,1.5-3.6,3.9-4.9,6.2c-0.7,1.3-1.5,2.6-2.2,3.8c-0.5,0.8-1.9,2.4-1.1,3c0.6,0.4,3-0.3,3.8-0.4
				C330,285,331.2,284.8,332.4,284.5z"/>
		</g>
		<g>
			<linearGradient id="SVGID_21_" gradientUnits="userSpaceOnUse" x1="397.397" y1="454.0645" x2="397.397" y2="322.4741">
				<stop  offset="0" style="stop-color:#000E00"/>
				<stop  offset="6.810445e-02" style="stop-color:#001709"/>
				<stop  offset="1" style="stop-color:#00897F"/>
			</linearGradient>
			<path class="st21" d="M321.7,363.2c-0.7-4.9-1-10,0.6-14.7c1.5-4.7,5.1-9,9.9-10.2c5.8-1.5,12.1,1.7,15.8,6.4
				c3.8,4.7,5.6,10.6,7.3,16.4c-2.1-7.9-4.3-16.1-3.6-24.3c0.7-8.2,4.7-16.6,12.1-20.2c7.4-3.6,18-0.5,20.5,7.3
				c0.6,1.9,0.7,3.8,0.8,5.8c0.4,6,0.8,12,1.1,18c1.4-12.4,9.5-23.8,20.8-29.2c5.8-2.8,13.8-3.6,17.9,1.4c3.4,4.1,2.5,10.2,0.9,15.2
				c-1.7,5.1-4,10.2-3.1,15.5c0.6-6.7,7.6-12,14.1-10.8c0.4,5.7,0.8,11.4,1.2,17.1c0.7-8.6,8.5-16.1,17.1-16.3
				c8.6-0.3,16.9,6.6,18.2,15.2c1,7-2.1,13.8-5.3,20c-7.3,14.1-16,28.3-29.7,36.3c-14.2,8.3-31.6,8.5-48,8.6
				c-16.1,0-33.8-0.4-46.1-10.8c-6.2-5.3-9.1-12.3-12.9-19.3C326.8,381.8,323.2,373,321.7,363.2z"/>
			<linearGradient id="SVGID_22_" gradientUnits="userSpaceOnUse" x1="534.3575" y1="442.9636" x2="534.3575" y2="307.77">
				<stop  offset="0" style="stop-color:#000E00"/>
				<stop  offset="6.810445e-02" style="stop-color:#001709"/>
				<stop  offset="1" style="stop-color:#00897F"/>
			</linearGradient>
			<path class="st22" d="M458.7,353.9c-0.7-4.9-1-10,0.6-14.7c1.5-4.7,5.1-9,9.9-10.2c5.8-1.5,12.1,1.7,15.8,6.4
				c3.8,4.7,5.6,10.6,7.3,16.4c-2.1-7.9-4.3-16.1-3.6-24.3c0.7-8.2,4.7-16.6,12.1-20.2c7.4-3.6,18-0.5,20.5,7.3
				c0.6,1.9,0.7,3.8,0.8,5.8c0.4,6,0.8,12,1.1,18c1.4-12.4,9.5-23.8,20.8-29.2c5.8-2.8,13.8-3.6,17.9,1.4c3.4,4.1,2.5,10.2,0.9,15.2
				c-1.7,5.1-4,10.2-3.1,15.5c0.6-6.7,7.6-12,14.1-10.8c0.4,5.7,0.8,11.4,1.2,17.1c0.7-8.6,8.5-16.1,17.1-16.3
				c8.6-0.3,16.9,6.6,18.2,15.2c1,7-2.1,13.8-5.3,20c-7.3,14.1-16,28.3-29.7,36.3c-14.2,8.3-31.6,8.5-48,8.6
				c-16.1,0-33.8-0.4-46.1-10.8c-6.2-5.3-9.1-12.3-12.9-19.3C463.7,372.5,460.2,363.7,458.7,353.9z"/>
			<linearGradient id="SVGID_23_" gradientUnits="userSpaceOnUse" x1="684.6182" y1="393.735" x2="627.8346" y2="269.1775">
				<stop  offset="0" style="stop-color:#000E00"/>
				<stop  offset="6.810445e-02" style="stop-color:#001709"/>
				<stop  offset="1" style="stop-color:#00897F"/>
			</linearGradient>
			<path class="st23" d="M583.4,339.2c-0.7-4.9-1-10,0.6-14.7c1.5-4.7,5.1-9,9.9-10.2c5.8-1.5,12.1,1.7,15.8,6.4
				c3.8,4.7,5.6,10.6,7.3,16.4c-2.1-7.9-4.3-16.1-3.6-24.3s4.7-16.6,12.1-20.2c7.4-3.6,18-0.5,20.5,7.3c0.6,1.9,0.7,3.8,0.8,5.8
				c0.4,6,0.8,12,1.1,18c1.4-12.4,9.5-23.8,20.8-29.2c5.8-2.8,13.8-3.6,17.9,1.4c3.4,4.1,2.5,10.2,0.9,15.2
				c-1.7,5.1-4,10.2-3.1,15.5c0.6-6.7,7.6-12,14.1-10.8c0.4,5.7,0.8,11.4,1.2,17.1c0.7-8.6,8.5-16.1,17.1-16.3
				c8.6-0.3,16.9,6.6,18.2,15.2c1,7-2.1,13.8-5.3,20c-7.3,14.1-16,28.3-29.7,36.3c-14.2,8.3-31.6,8.5-48,8.6
				c-16.1,0-33.8-0.4-46.1-10.8c-6.2-5.3-9.1-12.3-12.9-19.3C588.4,357.8,584.8,349,583.4,339.2z"/>
			<linearGradient id="SVGID_24_" gradientUnits="userSpaceOnUse" x1="248.9479" y1="391.0099" x2="248.9479" y2="291.5631">
				<stop  offset="0" style="stop-color:#000E00"/>
				<stop  offset="6.810445e-02" style="stop-color:#001709"/>
				<stop  offset="1" style="stop-color:#00897F"/>
			</linearGradient>
			<path class="st24" d="M173.3,321.5c-0.7-4.9-1-10,0.6-14.7c1.5-4.7,5.1-9,9.9-10.2c5.8-1.5,12.1,1.7,15.8,6.4s5.6,10.6,7.3,16.4
				c-2.1-7.9-4.3-16.1-3.6-24.3c0.7-8.2,4.7-16.6,12.1-20.2c7.4-3.6,18-0.5,20.5,7.3c0.6,1.9,0.7,3.8,0.8,5.8c0.4,6,0.8,12,1.1,18
				c1.4-12.4,9.5-23.8,20.8-29.2c5.8-2.8,13.8-3.6,17.9,1.4c3.4,4.1,2.5,10.2,0.9,15.2c-1.7,5.1-4,10.2-3.1,15.5
				c0.6-6.7,7.6-12,14.1-10.8c0.4,5.7,0.8,11.4,1.2,17.1c0.7-8.6,8.5-16.1,17.1-16.3c8.6-0.3,16.9,6.6,18.2,15.2
				c1,7-2.1,13.8-5.3,20c-7.3,14.1-16,28.3-29.7,36.3c-14.2,8.3-31.6,8.5-48,8.6c-16.1,0-33.8-0.4-46.1-10.8
				c-6.2-5.3-9.1-12.3-12.9-19.3C178.3,340.1,174.7,331.3,173.3,321.5z"/>
			<linearGradient id="SVGID_25_" gradientUnits="userSpaceOnUse" x1="140.4253" y1="418.6412" x2="140.4253" y2="319.1944">
				<stop  offset="0" style="stop-color:#000E00"/>
				<stop  offset="6.810445e-02" style="stop-color:#001709"/>
				<stop  offset="1" style="stop-color:#00897F"/>
			</linearGradient>
			<path class="st25" d="M64.8,371.6c-0.7-4.9-1-10,0.6-14.7c1.5-4.7,5.1-9,9.9-10.2c5.8-1.5,12.1,1.7,15.8,6.4
				c3.8,4.7,5.6,10.6,7.3,16.4c-2.1-7.9-4.3-16.1-3.6-24.3c0.7-8.2,4.7-16.6,12.1-20.2c7.4-3.6,18-0.5,20.5,7.3
				c0.6,1.9,0.7,3.8,0.8,5.8c0.4,6,0.8,12,1.1,18c1.4-12.4,9.5-23.8,20.8-29.2c5.8-2.8,13.8-3.6,17.9,1.4c3.4,4.1,2.5,10.2,0.9,15.2
				c-1.7,5.1-4,10.2-3.1,15.5c0.6-6.7,7.6-12,14.1-10.8c0.4,5.7,0.8,11.4,1.2,17.1c0.7-8.6,8.5-16.1,17.1-16.3
				c8.6-0.3,16.9,6.6,18.2,15.2c1,7-2.1,13.8-5.3,20c-7.3,14.1-16,28.3-29.7,36.3c-14.2,8.3-31.6,8.5-48,8.6
				c-16.1,0-33.8-0.4-46.1-10.8c-6.2-5.3-9.1-12.3-12.9-19.3C69.8,390.2,66.2,381.4,64.8,371.6z"/>
		</g>
		<g>
			<linearGradient id="SVGID_26_" gradientUnits="userSpaceOnUse" x1="576.6408" y1="432.7475" x2="545.663" y2="309.8691">
				<stop  offset="1.141830e-03" style="stop-color:#004432"/>
				<stop  offset="0.2715" style="stop-color:#00714F"/>
				<stop  offset="1" style="stop-color:#00E79A"/>
			</linearGradient>
			<path class="st26" d="M592,409.7c11.1-12,17.6-28.2,17.8-44.5c0-3.4-0.2-6.9-1.7-9.9c-1.5-3-4.6-5.5-8-5.3c-2.9,0.1-5.4,2-7,4.4
				c-1.6,2.4-2.4,5.2-3.2,7.9c2-8.7,2.5-17.7,1.5-26.6c-0.5-4.1-2-8.9-5.9-10c-2.8-0.7-5.8,0.9-7.5,3.3c-1.7,2.3-2.4,5.2-3.1,8.1
				c13-41.4-10.7-54-15.9-26.7c-4.7-11.4-9-50.2-29.3-40.8c-20.3,9.3,3.9,42,9.5,50.9c-4.7-3.9-20-15.7-25.2-8
				c-7.6,11.2,10.8,27.1,25.3,39c-5.8-2.6-11.9-5.2-18.2-4.9c-6.4,0.3-13,4.6-13.8,10.9c-0.7,5.4,3,10.4,6.9,14.3
				c8.9,8.9,20,15.5,32.1,19c-4.1-0.2-8.4-0.3-12.2,1.3c-3.8,1.6-7.3,5.4-6.6,9.5C532,426.4,590.8,413.2,592,409.7z"/>
			<path class="st27" d="M584.2,340.9c-2.4,12-5.8,23.8-8.2,35.8c-3.7-8.5-7.4-16.9-11.2-25.4c1.4-12.1,1.3-24.5,1.2-36.6
				c0-0.5-0.8-0.6-0.8-0.1c-0.2,11.4-1.3,22.7-1.6,34c-10.7-24-21.5-47.9-31.9-72c-0.1-0.2-0.5-0.1-0.4,0.2
				c9.6,23.4,19.1,47,29,70.4c-9.6-7.3-20.3-13.3-29.9-20.6c-0.2-0.1-0.3,0.1-0.2,0.2c9.6,7.9,19.7,16.6,30.9,22.2
				c4.2,9.9,8.5,19.7,12.9,29.5c-13-3.5-25.7-4.8-37.6-11.9c-0.3-0.2-0.5,0.2-0.3,0.4c11.1,7.1,25.2,11.7,38.4,12.7
				c4.4,9.6,8.8,19.2,13.4,28.7c0.4,0.8,1.6,0.2,1.2-0.6c-4.1-9.9-8.3-19.7-12.6-29.5c4.3-11.8,6.2-25.1,7.6-37.6
				C584.4,340.8,584.2,340.8,584.2,340.9z"/>
		</g>
		<g>
			
				<linearGradient id="SVGID_27_" gradientUnits="userSpaceOnUse" x1="97.4849" y1="410.0652" x2="109.0651" y2="232.9536" gradientTransform="matrix(0.9988 4.880000e-02 -4.880000e-02 0.9988 17.8715 -2.5683)">
				<stop  offset="0" style="stop-color:#00332E"/>
				<stop  offset="0.1706" style="stop-color:#004C3C"/>
				<stop  offset="1" style="stop-color:#00C281"/>
			</linearGradient>
			<path class="st28" d="M98.3,438.7c-0.1-0.1-0.2-0.3-0.3-0.4c-0.5-0.6-1-1.3-1.5-2c-10.2-13.5-19.7-31-26.3-56.9l12.2-5.9
				L66.7,365c0,0,0.5-8.7,1.7-20.8c0-0.4,0.1-0.8,0.1-1.2c0.2-2.6,0.5-5.2,0.8-8c0.1-1.4,0.3-2.9,0.5-4.4
				c1.6-14.3,3.9-30.4,7.1-42.9c0.1-0.2,0.1-0.5,0.2-0.7c0.1-0.4,0.2-0.8,0.3-1.2c0.7-2.8,1.3-5.3,1.8-7.4c0.1-0.4,0.2-0.9,0.3-1.3
				c2.7-11.6,3.1-14.3,3-14.9l17.4-1.8l-13-6.9c0,0,10-17.9,25.8-39.3c4.7,4.5,29.7,29.8,31.5,70.1l-11.9,5.3l10.9,2.2
				c0,0-0.2,4.6-0.8,11.8c-0.1,1.5-0.3,3.1-0.5,4.7c-1.4,13.5-4.1,32.8-9.1,49c-0.3,1-0.6,2-1,3.1c-0.4,1.1-0.8,2.2-1.2,3.3
				C120.3,393,98.3,438.7,98.3,438.7z"/>
			<path class="st11" d="M90.8,469.5c1.9-11.1,3.8-22.1,5.7-33.2c5.3-31.4,10.2-62.8,14.7-94.3c0.4-2.9,0.8-5.8,1.2-8.7
				c-7.7,1.7-15.7,2.3-23.4,4.3c-7,1.8-14,3.9-20.7,6.4c0-0.4,0.1-0.8,0.1-1.2c6.4-3.1,13-5.7,19.9-7.7c7.8-2.2,16.3-4.5,24.5-4.5
				c0.1-0.4,0.1-0.8,0.2-1.2c-7.7-0.8-15.6-0.8-23.2,0.3c-4.8,0.7-9.5,1.8-14.1,3.1c-2.1,0.6-4.3,1.8-6.4,2c0.1-1.4,0.3-2.9,0.5-4.4
				c1.8-0.9,4-1.4,5.6-2.1c5-1.9,10.1-3.5,15.3-4.5c7.9-1.6,15.7-1.9,23.1,0.5c1.2-9,2.3-17.9,3.1-26.9c-6.7-2.2-13.2-4.9-20-6.8
				c-6.5-1.8-13.2-3.2-19.9-3.7c0.1-0.4,0.2-0.8,0.3-1.2c13.5,0.4,27.5,4,39.8,9.6c0-0.1,0-0.2,0-0.3c-12.3-6.5-24.5-13.5-38-16.7
				c0.1-0.4,0.2-0.9,0.3-1.3c13.4,2.2,26.8,8.5,37.9,16c2-24.5,2-49.1-3-73.7c0-0.1,0.1-0.2,0.2-0.1c9.5,31.5,2.8,92.3,1.8,98.9
				c8.1-5.4,16.9-10.3,26.1-14.5c-0.1,1.5-0.3,3.1-0.5,4.7c-8.5,3.6-16.8,7.4-25,11.7c-0.3,0.2-0.6,0.1-0.9,0
				c-0.2,1.6-2.4,16.2-2.6,17.8c-1.5,10.4-3,20.8-4.5,31.2c5.6-4.1,13.3-6.4,19.9-8c1-0.2,2-0.5,2.9-0.7c-0.4,1.1-0.8,2.2-1.2,3.3
				c-0.6,0.1-1.2,0.3-1.8,0.4c-7,1.6-13.4,4.9-20.2,6.9c-3.2,22.4-6.6,44.8-10.5,67c-1.9,10.5-3.9,21.1-6.1,31.5
				C91.8,470.5,90.7,470.3,90.8,469.5z"/>
		</g>
		<g>
			<linearGradient id="SVGID_28_" gradientUnits="userSpaceOnUse" x1="272.0185" y1="430.3293" x2="347.1896" y2="286.7527">
				<stop  offset="0" style="stop-color:#00332E"/>
				<stop  offset="0.1706" style="stop-color:#004C3C"/>
				<stop  offset="1" style="stop-color:#00C281"/>
			</linearGradient>
			<path class="st29" d="M332.8,383.4c2.9-2.3,5.6-5.4,5.9-9.1c0.4-3.7-2.5-7.8-6.2-7.6c3.6-0.3,7.4-0.6,10.6-2.3
				c3.2-1.7,5.9-5,5.6-8.6c-0.3-3.6-4.5-6.7-7.7-5.1c3.5-1,7.1-2.1,10-4.2c3-2.1,5.2-5.6,5-9.2c-0.2-3.5-2.9-6.6-6.3-7.9
				c-3.3-1.2-7.1-0.8-10.3,0.7c5.1-4,10.1-8.4,13.5-13.9c3.4-5.5,5.2-12.3,3.6-18.6c-1.6-6.3-7.1-11.8-13.5-12.2
				c-7.5-0.5-14.1,5.5-16.9,12.4c-2.7,7-2.4,14.7-2,22.2c0.1-6-7.1-10.2-12.8-8.5c-5.7,1.7-9.3,7.8-9.7,13.7
				c-0.4,6,1.8,11.8,4.5,17.1c-2-6-8.8-9.9-15.1-9c-6.3,0.9-11.6,6.1-13,12.3c-1.4,6.2,14,42.3,14,42.3S324.6,389.9,332.8,383.4z"/>
			<path class="st30" d="M322.1,350.7c10.4-17.7,19.4-37.8,23.5-58c0-0.1-0.1-0.1-0.1,0c-3.9,9.5-6.5,19.5-10.4,29
				c-4,9.8-8.7,19.2-14.1,28.3c-10.7,17.9-24,33.4-38.6,48.1c-0.4,0.4,0.2,1.1,0.7,0.7C298.6,385.4,311.6,368.5,322.1,350.7z"/>
		</g>
		<g>
			
				<linearGradient id="SVGID_29_" gradientUnits="userSpaceOnUse" x1="348.7898" y1="408.4623" x2="322.9985" y2="306.1572" gradientTransform="matrix(0.8886 0.4587 -0.4587 0.8886 234.5678 -102.4676)">
				<stop  offset="1.141830e-03" style="stop-color:#004432"/>
				<stop  offset="0.2715" style="stop-color:#00714F"/>
				<stop  offset="1" style="stop-color:#00E79A"/>
			</linearGradient>
			<path class="st31" d="M371.3,427.6c11.5-4.1,21.4-12.7,27.1-23.5c1.2-2.2,2.2-4.7,2.2-7.2c0-2.5-1.2-5.2-3.5-6.3
				c-1.9-0.9-4.3-0.5-6.2,0.5c-1.9,1-3.4,2.6-4.9,4.2c4.3-5.1,7.7-11,10.1-17.2c1.1-2.9,1.8-6.6-0.5-8.7c-1.6-1.4-4.2-1.4-6.1-0.4
				c-1.9,1-3.4,2.7-4.8,4.3c22.9-23.1,11.5-39.6-1.4-23.2c0.8-9.2,11.2-36.5-5.5-37.2c-16.7-0.8-11.8,29.3-11.1,37.1
				c-1.8-4.2-7.9-17.3-14.1-14c-8.9,4.8-2.1,21.7,3.5,34.6c-3-3.7-6.1-7.5-10.5-9.5c-4.3-2-10.2-1.4-12.9,2.5
				c-2.3,3.4-1.6,7.9-0.3,11.8c2.9,9,8,17.2,14.8,23.7c-2.7-1.5-5.5-3.1-8.6-3.3c-3.1-0.3-6.7,1.1-7.6,4
				C325.6,418.1,369.3,429.5,371.3,427.6z"/>
			<path class="st27" d="M389.7,379.2c-5.7,7.1-12.1,13.8-17.8,21c0.5-6.9,0.9-13.8,1.3-20.7c5.1-7.5,9.2-15.9,13.4-24
				c0.2-0.3-0.3-0.7-0.5-0.3c-4.1,7.5-8.6,14.7-12.7,22.1c1.1-19.6,2.1-39.3,3.5-58.9c0-0.2-0.3-0.2-0.3,0
				c-1.7,18.9-3.5,37.8-4.9,56.8c-3.9-8.1-8.9-15.8-12.8-24c-0.1-0.1-0.3,0-0.2,0.1c3.7,8.6,7.4,17.8,12.9,25.4
				c-0.6,8-1.1,16-1.5,24.1c-7.4-6.8-15.4-12-20.9-20.8c-0.1-0.2-0.4,0-0.3,0.2c5,8.6,12.7,16.5,21.2,21.7
				c-0.4,7.9-0.7,15.8-0.9,23.7c0,0.7,1,0.7,1,0c0.7-8,1.2-16,1.8-23.9c6.9-6.4,12.8-14.6,18-22.4
				C389.8,379.2,389.7,379.1,389.7,379.2z"/>
		</g>
		<g>
			<linearGradient id="SVGID_30_" gradientUnits="userSpaceOnUse" x1="722.2672" y1="344.5637" x2="658.372" y2="216.0217">
				<stop  offset="0" style="stop-color:#00332E"/>
				<stop  offset="0.1706" style="stop-color:#004C3C"/>
				<stop  offset="1" style="stop-color:#00C281"/>
			</linearGradient>
			<path class="st32" d="M694.6,374c-13.2-8.1-24.3-19.5-32.1-32.9c-2.5-4.3-4.7-8.9-5.5-13.9c-0.8-4.9,0-10.3,3-14.3
				c3-4,8.4-6.4,13.2-5.1c-3.8-6.2-7.7-12.5-9.1-19.6c-1.5-7.1-0.1-15.2,5.3-20.1c5.4-4.9,15.2-4.8,19.1,1.3c-2.8-4.9-3-11.5,0.4-16
				c4-5.2,11.9-6.3,17.9-3.5c6,2.8,10,8.6,12.1,14.9c2.1,6.2,2.4,12.9,2.8,19.4c0.1-6,5.8-11,11.7-11.4c6-0.4,11.7,3.1,15.2,8
				c3.5,4.9,4.8,11,5.2,16.9c0.8,14.1-4.2,28.4-13.5,39C740.2,336.8,695.2,373.3,694.6,374z"/>
			<path class="st33" d="M695,382.9c4.5-21.3,7.3-42.6,8-63.8c-12.5-7.7-21.4-19.1-30.3-30.6c-0.1-0.2,0.1-0.4,0.3-0.2
				c9,10.9,18.2,21.4,30.1,29.2c0.5-20.1-1-40.3-5-60.6c-0.1-0.4,0.6-0.6,0.7-0.1c1.7,7.8,3,15.8,4,23.8c1.3-2,2.9-3.9,4.2-6
				c1.5-2.7,2.9-5.5,3.9-8.3c0.1-0.4,0.6-0.2,0.5,0.2c-0.6,2.8-1.5,5.4-2.8,8c-0.7,1.3-1.4,2.6-2.2,3.8c-0.8,1.2-2.4,2.6-2.6,4
				c-0.1,0.4-0.4,0.6-0.7,0.5c2,15.9,2.7,32.1,1.9,48.2c13.4-10.3,25.9-23.2,31-39.6c0.1-0.3,0.4-0.2,0.4,0.1
				c-0.2,8.7-5.7,16.2-11,22.6c-5.9,7.2-12.6,13.9-20.6,18.8c-1,17.2-3.7,34.2-8.4,50.6C696.1,384.4,694.8,383.8,695,382.9z"/>
		</g>
		<g>
			
				<linearGradient id="SVGID_31_" gradientUnits="userSpaceOnUse" x1="687.4514" y1="371.3033" x2="702.0554" y2="256.7962" gradientTransform="matrix(0.9693 -0.246 0.246 0.9693 -85.8938 190.7858)">
				<stop  offset="0" style="stop-color:#00332E"/>
				<stop  offset="0.1706" style="stop-color:#004C3C"/>
				<stop  offset="1" style="stop-color:#00C281"/>
			</linearGradient>
			<path class="st34" d="M682.3,360.1c10.9-7.7,18.8-19.6,21.7-32.6c0.6-2.7,1-5.5,0.3-8.2c-0.7-2.7-2.8-5.1-5.5-5.6
				c-2.3-0.4-4.7,0.7-6.4,2.4c-1.7,1.6-2.8,3.7-3.9,5.8c3-6.6,4.9-13.8,5.6-21.1c0.3-3.4-0.1-7.5-3.1-9c-2.1-1-4.8-0.2-6.6,1.4
				c-1.8,1.6-2.8,3.8-3.8,5.9c1.9-7.6,2.8-15.5,2.7-23.3c0-2.8-0.3-5.8-2.3-7.8c-2-1.9-6.9-3.4-8.7,7.1c-1.9-9.9-4.6-19.7-8-29.1
				c-1.5-4.1-4.3-8.9-8.6-8.4c-4.3,0.4-6.1,5.8-6.4,10.1c-0.6,8.6,2.6,24.1,5.6,32.2c-3.1-3.9-13.4-15.9-18.9-10.6
				c-7.9,7.7,4.1,23.5,13.8,35.4c-4.2-3-8.7-6.1-13.8-7c-5.1-0.8-11.2,1.5-12.8,6.4c-1.4,4.2,0.7,8.8,3.1,12.5
				c5.6,8.6,13.5,15.7,22.5,20.6c-3.3-0.8-6.7-1.6-10-1c-3.3,0.6-6.8,3.1-6.8,6.5C631.5,363.5,680.8,362.7,682.3,360.1z"/>
			<path class="st35" d="M687.5,303.8c-3.9,9.2-8.6,18.1-12.5,27.3c-1.5-7.4-3.1-14.8-4.7-22.2c3.2-9.4,5.1-19.4,7.1-29.1
				c0.1-0.4-0.5-0.6-0.6-0.2c-2.1,9-4.8,17.9-6.9,27c-4.6-21-9.2-41.9-13.5-62.9c0-0.2-0.4-0.1-0.3,0.1c3.7,20.4,7.4,40.8,11.5,61.2
				c-6.5-7.4-14-14-20.5-21.5c-0.1-0.1-0.3,0.1-0.2,0.2c6.4,8,13,16.6,21,22.9c1.7,8.6,3.5,17.2,5.4,25.8c-9.8-5-19.8-8.1-28.1-15.8
				c-0.2-0.2-0.5,0.1-0.3,0.3c7.7,7.6,18.2,13.6,28.6,16.6c1.9,8.4,3.8,16.9,6,25.2c0.2,0.7,1.2,0.4,1.1-0.3
				c-1.6-8.6-3.4-17.1-5.1-25.7c5.4-8.8,9.2-19.1,12.4-28.8C687.7,303.7,687.5,303.7,687.5,303.8z"/>
		</g>
		<g>
			<linearGradient id="SVGID_32_" gradientUnits="userSpaceOnUse" x1="600.6891" y1="436.6845" x2="618.9036" y2="242.1698">
				<stop  offset="0" style="stop-color:#008F9F"/>
				<stop  offset="1" style="stop-color:#47FAB0"/>
			</linearGradient>
			<path class="st36" d="M599.9,444.5c0,0-15.5-59-15.4-101.6c0-26.1,1.2-56.7,16.9-77.5c12.3-16.3,29.9-7.1,34.7,9.4
				c6.7,22.8,1.2,56.7-3.6,79.7C623.3,399.4,599.9,444.5,599.9,444.5z"/>
			<path class="st37" d="M635,296.3c-10.5,11.9-20.1,24.5-28.8,37.8c0.2-2.1,0.4-4.3,0.6-6.4c0,0,0,0,0,0
				c9.1-13.9,18.8-27.4,28.9-40.5c0,0,0-0.1-0.1-0.1c-10.2,12.2-19.7,24.8-28.6,38c2.2-19.5,5.1-38.9,8.1-58.4
				c0-0.1-0.2-0.2-0.2-0.1c-1,5.6-2,11.2-2.9,16.9c-0.5-5.4-1.3-10.7-2.2-16.1c0-0.1-0.1,0-0.1,0c0.9,5.7,1.6,11.5,2.1,17.2
				c-3.6,21.8-6.7,43.6-8.4,65.6c-3-18.4-7.2-36.7-12.2-54.7c0,0-0.1,0-0.1,0c4.9,18.8,8.8,37.8,12.1,57c-0.2,2.4-0.3,4.8-0.5,7.2
				c-0.1,2-0.2,4-0.3,6c-3.4-20.2-9.2-40-13.2-60c0-0.1-0.1,0-0.1,0c4.7,21,7.4,42.5,13.1,63.3c-1.8,29.5-3.7,59.3-3.5,88.8
				c0,0.6,0.9,0.6,1,0c2.1-23,2.7-46.1,3.4-69.2c11.5-8.1,18.9-21.5,25.8-33.4c0.1-0.2-0.2-0.3-0.3-0.2c-7.4,12-15.1,22.8-25.5,32.3
				c0.1-2.4,0.2-4.8,0.2-7.3c10.7-11.3,19.1-24.3,26.5-38c0-0.1-0.1-0.1-0.1-0.1c-7.3,13.1-16.5,25-26.3,36.2
				c0.2-5.5,0.4-11,0.7-16.5c0.4-8.6,1.1-17.1,1.9-25.7c8.9-13.8,18.6-27.1,29.1-39.7C635.2,296.4,635.1,296.2,635,296.3z"/>
		</g>
		<g>
			<linearGradient id="SVGID_33_" gradientUnits="userSpaceOnUse" x1="251.7348" y1="422.7878" x2="351.5192" y2="349.3201">
				<stop  offset="0" style="stop-color:#009C9C"/>
				<stop  offset="1" style="stop-color:#4FFA5F"/>
			</linearGradient>
			<path class="st38" d="M254.4,386.2c3.2-11.6,9-22.9,18.4-30.5c16-13,38.7-13.2,59.1-10.6c5.7,0.7,11.8,1.8,15.7,6
				c4,4.4,4.5,11,4.1,16.9c-1.3,16.5-8,32.4-19,44.8c-11,12.3-26,21-42.2,24.1c-7.4,1.5-15.2,1.8-22.4-0.5
				c-7.2-2.2-16.3-8.6-17.9-16.5C248,410.3,251.9,395.6,254.4,386.2z"/>
			<path class="st33" d="M347,358.3c-4.7,2.2-9.4,4.5-14.1,6.9c2.4-3.6,4.1-7.8,5.7-11.8c0.1-0.2-0.2-0.3-0.3-0.1
				c-2,4.5-4.7,8.5-7.1,12.8c-0.5,0.2-1,0.5-1.5,0.7c3.1-4.6,4.7-10,6.3-15.3c0-0.1-0.1-0.1-0.2,0c-2.1,5.8-4.3,11.4-8.1,16.3
				c-11.1,5.6-22.1,11.5-32.6,18.1c2-11.1,3.3-21.9,6.9-32.7c0.1-0.2-0.2-0.3-0.3-0.1c-4,10.5-7.7,22.1-7.7,33.5
				c-2.5,1.6-5,3.3-7.5,5c1.5-12.3,2.9-24.1,6.3-36.2c0.1-0.3-0.3-0.3-0.4-0.1c-4.2,11.6-7.4,24.8-7.3,37.2
				c-2.1,1.4-4.1,2.9-6.1,4.4c-6.5,4.9-12.9,10.3-18.6,16.4c0.9-5.4,1.2-10.9,2.3-16.3c1.3-6.5,3.3-12.8,5.7-19
				c0-0.1-0.2-0.2-0.2-0.1c-5.2,10.9-10.5,24.8-9.5,37.2c-8.7,9.7-15.7,20.9-18.6,33.6c-0.3,1.2,1.4,1.6,1.8,0.5
				c6-15.3,14.9-28.2,26.1-39.3c11-0.7,23.2,4.3,33.3,7.6c0.6,0.2,0.9-0.7,0.4-0.9c-6-3-12.4-4.8-18.9-6.2
				c-4.5-0.9-9.1-1.8-13.6-1.6c0.9-0.9,1.8-1.7,2.7-2.6c13.8-0.7,26.5,3.7,39.8,7c0.6,0.2,0.8-0.7,0.3-0.9
				c-12.4-4.8-26-8.3-39.3-6.8c3.8-3.4,7.8-6.6,12-9.7c6.3-4.5,12.8-8.8,19.5-12.9c7.7,2,15.5,5.3,22.3,9.4c0.1,0.1,0.2-0.1,0.1-0.2
				c-5.3-5-13.8-8.8-21.1-10c2-1.2,4-2.4,5.9-3.6c3.9,0.6,7.6,1,11.3,2.6c3.6,1.6,7,3.6,10.3,5.6c0.5,0.3,0.8-0.4,0.4-0.7
				c-5.5-4-12.8-9.3-20-8.7c4.6-2.7,9.3-5.3,13.9-7.9c0.1,0,0.1,0,0.2-0.1c6.6-3.6,13.1-7.1,19.7-10.6
				C347.7,358.6,347.4,358.1,347,358.3z"/>
		</g>
		<g>
			
				<linearGradient id="SVGID_34_" gradientUnits="userSpaceOnUse" x1="582.8939" y1="564.6683" x2="683.5192" y2="564.6683" gradientTransform="matrix(0.2971 -0.9548 0.9548 0.2971 -27.4298 806.4976)">
				<stop  offset="0" style="stop-color:#00332E"/>
				<stop  offset="0.1706" style="stop-color:#004C3C"/>
				<stop  offset="1" style="stop-color:#00C281"/>
			</linearGradient>
			<path class="st39" d="M681.9,411.7c-10-6.4-18.8-15.2-23.3-26.2c-7.5-18.8-1.1-40.2,7.3-58.6c2.3-5.1,5.1-10.6,10.2-13
				c5.3-2.5,11.6-1,17.1,1.1c15.1,6,28.1,17,36.5,30.9c8.4,13.9,12.1,30.6,10.3,46.7c-0.8,7.4-2.8,14.8-7,20.9
				c-4.2,6.1-12.9,12.8-20.8,12C702.6,424.7,689.9,416.9,681.9,411.7z"/>
			<path class="st33" d="M682.7,316.6c0.7,5.1,1.5,10.2,2.3,15.2c-2.7-3.3-6.1-6.2-9.4-8.8c-0.1-0.1-0.3,0.1-0.2,0.2
				c3.6,3.2,6.6,6.9,9.9,10.4c0.1,0.5,0.2,1.1,0.3,1.6c-3.4-4.3-8-7.4-12.6-10.4c-0.1-0.1-0.2,0.1-0.1,0.1c4.8,3.6,9.5,7.4,13,12.3
				c2,12,4.4,24.1,7.5,35.9c-9.8-5.1-19.6-9.5-28.7-16c-0.2-0.1-0.3,0.1-0.2,0.3c8.7,6.8,18.6,13.7,29.2,17.1
				c0.8,2.9,1.6,5.7,2.5,8.5c-11.1-5-21.8-9.8-32.1-16.5c-0.2-0.1-0.4,0.2-0.2,0.3c9.7,7.3,21.1,14.2,32.8,17.7
				c0.7,2.4,1.5,4.7,2.3,7c2.7,7.5,5.9,15.1,10,22.3c-4.8-2.4-9.9-4.3-14.6-6.9c-5.7-3.2-11.1-6.8-16.1-10.9
				c-0.1-0.1-0.2,0.1-0.2,0.2c8.8,8.1,20.2,17.1,32.2,19.8c6.6,11,15,20.8,26.1,27.3c1.1,0.6,1.9-0.8,1-1.6
				c-12.6-10.1-22.1-22.2-29.3-36c2.6-10.6,10.8-20.5,16.8-29c0.3-0.5-0.4-1.1-0.8-0.7c-4.5,4.8-8.2,10.2-11.3,16
				c-2.2,3.9-4.4,8-5.4,12.3c-0.6-1.1-1.1-2.2-1.6-3.3c3.3-13.2,11.2-23.9,18.2-35.3c0.3-0.5-0.4-1-0.8-0.5
				c-8.1,10.2-15.4,22-17.9,34.9c-2.1-4.5-3.9-9.2-5.6-14.1c-2.4-7.2-4.5-14.6-6.4-22.1c4.2-6.6,9.5-13,15.4-18.1
				c0.1-0.1,0-0.3-0.1-0.2c-6.2,3.5-12.3,10.3-15.6,16.9c-0.6-2.2-1.1-4.4-1.6-6.6c1.7-3.5,3.2-6.8,5.8-9.8c2.5-2.9,5.4-5.5,8.2-8.1
				c0.4-0.3-0.1-0.9-0.5-0.6c-5.4,4-12.4,9.3-14,16.3c-1.2-5.1-2.3-10.2-3.3-15.4c0-0.1,0-0.1,0-0.2c-1.5-7.2-2.8-14.4-4.2-21.6
				C683.2,316,682.7,316.2,682.7,316.6z"/>
		</g>
		<g>
			<linearGradient id="SVGID_35_" gradientUnits="userSpaceOnUse" x1="158.7549" y1="416.7455" x2="137.3871" y2="278.341">
				<stop  offset="1.141830e-03" style="stop-color:#004432"/>
				<stop  offset="0.2715" style="stop-color:#00714F"/>
				<stop  offset="1" style="stop-color:#00E79A"/>
			</linearGradient>
			<path class="st40" d="M185.8,394.2c16.8-31,8.2-59.7-2.4-86.1c-2.7-6.7-6-13.4-11.2-18.5c-5.2-5-12.7-8.2-19.8-6.7
				c-8.1,1.7-14.1,9.1-15.8,17.1c-1.7,8.1,0.5,16.5,4.3,23.8c-2.6-2.9-5.3-5.9-8.8-7.6c-3.5-1.8-8-2.1-11.1,0.3
				c-4,3-4.2,8.9-3.5,13.9c1.3,10.1,4.7,20,9.8,28.9c-1.9-3.1-3.9-6.3-6.8-8.6c-2.9-2.3-6.8-3.6-10.3-2.4c-3.5,1.2-5.7,4.7-6.4,8.3
				c-0.7,3.6-0.1,7.3,1,10.8c13.3,44.1,58.3,49.3,58.3,49.3S175.7,413,185.8,394.2z"/>
			<path class="st27" d="M148.8,303.6c-0.1-0.3-0.7-0.2-0.5,0.2c6.1,21.6,12.7,42.6,16.3,64.8c3.7,22.6,4.2,45.2,6.2,67.9
				c0.1,1.1,1.5,1,1.6,0c2.1-22.1-1.1-45.2-5-66.9C163.3,347.4,158,324.3,148.8,303.6z"/>
		</g>
		<g>
			<linearGradient id="SVGID_36_" gradientUnits="userSpaceOnUse" x1="456.0438" y1="458.7724" x2="465.1123" y2="335.3003">
				<stop  offset="2.303690e-03" style="stop-color:#00D073"/>
				<stop  offset="1.703857e-02" style="stop-color:#01D175"/>
				<stop  offset="1" style="stop-color:#25FAEB"/>
			</linearGradient>
			<path class="st41" d="M463.4,426.2c32.1-14.5,42.6-42.6,50.1-70.1c1.9-7,3.3-14.3,2.2-21.5c-1.1-7.2-5.2-14.2-11.7-17.3
				c-7.4-3.6-16.8-1.3-22.9,4.1s-9.6,13.5-10.9,21.6c-0.3-3.9-0.7-7.9-2.4-11.4c-1.7-3.5-5.1-6.5-9-6.5c-5,0-8.7,4.6-11.2,9
				c-5.1,8.9-8.4,18.8-9.7,28.9c0.3-3.7,0.7-7.4-0.2-11c-0.9-3.6-3.2-7-6.7-8.1c-3.5-1.1-7.4,0.3-10.1,2.7c-2.7,2.5-4.5,5.8-5.8,9.2
				c-16.1,43.2,16.6,74.5,16.6,74.5S444,435,463.4,426.2z"/>
			<path class="st42" d="M471,380.1c14-4.2,26-15,33.8-27.1c0.1-0.2-0.2-0.4-0.3-0.2c-8.3,12.1-19.4,19.6-32.5,25.3
				c6.9-15,13-30.7,16.7-46.5c0.1-0.3-0.4-0.6-0.5-0.2c-8,20.5-15.4,40.9-25.6,60.4c-3.1-12.7-4.7-25.3-4.1-38.5
				c0-0.1-0.2-0.1-0.2,0c-0.7,13.1,0.4,26.5,3.9,39.2c-0.1,0.1-0.1,0.2-0.2,0.3c-5.4,10.3-11.5,20-17.8,29.7
				c-8.6-15.7-13.1-34-11.4-51.9c0-0.1-0.1-0.1-0.1,0c-1.7,18.6,1.3,36.6,10.4,53.1c0.1,0.1,0.1,0.2,0.2,0.2
				c-5.8,8.9-11.7,17.7-17.4,26.8c-0.6,0.9,0.6,1.7,1.3,1c10.9-11.9,19.9-25.9,27.9-40.2c15.5-6.3,31.3-14,41.8-27.5
				c0.2-0.2-0.1-0.5-0.3-0.3c-10.5,13.2-25.6,19.8-40.7,26.3c2.7-4.9,5.3-9.8,7.7-14.7C466.1,390.3,468.6,385.2,471,380.1z"/>
		</g>
		<g>
			
				<linearGradient id="SVGID_37_" gradientUnits="userSpaceOnUse" x1="427.2152" y1="440.0833" x2="394.8101" y2="385.3486" gradientTransform="matrix(1.1216 -0.377 0.1821 1.0245 -159.7232 129.0421)">
				<stop  offset="0" style="stop-color:#009C9C"/>
				<stop  offset="1" style="stop-color:#4FFA5F"/>
			</linearGradient>
			<path class="st43" d="M407.7,424.1c-10.4-6.3-25.9-11.2-38.5-16.8c-16.4-7.3-22.7-22.2-16.3-29.6c6.4-7.4,22-5,32,7.2
				C397.7,400.5,407.7,424.1,407.7,424.1z"/>
			<path class="st44" d="M409.9,426.7c-15.1-15.6-31.3-30.2-47.6-44.5c-0.1-0.1-0.3,0.1-0.2,0.2c15.9,14.9,31.9,29.6,46.9,45.2
				C409.3,427.3,409.6,427,409.9,426.7z"/>
		</g>
		<g>
			
				<linearGradient id="SVGID_38_" gradientUnits="userSpaceOnUse" x1="415.2709" y1="418.1901" x2="375.0425" y2="350.2413" gradientTransform="matrix(1.0734 0.4979 -0.5725 0.8689 199.4668 -150.8002)">
				<stop  offset="0" style="stop-color:#009C9C"/>
				<stop  offset="1" style="stop-color:#4FFA5F"/>
			</linearGradient>
			<path class="st45" d="M408.6,430.9c-4-14.5-13.8-32.3-20.4-48.1c-8.5-20.6-1.5-39.4,10.6-40.6c12.1-1.2,24.1,14.3,22.7,33.8
				C419.8,401.1,408.6,430.9,408.6,430.9z"/>
			<path class="st44" d="M408.4,435.2c-0.2-27-2.4-54-4.8-80.7c0-0.2-0.3-0.1-0.3,0.1c1.6,27,3.4,53.9,3.6,80.8
				C407.3,435.3,407.8,435.2,408.4,435.2z"/>
		</g>
		<g>
			<linearGradient id="SVGID_39_" gradientUnits="userSpaceOnUse" x1="142.1556" y1="423.447" x2="88.6599" y2="345.8987">
				<stop  offset="0" style="stop-color:#009C9C"/>
				<stop  offset="1" style="stop-color:#4FFA5F"/>
			</linearGradient>
			<path class="st46" d="M157.1,424.1c-10.4-6.3-25.9-11.2-38.5-16.8c-16.4-7.3-22.7-22.2-16.3-29.6c6.4-7.4,22-5,32,7.2
				C147.1,400.5,157.1,424.1,157.1,424.1z"/>
			<path class="st44" d="M159.3,426.7c-15.1-15.6-31.3-30.2-47.6-44.5c-0.1-0.1-0.3,0.1-0.2,0.2c15.9,14.9,31.9,29.6,46.9,45.2
				C158.8,427.3,159,427,159.3,426.7z"/>
		</g>
		<g>
			
				<linearGradient id="SVGID_40_" gradientUnits="userSpaceOnUse" x1="238.1295" y1="512.0823" x2="197.9011" y2="444.1335" gradientTransform="matrix(1.0734 0.4979 -0.5725 0.8689 199.4668 -150.8002)">
				<stop  offset="0" style="stop-color:#009C9C"/>
				<stop  offset="1" style="stop-color:#00FAE8"/>
			</linearGradient>
			<path class="st47" d="M164.7,424.3c-4-14.5-13.8-32.3-20.4-48.1c-8.5-20.6-1.5-39.4,10.6-40.6c12.1-1.2,24.1,14.3,22.7,33.8
				C175.9,394.5,164.7,424.3,164.7,424.3z"/>
			<path class="st44" d="M164.5,428.6c-0.2-27-2.4-54-4.8-80.7c0-0.2-0.3-0.1-0.3,0.1c1.6,27,3.4,53.9,3.6,80.8
				C163.4,428.7,164,428.6,164.5,428.6z"/>
		</g>
		<g>
			
				<linearGradient id="SVGID_41_" gradientUnits="userSpaceOnUse" x1="202.4115" y1="369.3187" x2="294.1438" y2="369.3187" gradientTransform="matrix(0.9888 -0.1495 0.1495 0.9888 -55.7767 42.2267)">
				<stop  offset="0" style="stop-color:#008F9F"/>
				<stop  offset="1" style="stop-color:#47FAB0"/>
			</linearGradient>
			<path class="st48" d="M281.4,304.7c-28.4,11.4-94.2,58.3-71.8,130.9c0,0,40.7-10.4,55.7-54.2
				C275.4,352.2,281.5,319.1,281.4,304.7z"/>
			<path class="st49" d="M209.5,458.8c0.5-16.9,4.1-32.6,9.7-47.9c0,0,0.1,0,0.1,0c11.9-3.9,24-6,36.2-8.4c0.1,0,0.1-0.2,0-0.2
				c-12.1,0-24,2.6-35.4,6.2c0.1-0.2,0.2-0.5,0.3-0.7c6.3-1.8,12.5-4,19-5.6c6.1-1.4,12.4-2,18.5-3.4c0.3-0.1,0.3-0.5,0-0.5
				c-11.7-0.4-25.6,2.5-36.6,7.3c2.7-6.8,5.9-13.6,9.3-20.3c0.4-0.8,0.8-1.6,1.2-2.4c0,0,0,0,0,0c12.4-4.7,25.1-8.2,37.7-12.2
				c0.3-0.1,0.2-0.5-0.1-0.5c-12.4,1.6-24.6,5.6-36.2,10.2c0.8-1.5,1.5-3,2.3-4.5c12.1-4.2,23.8-9,36.1-12.8c0.1,0,0-0.1,0-0.1
				c-11.9,2.9-24,6.3-35.2,11.4c1.5-2.8,3.1-5.7,4.7-8.5c0.2-0.1,0.4-0.3,0.4-0.6c9.4-16.8,19.8-33,31.7-48.1
				c0.2-0.2-0.2-0.5-0.3-0.2c-10.2,12.3-19.4,25.3-27.7,38.8c0.1-7-2.6-15.1-6.1-20.8c-0.1-0.2-0.3,0-0.3,0.2c1.2,4,2.6,8,3.4,12.1
				c0.7,3.6,0.8,7.3,1.6,10.8c-0.9,1.5-1.8,3-2.7,4.5c-1.5-8.7-2.3-17.3-6.2-25.4c0-0.1-0.1,0-0.1,0c3.2,8.8,3.7,18.2,5.1,27.4
				c-4,6.9-7.8,13.9-11.5,20.9c-2.4,4.6-4.6,9.1-6.7,13.8c-1.2-3.5-3.6-6.5-5.3-9.8c-2-3.8-3.5-7.7-5-11.7c-0.3-0.9-1.7-0.7-1.8,0.2
				c-0.4,3.8,1.7,8.6,3.4,11.9c1.9,4,4.3,8.7,7.7,11.5c0,0,0.1,0,0.1,0.1c-7.9,18.1-13.2,36.9-12.8,57.3
				C207.6,459.8,209.4,459.8,209.5,458.8z"/>
		</g>
		<g>
			
				<linearGradient id="SVGID_42_" gradientUnits="userSpaceOnUse" x1="187.0956" y1="428.7126" x2="205.3098" y2="234.2004" gradientTransform="matrix(0.9918 0.1279 -0.1279 0.9918 53.9481 -20.1915)">
				<stop  offset="0" style="stop-color:#009C9C"/>
				<stop  offset="1" style="stop-color:#4FFA5F"/>
			</linearGradient>
			<path class="st50" d="M182.9,436.6c0,0-7.8-60.5-2.3-102.7c3.4-25.9,8.5-56.1,26.7-74.7c14.3-14.6,30.5-3.2,33.2,13.7
				c3.8,23.5-6.1,56.4-13.8,78.6C211.8,394.9,182.9,436.6,182.9,436.6z"/>
			<path class="st49" d="M236.6,294.1c-12,10.5-23.1,21.7-33.4,33.8c0.5-2.1,1-4.2,1.5-6.3c0,0,0,0,0,0
				c10.8-12.6,22.1-24.7,33.8-36.4c0,0,0-0.1,0-0.1c-11.7,10.7-22.7,22.1-33.2,34c4.6-19.1,10-38,15.5-56.9c0-0.1-0.2-0.2-0.2-0.1
				c-1.7,5.4-3.4,10.9-5,16.3c0.2-5.4,0.1-10.8-0.1-16.2c0-0.1-0.1,0-0.1,0c0.2,5.8,0.1,11.6-0.1,17.3c-6.4,21.1-12.2,42.3-16.7,64
				c-0.6-18.7-2.5-37.3-5.1-55.8c0-0.1-0.1,0-0.1,0c2.5,19.3,3.9,38.7,4.7,58.1c-0.5,2.3-0.9,4.7-1.4,7c-0.4,2-0.7,3.9-1.1,5.9
				c-0.8-20.4-4-40.8-5.4-61.2c0-0.1-0.1-0.1-0.1,0c2,21.4,1.9,43.1,4.9,64.4c-5.5,29.1-11.2,58.3-14.8,87.6
				c-0.1,0.6,0.8,0.7,0.9,0.1c5-22.5,8.5-45.4,12.2-68.2c12.4-6.6,21.5-18.9,29.9-29.8c0.1-0.2-0.1-0.4-0.3-0.2
				c-8.8,11-17.9,20.7-29.4,28.7c0.4-2.4,0.8-4.8,1.2-7.2c12-9.9,22.1-21.7,31.1-34.3c0-0.1,0-0.1-0.1-0.1
				c-8.9,12.1-19.5,22.7-30.7,32.6c0.9-5.4,1.8-10.9,2.8-16.3c1.5-8.5,3.2-16.9,5.1-25.2c10.6-12.5,21.9-24.5,34-35.7
				C236.8,294.2,236.7,294,236.6,294.1z"/>
		</g>
		<g>
			<linearGradient id="SVGID_43_" gradientUnits="userSpaceOnUse" x1="597.1035" y1="467.2251" x2="664.3951" y2="328.4362">
				<stop  offset="0" style="stop-color:#009C9C"/>
				<stop  offset="1" style="stop-color:#4FFA5F"/>
			</linearGradient>
			<path class="st51" d="M675.8,320.7c-28.4,11.4-94.2,58.3-71.8,130.9c0,0,40.7-10.4,55.7-54.2C669.8,368.1,675.9,335,675.8,320.7z
				"/>
			<path class="st49" d="M603.8,474.7c0.5-16.9,4.1-32.6,9.7-47.9c0,0,0.1,0,0.1,0c11.9-3.9,24-6,36.2-8.4c0.1,0,0.1-0.2,0-0.2
				c-12.1,0-24,2.6-35.4,6.2c0.1-0.2,0.2-0.5,0.3-0.7c6.3-1.8,12.5-4,19-5.6c6.1-1.4,12.4-2,18.5-3.4c0.3-0.1,0.3-0.5,0-0.5
				c-11.7-0.4-25.6,2.5-36.6,7.3c2.7-6.8,5.9-13.6,9.3-20.3c0.4-0.8,0.8-1.6,1.2-2.4c0,0,0,0,0,0c12.4-4.7,25.1-8.2,37.7-12.2
				c0.3-0.1,0.2-0.5-0.1-0.5c-12.4,1.6-24.6,5.6-36.2,10.2c0.8-1.5,1.5-3,2.3-4.5c12.1-4.2,23.8-9,36.1-12.8c0.1,0,0-0.1,0-0.1
				c-11.9,2.9-24,6.3-35.2,11.4c1.5-2.8,3.1-5.7,4.7-8.5c0.2-0.1,0.4-0.3,0.4-0.6c9.4-16.8,19.8-33,31.7-48.1
				c0.2-0.2-0.2-0.5-0.3-0.2c-10.2,12.3-19.4,25.3-27.7,38.8c0.1-7-2.6-15.1-6.1-20.8c-0.1-0.2-0.3,0-0.3,0.2c1.2,4,2.6,8,3.4,12.1
				c0.7,3.6,0.8,7.3,1.6,10.8c-0.9,1.5-1.8,3-2.7,4.5c-1.5-8.7-2.3-17.3-6.2-25.4c0-0.1-0.1,0-0.1,0c3.2,8.8,3.7,18.2,5.1,27.4
				c-4,6.9-7.8,13.9-11.5,20.9c-2.4,4.6-4.6,9.1-6.7,13.8c-1.2-3.5-3.6-6.5-5.3-9.8c-2-3.8-3.5-7.7-5-11.7c-0.3-0.9-1.7-0.7-1.8,0.2
				c-0.4,3.8,1.7,8.6,3.4,11.9c1.9,4,4.3,8.7,7.7,11.5c0,0,0.1,0,0.1,0.1c-7.9,18.1-13.2,36.9-12.8,57.3
				C602,475.7,603.8,475.7,603.8,474.7z"/>
		</g>
		<g>
			
				<linearGradient id="SVGID_44_" gradientUnits="userSpaceOnUse" x1="459.1891" y1="439.3531" x2="550.9223" y2="439.3531" gradientTransform="matrix(-0.9995 -3.170000e-02 -3.170000e-02 0.9995 1075.3705 -27.9436)">
				<stop  offset="0" style="stop-color:#009C9C"/>
				<stop  offset="1" style="stop-color:#4FFA5F"/>
			</linearGradient>
			<path class="st52" d="M512.7,334.4c29.5,8,100.4,46.7,86.7,121.5c0,0-41.6-5.5-61.7-47.2C524.2,380.8,514.3,348.7,512.7,334.4z"
				/>
			<path class="st49" d="M602.3,478.9c-2.5-16.7-7.9-31.9-15.3-46.4c0,0-0.1,0-0.1,0c-12.3-2.4-24.5-3.1-37-4c-0.1,0-0.1-0.2,0-0.2
				c12-1.4,24.1-0.2,35.9,2c-0.1-0.2-0.2-0.5-0.3-0.7c-6.5-1.1-12.9-2.5-19.5-3.3c-6.2-0.7-12.5-0.5-18.7-1.2
				c-0.3,0-0.4-0.5-0.1-0.5c11.6-1.8,25.7-0.5,37.2,2.9c-3.5-6.5-7.4-12.8-11.7-19.1c-0.5-0.7-1-1.5-1.5-2.2c0,0,0,0,0,0
				c-12.9-3.2-25.8-5.2-38.8-7.7c-0.3-0.1-0.2-0.5,0.1-0.5c12.5,0.1,25.1,2.6,37.2,5.8c-0.9-1.4-1.9-2.8-2.8-4.1
				c-12.5-2.8-24.7-6.1-37.3-8.4c-0.1,0-0.1-0.1,0-0.1c12.1,1.5,24.6,3.5,36.3,7.1c-1.9-2.6-3.7-5.3-5.6-7.9
				c-0.2-0.1-0.4-0.3-0.4-0.6c-11.3-15.5-23.5-30.4-37.2-44c-0.2-0.2,0.1-0.5,0.3-0.3c11.6,11,22.2,22.8,32.1,35.3
				c-1-7,0.8-15.3,3.6-21.3c0.1-0.2,0.3,0,0.3,0.1c-0.7,4.1-1.6,8.2-2,12.4c-0.3,3.6,0.1,7.3-0.3,10.9c1.1,1.4,2.2,2.8,3.2,4.2
				c0.4-8.8,0.2-17.5,3.2-26c0-0.1,0.1,0,0.1,0c-2.2,9.1-1.5,18.5-1.8,27.8c4.8,6.4,9.4,12.8,13.9,19.4c2.9,4.2,5.7,8.5,8.3,12.9
				c0.8-3.6,2.8-6.9,4.1-10.3c1.5-4,2.5-8.1,3.6-12.2c0.2-0.9,1.6-0.9,1.8,0c0.9,3.7-0.7,8.7-1.9,12.2c-1.5,4.2-3.2,9.1-6.3,12.3
				c0,0-0.1,0.1-0.1,0.1c10,17.1,17.4,35.1,19.4,55.3C604.2,479.7,602.5,479.9,602.3,478.9z"/>
		</g>
		<g>
			
				<linearGradient id="SVGID_45_" gradientUnits="userSpaceOnUse" x1="603.6871" y1="496.3783" x2="571.2806" y2="441.6413" gradientTransform="matrix(0.3265 1.1373 -1.0316 0.1361 963.3928 -340.4222)">
				<stop  offset="0" style="stop-color:#009C9C"/>
				<stop  offset="1" style="stop-color:#4FFA5F"/>
			</linearGradient>
			<path class="st53" d="M642.8,421.5c6.7-10.1,12.4-25.4,18.5-37.8c8-16.1,23.2-21.7,30.3-15c7.1,6.7,4,22.2-8.6,31.7
				C666.9,412.6,642.8,421.5,642.8,421.5z"/>
			<path class="st44" d="M640.1,423.6c16.3-14.4,31.6-29.9,46.6-45.5c0.1-0.1-0.1-0.3-0.2-0.2c-15.6,15.2-31,30.5-47.3,44.9
				C639.5,423.1,639.8,423.3,640.1,423.6z"/>
		</g>
		<g>
			
				<linearGradient id="SVGID_46_" gradientUnits="userSpaceOnUse" x1="559.1002" y1="351.6636" x2="518.8707" y2="283.7129" gradientTransform="matrix(1.1517 0.2715 -0.3859 0.9664 89.8186 -67.4258)">
				<stop  offset="0" style="stop-color:#009C9C"/>
				<stop  offset="1" style="stop-color:#00FAE8"/>
			</linearGradient>
			<path class="st54" d="M603.1,435c-6.8-13.4-20-28.8-29.6-43c-12.5-18.5-9.4-38.3,2.2-41.9c11.6-3.6,26.5,9.1,29.1,28.5
				C608.1,403.6,603.1,435,603.1,435z"/>
			<path class="st44" d="M603.7,439.2c-5.7-26.4-13.2-52.4-21-78.1c-0.1-0.2-0.4-0.1-0.3,0.1c7,26.1,14.2,52.1,19.9,78.5
				C602.7,439.5,603.2,439.4,603.7,439.2z"/>
		</g>
		<g>
			
				<linearGradient id="SVGID_47_" gradientUnits="userSpaceOnUse" x1="462.515" y1="383.1662" x2="422.284" y2="315.2129" gradientTransform="matrix(0.4198 1.1063 -1.0167 0.2213 686.0114 -176.8407)">
				<stop  offset="0" style="stop-color:#009C9C"/>
				<stop  offset="1" style="stop-color:#4FFA5F"/>
			</linearGradient>
			<path class="st55" d="M484.5,429.9c7.3-13.2,12.7-32.7,19-48.6c8.3-20.7,26.5-29.3,36-21.7c9.5,7.6,7.2,27-7.4,40
				C513.3,416.4,484.5,429.9,484.5,429.9z"/>
			<path class="st44" d="M481.4,432.8c18.7-19.4,36-40.3,53-61.1c0.1-0.2-0.1-0.3-0.3-0.2c-17.7,20.4-35.2,40.9-53.9,60.4
				C480.6,432.1,481,432.4,481.4,432.8z"/>
		</g>
		<radialGradient id="SVGID_48_" cx="751.3141" cy="-9.6625" r="709.8712" gradientUnits="userSpaceOnUse">
			<stop  offset="2.684290e-03" style="stop-color:#D1FAA8"/>
			<stop  offset="1" style="stop-color:#E5FA51;stop-opacity:0"/>
		</radialGradient>
		<rect x="93.8" y="27" class="st56" width="628.6" height="381.2"/>
		<linearGradient id="SVGID_49_" gradientUnits="userSpaceOnUse" x1="592.1932" y1="-61.1762" x2="331.9984" y2="292.5119">
			<stop  offset="3.465540e-03" style="stop-color:#EAFAC0"/>
			<stop  offset="0.9988" style="stop-color:#DAFAD9;stop-opacity:0"/>
		</linearGradient>
		<path class="st57" d="M723.8-34.1L425.9,477.5H241.3L680.7-34.1H723.8z M754.7-17.8L465.8,511.6l50,4L766.9-12.9L754.7-17.8z
			 M278.7-40.9L90,148.7l-3.5,73c0,0,218.4-247.1,219.8-250.4L278.7-40.9z M343.8-27.6L63.4,316.7L97,346.1L373.1-27.6H343.8z
			 M482.5-27.6C478-24.3,80.7,420,80.7,420l82.7,53.1L505.1-34.1L482.5-27.6z"/>
	</g>
</g>
<g id="DESIGNED_BY_FREEPIK">
</g>
</svg>
