<?xml version="1.0" encoding="utf-8"?>
<!-- Generator: Adobe Illustrator 24.1.2, SVG Export Plug-In . SVG Version: 6.00 Build 0)  -->
<svg version="1.1" id="Layer_1" xmlns="http://www.w3.org/2000/svg" xmlns:xlink="http://www.w3.org/1999/xlink" x="0px" y="0px"
	 viewBox="0 0 3417 1351" style="enable-background:new 0 0 3417 1351;" xml:space="preserve">
<style type="text/css">
	.st0{fill:#EA9E2D;}
	.st1{fill:#9B5D00;}
	.st2{opacity:0.49;fill:#C9782C;enable-background:new    ;}
	.st3{opacity:0.5;}
	.st4{fill:#C9782C;}
	.st5{fill:#EA9E2D;stroke:#EA9E2D;}
	.st6{fill:#672525;stroke:#EA9E2D;stroke-width:39;stroke-linejoin:round;}
	.st7{fill-rule:evenodd;clip-rule:evenodd;fill:#3B0B0B;}
	.st8{fill:#672525;stroke:#EA9E2D;stroke-width:38;}
	.st9{fill:#885100;}
	.st10{opacity:0.5;fill:#CD6632;enable-background:new    ;}
	.st11{fill:#3C0B0B;}
	.st12{fill:#3B0B0B;}
	.st13{fill:#FDDCCB;}
	.st14{fill:#672525;}
	.st15{opacity:0.8;}
	.st16{fill:#CD6632;}
</style>
<g>
	<path class="st0" d="M2688.4,616.9c23.3-17.6,38.9-44,42.9-72.5c3.5-24.1-0.9-48-12.6-69.2c-10.9-19.7-27.2-35.3-47.3-45.3
		c-7.4-20.6-20.6-38.3-38.4-51.5c-19.1-14.1-41.8-21.6-65.5-21.6s-46.4,7.5-65.5,21.6c-17.8,13.1-31,30.9-38.4,51.5
		c-20.1,10-36.3,25.5-47.3,45.3c-11.7,21.2-16.1,45.1-12.7,69.2c3.8,27.2,17.8,51.9,39.3,69.6c5.7,4.7,8.9,11.9,8.5,19.4l-1.9,33.5
		c-3.9-7.1-6.6-14.1-8.4-19.9c-0.7-2.4-4.3-1.8-4.2,0.7c0.2,13.6,2.2,35.3,10.2,61.5l-1.1,18.5c-5.1-7.6-8.3-15.5-10.2-21.7
		c-0.6-1.9-3.4-1.4-3.4,0.6c0.2,12.6,2.3,33.6,11.4,59l-18.2,315.4c-0.5,9.4,6.9,17.3,16.3,17.3h250.5c9.5,0,16.9-8,16.3-17.4
		l-29.5-443.6C2678.7,629.2,2682.1,621.7,2688.4,616.9z"/>
	<path class="st1" d="M2426.8,1060.3c25.8-26.8,64.7-80.4,69-120.2c5.2-47.7,74.2-11.8,78.9-48.8c4.2-33.8,92.7-57.5,113.9-112.7
		c-0.9-15.3-1.9-26-2.5-37.1c-2.9,3.7-13.7,9.6-18.8,17.3c-20.8,31.4-111.4,17.2-117.1,45.6c-5.7,28.5-61.6-2.7-64.8,20.5
		c-1.4,10.2-35.1,28.7-47.1,33.4C2433.1,941.6,2428.8,1027.4,2426.8,1060.3z"/>
	<path class="st2" d="M2563.4,654.8c15.8,0,31.5-2.3,45.4-6.9c3.3-1.1,4.9-4.5,3.8-7.7c-1.1-3.3-4.5-4.9-7.7-3.8
		c-25.1,8.3-57.9,8.3-83.7,0c-3.3-1.1-6.7,0.7-7.7,3.9c-1.1,3.3,0.7,6.7,3.9,7.7C2531.7,652.5,2547.6,654.8,2563.4,654.8z"/>
	<g class="st3">
		<path class="st4" d="M2442.9,614c2.3,1.9,4.3,4.3,5.7,6.9l0.5-8.1c0.4-7.2-2.7-14.2-8.2-18.7c-20.7-17-34.2-40.8-37.8-67
			c-0.2-1.2-0.3-2.3-0.4-3.5c-0.3,6.8,0,13.8,1,20.7C2407.4,571.6,2421.4,596.3,2442.9,614z"/>
	</g>
	<path class="st2" d="M2688.4,617.1c23.3-17.6,38.9-44,42.9-72.5c2-14,1.4-27.9-1.8-41.3c-0.7-2.9-4.9-2.4-5,0.5
		c-0.1,4.8-0.6,9.5-1.3,14.3c-4.6,32.6-22.4,62.8-49.1,83c-7.2,5.5-11.1,14.1-10.5,23.1l26.9,473.9h1.9c9.5,0,17-8,16.3-17.5
		l-29.5-443.3C2678.7,629.4,2682.1,621.9,2688.4,617.1z"/>
</g>
<g>
	<path class="st0" d="M2100.8,621.1c23.3-17.6,38.9-44,42.9-72.5c3.5-24.1-0.9-48-12.6-69.2c-10.9-19.7-27.2-35.3-47.3-45.3
		c-7.4-20.6-20.6-38.3-38.4-51.5c-19.1-14.1-41.8-21.6-65.5-21.6c-23.7,0-46.4,7.5-65.5,21.6c-17.8,13.1-31,30.9-38.4,51.5
		c-20.1,10-36.3,25.5-47.3,45.3c-11.7,21.2-16.1,45.1-12.7,69.2c3.8,27.2,17.8,51.9,39.3,69.6c5.7,4.7,8.9,11.9,8.5,19.4l-1.9,33.5
		c-3.9-7.1-6.6-14.1-8.4-19.9c-0.7-2.4-4.3-1.8-4.2,0.7c0.2,13.6,2.2,35.3,10.2,61.5l-1.1,18.5c-5.1-7.6-8.3-15.5-10.2-21.7
		c-0.6-1.9-3.4-1.4-3.4,0.6c0.2,12.6,2.3,33.6,11.4,59L1838,1085c-0.5,9.4,6.9,17.3,16.3,17.3h250.5c9.5,0,16.9-8,16.3-17.4
		l-29.5-443.6C2091.1,633.4,2094.5,625.9,2100.8,621.1z"/>
	<path class="st1" d="M1839.2,1064.5c25.8-26.8,64.7-80.4,69-120.2c5.2-47.7,74.2-11.8,78.9-48.8c4.2-33.8,92.7-57.5,113.9-112.7
		c-0.9-15.3-1.9-26-2.5-37.1c-2.9,3.7-13.7,9.6-18.8,17.3c-20.8,31.4-111.4,17.2-117.1,45.6c-5.7,28.5-61.6-2.7-64.8,20.5
		c-1.4,10.2-35.1,28.7-47.1,33.4C1845.5,945.8,1841.2,1031.6,1839.2,1064.5z"/>
	<path class="st2" d="M1975.8,659c15.8,0,31.5-2.3,45.4-6.9c3.3-1.1,4.9-4.5,3.8-7.7c-1.1-3.3-4.5-4.9-7.7-3.8
		c-25.1,8.3-57.9,8.3-83.7,0c-3.3-1.1-6.7,0.7-7.7,3.9c-1.1,3.3,0.7,6.7,3.9,7.7C1944.1,656.7,1960,659,1975.8,659z"/>
	<g class="st3">
		<path class="st4" d="M1855.3,618.2c2.3,1.9,4.3,4.3,5.7,6.9l0.5-8.1c0.4-7.2-2.7-14.2-8.2-18.7c-20.7-17-34.2-40.8-37.8-67
			c-0.2-1.2-0.3-2.3-0.4-3.5c-0.3,6.8,0,13.8,1,20.7C1819.8,575.8,1833.8,600.5,1855.3,618.2z"/>
	</g>
	<path class="st2" d="M2100.8,621.3c23.3-17.6,38.9-44,42.9-72.5c2-14,1.4-27.9-1.8-41.3c-0.7-2.9-4.9-2.4-5,0.5
		c-0.1,4.8-0.6,9.5-1.3,14.3c-4.6,32.6-22.4,62.8-49.1,83c-7.2,5.5-11.1,14.1-10.5,23.1l26.9,473.9h1.9c9.5,0,17-8,16.3-17.5
		l-29.5-443.3C2091.1,633.6,2094.5,626.1,2100.8,621.3z"/>
</g>
<g>
	<path class="st0" d="M1536.8,629.1c23.3-17.6,38.9-44,42.9-72.5c3.5-24.1-0.9-48-12.6-69.2c-10.9-19.7-27.2-35.3-47.3-45.3
		c-7.4-20.6-20.6-38.3-38.4-51.5c-19.1-14.1-41.8-21.6-65.5-21.6c-23.7,0-46.4,7.5-65.5,21.6c-17.8,13.1-31,30.9-38.4,51.5
		c-20.1,10-36.3,25.5-47.3,45.3c-11.7,21.2-16.1,45.1-12.7,69.2c3.8,27.2,17.8,51.9,39.3,69.6c5.7,4.7,8.9,11.9,8.5,19.4l-1.9,33.5
		c-3.9-7.1-6.6-14.1-8.4-19.9c-0.7-2.4-4.3-1.8-4.2,0.7c0.2,13.6,2.2,35.3,10.2,61.5l-1.1,18.5c-5.1-7.6-8.3-15.5-10.2-21.7
		c-0.6-1.9-3.4-1.4-3.4,0.6c0.2,12.6,2.3,33.6,11.4,59L1274,1093c-0.5,9.4,6.9,17.3,16.3,17.3h250.5c9.5,0,16.9-8,16.3-17.4
		l-29.5-443.6C1527.1,641.4,1530.5,633.9,1536.8,629.1z"/>
	<path class="st1" d="M1275.2,1072.5c25.8-26.8,64.7-80.4,69-120.2c5.2-47.7,74.2-11.8,78.9-48.8c4.2-33.8,92.7-57.5,113.9-112.7
		c-0.9-15.3-1.9-26-2.5-37.1c-2.9,3.7-13.7,9.6-18.8,17.3c-20.8,31.4-111.4,17.2-117.1,45.6c-5.7,28.5-61.6-2.7-64.8,20.5
		c-1.4,10.2-35.1,28.7-47.1,33.4C1281.5,953.7,1277.2,1039.6,1275.2,1072.5z"/>
	<path class="st2" d="M1411.8,667c15.8,0,31.5-2.3,45.4-6.9c3.3-1.1,4.9-4.5,3.8-7.7c-1.1-3.3-4.5-4.9-7.7-3.8
		c-25.1,8.3-57.9,8.3-83.7,0c-3.3-1.1-6.7,0.7-7.7,3.9c-1.1,3.3,0.7,6.7,3.9,7.7C1380.1,664.7,1396,667,1411.8,667z"/>
	<g class="st3">
		<path class="st4" d="M1291.3,626.2c2.3,1.9,4.3,4.3,5.7,6.9l0.5-8.1c0.4-7.2-2.7-14.2-8.2-18.7c-20.7-17-34.2-40.8-37.8-67
			c-0.2-1.2-0.3-2.3-0.4-3.5c-0.3,6.8,0,13.8,1,20.7C1255.8,583.8,1269.8,608.5,1291.3,626.2z"/>
	</g>
	<path class="st2" d="M1536.8,629.3c23.3-17.6,38.9-44,42.9-72.5c2-14,1.4-27.9-1.8-41.3c-0.7-2.9-4.9-2.4-5,0.5
		c-0.1,4.8-0.6,9.5-1.3,14.3c-4.6,32.6-22.4,62.8-49.1,83c-7.2,5.5-11.1,14.1-10.5,23.1l26.9,473.9h1.9c9.5,0,17-8,16.3-17.5
		l-29.5-443.3C1527.1,641.6,1530.5,634.1,1536.8,629.3z"/>
</g>
<path class="st0" d="M945.9-698.8h194.5l37.3,560.3H913.5L945.9-698.8z"/>
<path class="st1" d="M1163.4-343.7c-11.1-4.4-40.4-21.2-41.7-30.6c-2.9-21.4-51.9-23.2-57.1-49.4c-5.3-26.2-96.3-0.5-115.5-29.4
	c-4.7-7.1-13.7-12.2-16.4-15.5c-0.5,10.2-1.2,20.2-2,34.2c19.5,50.8,107.5,59.8,111.4,90.8c4.3,34.1,65.3,31.6,70.1,75.6
	c4,36.7,39.8,86.1,63.5,110.7C1173.9-187.7,1168.3-267,1163.4-343.7z"/>
<rect x="928.7" y="-897.4" class="st5" width="223.3" height="137.3"/>
<path class="st6" d="M1029.6-626.6L1029.6-626.6c-14.9,8-32.6,11.5-51.1,8.6 M1029.6-626.6l83.8,8.6c34.7-5.4,62.4-33.5,67.3-68.3
	l0,0c5.8-40.9-19.3-77.1-55.3-88.7c-7.3-37.2-40.1-65.3-79.4-65.3c-39.3,0-72.2,28.1-79.4,65.3c-36,11.6-61,47.8-55.3,88.7
	 M1029.6-626.6c10.2-5.5,22.5-5.5,32.7,0l0,0 M1029.6-626.6h32.7 M978.5-618l3-19.3L978.5-618z M978.5-618
	c-34.7-5.4-62.4-33.5-67.3-68.3 M911.2-686.3l19.3-2.7L911.2-686.3z M1062.3-626.6c14.9,8,32.6,11.5,51.1,8.6L1062.3-626.6z"/>
<path class="st7" d="M1107.5-760c0,0.1,0,0.1,0,0.2c33.6,3.7,59,34.4,54,70c-2.3,16.5-11.5,31.1-24.6,40.7
	c9.2-9.2,15.4-21.2,17.3-34.5c5-35.5-20.4-66.3-54-70c0-0.1,0-0.1,0-0.2c0-0.1,0-0.1,0-0.2c0-33.9-27.5-61.4-61.4-61.4
	c-8.1,0-16.4,0.8-24.5,2.6c9.3-5.6,20.1-8.8,31.8-8.8c33.9,0,61.4,27.5,61.4,61.4C1107.5-760.1,1107.5-760.1,1107.5-760z"/>
<path class="st8" d="M922.2-752.3c12.6-10.2,16.7-25.4,15.9-39.2c-0.8-13.9-6.6-28-16.3-39.9c-9.6-11.9-22.3-20.5-35.7-24.2
	c-13.3-3.7-29.1-2.8-41.7,7.4c-12.5,10.2-16.7,25.4-15.9,39.2c0.8,13.9,6.6,28,16.3,39.9c9.6,11.9,22.3,20.5,35.7,24.2
	C893.9-741.2,909.7-742.1,922.2-752.3z"/>
<path class="st7" d="M907.2-820.2c14.8,18.3,16.3,41.8,3.2,52.4c-1.1,0.9-2.2,1.7-3.5,2.3c8.8-11.8,6.2-32.1-7-48.4
	c-13.6-16.8-33.8-23.5-47.1-16.3c1.1-1.5,2.4-2.8,3.8-3.9C869.7-844.8,892.4-838.6,907.2-820.2z"/>
<path class="st8" d="M1168.7-752.3c-12.5-10.2-16.7-25.4-15.9-39.2c0.8-13.9,6.6-28,16.3-39.9c9.6-11.9,22.3-20.5,35.7-24.2
	c13.3-3.7,29.1-2.8,41.7,7.4c12.5,10.2,16.7,25.4,15.9,39.2c-0.8,13.9-6.6,28-16.3,39.9c-9.6,11.9-22.3,20.5-35.7,24.2
	S1181.3-742.1,1168.7-752.3z"/>
<path class="st7" d="M1187.8-824.5c13.5-9.7,29.4-11.6,39.5-3.4c13.1,10.6,11.7,34.1-3.2,52.4c-1.2,1.5-2.5,3-3.8,4.3
	c4-2.9,7.7-6.4,11.1-10.6c14.8-18.3,16.3-41.8,3.2-52.4C1222.6-843.9,1202.5-839.5,1187.8-824.5z"/>
<path class="st8" d="M1029.6-908.1c-3.7-17.8-12.1-33.8-23.5-45c-11.3-11.1-27.5-19.1-45.5-15.4c-17.9,3.8-29.6,17.6-35.4,32.3
	c-6,14.9-7.2,32.9-3.4,50.7s12.1,33.8,23.5,45c11.3,11.1,27.5,19.1,45.4,15.4c17.9-3.8,29.6-17.6,35.4-32.3
	C1032.2-872.4,1033.4-890.3,1029.6-908.1z"/>
<path class="st7" d="M964.7-950.8c19.5-4.1,40.3,16.4,46.4,45.7c5.3,25.2-2,48.8-16.5,57.5c9.5-11.2,13.6-30.7,9.3-51.2
	c-6.2-29.3-26.9-49.8-46.4-45.7c-2.7,0.6-5.3,1.6-7.7,3C953.9-946.3,958.9-949.6,964.7-950.8z"/>
<path class="st8" d="M1061.7-908.1c3.7-17.8,12.1-33.8,23.5-45c11.3-11.1,27.5-19.1,45.4-15.4c17.9,3.8,29.6,17.6,35.5,32.3
	c5.9,14.9,7.2,32.9,3.4,50.7c-3.8,17.8-12,33.8-23.5,45c-11.3,11.1-27.5,19.1-45.4,15.4c-17.9-3.8-29.6-17.6-35.5-32.3
	C1059.2-872.4,1057.9-890.3,1061.7-908.1z"/>
<path class="st7" d="M1097.4-939.3c7-4.8,14.6-6.8,22.1-5.3c19.5,4.1,30.3,31.2,24.2,60.5c-2.9,14-9.2,25.9-17,34.2
	c11.2-7.7,20.5-22.4,24.3-40.4c6.1-29.3-4.7-56.4-24.2-60.5C1116.6-952.9,1106.1-948.3,1097.4-939.3z"/>
<path class="st9" d="M1041.8-571.9c15.8,0,31.5-2.3,45.4-6.9c3.3-1.1,4.9-4.5,3.8-7.7c-1.1-3.3-4.5-4.9-7.8-3.8
	c-25.2,8.3-57.9,8.3-83.7,0c-3.3-1.1-6.7,0.7-7.7,3.9c-1.1,3.3,0.7,6.7,3.9,7.7C1010.1-574.2,1026-571.9,1041.8-571.9z"/>
<path class="st0" d="M1537.9-693.6h194.5l37.3,560.3h-264.2L1537.9-693.6z"/>
<path class="st1" d="M1755.4-338.6c-11.1-4.4-40.4-21.2-41.7-30.6c-2.9-21.4-51.8-23.2-57.1-49.4c-5.3-26.2-96.3-0.5-115.5-29.4
	c-4.7-7.1-13.7-12.2-16.4-15.5c-0.5,10.2-1.2,20.2-2,34.2c19.5,50.8,107.5,59.8,111.4,90.8c4.3,34.1,65.3,31.6,70.1,75.6
	c4,36.7,39.8,86.1,63.6,110.7C1765.9-182.6,1760.3-261.8,1755.4-338.6z"/>
<rect x="1520.8" y="-892.3" class="st5" width="223.3" height="137.3"/>
<path class="st6" d="M1621.6-621.5L1621.6-621.5c-14.9,8-32.6,11.5-51.1,8.6 M1621.6-621.5l83.8,8.6c34.7-5.4,62.4-33.5,67.3-68.3
	l0,0c5.8-40.9-19.3-77.1-55.3-88.7c-7.3-37.2-40.1-65.4-79.4-65.4c-39.4,0-72.2,28.1-79.4,65.4c-36,11.6-61.1,47.7-55.3,88.7
	 M1621.6-621.5c10.2-5.5,22.5-5.5,32.7,0l0,0 M1621.6-621.5h32.7 M1570.5-612.9l3-19.3L1570.5-612.9z M1570.5-612.9
	c-34.7-5.4-62.4-33.5-67.3-68.3 M1503.2-681.2l19.3-2.7L1503.2-681.2z M1654.3-621.5c14.9,8,32.6,11.5,51.1,8.6L1654.3-621.5z"/>
<path class="st7" d="M1699.5-754.9c0,0.1,0,0.1,0,0.2c33.6,3.7,59,34.4,54,70c-2.3,16.5-11.5,31.1-24.6,40.7
	c9.2-9.2,15.4-21.2,17.3-34.5c5-35.5-20.4-66.3-54-70c0-0.1,0-0.1,0-0.2c0-0.1,0-0.1,0-0.2c0-33.9-27.5-61.4-61.4-61.4
	c-8.1,0-16.4,0.8-24.5,2.6c9.3-5.6,20.1-8.8,31.7-8.8c33.9,0,61.4,27.5,61.4,61.4C1699.5-755,1699.5-754.9,1699.5-754.9z"/>
<path class="st8" d="M1493.5-737.5c16.1-0.7,28.5-9.8,36.1-20.7s11.4-24.7,10.9-38.9s-5.3-27.7-13.7-37.9
	c-8.3-10.2-21.4-18.3-37.5-17.7c-16.1,0.7-28.5,9.8-36.1,20.7s-11.4,24.7-10.9,38.9s5.3,27.7,13.7,37.9
	C1464.3-745,1477.4-736.9,1493.5-737.5z"/>
<path class="st7" d="M1521.6-796.8c0.8,21.6-11.8,39.7-28.2,40.3c-1.4,0.1-2.7,0-4-0.2c13.7-3.9,23.7-20.3,23-39.5
	c-0.7-19.8-12.4-35.7-27-37.7c1.7-0.5,3.5-0.8,5.2-0.8C1506.9-835.4,1520.8-818.4,1521.6-796.8z"/>
<path class="st8" d="M1783.8-737.5c-16.1-0.4-28.6-9.4-36.3-20.1c-7.7-10.8-11.6-24.5-11.2-38.7s5.1-27.7,13.4-38.1
	c8.3-10.3,21.3-18.6,37.4-18.2c16.1,0.4,28.6,9.4,36.3,20.1c7.7,10.8,11.6,24.5,11.2,38.7s-5.1,27.7-13.4,38.1
	C1812.8-745.4,1799.8-737.1,1783.8-737.5z"/>
<path class="st7" d="M1755.8-801.8c4.7-14.6,15.8-24.8,28.4-24.5c16.4,0.4,29.1,18.3,28.5,39.9c-0.1,1.8-0.2,3.6-0.4,5.3
	c1.4-4.3,2.2-9,2.3-13.9c0.6-21.6-12.1-39.5-28.5-39.9C1771.1-835.2,1758.3-820.8,1755.8-801.8z"/>
<path class="st8" d="M1625.8-890c1-17.1-2.9-33.6-11-46.6c-8-12.9-21.4-23.8-39.1-24.7c-17.6-0.9-32.2,8.5-41.7,20.5
	c-9.6,12.1-15.4,28.1-16.4,45.2c-1,17.1,2.9,33.6,11,46.6c8,12.9,21.4,23.8,39.1,24.7c17.6,0.9,32.2-8.5,41.7-20.5
	C1619-856.9,1624.8-872.9,1625.8-890z"/>
<path class="st7" d="M1575-943.1c19.3,1,33.7,24.1,32.1,51.5c-1.4,23.6-14.1,42.7-29.9,47c11.8-7.7,20.4-23.9,21.6-43.2
	c1.6-27.4-12.8-50.5-32.1-51.5c-2.7-0.1-5.4,0.2-8,0.9C1563.7-941.7,1569.2-943.4,1575-943.1z"/>
<path class="st8" d="M1639.5-890c-1-17.1,2.9-33.6,11-46.6c8.1-12.9,21.4-23.8,39.1-24.7c17.6-0.9,32.2,8.5,41.7,20.5
	c9.6,12.1,15.4,28.1,16.4,45.2c1,17.1-2.9,33.6-11,46.6c-8.1,12.9-21.4,23.8-39.1,24.7s-32.2-8.5-41.7-20.5
	C1646.3-856.9,1640.5-872.9,1639.5-890z"/>
<path class="st7" d="M1665.9-926c5.3-5.9,12-9.5,19.4-9.9c19.3-1,36.3,20.4,37.9,47.8c0.8,13.1-2.1,25.1-7.4,34.3
	c8.5-9.4,13.6-24.7,12.6-41.6c-1.6-27.4-18.6-48.8-37.9-47.8C1680.5-942.7,1671.7-936.1,1665.9-926z"/>
<path class="st9" d="M1633.8-566.7c15.8,0,31.5-2.3,45.4-6.9c3.3-1.1,4.9-4.5,3.8-7.7c-1.1-3.3-4.5-4.9-7.8-3.8
	c-25.2,8.3-57.9,8.3-83.7,0c-3.3-1.1-6.7,0.7-7.8,3.9c-1.1,3.3,0.7,6.7,3.9,7.7C1602.1-569,1618-566.7,1633.8-566.7z"/>
<path class="st0" d="M2123.2-698.8h194.6l37.3,560.3h-264.2L2123.2-698.8z"/>
<path class="st1" d="M2340.6-343.7c-11.1-4.4-40.4-21.2-41.7-30.6c-2.9-21.4-51.9-23.2-57.1-49.4c-5.3-26.2-96.3-0.5-115.5-29.4
	c-4.7-7.1-13.7-12.2-16.4-15.5c-0.5,10.2-1.2,20.2-2,34.2c19.5,50.8,107.5,59.8,111.4,90.8c4.3,34.1,65.3,31.6,70.1,75.6
	c4,36.7,39.8,86.1,63.6,110.7C2351.1-187.7,2345.6-267,2340.6-343.7z"/>
<rect x="2106" y="-881.4" class="st5" width="223.3" height="137.3"/>
<path class="st6" d="M2206.8-626.6L2206.8-626.6c-14.9,8-32.6,11.5-51.1,8.6 M2206.8-626.6l83.8,8.6c34.7-5.4,62.4-33.5,67.3-68.3
	l0,0c5.8-40.9-19.3-77.1-55.3-88.7c-7.3-37.2-40.1-65.3-79.4-65.3c-39.4,0-72.2,28.1-79.4,65.3c-36,11.6-61.1,47.8-55.3,88.7
	 M2206.8-626.6c10.2-5.5,22.6-5.5,32.7,0l0,0 M2206.8-626.6h32.8 M2155.7-618l3-19.3L2155.7-618z M2155.7-618
	c-34.7-5.4-62.4-33.5-67.3-68.3 M2088.4-686.3l19.3-2.7L2088.4-686.3z M2239.6-626.6c14.9,8,32.6,11.5,51.1,8.6L2239.6-626.6z"/>
<path class="st7" d="M2284.7-760c0,0.1,0,0.1,0,0.2c33.6,3.7,59,34.4,54,70c-2.3,16.5-11.5,31.1-24.6,40.7
	c9.1-9.2,15.4-21.2,17.3-34.5c5-35.5-20.4-66.3-54-70c0-0.1,0-0.1,0-0.2c0-0.1,0-0.1,0-0.2c0-33.9-27.5-61.4-61.4-61.4
	c-8.1,0-16.4,0.8-24.5,2.6c9.3-5.6,20.1-8.8,31.7-8.8c33.9,0,61.4,27.5,61.4,61.4C2284.8-760.1,2284.8-760.1,2284.7-760z"/>
<path class="st8" d="M2073.9-743.7c16.4,0.6,29.7-7,38.3-16.5c8.6-9.6,13.6-22.1,14.3-35.4c0.7-13.2-3.1-26.1-10.6-36.3
	c-7.6-10.1-20.1-18.8-36.4-19.4c-16.4-0.6-29.7,7-38.3,16.5c-8.6,9.6-13.6,22.1-14.3,35.3c-0.7,13.2,3,26.1,10.6,36.3
	C2045-753,2057.6-744.3,2073.9-743.7z"/>
<path class="st7" d="M2106.9-796.8c-1,19.9-15.1,35.6-31.4,35c-1.4-0.1-2.7-0.2-4-0.5c14-2.5,25.2-16.9,26.1-34.6
	c0.9-18.3-9.4-33.8-23.8-36.8c1.7-0.3,3.5-0.4,5.3-0.4C2095.4-833.4,2107.9-816.7,2106.9-796.8z"/>
<path class="st8" d="M2365.6-743.6c-16.3-0.4-29-8.8-36.8-18.8c-7.8-10.1-11.8-22.9-11.4-36.2c0.4-13.3,5.2-25.9,13.6-35.6
	c8.4-9.7,21.6-17.5,37.9-17.1c16.3,0.4,29,8.8,36.8,18.8c7.8,10.1,11.8,22.9,11.4,36.2c-0.4,13.3-5.2,25.9-13.6,35.6
	C2395.1-751,2382-743.3,2365.6-743.6z"/>
<path class="st7" d="M2337.7-803.7c4.7-13.5,15.8-22.9,28.4-22.6c16.4,0.4,29.1,16.9,28.5,36.8c0,1.7-0.2,3.3-0.4,4.9
	c1.4-4,2.2-8.3,2.3-12.8c0.6-20-12.2-36.4-28.5-36.8C2353-834.6,2340.2-821.3,2337.7-803.7z"/>
<path class="st8" d="M2211.2-896.5c1-16.3-3-32-11.3-44.2c-8.3-12.3-21.7-22.1-38.8-22.9c-17.2-0.8-31.7,7.7-41.5,19
	c-9.8,11.4-15.8,26.6-16.8,42.9s3,32,11.3,44.2c8.3,12.3,21.7,22.1,38.8,22.9c17.2,0.8,31.7-7.7,41.5-19
	C2204.2-865,2210.2-880.2,2211.2-896.5z"/>
<path class="st7" d="M2160.2-945.6c19.3,0.9,33.7,22.2,32.1,47.5c-1.4,21.8-14.1,39.4-29.9,43.4c11.8-7.1,20.4-22.1,21.6-39.9
	c1.6-25.3-12.8-46.6-32.1-47.5c-2.7-0.1-5.4,0.1-8,0.8C2148.9-944.3,2154.5-945.9,2160.2-945.6z"/>
<path class="st8" d="M2224.6-896.5c-1-16.3,3-32,11.3-44.2c8.3-12.3,21.7-22.1,38.8-22.9s31.7,7.7,41.5,19
	c9.8,11.4,15.8,26.6,16.8,42.9s-3,32-11.3,44.2c-8.3,12.3-21.7,22.1-38.8,22.9c-17.2,0.8-31.7-7.7-41.5-19
	C2231.7-865,2225.7-880.2,2224.6-896.5z"/>
<path class="st7" d="M2251.2-929.8c5.3-5.4,12-8.8,19.4-9.2c19.3-0.9,36.3,18.8,37.9,44.2c0.8,12.1-2.1,23.2-7.4,31.7
	c8.6-8.7,13.6-22.8,12.6-38.4c-1.6-25.3-18.6-45.1-37.9-44.2C2265.7-945.2,2257-939.1,2251.2-929.8z"/>
<path class="st9" d="M2219.1-571.9c15.8,0,31.5-2.3,45.4-6.9c3.3-1.1,4.9-4.5,3.8-7.7c-1.1-3.3-4.5-4.9-7.8-3.8
	c-25.1,8.3-57.9,8.3-83.7,0c-3.3-1.1-6.7,0.7-7.8,3.9c-1.1,3.3,0.7,6.7,3.9,7.7C2187.4-574.2,2203.3-571.9,2219.1-571.9z"/>
<g>
	<ellipse class="st0" cx="2157" cy="-931.8" rx="53.3" ry="43.1"/>
</g>
<g>
	<ellipse class="st0" cx="2281.7" cy="-931.8" rx="53.3" ry="43.1"/>
</g>
<g>
	<ellipse class="st0" cx="2384.8" cy="-820.3" rx="43.7" ry="38.7"/>
</g>
<g>
	<ellipse class="st0" cx="2061.8" cy="-820.3" rx="43.7" ry="38.7"/>
</g>
<image style="overflow:visible;enable-background:new    ;" width="626" height="626" xlink:href="cat-paw-flat-icons-set_97231-237.jpg"  transform="matrix(0.75 0 0 0.75 -844.6536 341.0377)">
</image>
<image style="overflow:visible;enable-background:new    ;" width="800" height="600" xlink:href="catpaw.png"  transform="matrix(1 0 0 1 -1058.8524 -300)">
</image>
<g class="st3">
	<path class="st4" d="M199.5-308.3c3.8,5.1,7.7,10,11.8,14.9c4.1,4.8,8.3,9.5,12.7,13.9s9,8.6,13.9,12.1c2.4,1.7,4.9,3.3,7.4,4.4
		s5,1.7,6.6,1.5c3-0.4,5.8,1.8,6.2,4.8c0.4,3-1.8,5.8-4.8,6.2c-0.4,0-0.8,0.1-1.1,0h-0.3c-2.3-0.2-4.5-0.7-6.3-1.5l-1.4-0.6
		c-0.4-0.2-0.8-0.4-1.3-0.7l-1.2-0.7l-1.1-0.7c-3-2-5.6-4.2-8-6.5c-4.8-4.7-8.9-9.7-12.7-14.9c-3.8-5.2-7.4-10.5-10.8-15.9
		C205.8-297.2,202.5-302.7,199.5-308.3z"/>
</g>
<g class="st3">
	<path class="st4" d="M-136.2-535.3l-19.7,72.1L-156-538c0-5.6,4.5-10.1,10.1-10.1s10.1,4.5,10.1,10.1
		C-135.8-537.1-136-536.1-136.2-535.3z"/>
</g>
<g class="st3">
	<path class="st4" d="M35.5-292.8L-24-247.5L21.3-307c3.4-4.4,9.7-5.3,14.1-1.9s5.3,9.7,1.9,14.1C36.8-294,36.1-293.4,35.5-292.8z"
		/>
</g>
<g class="st3">
	<path class="st4" d="M167.2-355.1c4.6,4.4,9.1,8.9,13.4,13.6c4.3,4.7,8.5,9.5,12.5,14.5c4,5.1,7.8,10.3,11,16.2
		c1.6,2.9,3.1,6,4.2,9.5l0.4,1.3l0.3,1.4c0.1,0.5,0.2,0.9,0.3,1.4l0.2,1.5c0.3,2,0.2,4.2-0.2,6.4v0.2c-0.6,3-3.4,5-6.4,4.5
		c-3-0.6-5-3.4-4.5-6.4c0.1-0.4,0.2-0.8,0.3-1.1c0.6-1.5,0.7-4.1,0.3-6.8c-0.4-2.7-1.3-5.5-2.3-8.3c-2.1-5.6-5-11.2-8.1-16.6
		s-6.5-10.7-10.1-15.9C174.9-345,171.1-350.1,167.2-355.1z"/>
</g>
<g class="st3">
	<path class="st4" d="M467.6-279.7l45.3,59.4l-59.4-45.3c-4.4-3.4-5.3-9.7-1.9-14.1s9.7-5.3,14.1-1.9
		C466.5-281.1,467.1-280.4,467.6-279.7z"/>
</g>
<path class="st10" d="M305.3-386.3c-0.5-0.8-1.7-0.3-1.5,0.6c2.2,10.1,3.6,18.2,13.4,31c7.5,9.9,16,15.2,24.2,19.6
	c1.6,0.8,3.2-1.2,1.9-2.5C329.6-352.4,314.9-370.1,305.3-386.3z"/>
<path class="st10" d="M118.9-651.5c-1-17.8-8.3-35.8-20.5-50.7c-12.1-15-28.2-25.8-45.4-30.6c-21.4-6-42.8-2-58.7,10.9
	C-21.5-709-29.9-689-28.6-666.8c1,17.8,8.3,35.8,20.5,50.7c12.1,15,28.2,25.8,45.4,30.6c6.5,1.8,13,2.7,19.3,2.7
	c14.6,0,28.3-4.7,39.4-13.6l0,0C111.9-609.2,120.2-629.3,118.9-651.5z"/>
<path class="st0" d="M81.1-540.2c16.8-27.6,24.6-62,21.9-96.9c-2.6-34.8-15.4-67.7-36.2-92.5C41-760.6,5-776.8-32.2-774
	c-36.9,2.8-70.1,24.1-91.1,58.5c-16.8,27.6-24.6,62-21.8,96.9c2.6,34.8,15.4,67.7,36.2,92.6c7.8,9.4,16.6,17.4,26.1,23.9
	c21.7,15,47,22.3,72.8,20.4l0,0C26.9-484.5,60.1-505.8,81.1-540.2z"/>
<path class="st0" d="M156.5-594.4c-7.6-31.4-26.5-61.3-53-83.9c-26.4-22.8-58.8-37-91-39.9c-40.1-3.7-77.1,10.4-101.3,38.6
	c-24.1,28-32.5,66.6-23,105.7c7.6,31.4,26.5,61.2,53,83.9c26.4,22.8,58.8,37,91,39.9c12.2,1.1,24,0.6,35.3-1.5
	c26-4.7,49-17.5,65.9-37.1l0,0C157.6-516.7,166-555.3,156.5-594.4z"/>
<path class="st10" d="M300.9-161.8c-0.2,0.9,1,1.4,1.5,0.6c5.6-8.7,10.4-15.4,12.5-31.4c1.6-12.3-0.6-22-3.3-31
	c-0.5-1.7-3.1-1.4-3.1,0.4C307.6-202.9,305.6-180,300.9-161.8z"/>
<path class="st10" d="M446.6-322.9c-0.8,0.5-0.3,1.7,0.6,1.5c10.1-2.2,18.2-3.6,31-13.4c9.9-7.5,15.2-16,19.6-24.2
	c0.8-1.6-1.2-3.2-2.5-1.9C480.5-347.2,462.8-332.5,446.6-322.9z"/>
<g>
	<path class="st0" d="M861.9,653.4c23.3-17.6,38.9-44,42.9-72.5c3.5-24.1-0.9-48-12.6-69.2c-10.9-19.7-27.2-35.3-47.3-45.3
		c-7.4-20.6-20.6-38.3-38.4-51.5c-19.1-14.1-41.8-21.6-65.5-21.6s-46.4,7.5-65.5,21.6c-17.8,13.1-31,30.9-38.4,51.5
		c-20.1,10-36.3,25.5-47.3,45.3c-11.7,21.2-16.1,45.1-12.7,69.2c3.8,27.2,17.8,51.9,39.3,69.6c5.7,4.7,8.9,11.9,8.5,19.4l-1.9,33.5
		c-3.9-7.1-6.6-14.1-8.4-19.9c-0.7-2.4-4.3-1.8-4.2,0.7c0.2,13.6,2.2,35.3,10.2,61.5l-1.1,18.5c-5.1-7.6-8.3-15.5-10.2-21.7
		c-0.6-1.9-3.4-1.4-3.4,0.6c0.2,12.6,2.3,33.6,11.4,59l-18.2,315.4c-0.5,9.4,6.9,17.3,16.3,17.3h250.5c9.5,0,16.9-8,16.3-17.4
		l-29.5-443.6C852.2,665.7,855.6,658.2,861.9,653.4z"/>
	<path class="st1" d="M600.3,1096.8c25.8-26.8,64.7-80.4,69-120.2c5.2-47.7,74.2-11.8,78.9-48.8c4.2-33.8,92.7-57.5,113.9-112.7
		c-0.9-15.3-1.9-26-2.5-37.1c-2.9,3.7-13.7,9.6-18.8,17.3c-20.8,31.4-111.4,17.2-117.1,45.6c-5.7,28.5-61.6-2.7-64.8,20.5
		c-1.4,10.2-35.1,28.7-47.1,33.4C606.5,978.1,602.3,1063.9,600.3,1096.8z"/>
	<path class="st2" d="M736.9,691.3c15.8,0,31.5-2.3,45.4-6.9c3.3-1.1,4.9-4.5,3.8-7.7c-1.1-3.3-4.5-4.9-7.7-3.8
		c-25.1,8.3-57.9,8.3-83.7,0c-3.3-1.1-6.7,0.7-7.7,3.9c-1.1,3.3,0.7,6.7,3.9,7.7C705.2,689,721.1,691.3,736.9,691.3z"/>
	<g class="st3">
		<path class="st4" d="M616.4,650.5c2.3,1.9,4.3,4.3,5.7,6.9l0.5-8.1c0.4-7.2-2.7-14.2-8.2-18.7c-20.7-17-34.2-40.8-37.8-67
			c-0.2-1.2-0.3-2.3-0.4-3.5c-0.3,6.8,0,13.8,1,20.7C580.9,608.1,594.9,632.8,616.4,650.5z"/>
	</g>
	<path class="st2" d="M861.9,653.6c23.3-17.6,38.9-44,42.9-72.5c2-14,1.4-27.9-1.8-41.3c-0.7-2.9-4.9-2.4-5,0.5
		c-0.1,4.8-0.6,9.5-1.3,14.3c-4.6,32.6-22.4,62.8-49.1,83c-7.2,5.5-11.1,14.1-10.5,23.1l26.9,473.9h1.9c9.5,0,17-8,16.3-17.5
		l-29.5-443.3C852.2,665.9,855.6,658.4,861.9,653.6z"/>
</g>
<g>
	<path class="st11" d="M936.9,420.9l51.8-46.2c1.8-1.6,4.4-0.6,4.5,1.8c0.4,12.5-2.5,44.1-38.1,66.2"/>
	<path class="st8" d="M863.8,510.9c-12.6-10.2-16.7-25.4-15.9-39.2c0.8-13.9,6.6-28,16.3-39.9c9.6-11.9,22.3-20.5,35.7-24.2
		c13.3-3.7,29.1-2.8,41.7,7.4c12.6,10.2,16.7,25.4,15.9,39.2c-0.8,13.9-6.6,28-16.3,39.9c-9.6,11.9-22.3,20.5-35.7,24.2
		S876.3,521,863.8,510.9z"/>
	<path class="st12" d="M881.9,463.4c6.9-9,16-15.6,25.5-18.5c5.5-1.7,16-3.5,24.7,3.2c2.6,2,4.5,4.3,5.9,6.8
		c0.1-0.8,0.1-1.6,0.2-2.5c0.1-2.4,0-5.8-0.9-9.3c-1.1-4.8-3.6-9.9-8.6-13.8c-8.7-6.7-19.2-4.9-24.7-3.2
		c-9.5,2.9-18.5,9.5-25.5,18.5c-6.9,9-11,19.5-11.3,29.4c-0.1,4,0.3,10.5,3.6,16.3C871.6,481.2,875.5,471.7,881.9,463.4z"/>
	<path class="st13" d="M913.3,485.1c7.3-5.5,12.8-12.5,15.4-19.9c0.8-2.1,1.6-5.3,1.6-8.7c-0.3,1.1-0.7,2.2-1.1,3.1
		c-3.2,8.1-9.8,16-18.4,22.2c-8.6,6.2-18.3,10.1-27.2,10.8c-1.2,0.1-2.7,0.2-4.2,0.1c3.8,1.5,7.8,1.7,10.5,1.5
		C897.7,493.8,906,490.6,913.3,485.1z"/>
</g>
<g>
	<path class="st11" d="M814.9,298.7l19.5-66.6c0.7-2.3,3.4-2.8,4.7-0.9c6.9,10.4,21.3,38.8,2.7,76.4"/>
	<path class="st8" d="M756.7,355c3.7-17.8,12.1-33.8,23.5-45c11.3-11.1,27.5-19.1,45.4-15.4c17.9,3.8,29.6,17.6,35.5,32.3
		c5.9,14.9,7.2,32.9,3.4,50.7c-3.7,17.8-12.1,33.8-23.5,45c-11.3,11.1-27.5,19.1-45.4,15.4s-29.6-17.6-35.5-32.3
		C754.2,390.8,753,372.8,756.7,355z"/>
	<path class="st12" d="M790.8,415.6c-4.5-11.5-5.3-25.6-2.3-39.7c3-14.2,9.6-26.7,18.4-35.3c5.1-5,15.6-12.9,28.3-10.2
		c1.7,0.4,3.4,0.9,4.9,1.6c1.2,0.5,2.4,1.2,3.4,1.9c-2.3-5.7-7.3-14.9-16.6-19c-1.5-0.7-3.1-1.2-4.9-1.6
		c-12.7-2.7-23.2,5.2-28.3,10.2c-8.8,8.6-15.3,21.1-18.4,35.3c-3,14.2-2.2,28.3,2.3,39.7c2,5,6,12.7,13.3,17.4
		C790.8,415.8,790.8,415.7,790.8,415.6z"/>
	<path class="st13" d="M836.9,379.2c3.7-11.9,4.2-24,1.2-34.1c-0.9-3-2.4-7.1-5.1-10.8c0.5,1.5,1,3,1.3,4.2
		c2.9,11.5,1.9,25.4-2.6,39.1s-12.1,25.6-21.4,33.5c-1.3,1.1-2.8,2.3-4.6,3.5c5.4-1.4,9.9-4.4,12.7-6.7
		C826.5,401.3,833.1,391.1,836.9,379.2z"/>
</g>
<g>
	<path class="st11" d="M665.7,299.6L646.2,233c-0.7-2.3-3.4-2.8-4.7-0.9c-6.9,10.4-21.3,38.8-2.7,76.4"/>
	<path class="st8" d="M724.7,355c-3.7-17.8-12.1-33.8-23.5-45c-11.3-11.1-27.5-19.1-45.4-15.4c-17.9,3.8-29.6,17.6-35.5,32.3
		c-5.9,14.9-7.2,32.9-3.4,50.7c3.7,17.8,12.1,33.8,23.5,45c11.3,11.1,27.5,19.1,45.4,15.4c17.9-3.8,29.6-17.6,35.5-32.3
		C727.2,390.8,728.4,372.8,724.7,355z"/>
	<path class="st12" d="M672.3,419.4c-8.8-8.6-15.2-21.2-18.2-35.4c-3-14.2-2.1-28.3,2.5-39.7c2.6-6.6,9-18.1,21.7-20.8
		c1.7-0.4,3.4-0.5,5.1-0.5c1.3,0,2.6,0.1,3.9,0.3c-4.4-4.3-12.7-10.7-22.9-10.7c-1.7,0-3.4,0.2-5.1,0.5
		c-12.7,2.7-19.1,14.2-21.7,20.8c-4.6,11.4-5.4,25.5-2.5,39.7c3,14.2,9.4,26.8,18.2,35.4c3.8,3.8,10.7,9.2,19.2,10.6
		C672.4,419.5,672.4,419.4,672.3,419.4z"/>
	<path class="st13" d="M699.2,369c-0.9-12.4-5-23.8-11.5-32.2c-1.9-2.4-4.9-5.7-8.7-8.2c1.1,1.2,2,2.4,2.7,3.4
		c6.9,9.6,11.2,22.9,12,37.3s-1.8,28.3-7.5,39.1c-0.8,1.5-1.8,3.2-3,4.9c4.5-3.3,7.6-7.7,9.4-10.9
		C697.8,393.3,700.1,381.4,699.2,369z"/>
</g>
<g>
	<path class="st11" d="M543.6,421.7l-51.8-46.2c-1.8-1.6-4.4-0.6-4.5,1.8c-0.4,12.5,2.5,44.1,38.1,66.2"/>
	<path class="st8" d="M617.3,510.9c12.6-10.2,16.7-25.4,15.9-39.2c-0.8-13.9-6.6-28-16.3-39.9c-9.6-11.9-22.3-20.5-35.7-24.2
		c-13.3-3.7-29.1-2.8-41.7,7.4s-16.7,25.4-15.9,39.2c0.8,13.9,6.6,28,16.3,39.9c9.6,11.9,22.3,20.5,35.7,24.2S604.8,521,617.3,510.9
		z"/>
	<path class="st12" d="M573.6,483.1c-7.2-8.9-11.5-19.2-12.1-29.1c-0.3-5.7,0.3-16.4,8.9-23.3c2.5-2.1,5.2-3.4,8-4.1
		c-0.8-0.3-1.6-0.5-2.4-0.7c-2.4-0.7-5.6-1.3-9.3-1.3c-4.9,0-10.5,1.2-15.4,5.2c-8.5,6.9-9.2,17.6-8.9,23.3
		c0.6,9.9,4.9,20.2,12.1,29.1c7.2,8.9,16.4,15.2,26,17.8c3.9,1.1,10.3,2.1,16.7,0.3C588.5,497.3,580.2,491.3,573.6,483.1z"/>
	<path class="st13" d="M600,455.9c-4.4-8.1-10.5-14.5-17.4-18.2c-2-1.1-5-2.3-8.3-2.8c1.1,0.5,2.1,1,2.9,1.5
		c7.5,4.4,14.4,12,19.3,21.4c4.9,9.4,7.3,19.6,6.7,28.5c-0.1,1.2-0.2,2.7-0.5,4.2c2-3.6,2.8-7.5,3-10.1
		C606.4,472.6,604.4,463.9,600,455.9z"/>
</g>
<g>
	<path class="st14" d="M805.5,625.9c26.3-4.1,47.3-25.4,51-51.8c4.2-29.9-13.4-58.2-42-67.4c-6.8-2.2-11.8-7.9-13.2-14.8
		c-5.6-28.7-31-49.6-60.3-49.6s-54.7,20.9-60.3,49.6c-1.4,7-6.4,12.6-13.2,14.8c-28.5,9.2-46.2,37.5-42,67.4
		c3.7,26.4,24.7,47.7,51,51.8c13.6,2.1,27-0.1,38.8-6.5c16-8.6,35.2-8.6,51.2,0C778.5,625.7,791.9,628,805.5,625.9z"/>
	<g>
		<path class="st12" d="M643.4,586.6c-4.2-29.9,13.5-58.2,42-67.4c6.8-2.2,11.8-7.9,13.2-14.8c5.6-28.7,31-49.6,60.3-49.6
			c9.3,0,18.2,2.1,26.3,5.9c-11.3-11.5-27-18.6-44-18.6c-29.3,0-54.7,20.9-60.3,49.6c-1.4,7-6.4,12.6-13.2,14.8
			c-28.5,9.2-46.2,37.5-42,67.4c2.9,20.6,16.3,38.1,34.6,46.7C651.4,611.6,645.3,599.7,643.4,586.6z"/>
	</g>
	<g>
		<path class="st13" d="M822.6,521.2c9.4,11.8,14,27.4,11.7,43.4c-3.4,24.2-22.7,43.8-46.8,47.6c-4.2,0.7-8.4,0.8-12.6,0.6
			c8,2.8,16.6,3.5,25.3,2.2c22.3-3.5,40.1-21.5,43.3-43.9C846.3,551.3,837.8,532.3,822.6,521.2z"/>
	</g>
</g>
<path class="st10" d="M741,341L741,341c3.8,0,6.8,3.2,6.6,6.9l-5.7,59.6c-0.1,1.2-1.8,1.2-1.8,0l-5.7-59.6
	C734.2,344.2,737.2,341,741,341z"/>
<path class="st10" d="M880.3,396.8L880.3,396.8c3,2.4,3.3,6.7,0.9,9.5l-41.6,43c-0.8,0.9-2.1-0.2-1.4-1.2l32.7-50.1
	C873.1,395.1,877.4,394.5,880.3,396.8z"/>
<path class="st10" d="M601.8,395.9L601.8,395.9c-3,2.4-3.3,6.7-0.9,9.5l41.6,43c0.8,0.9,2.1-0.2,1.4-1.2l-32.7-50.1
	C609.1,394.1,604.7,393.5,601.8,395.9z"/>
<path class="st8" d="M1538.7,485.9c-12.6-10.2-16.7-25.4-15.9-39.2c0.8-13.9,6.6-28,16.3-39.9c9.6-11.9,22.3-20.5,35.7-24.2
	c13.3-3.7,29.1-2.8,41.7,7.4c12.6,10.2,16.7,25.4,15.9,39.2c-0.8,13.9-6.6,28-16.3,39.9c-9.6,11.9-22.3,20.5-35.7,24.2
	S1551.2,496,1538.7,485.9z"/>
<path class="st12" d="M1556.8,438.4c6.9-9,16-15.6,25.5-18.5c5.5-1.7,16-3.5,24.7,3.2c2.6,2,4.5,4.3,5.9,6.8
	c0.1-0.8,0.1-1.6,0.2-2.5c0.1-2.4,0-5.8-0.9-9.3c-1.1-4.8-3.6-9.9-8.6-13.8c-8.7-6.7-19.2-4.9-24.7-3.2c-9.5,2.9-18.5,9.5-25.5,18.5
	c-6.9,9-11,19.5-11.3,29.4c-0.1,4,0.3,10.5,3.6,16.3C1546.5,456.2,1550.4,446.7,1556.8,438.4z"/>
<path class="st13" d="M1588.2,460.1c7.3-5.5,12.8-12.5,15.4-19.9c0.8-2.1,1.6-5.3,1.6-8.7c-0.3,1.1-0.7,2.2-1.1,3.1
	c-3.2,8.1-9.8,16-18.4,22.2s-18.3,10.1-27.2,10.8c-1.2,0.1-2.7,0.2-4.2,0.1c3.8,1.5,7.8,1.7,10.5,1.5
	C1572.6,468.8,1580.9,465.6,1588.2,460.1z"/>
<path class="st8" d="M1431.6,330c3.7-17.8,12.1-33.8,23.5-45c11.3-11.1,27.5-19.1,45.4-15.4c17.9,3.8,29.6,17.6,35.5,32.3
	c5.9,14.9,7.2,32.9,3.4,50.7c-3.7,17.8-12.1,33.8-23.5,45c-11.3,11.1-27.5,19.1-45.4,15.4s-29.6-17.6-35.5-32.3
	C1429.1,365.8,1427.9,347.8,1431.6,330z"/>
<path class="st12" d="M1465.7,390.6c-4.5-11.5-5.3-25.6-2.3-39.7c3-14.2,9.6-26.7,18.4-35.3c5.1-5,15.6-12.9,28.3-10.2
	c1.7,0.4,3.4,0.9,4.9,1.6c1.2,0.5,2.4,1.2,3.4,1.9c-2.3-5.7-7.3-14.9-16.6-19c-1.5-0.7-3.1-1.2-4.9-1.6
	c-12.7-2.7-23.2,5.2-28.3,10.2c-8.8,8.6-15.3,21.1-18.4,35.3c-3,14.2-2.2,28.3,2.3,39.7c2,5,6,12.7,13.3,17.4
	C1465.7,390.8,1465.7,390.7,1465.7,390.6z"/>
<path class="st13" d="M1511.8,354.2c3.7-11.9,4.2-24,1.2-34.1c-0.9-3-2.4-7.1-5.1-10.8c0.5,1.5,1,3,1.3,4.2
	c2.9,11.5,1.9,25.4-2.6,39.1s-12.1,25.6-21.4,33.5c-1.3,1.1-2.8,2.3-4.6,3.5c5.4-1.4,9.9-4.4,12.7-6.7
	C1501.4,376.3,1508,366.1,1511.8,354.2z"/>
<g>
	<path class="st8" d="M1399.6,330c-3.7-17.8-12.1-33.8-23.5-45c-11.3-11.1-27.5-19.1-45.4-15.4c-17.9,3.8-29.6,17.6-35.5,32.3
		c-5.9,14.9-7.2,32.9-3.4,50.7c3.7,17.8,12.1,33.8,23.5,45c11.3,11.1,27.5,19.1,45.4,15.4c17.9-3.8,29.6-17.6,35.5-32.3
		C1402.1,365.8,1403.3,347.8,1399.6,330z"/>
	<path class="st12" d="M1347.2,394.4c-8.8-8.6-15.2-21.2-18.2-35.4c-3-14.2-2.1-28.3,2.5-39.7c2.6-6.6,9-18.1,21.7-20.8
		c1.7-0.4,3.4-0.5,5.1-0.5c1.3,0,2.6,0.1,3.9,0.3c-4.4-4.3-12.7-10.7-22.9-10.7c-1.7,0-3.4,0.2-5.1,0.5
		c-12.7,2.7-19.1,14.2-21.7,20.8c-4.6,11.4-5.4,25.5-2.5,39.7c3,14.2,9.4,26.8,18.2,35.4c3.8,3.8,10.7,9.2,19.2,10.6
		C1347.3,394.5,1347.3,394.4,1347.2,394.4z"/>
	<path class="st13" d="M1374.1,344c-0.9-12.4-5-23.8-11.5-32.2c-1.9-2.4-4.9-5.7-8.7-8.2c1.1,1.2,2,2.4,2.7,3.4
		c6.9,9.6,11.2,22.9,12,37.3s-1.8,28.3-7.5,39.1c-0.8,1.5-1.8,3.2-3,4.9c4.5-3.3,7.6-7.7,9.4-10.9
		C1372.7,368.3,1375,356.4,1374.1,344z"/>
</g>
<g>
	<path class="st8" d="M1292.2,485.9c12.6-10.2,16.7-25.4,15.9-39.2c-0.8-13.9-6.6-28-16.3-39.9c-9.6-11.9-22.3-20.5-35.7-24.2
		c-13.3-3.7-29.1-2.8-41.7,7.4c-12.6,10.2-16.7,25.4-15.9,39.2c0.8,13.9,6.6,28,16.3,39.9c9.6,11.9,22.3,20.5,35.7,24.2
		S1279.7,496,1292.2,485.9z"/>
	<path class="st12" d="M1248.5,458.1c-7.2-8.9-11.5-19.2-12.1-29.1c-0.3-5.7,0.3-16.4,8.9-23.3c2.5-2.1,5.2-3.4,8-4.1
		c-0.8-0.3-1.6-0.5-2.4-0.7c-2.4-0.7-5.6-1.3-9.3-1.3c-4.9,0-10.5,1.2-15.4,5.2c-8.5,6.9-9.2,17.6-8.9,23.3
		c0.6,9.9,4.9,20.2,12.1,29.1s16.4,15.2,26,17.8c3.9,1.1,10.3,2.1,16.7,0.3C1263.4,472.3,1255.1,466.3,1248.5,458.1z"/>
	<path class="st13" d="M1274.9,430.9c-4.4-8.1-10.5-14.5-17.4-18.2c-2-1.1-5-2.3-8.3-2.8c1.1,0.5,2.1,1,2.9,1.5
		c7.5,4.4,14.4,12,19.3,21.4s7.3,19.6,6.7,28.5c-0.1,1.2-0.2,2.7-0.5,4.2c2-3.6,2.8-7.5,3-10.1
		C1281.3,447.6,1279.3,438.9,1274.9,430.9z"/>
</g>
<g>
	<path class="st14" d="M1480.4,600.9c26.3-4.1,47.3-25.4,51-51.8c4.2-29.9-13.4-58.2-42-67.4c-6.8-2.2-11.8-7.9-13.2-14.8
		c-5.6-28.7-31-49.6-60.3-49.6s-54.7,20.9-60.3,49.6c-1.4,7-6.4,12.6-13.2,14.8c-28.5,9.2-46.2,37.5-42,67.4
		c3.7,26.4,24.7,47.7,51,51.8c13.6,2.1,27-0.1,38.8-6.5c16-8.6,35.2-8.6,51.2,0C1453.4,600.7,1466.8,603,1480.4,600.9z"/>
	<g>
		<path class="st12" d="M1318.3,561.6c-4.2-29.9,13.5-58.2,42-67.4c6.8-2.2,11.8-7.9,13.2-14.8c5.6-28.7,31-49.6,60.3-49.6
			c9.3,0,18.2,2.1,26.3,5.9c-11.3-11.5-27-18.6-44-18.6c-29.3,0-54.7,20.9-60.3,49.6c-1.4,7-6.4,12.6-13.2,14.8
			c-28.5,9.2-46.2,37.5-42,67.4c2.9,20.6,16.3,38.1,34.6,46.7C1326.3,586.6,1320.2,574.7,1318.3,561.6z"/>
	</g>
	<g>
		<path class="st13" d="M1497.5,496.2c9.4,11.8,14,27.4,11.7,43.4c-3.4,24.2-22.7,43.8-46.8,47.6c-4.2,0.7-8.4,0.8-12.6,0.6
			c8,2.8,16.6,3.5,25.3,2.2c22.3-3.5,40.1-21.5,43.3-43.9C1521.2,526.3,1512.7,507.3,1497.5,496.2z"/>
	</g>
</g>
<path class="st10" d="M1415.9,316L1415.9,316c3.8,0,6.8,3.2,6.6,6.9l-5.7,59.6c-0.1,1.2-1.8,1.2-1.8,0l-5.7-59.6
	C1409.1,319.2,1412.1,316,1415.9,316z"/>
<path class="st10" d="M1555.2,371.8L1555.2,371.8c3,2.4,3.3,6.7,0.9,9.5l-41.6,43c-0.8,0.9-2.1-0.2-1.4-1.2l32.7-50.1
	C1548,370,1552.3,369.5,1555.2,371.8z"/>
<path class="st10" d="M1276.7,370.8L1276.7,370.8c-3,2.4-3.3,6.7-0.9,9.5l41.6,43c0.8,0.9,2.1-0.2,1.4-1.2l-32.7-50.1
	C1284,369.1,1279.6,368.5,1276.7,370.8z"/>
<g>
	<g>
		<path class="st8" d="M2116.5,486.5c-16.2-0.6-28.6-10.3-36.2-21.9c-7.7-11.6-11.5-26.4-10.8-41.7c0.6-15.3,5.6-29.8,14.1-40.8
			c8.4-10.9,21.6-19.7,37.8-19.1s28.6,10.3,36.2,21.9c7.7,11.6,11.5,26.4,10.8,41.7c-0.6,15.3-5.6,29.8-14.1,40.8
			S2132.6,487.1,2116.5,486.5z"/>
		<path class="st12" d="M2102.5,437.6c0.1-11.3,3.5-22.1,9.3-30.1c3.4-4.7,10.7-12.4,21.7-12.2c3.3,0,6.2,0.7,8.8,1.9
			c-0.4-0.7-0.9-1.3-1.3-2.1c-1.4-2-3.5-4.6-6.3-6.9c-3.8-3.2-8.8-5.8-15.2-5.9c-11-0.2-18.3,7.6-21.7,12.2
			c-5.9,8-9.1,18.7-9.3,30.1c-0.1,11.3,2.9,22.2,8.6,30.3c2.3,3.3,6.5,8.2,12.6,10.9C2105,458,2102.4,448.1,2102.5,437.6z"/>
		<path class="st13" d="M2140.7,436.2c2.6-8.8,2.8-17.7,0.4-25.2c-0.6-2.2-1.9-5.2-3.9-7.9c0.4,1.1,0.8,2.2,1,3.1
			c2.3,8.4,1.7,18.7-1.4,28.8c-3.2,10.1-8.6,19-15.3,24.9c-0.9,0.8-2,1.8-3.3,2.6c3.9-1.1,7.3-3.3,9.3-5.1
			C2133.4,452.5,2138.1,444.9,2140.7,436.2z"/>
	</g>
	<g>
		<path class="st14" d="M2044.4,593.6c26.3-4.1,47.3-25.4,51-51.8c4.2-29.9-13.4-58.2-42-67.4c-6.8-2.2-11.8-7.9-13.2-14.8
			c-5.6-28.7-31-49.6-60.3-49.6s-54.7,20.9-60.3,49.6c-1.4,7-6.4,12.6-13.2,14.8c-28.5,9.2-46.2,37.5-42,67.4
			c3.7,26.4,24.7,47.7,51,51.8c13.6,2.1,27-0.1,38.8-6.5c16-8.6,35.2-8.6,51.2,0C2017.4,593.4,2030.8,595.7,2044.4,593.6z"/>
		<g>
			<path class="st12" d="M1882.3,554.3c-4.2-29.9,13.5-58.2,42-67.4c6.8-2.2,11.8-7.9,13.2-14.8c5.6-28.7,31-49.6,60.3-49.6
				c9.3,0,18.2,2.1,26.3,5.9c-11.3-11.5-27-18.6-44-18.6c-29.3,0-54.7,20.9-60.3,49.6c-1.4,7-6.4,12.6-13.2,14.8
				c-28.5,9.2-46.2,37.5-42,67.4c2.9,20.6,16.3,38.1,34.6,46.7C1890.3,579.3,1884.2,567.4,1882.3,554.3z"/>
		</g>
		<g>
			<path class="st13" d="M2061.5,488.9c9.4,11.8,14,27.4,11.7,43.4c-3.4,24.2-22.7,43.8-46.8,47.6c-4.2,0.7-8.4,0.8-12.6,0.6
				c8,2.8,16.6,3.5,25.3,2.2c22.3-3.5,40.1-21.5,43.3-43.9C2085.2,519,2076.7,500,2061.5,488.9z"/>
		</g>
	</g>
	<g>
		<path class="st8" d="M1978.1,326.7c0.3-18.2,5.5-35.5,14.6-48.6c9-13,23.4-24,41.7-23.7c18.3,0.3,32.4,11.7,41,25
			c8.6,13.5,13.3,30.9,12.9,49.1c-0.3,18.2-5.5,35.5-14.6,48.6c-9,13-23.4,24-41.7,23.7c-18.3-0.2-32.4-11.7-41-25
			C1982.4,362.3,1977.9,344.8,1978.1,326.7z"/>
		<path class="st12" d="M2023.1,379.7c-6.6-10.4-10-24.1-9.8-38.5c0.3-14.5,4.4-28,11.4-38.1c4.1-5.9,12.9-15.6,25.9-15.4
			c1.7,0.1,3.5,0.2,5.1,0.6c1.3,0.3,2.6,0.7,3.7,1.2c-3.3-5.2-10-13.3-19.9-15.5c-1.6-0.4-3.3-0.6-5.1-0.6
			c-13-0.3-21.8,9.5-25.9,15.4c-7,10.1-11,23.6-11.4,38.1c-0.3,14.5,3.2,28.2,9.8,38.5c2.9,4.5,8.3,11.3,16.3,14.6
			C2023.1,379.9,2023.1,379.8,2023.1,379.7z"/>
		<path class="st13" d="M2061.5,335.3c1.4-12.4-0.4-24.4-5.3-33.7c-1.5-2.8-3.7-6.5-7-9.6c0.8,1.4,1.5,2.8,2.1,3.9
			c5,10.7,6.7,24.6,4.8,38.9c-1.8,14.3-7,27.4-14.7,36.9c-1.1,1.3-2.3,2.8-3.9,4.3c5-2.4,8.9-6.2,11.2-9
			C2055.4,358.9,2060,347.7,2061.5,335.3z"/>
	</g>
	<g>
		<g>
			<path class="st8" d="M1977.7,324.5c0.1-18.2-4.7-35.6-13.5-48.9c-8.7-13.2-22.9-24.4-41.2-24.6c-18.3,0-32.6,11-41.5,24.1
				c-8.9,13.3-13.9,30.7-14,48.9c-0.1,18.2,4.7,35.6,13.5,48.9c8.7,13.2,22.9,24.4,41.2,24.6c18.3,0,32.6-11,41.5-24.1
				C1972.6,360,1977.5,342.7,1977.7,324.5z"/>
			<path class="st12" d="M1912.9,376.5c-6.8-10.3-10.4-23.9-10.4-38.4s3.9-28.1,10.8-38.3c3.9-5.9,12.6-15.8,25.6-15.8
				c1.7,0,3.4,0.2,5.1,0.6c1.3,0.3,2.5,0.6,3.8,1.1c-3.4-5.1-10.2-13.1-20.1-15.3c-1.7-0.4-3.4-0.5-5.1-0.6
				c-13,0-21.7,9.9-25.6,15.8c-6.9,10.2-10.6,23.8-10.8,38.3c0,14.5,3.6,28.2,10.4,38.4c2.9,4.5,8.5,11.2,16.5,14.4
				C1913,376.6,1913,376.5,1912.9,376.5z"/>
			<path class="st13" d="M1949.8,332.9c1.7-12.3,0.1-24.3-4.5-33.9c-1.4-2.7-3.6-6.6-6.8-9.8c0.8,1.4,1.5,2.8,1.9,3.9
				c4.7,10.8,6.1,24.7,3.9,39c-2.2,14.2-7.7,27.3-15.5,36.7c-1.1,1.3-2.4,2.8-4,4.2c5.1-2.3,9-5.9,11.5-8.7
				C1943.3,356.3,1948.1,345.2,1949.8,332.9z"/>
		</g>
	</g>
	<g>
		<g>
			<path class="st8" d="M1840.4,486.4c16.2-0.5,28.7-10.1,36.4-21.5c7.8-11.5,11.7-26.3,11.3-41.6c-0.4-15.3-5.3-29.8-13.7-40.9
				c-8.3-11-21.4-19.9-37.6-19.4s-28.7,10.1-36.4,21.5c-7.8,11.5-11.7,26.3-11.3,41.6c0.4,15.3,5.3,29.8,13.7,40.9
				S1824.3,486.8,1840.4,486.4z"/>
			<path class="st12" d="M1822.5,437.8c-0.3-11.4,2.5-22.2,8-30.5c3.2-4.7,10.2-12.9,21.2-13.1c3.3-0.2,6.2,0.5,8.8,1.6
				c-0.5-0.7-1-1.4-1.5-2c-1.5-2-3.7-4.4-6.6-6.7c-3.9-3-9.1-5.4-15.4-5.2c-10.9,0.3-18,8.4-21.2,13.1c-5.5,8.2-8.4,19-8,30.5
				c0.3,11.4,3.8,22,9.9,29.9c2.4,3.2,6.9,7.9,13.1,10.4C1825.7,458.1,1822.8,448.3,1822.5,437.8z"/>
			<path class="st13" d="M1860,432.2c1.4-9.1,0.5-17.9-2.8-25c-0.9-2.1-2.6-4.9-4.9-7.3c0.6,1.1,1.1,2.1,1.4,3
				c3.3,8,4.2,18.3,2.4,28.7s-6.1,20-12,26.7c-0.8,0.9-1.8,2-2.9,3c3.8-1.6,6.8-4.3,8.5-6.2C1855,449.3,1858.6,441.2,1860,432.2z"/>
		</g>
	</g>
	<path class="st10" d="M1979.9,263.6L1979.9,263.6c3.8,0,6.8,3.2,6.6,6.9l-5.7,59.6c-0.1,1.2-1.8,1.2-1.8,0l-5.7-59.6
		C1973.1,266.7,1976.1,263.6,1979.9,263.6z"/>
	<path class="st10" d="M2106.4,347.1L2106.4,347.1c3,2.4,3.3,6.7,0.9,9.5l-41.6,43c-0.8,0.9-2.1-0.2-1.4-1.2l32.7-50.1
		C2099.1,345.3,2103.4,344.7,2106.4,347.1z"/>
	<path class="st10" d="M1850.4,344.7L1850.4,344.7c-3,2.4-3.3,6.7-0.9,9.5l41.6,43c0.8,0.9,2.1-0.2,1.4-1.2l-32.7-50.1
		C1857.7,342.9,1853.4,342.3,1850.4,344.7z"/>
</g>
<g>
	<g>
		<path class="st8" d="M2704.1,482.3c-16.2-0.6-28.6-10.3-36.2-21.9c-7.7-11.6-11.5-26.4-10.8-41.7c0.6-15.3,5.6-29.8,14.1-40.8
			c8.4-10.9,21.6-19.7,37.8-19.1s28.6,10.3,36.2,21.9c7.7,11.6,11.5,26.4,10.8,41.7c-0.6,15.3-5.6,29.8-14.1,40.8
			S2720.2,482.9,2704.1,482.3z"/>
		<path class="st12" d="M2690.1,433.4c0.1-11.3,3.5-22.1,9.3-30.1c3.4-4.7,10.7-12.4,21.7-12.2c3.3,0,6.2,0.7,8.8,1.9
			c-0.4-0.7-0.9-1.3-1.3-2.1c-1.4-2-3.5-4.6-6.3-6.9c-3.8-3.2-8.8-5.8-15.2-5.9c-11-0.2-18.3,7.6-21.7,12.2
			c-5.9,8-9.1,18.7-9.3,30.1c-0.1,11.3,2.9,22.2,8.6,30.3c2.3,3.3,6.5,8.2,12.6,10.9C2692.6,453.8,2690,443.9,2690.1,433.4z"/>
		<path class="st13" d="M2728.3,432c2.6-8.8,2.8-17.7,0.4-25.2c-0.6-2.2-1.9-5.2-3.9-7.9c0.4,1.1,0.8,2.2,1,3.1
			c2.3,8.4,1.7,18.7-1.4,28.8c-3.2,10.1-8.6,19-15.3,24.9c-0.9,0.8-2,1.8-3.3,2.6c3.9-1.1,7.3-3.3,9.3-5.1
			C2721,448.3,2725.7,440.7,2728.3,432z"/>
	</g>
	<g>
		<path class="st14" d="M2632,589.4c26.3-4.1,47.3-25.4,51-51.8c4.2-29.9-13.4-58.2-42-67.4c-6.8-2.2-11.8-7.9-13.2-14.8
			c-5.6-28.7-31-49.6-60.3-49.6s-54.7,20.9-60.3,49.6c-1.4,7-6.4,12.6-13.2,14.8c-28.5,9.2-46.2,37.5-42,67.4
			c3.7,26.4,24.7,47.7,51,51.8c13.6,2.1,27-0.1,38.8-6.5c16-8.6,35.2-8.6,51.2,0C2605,589.2,2618.4,591.5,2632,589.4z"/>
		<g>
			<path class="st12" d="M2469.9,550.1c-4.2-29.9,13.5-58.2,42-67.4c6.8-2.2,11.8-7.9,13.2-14.8c5.6-28.7,31-49.6,60.3-49.6
				c9.3,0,18.2,2.1,26.3,5.9c-11.3-11.5-27-18.6-44-18.6c-29.3,0-54.7,20.9-60.3,49.6c-1.4,7-6.4,12.6-13.2,14.8
				c-28.5,9.2-46.2,37.5-42,67.4c2.9,20.6,16.3,38.1,34.6,46.7C2477.9,575.1,2471.8,563.2,2469.9,550.1z"/>
		</g>
		<g>
			<path class="st13" d="M2649.1,484.7c9.4,11.8,14,27.4,11.7,43.4c-3.4,24.2-22.7,43.8-46.8,47.6c-4.2,0.7-8.4,0.8-12.6,0.6
				c8,2.8,16.6,3.5,25.3,2.2c22.3-3.5,40.1-21.5,43.3-43.9C2672.8,514.8,2664.3,495.8,2649.1,484.7z"/>
		</g>
	</g>
	<g>
		<path class="st8" d="M2565.7,322.5c0.3-18.2,5.5-35.5,14.6-48.6c9-13,23.4-24,41.7-23.7s32.4,11.7,41,25
			c8.6,13.5,13.3,30.9,12.9,49.1c-0.3,18.2-5.5,35.5-14.6,48.6c-9,13-23.4,24-41.7,23.7c-18.3-0.2-32.4-11.7-41-25
			C2570,358.1,2565.5,340.6,2565.7,322.5z"/>
		<path class="st12" d="M2610.7,375.5c-6.6-10.4-10-24.1-9.8-38.5c0.3-14.5,4.4-28,11.4-38.1c4.1-5.9,12.9-15.6,25.9-15.4
			c1.7,0.1,3.5,0.2,5.1,0.6c1.3,0.3,2.6,0.7,3.7,1.2c-3.3-5.2-10-13.3-19.9-15.5c-1.6-0.4-3.3-0.6-5.1-0.6
			c-13-0.3-21.8,9.5-25.9,15.4c-7,10.1-11,23.6-11.4,38.1c-0.3,14.5,3.2,28.2,9.8,38.5c2.9,4.5,8.3,11.3,16.3,14.6
			C2610.7,375.7,2610.7,375.6,2610.7,375.5z"/>
		<path class="st13" d="M2649.1,331.1c1.4-12.4-0.4-24.4-5.3-33.7c-1.5-2.8-3.7-6.5-7-9.6c0.8,1.4,1.5,2.8,2.1,3.9
			c5,10.7,6.7,24.6,4.8,38.9c-1.8,14.3-7,27.4-14.7,36.9c-1.1,1.3-2.3,2.8-3.9,4.3c5-2.4,8.9-6.2,11.2-9
			C2643,354.7,2647.6,343.5,2649.1,331.1z"/>
	</g>
	<g>
		<g>
			<path class="st8" d="M2565.3,320.3c0.1-18.2-4.7-35.6-13.5-48.9c-8.7-13.2-22.9-24.4-41.2-24.6c-18.3,0-32.6,11-41.5,24.1
				c-8.9,13.3-13.9,30.7-14,48.9c-0.1,18.2,4.7,35.6,13.5,48.9c8.7,13.2,22.9,24.4,41.2,24.6c18.3,0,32.6-11,41.5-24.1
				C2560.2,355.8,2565.1,338.5,2565.3,320.3z"/>
			<path class="st12" d="M2500.5,372.3c-6.8-10.3-10.4-23.9-10.4-38.4s3.9-28.1,10.8-38.3c3.9-5.9,12.6-15.8,25.6-15.8
				c1.7,0,3.4,0.2,5.1,0.6c1.3,0.3,2.5,0.6,3.8,1.1c-3.4-5.1-10.2-13.1-20.1-15.3c-1.7-0.4-3.4-0.5-5.1-0.6
				c-13,0-21.7,9.9-25.6,15.8c-6.9,10.2-10.6,23.8-10.8,38.3c0,14.5,3.6,28.2,10.4,38.4c2.9,4.5,8.5,11.2,16.5,14.4
				C2500.6,372.4,2500.6,372.3,2500.5,372.3z"/>
			<path class="st13" d="M2537.4,328.7c1.7-12.3,0.1-24.3-4.5-33.9c-1.4-2.7-3.6-6.6-6.8-9.8c0.8,1.4,1.5,2.8,1.9,3.9
				c4.7,10.8,6.1,24.7,3.9,39c-2.2,14.2-7.7,27.3-15.5,36.7c-1.1,1.3-2.4,2.8-4,4.2c5.1-2.3,9-5.9,11.5-8.7
				C2530.9,352.1,2535.7,341,2537.4,328.7z"/>
		</g>
	</g>
	<g>
		<g>
			<path class="st8" d="M2428,482.2c16.2-0.5,28.7-10.1,36.4-21.5c7.8-11.5,11.7-26.3,11.3-41.6c-0.4-15.3-5.3-29.8-13.7-40.9
				c-8.3-11-21.4-19.9-37.6-19.4s-28.7,10.1-36.4,21.5c-7.8,11.5-11.7,26.3-11.3,41.6c0.4,15.3,5.3,29.8,13.7,40.9
				S2411.9,482.6,2428,482.2z"/>
			<path class="st12" d="M2410.1,433.6c-0.3-11.4,2.5-22.2,8-30.5c3.2-4.7,10.2-12.9,21.2-13.1c3.3-0.2,6.2,0.5,8.8,1.6
				c-0.5-0.7-1-1.4-1.5-2c-1.5-2-3.7-4.4-6.6-6.7c-3.9-3-9.1-5.4-15.4-5.2c-10.9,0.3-18,8.4-21.2,13.1c-5.5,8.2-8.4,19-8,30.5
				c0.3,11.4,3.8,22,9.9,29.9c2.4,3.2,6.9,7.9,13.1,10.4C2413.3,453.9,2410.4,444.1,2410.1,433.6z"/>
			<path class="st13" d="M2447.6,428c1.4-9.1,0.5-17.9-2.8-25c-0.9-2.1-2.6-4.9-4.9-7.3c0.6,1.1,1.1,2.1,1.4,3
				c3.3,8,4.2,18.3,2.4,28.7c-1.8,10.4-6.1,20-12,26.7c-0.8,0.9-1.8,2-2.9,3c3.8-1.6,6.8-4.3,8.5-6.2
				C2442.6,445.1,2446.2,437,2447.6,428z"/>
		</g>
	</g>
	<path class="st10" d="M2567.5,259.4L2567.5,259.4c3.8,0,6.8,3.2,6.6,6.9l-5.7,59.6c-0.1,1.2-1.8,1.2-1.8,0l-5.7-59.6
		C2560.7,262.5,2563.7,259.4,2567.5,259.4z"/>
	<path class="st10" d="M2694,342.9L2694,342.9c3,2.4,3.3,6.7,0.9,9.5l-41.6,43c-0.8,0.9-2.1-0.2-1.4-1.2l32.7-50.1
		C2686.7,341.1,2691,340.5,2694,342.9z"/>
	<path class="st10" d="M2438,340.5L2438,340.5c-3,2.4-3.3,6.7-0.9,9.5l41.6,43c0.8,0.9,2.1-0.2,1.4-1.2l-32.7-50.1
		C2445.3,338.7,2441,338.1,2438,340.5z"/>
</g>
<g>
	<g class="st15">
		<ellipse class="st16" cx="2420.4" cy="410.8" rx="43.7" ry="47"/>
	</g>
	<g>
		<g>
			<ellipse class="st0" cx="2420.4" cy="403.1" rx="43.7" ry="47"/>
		</g>
	</g>
</g>
<g>
	<g class="st15">
		<ellipse class="st16" cx="2510.2" cy="309.8" rx="43.7" ry="47.6"/>
	</g>
	<g>
		<g>
			<ellipse class="st0" cx="2510.2" cy="302.1" rx="43.7" ry="47.6"/>
		</g>
	</g>
</g>
<g>
	<g class="st15">
		<ellipse class="st16" cx="2620.8" cy="314.2" rx="43.7" ry="52.7"/>
	</g>
	<g>
		<g>
			<ellipse class="st0" cx="2620.8" cy="306" rx="43.7" ry="52.7"/>
		</g>
	</g>
</g>
<g>
	<g class="st15">
		<ellipse class="st16" cx="2709.3" cy="413.5" rx="43.7" ry="47"/>
	</g>
	<g>
		<g>
			<ellipse class="st0" cx="2709.3" cy="405.8" rx="43.7" ry="47"/>
		</g>
	</g>
</g>
<g>
	<g>
		<path class="st0" d="M-1108.3,925.2c-10.9-19.7-27.2-35.3-47.3-45.3c-7.4-20.6-20.6-38.3-38.4-51.5
			c-19.1-14.1-41.8-21.6-65.5-21.6c-23.7,0-46.4,7.5-65.5,21.6c-17.8,13.1-31,30.9-38.4,51.5c-20.1,10-36.3,25.5-47.3,45.3
			c-11.7,21.2-16.1,45.1-12.7,69.2c3.8,27.2,17.8,51.9,39.3,69.6c5.7,4.7,8.9,11.9,8.5,19.4l-25.8,447.4
			c-0.5,9.4,6.9,17.3,16.3,17.3h250.5c9.5,0,16.9-8,16.3-17.4l-29.5-443.6c-0.5-7.9,2.9-15.4,9.2-20.2c23.3-17.6,38.9-44,42.9-72.5
			l0,0C-1092.2,970.3-1096.6,946.4-1108.3,925.2z"/>
		<path class="st1" d="M-1131.2,1332.2c-12-4.7-43.8-23-45.2-33.2c-3.2-23.2-59.1,8-64.8-20.5c-5.7-28.4-104.5-0.6-125.3-32
			c-5.1-7.7-14.9-13.2-17.8-16.9c-0.6,11.1-1.3,21.9-2.2,37.2c21.2,55.2,116.7,64.8,120.9,98.6c4.7,37,73.7,1.1,78.9,48.8
			c4.3,39.8,43.2,93.4,69,120.2C-1119.7,1501.5-1125.8,1415.5-1131.2,1332.2z"/>
		<path class="st2" d="M-1263.6,1104.8c15.8,0,31.5-2.3,45.4-6.9c3.3-1.1,4.9-4.5,3.8-7.7c-1.1-3.3-4.5-4.9-7.7-3.8
			c-25.1,8.3-57.9,8.3-83.7,0c-3.3-1.1-6.7,0.7-7.7,3.9c-1.1,3.3,0.7,6.7,3.9,7.7C-1295.3,1102.5-1279.4,1104.8-1263.6,1104.8z"/>
		<g class="st3">
			<path class="st4" d="M-1384.1,1064c2.3,1.9,4.3,4.3,5.7,6.9l0.5-8.1c0.4-7.2-2.7-14.2-8.2-18.7c-20.7-17-34.2-40.8-37.8-67
				c-0.2-1.2-0.3-2.3-0.4-3.5c-0.3,6.8,0,13.8,1,20.7C-1419.6,1021.6-1405.6,1046.3-1384.1,1064z"/>
		</g>
		<path class="st2" d="M-1138.6,1067.1c23.3-17.6,38.9-44,42.9-72.5c2-14,1.4-27.9-1.8-41.3c-0.7-2.9-4.9-2.4-5,0.5
			c-0.1,4.8-0.6,9.5-1.3,14.3c-4.6,32.6-22.4,62.8-49.1,83c-7.2,5.5-11.1,14.1-10.5,23.1l31.6,474.1l0,0h14.7l0,0l-30.7-461
			C-1148.3,1079.4-1144.9,1071.9-1138.6,1067.1z"/>
	</g>
	<g>
		<path class="st11" d="M-1063.6,834.4l51.8-46.2c1.8-1.6,4.4-0.6,4.5,1.8c0.4,12.5-2.5,44.1-38.1,66.2"/>
		<path class="st8" d="M-1136.7,924.4c-12.6-10.2-16.7-25.4-15.9-39.2c0.8-13.9,6.6-28,16.3-39.9c9.6-11.9,22.3-20.5,35.7-24.2
			c13.3-3.7,29.1-2.8,41.7,7.4s16.7,25.4,15.9,39.2c-0.8,13.9-6.6,28-16.3,39.9c-9.6,11.9-22.3,20.5-35.7,24.2
			S-1124.2,934.5-1136.7,924.4z"/>
		<path class="st12" d="M-1118.6,876.9c6.9-9,16-15.6,25.5-18.5c5.5-1.7,16-3.5,24.7,3.2c2.6,2,4.5,4.3,5.9,6.8
			c0.1-0.8,0.1-1.6,0.2-2.5c0.1-2.4,0-5.8-0.9-9.3c-1.1-4.8-3.6-9.9-8.6-13.8c-8.7-6.7-19.2-4.9-24.7-3.2
			c-9.5,2.9-18.5,9.5-25.5,18.5c-6.9,9-11,19.5-11.3,29.4c-0.1,4,0.3,10.5,3.6,16.3C-1128.9,894.7-1125,885.2-1118.6,876.9z"/>
		<path class="st13" d="M-1087.2,898.6c7.3-5.5,12.8-12.5,15.4-19.9c0.8-2.1,1.6-5.3,1.6-8.7c-0.3,1.1-0.7,2.2-1.1,3.1
			c-3.2,8.1-9.8,16-18.4,22.2s-18.3,10.1-27.2,10.8c-1.2,0.1-2.7,0.2-4.2,0.1c3.8,1.5,7.8,1.7,10.5,1.5
			C-1102.8,907.3-1094.5,904.1-1087.2,898.6z"/>
	</g>
	<g>
		<path class="st11" d="M-1185.6,712.2l19.5-66.6c0.7-2.3,3.4-2.8,4.7-0.9c6.9,10.4,21.3,38.8,2.7,76.4"/>
		<path class="st8" d="M-1243.8,768.5c3.7-17.8,12.1-33.8,23.5-45c11.3-11.1,27.5-19.1,45.4-15.4c17.9,3.8,29.6,17.6,35.5,32.3
			c5.9,14.9,7.2,32.9,3.4,50.7c-3.7,17.8-12.1,33.8-23.5,45c-11.3,11.1-27.5,19.1-45.4,15.4s-29.6-17.6-35.5-32.3
			C-1246.3,804.3-1247.5,786.3-1243.8,768.5z"/>
		<path class="st12" d="M-1209.7,829.1c-4.5-11.5-5.3-25.6-2.3-39.7c3-14.2,9.6-26.7,18.4-35.3c5.1-5,15.6-12.9,28.3-10.2
			c1.7,0.4,3.4,0.9,4.9,1.6c1.2,0.5,2.4,1.2,3.4,1.9c-2.3-5.7-7.3-14.9-16.6-19c-1.5-0.7-3.1-1.2-4.9-1.6
			c-12.7-2.7-23.2,5.2-28.3,10.2c-8.8,8.6-15.3,21.1-18.4,35.3c-3,14.2-2.2,28.3,2.3,39.7c2,5,6,12.7,13.3,17.4
			C-1209.7,829.3-1209.7,829.2-1209.7,829.1z"/>
		<path class="st13" d="M-1163.6,792.7c3.7-11.9,4.2-24,1.2-34.1c-0.9-3-2.4-7.1-5.1-10.8c0.5,1.5,1,3,1.3,4.2
			c2.9,11.5,1.9,25.4-2.6,39.1s-12.1,25.6-21.4,33.5c-1.3,1.1-2.8,2.3-4.6,3.5c5.4-1.4,9.9-4.4,12.7-6.7
			C-1174,814.8-1167.4,804.6-1163.6,792.7z"/>
	</g>
	<g>
		<path class="st11" d="M-1334.8,713.1l-19.5-66.6c-0.7-2.3-3.4-2.8-4.7-0.9c-6.9,10.4-21.3,38.8-2.7,76.4"/>
		<path class="st8" d="M-1275.8,768.5c-3.7-17.8-12.1-33.8-23.5-45c-11.3-11.1-27.5-19.1-45.4-15.4c-17.9,3.8-29.6,17.6-35.5,32.3
			c-5.9,14.9-7.2,32.9-3.4,50.7c3.7,17.8,12.1,33.8,23.5,45c11.3,11.1,27.5,19.1,45.4,15.4c17.9-3.8,29.6-17.6,35.5-32.3
			C-1273.3,804.3-1272.1,786.3-1275.8,768.5z"/>
		<path class="st12" d="M-1328.2,832.9c-8.8-8.6-15.2-21.2-18.2-35.4s-2.1-28.3,2.5-39.7c2.6-6.6,9-18.1,21.7-20.8
			c1.7-0.4,3.4-0.5,5.1-0.5c1.3,0,2.6,0.1,3.9,0.3c-4.4-4.3-12.7-10.7-22.9-10.7c-1.7,0-3.4,0.2-5.1,0.5
			c-12.7,2.7-19.1,14.2-21.7,20.8c-4.6,11.4-5.4,25.5-2.5,39.7c3,14.2,9.4,26.8,18.2,35.4c3.8,3.8,10.7,9.2,19.2,10.6
			C-1328.1,833-1328.1,832.9-1328.2,832.9z"/>
		<path class="st13" d="M-1301.3,782.5c-0.9-12.4-5-23.8-11.5-32.2c-1.9-2.4-4.9-5.7-8.7-8.2c1.1,1.2,2,2.4,2.7,3.4
			c6.9,9.6,11.2,22.9,12,37.3c0.8,14.4-1.8,28.3-7.5,39.1c-0.8,1.5-1.8,3.2-3,4.9c4.5-3.3,7.6-7.7,9.4-10.9
			C-1302.7,806.8-1300.4,794.9-1301.3,782.5z"/>
	</g>
	<g>
		<path class="st11" d="M-1456.9,835.2l-51.8-46.2c-1.8-1.6-4.4-0.6-4.5,1.8c-0.4,12.5,2.5,44.1,38.1,66.2"/>
		<path class="st8" d="M-1383.2,924.4c12.6-10.2,16.7-25.4,15.9-39.2c-0.8-13.9-6.6-28-16.3-39.9c-9.6-11.9-22.3-20.5-35.7-24.2
			c-13.3-3.7-29.1-2.8-41.7,7.4c-12.6,10.2-16.7,25.4-15.9,39.2c0.8,13.9,6.6,28,16.3,39.9c9.6,11.9,22.3,20.5,35.7,24.2
			S-1395.7,934.5-1383.2,924.4z"/>
		<path class="st12" d="M-1426.9,896.6c-7.2-8.9-11.5-19.2-12.1-29.1c-0.3-5.7,0.3-16.4,8.9-23.3c2.5-2.1,5.2-3.4,8-4.1
			c-0.8-0.3-1.6-0.5-2.4-0.7c-2.4-0.7-5.6-1.3-9.3-1.3c-4.9,0-10.5,1.2-15.4,5.2c-8.5,6.9-9.2,17.6-8.9,23.3
			c0.6,9.9,4.9,20.2,12.1,29.1c7.2,8.9,16.4,15.2,26,17.8c3.9,1.1,10.3,2.1,16.7,0.3C-1412,910.8-1420.3,904.8-1426.9,896.6z"/>
		<path class="st13" d="M-1400.5,869.4c-4.4-8.1-10.5-14.5-17.4-18.2c-2-1.1-5-2.3-8.3-2.8c1.1,0.5,2.1,1,2.9,1.5
			c7.5,4.4,14.4,12,19.3,21.4c4.9,9.4,7.3,19.6,6.7,28.5c-0.1,1.2-0.2,2.7-0.5,4.2c2-3.6,2.8-7.5,3-10.1
			C-1394.1,886.1-1396.1,877.4-1400.5,869.4z"/>
	</g>
	<g>
		<path class="st14" d="M-1195,1039.4c26.3-4.1,47.3-25.4,51-51.8c4.2-29.9-13.4-58.2-42-67.4c-6.8-2.2-11.8-7.9-13.2-14.8
			c-5.6-28.7-31-49.6-60.3-49.6c-29.3,0-54.7,20.9-60.3,49.6c-1.4,7-6.4,12.6-13.2,14.8c-28.5,9.2-46.2,37.5-42,67.4
			c3.7,26.4,24.7,47.7,51,51.8c13.6,2.1,27-0.1,38.8-6.5c16-8.6,35.2-8.6,51.2,0C-1222,1039.2-1208.6,1041.5-1195,1039.4z"/>
		<g>
			<path class="st12" d="M-1357.1,1000.1c-4.2-29.9,13.5-58.2,42-67.4c6.8-2.2,11.8-7.9,13.2-14.8c5.6-28.7,31-49.6,60.3-49.6
				c9.3,0,18.2,2.1,26.3,5.9c-11.3-11.5-27-18.6-44-18.6c-29.3,0-54.7,20.9-60.3,49.6c-1.4,7-6.4,12.6-13.2,14.8
				c-28.5,9.2-46.2,37.5-42,67.4c2.9,20.6,16.3,38.1,34.6,46.7C-1349.1,1025.1-1355.2,1013.2-1357.1,1000.1z"/>
		</g>
		<g>
			<path class="st13" d="M-1177.9,934.7c9.4,11.8,14,27.4,11.7,43.4c-3.4,24.2-22.7,43.8-46.8,47.6c-4.2,0.7-8.4,0.8-12.6,0.6
				c8,2.8,16.6,3.5,25.3,2.2c22.3-3.5,40.1-21.5,43.3-43.9C-1154.2,964.8-1162.7,945.8-1177.9,934.7z"/>
		</g>
	</g>
	<path class="st10" d="M-1259.5,754.5L-1259.5,754.5c3.8,0,6.8,3.2,6.6,6.9l-5.7,59.6c-0.1,1.2-1.8,1.2-1.8,0l-5.7-59.6
		C-1266.3,757.7-1263.3,754.5-1259.5,754.5z"/>
	<path class="st10" d="M-1120.2,810.3L-1120.2,810.3c3,2.4,3.3,6.7,0.9,9.5l-41.6,43c-0.8,0.9-2.1-0.2-1.4-1.2l32.7-50.1
		C-1127.4,808.6-1123.1,808-1120.2,810.3z"/>
	<path class="st10" d="M-1398.7,809.4L-1398.7,809.4c-3,2.4-3.3,6.7-0.9,9.5l41.6,43c0.8,0.9,2.1-0.2,1.4-1.2l-32.7-50.1
		C-1391.4,807.6-1395.8,807-1398.7,809.4z"/>
</g>
</svg>
