<svg width="1143" height="752" viewBox="0 0 1143 752" fill="none" xmlns="http://www.w3.org/2000/svg">
<mask id="mask0" mask-type="alpha" maskUnits="userSpaceOnUse" x="0" y="0" width="1143" height="752">
<path d="M1111.03 0.421814H31.7283C14.6074 0.421814 0.728271 14.3009 0.728271 31.4218V720.427C0.728271 737.548 14.6075 751.427 31.7283 751.427H1111.03C1128.15 751.427 1142.03 737.548 1142.03 720.427V31.4218C1142.03 14.301 1128.15 0.421814 1111.03 0.421814Z" fill="#C4C4C4"/>
</mask>
<g mask="url(#mask0)">
<path d="M1163.03 -11.5782H0.389648V693.478H1163.03V-11.5782Z" fill="url(#paint0_linear)"/>
<path d="M1000.45 -86.6707L1008.59 -92.5893C1016.73 -4.73468 1039.66 81.8252 1076.28 162.097C1072.22 66.6588 1068.33 -28.7791 1064.26 -124.217L1082.76 -134.944C1103.29 31.8868 1123.82 198.718 1144.35 365.364C1176.16 283.059 1193.36 195.204 1194.1 106.979L1202.8 105.5C1206.31 217.584 1189.29 330.408 1153.23 436.573C1170.24 574.921 1187.26 713.084 1204.28 851.432L1105.69 859.2C1097 651.308 1088.31 443.416 1079.61 235.34C1034.11 134.168 1007.11 24.4885 1000.45 -86.6707Z" fill="url(#paint1_linear)"/>
<path d="M627.209 115.487C635.717 139.902 683.991 277.325 692.499 301.739C691.574 233.12 690.65 164.501 689.54 96.0669C677.518 65.179 665.68 34.4762 653.658 3.58833L656.987 -5.47457C667.715 17.83 678.443 41.3196 689.17 64.6241C688.615 22.8239 688.06 -18.9764 687.505 -60.7767L700.452 -63.5511C706.741 -26.0048 712.29 11.7264 717.098 49.4577C727.826 20.9743 736.519 -8.24892 742.623 -38.027L754.46 -47.2749C749.281 -4.17987 737.814 38.3602 720.798 78.311C731.155 166.166 737.444 254.575 739.848 343.17C747.616 316.906 798.295 150.629 802.179 123.441L813.461 135.833C808.652 181.517 754.645 366.289 740.773 410.124C741.143 491.69 737.999 573.071 731.34 654.452L697.493 647.794C696.198 551.246 694.719 454.514 693.424 357.966C678.627 323.194 628.689 173.379 623.51 136.018L627.209 115.487Z" fill="url(#paint2_linear)"/>
<path d="M112.658 24.6734L122.276 18.5698C140.772 107.164 165.371 194.279 195.704 279.544C203.842 167.46 217.159 55.9312 235.84 -54.8581L278.38 -56.1528C268.392 5.99274 260.439 68.3233 254.151 130.839C296.136 76.6463 329.428 15.9804 352.548 -48.5696L363.09 -38.397C342.375 39.47 303.349 112.528 250.082 173.009C240.649 282.504 236.765 392.553 238.614 502.418C265.063 428.065 300.02 328.188 307.603 249.581L319.625 253.835C310.378 348.163 271.906 463.577 239.909 552.726C242.313 625.969 247.122 699.212 254.521 772.27L193.485 754.699C184.422 611.912 184.237 468.57 192.56 325.784C159.083 227.571 132.264 126.77 112.658 24.6734Z" fill="url(#paint3_linear)"/>
<path d="M-63.4207 375.352C15.9259 228.311 56.0616 60.0003 51.4377 -107.016L75.1122 -92.2194C69.0086 38.7302 49.0332 168.755 15.556 295.451C55.6917 263.453 101.006 199.828 130.599 135.833L132.449 156.733C99.7115 237.559 54.9519 297.67 3.1639 339.47C-6.26891 371.653 -16.4416 403.651 -27.7239 435.463L-63.4207 375.352Z" fill="url(#paint4_linear)"/>
<path d="M757.604 310.617L764.817 303.034C781.094 380.346 831.032 510.371 872.092 577.695C873.202 418.817 874.127 259.939 875.237 101.061C860.44 56.486 848.603 10.9866 839.54 -35.0677L844.719 -50.974C854.891 -19.5313 865.249 11.7264 875.422 43.1691C875.792 -12.133 876.162 -67.4352 876.531 -122.737L894.472 -128.286C904.83 -40.4315 912.598 47.7931 917.592 136.203C949.959 54.6365 974.189 -30.2588 990.28 -116.449L1003.04 -115.154C989.91 -14.1676 961.612 84.9694 919.811 178.003C922.586 238.299 924.25 298.595 924.435 358.891C947.74 293.786 963.276 226.092 970.305 157.288L986.396 166.166C980.292 251.801 959.022 336.326 924.435 414.933C923.511 540.149 917.037 665.18 905.2 789.841L870.428 854.946C870.983 779.668 871.353 704.391 871.908 628.928L868.024 635.587C822.709 559.754 769.626 398.102 757.604 310.617Z" fill="url(#paint5_linear)"/>
<path d="M374.743 -3.99497L385.285 -11.3933C405.446 82.5649 433.559 174.859 469.256 264.008C468.331 149.334 472.215 34.4761 480.723 -79.8274L495.52 -82.7867C491.636 202.417 509.762 487.806 549.712 770.235L486.272 740.457C472.955 620.605 473.325 453.034 470.366 332.442C425.791 224.427 393.609 111.418 374.743 -3.99497Z" fill="url(#paint6_linear)"/>
<path opacity="0.77" d="M-31.7927 449.335C-17.551 438.237 3.34912 436.943 18.8855 445.821C34.4219 454.884 43.6698 473.749 41.0804 491.505C42.3751 477.078 53.6574 464.131 67.7142 460.617C81.7709 457.288 97.6772 463.577 105.63 475.784C94.9029 460.432 98.602 436.943 113.399 425.66C128.38 414.378 151.87 417.337 163.707 431.764C162.227 412.159 180.168 393.478 199.774 394.033C219.379 394.588 236.21 414.378 233.621 433.798C240.279 416.043 264.878 407.904 280.785 418.077C296.876 428.25 299.65 453.959 286.333 467.461C306.309 459.138 329.244 487.066 317.221 505.007C336.087 494.094 362.166 497.609 377.332 513.145C377.702 497.054 378.072 480.778 378.442 464.686C397.863 459.877 420.057 470.79 428.011 489.101C421.722 469.68 433.929 446.376 453.535 440.642C473.14 434.908 496.075 448.04 501.069 467.831C501.439 451.369 521.599 438.977 536.395 446.191C551.192 453.404 553.781 477.078 541.019 487.436C548.233 476.709 564.694 473.564 575.421 480.778C586.149 487.991 589.293 504.452 581.895 515.18C592.252 505.007 609.084 502.233 622.216 508.521C635.347 514.81 643.486 529.791 641.821 544.218C655.323 531.271 681.402 536.82 688.245 554.206C676.963 546.067 674.558 527.942 683.251 517.029C692.129 506.117 710.255 504.822 720.613 514.255C715.249 499.273 722.462 480.778 736.704 473.379C750.946 465.981 770.181 470.605 779.429 483.737C768.147 465.796 773.695 439.347 791.266 427.325C808.837 415.488 835.471 419.927 848.048 437.128C865.619 415.673 907.234 425.105 913.708 452.294C914.633 436.573 928.134 422.516 943.856 421.221C959.577 419.742 975.299 431.024 979.183 446.376C977.333 429.729 988.615 412.713 1004.52 407.905C1020.43 403.096 1039.29 410.864 1047.06 425.475C1047.99 406.795 1061.3 389.224 1079.06 383.305C1096.82 377.387 1118.09 383.675 1129.92 398.102C1153.78 377.387 1193.92 389.964 1212.23 415.673C1230.72 441.382 1233.13 474.859 1233.87 506.487C1235.72 571.961 1233.5 637.436 1227.4 702.541H-31.7927V449.335Z" fill="url(#paint7_linear)"/>
<path d="M167.591 183.737C158.898 391.628 150.205 599.52 141.512 807.597L42.9296 799.829C59.9456 661.481 76.9617 523.318 93.9777 384.97C57.9111 278.804 40.7101 165.981 44.4093 53.8967L53.1022 55.3763C53.8421 143.601 70.8581 231.64 102.856 313.761C123.386 146.93 143.916 -19.9012 164.446 -186.548L182.942 -175.82C178.873 -80.3822 174.989 15.0557 170.92 110.494C207.541 30.2222 230.661 -56.3378 238.614 -144.192L246.752 -138.274C239.909 -27.4845 212.905 82.1951 167.591 183.737ZM739.663 15.6105C710.995 148.41 637.012 250.136 618.146 276.4C619.256 195.759 620.366 114.932 621.475 34.2912C635.532 -1.9604 649.589 -38.212 663.646 -74.6485L659.761 -85.376C647.184 -57.8174 634.607 -30.2588 622.03 -2.88517C622.77 -52.0837 623.325 -101.282 624.065 -150.666L608.898 -153.995C601.5 -109.79 595.026 -65.4007 589.293 -20.826C576.531 -54.3032 566.543 -88.7053 559.33 -123.847L545.458 -134.76C551.562 -83.8964 565.063 -34.1429 585.224 13.0211C573.017 116.597 565.618 220.543 562.844 324.674C553.596 293.786 470.92 116.412 475.729 -38.3969L462.412 -23.7853C462.412 118.632 545.458 351.862 561.734 403.466C561.364 499.458 565.063 595.451 572.832 691.074L612.597 683.306C614.262 569.557 615.742 455.808 617.406 342.06C651.808 292.121 733.004 133.798 744.472 39.1001L739.663 15.6105ZM1063.89 -73.3538L1054.27 -79.4574C1035.78 9.13704 1011.18 96.2518 980.847 181.517C972.709 69.433 959.392 -42.0961 940.711 -152.885L898.171 -154.18C908.159 -92.0345 916.112 -29.7039 922.4 32.8115C880.415 -21.3809 847.123 -82.0468 824.003 -146.597L813.461 -136.424C834.176 -58.5573 873.202 14.5008 926.47 74.9817C935.902 184.476 939.786 294.526 937.937 404.39C868.208 374.057 806.432 244.402 798.849 165.796L786.827 170.05C796.075 264.378 849.712 401.061 936.642 454.699C934.238 527.942 929.429 601.185 922.03 674.243L983.066 656.672C992.129 513.885 992.314 370.543 983.991 227.756C1017.47 129.544 1044.29 28.7425 1063.89 -73.3538ZM1226.84 318.57C1147.31 171.344 1107.36 3.21841 1111.8 -163.983L1088.12 -149.186C1094.04 -18.4216 1114.2 111.788 1147.68 238.484C1107.17 201.862 1050.76 125.475 1022.65 78.4959L1015.8 92.9226C1051.5 149.15 1108.28 240.888 1159.89 282.504C1169.32 314.686 1179.49 346.684 1190.77 378.496L1226.84 318.57ZM-124.457 372.763C-76.9226 305.993 -36.7869 233.86 -4.97427 158.212C23.879 89.7783 46.0739 18.3849 61.0554 -54.4882L57.1713 -82.7866C29.9826 23.1938 -18.4761 123.625 -84.5058 210.74L-124.457 372.763ZM538.615 293.971L531.401 286.388C515.125 363.7 460.748 490.58 419.502 557.905C418.392 399.027 417.468 240.148 416.358 81.2703C431.155 36.6956 442.992 -8.8038 452.055 -54.8581L446.876 -70.7644L416.173 23.5637C415.803 -31.7385 415.433 -87.0406 415.063 -142.343L397.122 -147.892C386.765 -60.0369 378.997 28.1876 374.003 116.597C341.635 35.031 317.406 -49.8643 301.315 -136.054L288.553 -134.76C301.685 -33.773 329.983 65.364 371.783 158.397C369.009 218.693 367.344 278.989 367.159 339.285C323.879 266.967 265.433 161.542 251.561 -23.4154L235.47 -14.5375C243.423 182.812 332.387 316.721 367.159 395.327C368.084 520.543 374.558 645.574 386.395 770.235L421.167 835.34C420.612 760.063 420.242 684.785 419.687 609.323L423.571 615.981C468.886 539.964 526.592 381.641 538.615 293.971ZM853.966 -55.5979L843.424 -62.9962C823.263 30.962 794.965 123.256 759.453 212.405C760.378 97.7315 756.494 -17.1269 747.986 -131.43L733.189 -134.39C737.073 150.814 718.948 436.203 678.997 718.632L742.437 688.854C755.754 569.002 755.384 401.431 758.344 280.839C802.918 173.009 835.101 59.8153 853.966 -55.5979Z" fill="url(#paint8_linear)"/>
<path d="M1215.37 567.152C1215.19 566.968 1215 566.968 1214.82 566.783C1213.89 566.228 1213.15 565.673 1212.23 565.118C1194.84 554.02 1176.72 537.929 1158.22 511.11L1169.69 499.273L1148.23 496.129C1148.23 496.129 1145.27 485.956 1141.39 471.53C1141.21 471.16 1141.21 470.605 1141.02 470.235C1140.28 467.276 1139.36 463.946 1138.62 460.802C1138.25 459.138 1137.69 457.288 1137.32 455.623C1133.25 438.607 1129 419.187 1127.33 403.465C1127.33 403.096 1127.33 402.911 1127.15 402.726C1127.15 402.171 1126.96 401.801 1126.96 401.246C1126.59 397.732 1126.22 394.772 1125.85 391.998C1125.85 391.443 1125.67 390.888 1125.67 390.334C1124 375.907 1123.26 372.578 1122.89 372.023L1141.94 362.775L1124.19 360.37C1124.19 360.37 1128.07 335.586 1137.14 304.513C1144.35 307.658 1183.56 326.153 1202.61 371.468L1191.33 382.565L1204.83 380.531C1204.83 380.531 1206.49 385.895 1208.9 394.403C1209.45 396.067 1209.82 398.102 1210.38 399.951C1214.45 415.858 1219.44 439.162 1220.55 459.877C1220.55 461.172 1220.74 462.467 1220.74 463.761C1220.74 465.241 1220.74 466.536 1220.74 468.015C1221.29 505.562 1215.37 567.152 1215.37 567.152Z" fill="url(#paint9_linear)"/>
<path opacity="0.52" d="M1219.81 605.624C1217.41 592.122 1214.82 578.62 1212.41 565.303C1205.2 527.202 1197.62 489.286 1189.66 451.369C1188.92 447.855 1188.18 444.341 1187.44 441.012C1179.31 446.191 1170.43 450.26 1162.47 455.808C1155.26 460.802 1148.23 466.166 1141.39 471.9C1141.2 471.53 1141.2 470.975 1141.02 470.605C1147.12 464.316 1153.6 458.583 1160.63 453.589C1168.58 447.855 1177.27 441.567 1186.7 438.053C1186.52 437.498 1186.52 437.128 1186.33 436.573C1177.09 438.792 1168.21 442.122 1159.89 446.746C1154.71 449.52 1149.9 452.664 1145.09 456.178C1142.87 457.843 1141.02 460.062 1138.62 461.172C1138.25 459.508 1137.69 457.658 1137.32 455.993C1138.99 454.144 1141.2 452.664 1142.87 451.369C1147.68 447.115 1152.86 443.231 1158.41 439.717C1166.73 434.538 1175.61 430.839 1185.04 430.654C1182.64 419.927 1180.05 409.199 1177.27 398.657C1168.76 399.027 1160.07 398.472 1151.56 399.212C1143.42 399.951 1135.1 401.061 1127.33 403.281C1127.33 402.726 1127.15 402.356 1127.15 401.801C1142.68 396.622 1160.26 394.773 1176.72 396.067C1176.72 395.882 1176.72 395.882 1176.72 395.697C1159.89 393.293 1143.05 390.519 1126.22 392.553C1126.22 391.998 1126.04 391.443 1126.04 390.889C1142.31 387.744 1160.26 389.409 1175.98 393.293C1168.02 364.44 1157.67 336.326 1141.57 310.247C1141.57 310.062 1141.57 310.062 1141.76 310.062C1165.8 342.06 1183.74 414.563 1185.41 422.516C1192.44 412.898 1200.39 403.651 1209.08 394.958C1209.64 396.622 1210.01 398.657 1210.56 400.506C1202.43 408.09 1194.47 416.043 1186.89 424.366C1186.52 424.736 1186.33 424.736 1185.96 424.736C1186.33 426.585 1190.03 444.156 1190.4 446.191C1192.99 458.768 1195.77 471.16 1198.36 483.737C1202.98 476.709 1210.93 470.79 1217.78 466.166C1218.89 465.426 1219.81 464.871 1220.92 464.132C1220.92 465.611 1220.92 466.906 1220.92 468.386C1220.37 468.755 1219.63 469.125 1219.07 469.495C1211.67 474.304 1205.75 480.778 1198.91 485.956C1204.65 512.96 1210.19 539.964 1215 566.968C1217.22 579.73 1219.44 592.677 1221.29 605.624C1221.29 606.364 1220 606.548 1219.81 605.624Z" fill="#004C39"/>
<path d="M421.907 610.247C420.612 601.185 420.057 591.752 423.016 583.059C425.791 574.366 432.449 566.413 441.327 564.193C452.055 561.419 463.707 567.337 470.55 576.03C477.579 584.723 480.908 595.636 484.052 606.363C480.168 591.752 476.099 576.585 477.394 561.419C478.688 546.252 486.087 530.716 499.774 524.057C513.46 517.399 533.066 523.133 537.69 537.559C538.799 541.073 538.984 544.588 539.169 548.287C539.909 559.384 540.649 570.482 541.204 581.579C543.793 558.644 558.775 537.559 579.675 527.572C590.403 522.393 605.199 520.913 612.782 530.161C619.071 537.744 617.406 549.027 614.447 558.274C611.303 567.707 607.049 577.14 608.713 586.943C609.823 574.551 622.77 564.748 634.792 566.967C635.532 577.51 636.272 588.053 637.012 598.595C638.306 582.689 652.733 568.817 668.639 568.447C684.546 567.892 699.897 580.654 702.302 596.561C704.151 609.508 698.417 622.085 692.499 633.552C678.997 659.631 662.906 685.895 637.567 700.691C611.303 716.043 579.12 716.413 548.787 716.598C519.009 716.598 486.272 715.858 463.522 696.622C452.055 686.82 446.691 673.873 439.662 660.926C431.339 644.649 424.681 628.373 421.907 610.247Z" fill="url(#paint10_linear)"/>
<path d="M675.298 593.047C674.003 583.984 673.448 574.551 676.407 565.858C679.182 557.165 685.84 549.212 694.718 546.992C705.446 544.218 717.098 550.137 723.941 558.83C730.97 567.523 734.299 578.435 737.443 589.162C733.559 574.551 729.49 559.384 730.785 544.218C732.08 529.051 739.478 513.515 753.165 506.857C766.851 500.198 786.457 505.932 791.081 520.359C792.191 523.873 792.376 527.387 792.56 531.086C793.3 542.183 794.04 553.281 794.595 564.378C797.184 541.444 812.166 520.359 833.066 510.371C843.794 505.192 858.59 503.712 866.173 512.96C872.462 520.543 870.797 531.826 867.838 541.074C864.694 550.506 860.44 559.939 862.104 569.742C863.214 557.35 876.161 547.547 888.183 549.767C888.923 560.309 889.663 570.852 890.403 581.394C891.698 565.488 906.124 551.616 922.03 551.246C937.937 550.691 953.288 563.453 955.693 579.36C957.542 592.307 951.809 604.884 945.89 616.351C932.388 642.43 916.297 668.694 890.958 683.491C864.694 698.842 832.511 699.212 802.178 699.397C772.4 699.397 739.663 698.657 716.913 679.422C705.446 669.619 700.082 656.672 693.054 643.725C684.546 627.449 678.072 611.172 675.298 593.047Z" fill="url(#paint11_linear)"/>
<path d="M905.94 565.858C904.645 556.795 904.09 547.362 907.049 538.669C909.824 529.976 916.482 522.023 925.36 519.803C936.088 517.029 947.74 522.948 954.583 531.641C961.612 540.334 964.941 551.246 968.085 561.974C964.201 547.362 960.132 532.196 961.427 517.029C962.721 501.863 970.12 486.326 983.807 479.668C997.493 473.009 1017.1 478.743 1021.72 493.17C1022.83 496.684 1023.02 500.198 1023.2 503.897C1023.94 514.995 1024.68 526.092 1025.24 537.189C1027.83 514.255 1042.81 493.17 1063.71 483.182C1074.44 478.003 1089.23 476.523 1096.82 485.771C1103.1 493.355 1101.44 504.637 1098.48 513.885C1095.34 523.318 1091.08 532.75 1092.75 542.553C1093.86 530.161 1106.8 520.358 1118.83 522.578C1119.56 533.12 1120.3 543.663 1121.04 554.205C1122.34 538.299 1136.77 524.427 1152.67 524.057C1168.58 523.503 1183.93 536.265 1186.33 552.171C1188.18 565.118 1182.45 577.695 1176.53 589.162C1163.03 615.241 1146.94 641.505 1121.6 656.302C1095.34 671.653 1063.15 672.023 1032.82 672.208C1003.04 672.208 970.305 671.468 947.555 652.233C936.088 642.43 930.724 629.483 923.695 616.536C915.187 600.26 908.529 583.984 905.94 565.858Z" fill="url(#paint12_linear)"/>
<path d="M147.43 533.12C146.136 524.058 145.581 514.625 148.54 505.932C151.315 497.239 157.973 489.286 166.851 487.066C177.578 484.292 189.231 490.21 196.074 498.903C202.918 507.596 206.432 518.509 209.576 529.236C205.692 514.625 201.623 499.458 202.918 484.292C204.212 469.125 211.611 453.589 225.297 446.93C238.984 440.272 258.59 446.006 263.214 460.432C264.323 463.947 264.508 467.461 264.693 471.16C265.433 482.257 266.173 493.355 266.728 504.452C269.317 481.517 284.299 460.432 305.199 450.445C315.926 445.266 330.723 443.786 338.306 453.034C344.595 460.617 342.93 471.9 339.971 481.148C336.826 490.58 332.572 500.013 334.237 509.816C335.347 497.424 348.294 487.621 360.316 489.841C361.056 500.383 361.796 510.926 362.536 521.468C363.83 505.562 378.257 491.69 394.163 491.32C410.07 490.765 425.421 503.527 427.825 519.434C429.675 532.381 423.941 544.958 418.023 556.425C404.521 582.504 388.43 608.768 363.09 623.564C336.826 638.916 304.644 639.286 274.311 639.471C244.533 639.471 211.796 638.731 189.046 619.495C177.578 609.693 172.215 596.746 165.186 583.799C156.678 567.522 150.02 551.246 147.43 533.12Z" fill="url(#paint13_linear)"/>
<path d="M-53.2479 625.784C-54.5426 616.721 -55.0975 607.288 -52.1382 598.595C-49.3638 589.902 -42.7053 581.949 -33.8274 579.73C-23.0999 576.955 -11.4476 582.874 -4.60419 591.567C2.42417 600.26 5.75341 611.172 8.89768 621.9C5.01358 607.288 0.944527 592.122 2.23923 576.955C3.53393 561.789 10.9322 546.252 24.619 539.594C38.3059 532.935 57.9113 538.669 62.5352 553.096C63.645 556.61 63.8299 560.124 64.0149 563.823C64.7547 574.921 65.4945 586.018 66.0494 597.116C68.6388 574.181 83.6203 553.096 104.52 543.108C115.248 537.929 130.045 536.45 137.628 545.697C143.916 553.281 142.252 564.563 139.292 573.811C136.148 583.244 131.894 592.677 133.559 602.479C134.668 590.087 147.615 580.284 159.638 582.504C160.378 593.047 161.117 603.589 161.857 614.132C163.152 598.225 177.579 584.354 193.485 583.984C209.391 583.429 224.743 596.191 227.147 612.097C228.997 625.044 223.263 637.621 217.344 649.089C203.842 675.167 187.751 701.431 162.412 716.228C136.148 731.579 103.966 731.949 73.6326 732.134C43.8546 732.134 11.1172 731.394 -11.6326 712.159C-23.0999 702.356 -28.4637 689.409 -35.492 676.462C-44 660.186 -50.6585 643.91 -53.2479 625.784Z" fill="url(#paint14_linear)"/>
<path d="M921.846 696.253C942.376 674.058 954.398 644.095 954.768 613.947C954.768 607.658 954.398 601.185 951.624 595.636C948.85 590.087 943.116 585.463 936.827 585.833C931.464 586.018 926.84 589.532 923.88 593.971C920.921 598.41 919.441 603.589 917.962 608.583C921.661 592.492 922.586 575.846 920.736 559.384C919.811 551.801 917.037 542.923 909.824 540.889C904.645 539.594 899.096 542.553 895.952 546.992C892.808 551.246 891.513 556.61 890.218 561.974C914.263 485.402 870.428 462.097 860.81 512.59C852.117 491.505 844.164 419.742 806.618 437.128C769.071 454.329 813.831 514.81 824.189 531.271C815.496 524.058 787.197 502.233 777.579 516.474C763.523 537.19 797.555 566.598 824.373 588.608C813.646 583.799 802.364 578.99 790.711 579.545C778.874 580.1 766.667 588.053 765.187 599.705C763.892 609.693 770.736 618.941 777.949 626.154C794.41 642.615 814.941 654.822 837.32 661.296C829.737 660.926 821.784 660.741 814.756 663.7C807.727 666.659 801.254 673.688 802.549 681.271C810.872 727.14 919.626 702.726 921.846 696.253Z" fill="url(#paint15_linear)"/>
<path opacity="0.64" d="M907.419 569.002C902.98 591.197 896.692 613.022 892.253 635.217C885.409 619.495 878.566 603.959 871.537 588.238C874.127 565.858 873.942 542.923 873.757 520.543C873.757 519.619 872.277 519.434 872.277 520.358C871.907 541.443 869.873 562.344 869.318 583.244C849.527 538.854 829.552 494.649 810.317 450.075C810.132 449.705 809.392 449.89 809.577 450.445C827.333 493.724 844.904 537.374 863.214 580.654C845.458 567.152 825.668 556.055 807.912 542.553C807.542 542.368 807.357 542.738 807.542 542.923C825.298 557.535 843.979 573.626 864.694 583.984C872.462 602.294 880.415 620.42 888.553 638.546C864.509 632.072 841.02 629.668 819.01 616.536C818.455 616.166 818.085 616.906 818.455 617.276C838.985 630.408 865.064 638.916 889.478 640.765C897.616 658.521 905.755 676.277 914.263 693.848C915.002 695.328 917.222 694.218 916.482 692.738C908.899 674.428 901.131 656.302 893.177 638.176C901.131 616.351 904.645 591.752 907.234 568.632C907.789 568.817 907.419 568.817 907.419 569.002Z" fill="#00804F"/>
<path d="M442.437 647.609C447.801 643.355 452.795 637.621 453.35 630.778C454.09 623.934 448.726 616.351 441.882 616.721C448.541 616.166 455.569 615.611 461.488 612.467C467.406 609.323 472.4 603.219 471.845 596.561C471.291 589.902 463.522 584.169 457.604 587.128C464.077 585.278 470.736 583.244 476.099 579.36C481.648 575.476 485.717 569.002 485.347 562.344C484.977 555.87 479.984 550.136 473.695 547.732C467.591 545.512 460.563 546.252 454.644 549.027C464.077 541.628 473.325 533.49 479.614 523.318C485.902 513.145 489.231 500.568 486.272 488.916C483.313 477.263 473.14 467.091 461.303 466.351C447.431 465.426 435.224 476.523 430.045 489.285C425.051 502.232 425.606 516.474 426.346 530.346C426.531 519.249 413.214 511.48 402.671 514.625C392.129 517.769 385.47 529.051 384.731 539.964C383.991 551.061 388.06 561.789 393.054 571.591C389.355 560.494 376.777 553.281 365.125 554.945C353.473 556.61 343.67 566.228 341.081 577.695C338.491 589.162 366.975 655.932 366.975 655.932C366.975 655.932 427.271 659.631 442.437 647.609Z" fill="url(#paint16_linear)"/>
<path opacity="0.52" d="M422.647 587.128C441.883 554.39 458.529 517.214 466.112 479.853C466.112 479.668 465.927 479.668 465.927 479.853C458.714 497.424 453.905 515.919 446.691 533.49C439.293 551.616 430.6 569.002 420.612 585.833C400.822 618.94 376.223 647.609 349.219 674.797C348.479 675.537 349.589 676.832 350.514 676.092C379.182 651.308 403.226 620.05 422.647 587.128Z" fill="#003C67"/>
<path d="M513.646 729.36C534.916 721.777 553.226 705.87 563.769 685.895C565.988 681.826 567.838 677.202 567.838 672.578C567.838 667.954 565.619 662.96 561.365 660.926C557.85 659.261 553.411 660.001 549.897 661.851C546.383 663.7 543.609 666.66 540.834 669.619C548.787 660.186 555.076 649.274 559.515 637.806C561.55 632.443 562.844 625.599 558.59 621.715C555.631 619.126 550.822 619.126 547.308 620.975C543.794 622.825 541.019 625.969 538.43 628.928C580.785 586.203 559.7 555.685 535.84 586.018C537.32 569.002 556.556 518.509 525.668 517.214C494.78 515.735 503.843 571.407 505.138 585.833C501.808 578.065 490.526 553.836 479.059 559.939C462.597 568.817 475.175 600.075 485.532 623.934C479.983 617.091 474.25 610.063 466.112 606.364C458.159 602.664 447.246 603.774 442.252 610.988C437.998 617.276 439.293 625.599 441.697 632.812C447.061 649.459 456.494 664.625 469.071 676.647C464.077 673.873 458.898 670.914 453.165 670.544C447.431 669.989 440.773 672.578 439.108 677.942C429.12 711.789 509.946 732.874 513.646 729.36Z" fill="url(#paint17_linear)"/>
<path opacity="0.64" d="M547.677 639.841C537.135 652.973 525.298 665.365 514.755 678.682C515.68 665.92 516.42 653.158 517.16 640.395C526.592 626.524 534.176 610.987 541.944 596.006C542.314 595.451 541.389 594.711 541.019 595.451C533.436 609.323 525.113 622.64 517.529 636.326C519.564 600.075 521.414 563.638 524.003 527.387C524.003 527.017 523.448 527.017 523.448 527.387C520.304 562.344 516.975 597.3 514.385 632.442C507.172 617.461 497.924 603.219 490.711 588.053C490.526 587.868 490.156 588.053 490.341 588.238C497.184 604.144 504.028 621.16 514.2 635.217C513.09 650.013 512.166 664.81 511.426 679.791C497.739 667.214 482.943 657.596 472.77 641.32C472.585 640.95 472.03 641.32 472.215 641.69C481.463 657.596 495.705 672.208 511.426 681.826C510.686 696.437 510.131 711.049 509.761 725.661C509.761 726.955 511.611 726.955 511.611 725.661C512.906 710.864 513.83 696.068 514.94 681.456C527.702 669.619 538.615 654.452 548.232 640.026C547.862 639.841 547.677 639.656 547.677 639.841Z" fill="#00804F"/>
<path d="M1111.61 630.223C1087.2 615.241 1066.67 594.156 1052.24 569.372C1047.62 561.419 1043.55 552.911 1042.07 543.663C1040.59 534.6 1042.07 524.612 1047.62 517.214C1053.17 509.816 1063.15 505.377 1072.03 507.781C1065 496.314 1057.79 484.662 1055.2 471.53C1052.43 458.398 1055.02 443.416 1065 434.353C1074.99 425.29 1093.12 425.475 1100.33 436.758C1095.15 427.695 1094.78 415.488 1101.07 407.165C1108.47 397.547 1123.08 395.512 1134.18 400.691C1145.27 405.87 1152.67 416.597 1156.56 428.25C1160.44 439.717 1161 452.109 1161.74 464.131C1161.92 453.034 1172.46 443.786 1183.38 443.046C1194.47 442.306 1205.02 448.78 1211.49 457.843C1217.96 466.906 1220.37 478.188 1221.11 489.101C1222.59 515.18 1213.34 541.628 1196.14 561.234C1195.95 561.419 1112.72 628.928 1111.61 630.223Z" fill="url(#paint18_linear)"/>
<path opacity="0.52" d="M1112.35 646.684C1120.67 607.288 1125.85 567.892 1127.15 528.682C1104.03 514.44 1087.57 493.355 1071.11 472.085C1070.92 471.715 1071.29 471.345 1071.66 471.715C1088.31 491.875 1105.32 511.296 1127.33 525.722C1128.26 488.546 1125.48 451.184 1118.09 413.638C1117.9 412.898 1119.2 412.528 1119.38 413.453C1122.52 427.88 1124.93 442.676 1126.78 457.473C1129.18 453.774 1132.14 450.26 1134.55 446.376C1137.32 441.382 1139.91 436.203 1141.76 431.024C1141.94 430.284 1142.87 430.654 1142.68 431.394C1141.57 436.573 1139.91 441.382 1137.51 446.191C1136.21 448.595 1134.92 451 1133.44 453.219C1131.96 455.439 1129 458.028 1128.63 460.617C1128.44 461.357 1127.89 461.727 1127.33 461.542C1131.03 490.95 1132.33 520.913 1130.85 550.691C1155.63 531.641 1178.75 507.781 1188.18 477.448C1188.37 476.894 1188.92 477.078 1188.92 477.633C1188.55 493.725 1178.38 507.596 1168.58 519.434C1157.67 532.751 1145.27 545.143 1130.48 554.206C1128.63 586.018 1123.63 617.461 1114.94 647.794C1114.39 649.458 1111.98 648.349 1112.35 646.684Z" fill="#003F55"/>
<path d="M1088.86 604.514C1109.02 590.272 1123.63 568.262 1129 544.218C1130.11 539.224 1130.85 534.045 1129.55 529.051C1128.26 524.057 1124.37 519.619 1119.38 518.694C1115.13 517.954 1110.69 519.988 1107.54 523.133C1104.4 526.092 1102.36 529.976 1100.33 533.86C1105.88 521.653 1109.39 508.336 1110.69 494.834C1111.24 488.546 1110.5 480.962 1104.95 478.188C1101.07 476.339 1096.08 477.818 1092.75 480.778C1089.42 483.737 1087.57 487.806 1085.72 491.69C1089.23 477.633 1090.9 463.022 1090.71 448.595C1090.71 443.416 1090.16 437.867 1086.46 434.168C1082.76 430.654 1073.7 427.88 1070.37 447.3C1066.85 428.99 1061.86 410.864 1055.57 393.478C1052.8 385.895 1047.62 377.017 1039.66 377.941C1031.71 378.681 1028.38 388.669 1027.83 396.622C1026.72 412.528 1032.63 441.197 1038.18 456.178C1032.45 448.965 1013.4 426.77 1003.23 436.573C988.615 450.814 1010.81 480.038 1028.75 502.048C1020.98 496.499 1012.66 490.765 1003.23 489.101C993.794 487.621 982.511 491.875 979.552 500.938C976.963 508.706 980.847 517.214 985.286 524.057C995.643 539.964 1010.25 553.096 1026.9 562.159C1020.8 560.679 1014.51 559.199 1008.41 560.309C1002.3 561.419 995.828 566.043 995.828 572.331C994.904 610.802 1086.09 609.323 1088.86 604.514Z" fill="url(#paint19_linear)"/>
<path d="M1098.48 500.383C1091.27 517.399 1082.57 533.86 1075.36 550.876C1072.59 537.189 1069.63 523.503 1066.67 509.816C1072.59 492.43 1076.1 473.934 1079.8 455.993C1079.98 455.253 1078.87 454.884 1078.69 455.623C1074.8 472.269 1069.81 488.731 1065.93 505.562C1057.42 466.721 1048.91 428.065 1040.96 389.224C1040.96 388.854 1040.22 389.039 1040.4 389.409C1047.25 427.14 1054.09 464.871 1061.67 502.602C1049.65 488.916 1035.78 476.708 1023.76 462.837C1023.57 462.652 1023.2 463.022 1023.39 463.207C1035.22 478.003 1047.43 493.909 1062.23 505.562C1065.37 521.468 1068.7 537.374 1072.22 553.281C1054.09 544.033 1035.59 538.299 1020.24 524.057C1019.87 523.688 1019.32 524.242 1019.69 524.612C1033.93 538.669 1053.35 549.766 1072.59 555.315C1076.1 570.852 1079.61 586.573 1083.68 601.924C1084.05 603.219 1085.9 602.664 1085.72 601.369C1082.76 585.463 1079.43 569.742 1076.28 553.836C1086.27 537.559 1093.3 518.509 1099.22 500.568C1098.85 500.198 1098.48 500.198 1098.48 500.383Z" fill="#00706D"/>
<path d="M954.661 737.342C954.661 737.342 925.993 628.218 926.178 549.426C926.178 501.152 928.397 444.555 957.435 406.084C980.185 375.936 1012.74 392.952 1021.62 423.47C1034.01 465.64 1023.83 528.341 1014.96 570.881C997.941 653.927 954.661 737.342 954.661 737.342Z" fill="url(#paint20_linear)"/>
<path d="M1019.58 463.236C1000.16 485.246 982.405 508.55 966.313 533.15C966.683 529.265 967.053 525.196 967.423 521.312C984.254 495.603 1002.2 470.634 1020.88 446.405C1020.88 446.405 1020.88 446.22 1020.69 446.22C1001.83 468.785 984.254 492.089 967.793 516.503C971.862 480.437 977.226 444.555 982.775 408.489C982.775 408.304 982.405 408.119 982.405 408.304C980.555 418.661 978.705 429.019 977.041 439.561C976.116 429.574 974.636 419.771 972.972 409.783C972.972 409.598 972.787 409.783 972.787 409.783C974.452 420.326 975.746 431.053 976.671 441.596C970.012 481.916 964.279 522.237 961.135 562.928C955.586 528.896 947.818 495.048 938.57 461.756H938.385C947.448 496.528 954.661 531.67 960.765 567.182C960.395 571.621 960.21 576.06 959.84 580.499C959.655 584.198 959.47 587.897 959.285 591.596C952.997 554.235 942.269 517.613 934.871 480.622C934.871 480.437 934.686 480.622 934.686 480.622C943.379 519.463 948.373 559.229 958.915 597.7C955.586 652.262 952.072 707.379 952.442 761.941C952.442 763.051 954.106 763.051 954.291 761.941C958.175 719.401 959.285 676.676 960.58 633.951C981.85 618.97 995.537 594.185 1008.3 572.176C1008.48 571.806 1007.93 571.621 1007.74 571.806C994.057 594 979.815 613.976 960.58 631.547C960.765 627.108 960.95 622.669 960.95 618.045C980.74 597.145 996.276 573.1 1009.96 547.761C1009.96 547.576 1009.78 547.576 1009.78 547.576C996.276 571.806 979.26 593.815 961.135 614.531C961.505 604.358 961.874 594.185 962.429 584.013C963.169 568.106 964.464 552.385 965.943 536.479C982.405 510.955 1000.35 486.355 1019.77 463.051C1019.95 463.421 1019.77 463.051 1019.58 463.236Z" fill="#007683"/>
<path d="M297.43 652.788C303.349 631.333 314.076 610.433 331.462 596.376C361.056 572.331 403.041 571.962 440.772 576.77C451.315 578.065 462.597 580.1 469.81 587.868C477.209 596.006 478.133 608.213 477.394 619.126C474.989 649.643 462.597 679.052 442.252 701.986C421.906 724.736 394.163 740.827 364.2 746.561C350.513 749.335 336.086 749.89 322.769 745.636C309.453 741.567 292.621 729.73 289.662 715.118C285.593 697.362 292.806 670.174 297.43 652.788Z" fill="url(#paint21_linear)"/>
<path opacity="0.52" d="M468.701 601.185C460.008 605.254 451.315 609.508 442.622 613.947C447.061 607.288 450.205 599.52 453.164 592.122C453.349 591.752 452.794 591.567 452.609 591.937C448.91 600.26 443.917 607.658 439.478 615.611C438.553 615.981 437.628 616.536 436.703 616.906C442.437 608.398 445.396 598.41 448.355 588.608C448.355 588.423 448.171 588.423 447.986 588.608C444.101 599.335 440.032 609.693 433.004 618.756C412.474 629.113 392.129 640.026 372.708 652.233C376.407 631.703 378.812 611.727 385.47 591.752C385.655 591.382 385.1 591.197 384.915 591.567C377.517 610.987 370.674 632.442 370.674 653.528C366.05 656.487 361.426 659.631 356.802 662.775C359.576 640.026 362.165 618.201 368.454 595.821C368.639 595.266 367.899 595.266 367.714 595.636C359.946 617.091 354.027 641.505 354.212 664.44C350.328 667.029 346.629 669.804 342.93 672.578C330.908 681.641 319.07 691.629 308.528 702.911C310.193 692.923 310.747 682.751 312.782 672.763C315.186 660.741 318.886 649.089 323.324 637.621C323.324 637.436 322.955 637.251 322.955 637.436C313.337 657.597 303.534 683.306 305.384 706.24C289.292 724.181 276.345 744.896 270.982 768.386C270.427 770.605 273.571 771.345 274.311 769.311C285.408 741.012 301.869 717.153 322.585 696.623C342.93 695.328 365.495 704.576 384.175 710.679C385.285 711.049 385.84 709.385 384.915 709.015C373.818 703.466 361.98 700.137 349.958 697.547C341.635 695.883 333.127 694.218 324.804 694.588C326.469 692.923 328.133 691.444 329.798 689.779C355.322 688.484 378.812 696.623 403.411 702.726C404.521 703.096 404.891 701.431 403.966 701.061C381.031 692.184 355.877 685.71 331.278 688.484C338.306 682.196 345.704 676.277 353.473 670.544C365.125 662.22 377.147 654.267 389.539 646.684C403.781 650.383 418.207 656.487 430.785 664.07C430.97 664.255 431.154 663.885 430.97 663.7C421.167 654.452 405.445 647.424 391.944 645.204C395.643 642.985 399.342 640.765 402.856 638.546C410.069 639.656 416.913 640.396 423.756 643.355C430.415 646.314 436.703 650.013 442.807 653.713C443.732 654.267 444.286 652.973 443.547 652.418C433.374 645.019 419.872 635.217 406.555 636.326C415.063 631.333 423.756 626.524 432.264 621.715C432.449 621.715 432.449 621.715 432.634 621.53C444.841 614.871 456.864 608.398 469.071 601.925C469.995 601.74 469.441 600.815 468.701 601.185Z" fill="#003F55"/>
<path d="M1088.12 699.952C1069.63 688.114 1053.35 671.838 1045.03 651.493C1031.16 616.721 1042.99 577.14 1058.53 543.108C1062.78 533.675 1067.96 523.503 1077.39 519.064C1087.2 514.44 1098.85 517.214 1109.02 521.098C1136.95 532.196 1161 552.541 1176.53 578.25C1192.07 603.959 1198.91 634.847 1195.58 664.625C1194.1 678.312 1190.4 691.998 1182.64 703.281C1174.87 714.563 1158.78 726.955 1144.16 725.476C1126.41 723.996 1102.92 709.569 1088.12 699.952Z" fill="url(#paint22_linear)"/>
<path opacity="0.52" d="M1089.6 524.057C1090.9 533.49 1092.38 542.923 1093.86 552.171C1088.86 546.067 1082.57 540.704 1076.47 535.895C1076.29 535.71 1075.92 536.08 1076.1 536.265C1082.76 542.183 1088.31 549.027 1094.41 555.5C1094.6 556.425 1094.78 557.535 1094.97 558.459C1088.68 550.506 1080.17 544.773 1071.66 539.224C1071.48 539.039 1071.29 539.409 1071.48 539.409C1080.35 546.067 1089.05 553.096 1095.52 562.159C1099.22 584.353 1103.66 606.733 1109.39 628.558C1091.27 619.125 1073.14 610.987 1056.31 598.965C1055.94 598.78 1055.75 599.15 1055.94 599.52C1072.03 612.097 1090.34 624.859 1109.95 631.148C1111.43 636.511 1112.91 641.69 1114.57 646.869C1094.04 637.621 1074.25 628.743 1055.2 616.351C1054.83 616.166 1054.46 616.721 1054.83 616.906C1072.77 630.408 1093.86 643.17 1115.5 649.643C1116.79 654.082 1118.27 658.336 1119.75 662.59C1124.74 676.462 1130.66 690.519 1138.25 703.836C1129.37 699.397 1119.94 695.883 1111.24 691.074C1100.7 685.155 1090.71 678.497 1081.46 670.913C1081.28 670.728 1081.09 671.098 1081.09 671.283C1097.37 686.265 1118.46 702.911 1140.65 707.905C1152.86 728.25 1168.39 746.376 1188.92 758.398C1190.96 759.508 1192.44 756.918 1190.77 755.439C1167.47 736.758 1149.9 714.378 1136.58 688.854C1141.39 669.249 1156.56 650.938 1167.65 635.217C1168.21 634.292 1166.91 633.182 1166.17 633.922C1157.85 642.8 1151.01 652.788 1145.27 663.515C1141.21 670.728 1137.14 678.312 1135.29 686.265C1134.18 684.23 1133.25 682.196 1132.33 680.161C1138.43 655.747 1153.04 635.956 1165.99 614.871C1166.54 613.947 1165.25 613.022 1164.51 613.947C1149.53 632.812 1136.03 654.637 1131.4 678.497C1127.52 670.173 1124.19 661.48 1121.04 652.418C1116.61 639.101 1112.72 625.414 1109.21 611.542C1116.98 599.335 1126.78 587.498 1137.69 578.065C1137.88 577.88 1137.69 577.51 1137.51 577.695C1126.04 584.168 1114.76 596.746 1108.65 608.953C1107.54 604.884 1106.62 600.815 1105.69 596.746C1108.84 590.272 1111.61 584.168 1116.42 578.62C1121.04 573.256 1126.41 568.447 1131.59 563.638C1132.33 563.083 1131.4 561.974 1130.66 562.528C1120.67 569.927 1107.73 579.729 1104.77 592.676C1102.55 583.244 1100.51 573.811 1098.66 564.193C1098.66 564.008 1098.66 564.008 1098.66 563.823C1095.89 550.506 1093.49 537.189 1090.9 523.872C1090.53 522.948 1089.6 523.318 1089.6 524.057Z" fill="#003F55"/>
<path d="M170.55 667.584C201.623 610.248 185.717 557.165 166.111 508.336C161.117 495.944 155.014 483.552 145.396 474.119C135.778 464.871 121.906 458.953 108.775 461.727C93.793 464.871 82.6956 478.558 79.5513 493.355C76.4071 508.336 80.4761 523.873 87.5045 537.374C82.6956 532.011 77.7018 526.462 71.2283 523.318C64.7548 519.988 56.4317 519.434 50.698 523.873C43.2997 529.421 42.9298 540.334 44.2245 549.582C46.629 568.262 52.9175 586.573 62.3503 603.034C58.8361 597.3 55.137 591.382 49.7732 587.128C44.4095 582.874 37.1961 580.469 30.7227 582.689C24.2492 584.908 20.1801 591.382 18.8854 598.04C17.5907 604.699 18.7005 611.542 20.735 618.016C45.3343 699.582 128.565 709.2 128.565 709.2C128.565 709.2 151.87 702.356 170.55 667.584Z" fill="url(#paint23_linear)"/>
<path opacity="0.64" d="M102.116 500.013C101.931 499.458 100.821 499.643 101.191 500.383C112.474 540.334 124.681 579.175 131.339 620.235C138.183 662.035 139.107 703.836 142.807 745.821C142.991 747.856 145.581 747.671 145.766 745.821C149.65 704.945 143.731 662.22 136.518 622.085C128.935 581.024 119.132 538.299 102.116 500.013Z" fill="#00804F"/>
<path d="M683.991 726.77C743.362 699.952 762.783 647.979 776.655 597.115C780.169 584.168 782.758 570.667 780.724 557.35C778.689 544.033 771.106 531.086 759.084 525.352C745.397 518.694 728.011 522.948 716.728 532.935C705.446 542.923 698.973 557.905 696.568 572.886C696.013 565.673 695.273 558.274 692.129 551.801C688.985 545.327 682.696 539.779 675.483 539.779C666.235 539.779 659.392 548.287 654.768 556.425C645.335 572.886 639.231 591.197 636.827 609.877C637.382 603.034 638.122 596.191 636.457 589.532C634.793 582.874 630.538 576.585 624.065 574.551C617.592 572.516 610.378 575.106 605.384 579.545C600.39 584.168 597.061 590.272 594.657 596.561C564.879 676.462 625.36 734.354 625.36 734.354C625.36 734.354 648.109 743.047 683.991 726.77Z" fill="url(#paint24_linear)"/>
<path opacity="0.4" d="M698.048 641.505C723.942 633.737 746.137 613.762 760.563 591.382C760.748 591.012 760.194 590.642 760.009 591.012C744.657 613.392 724.127 627.264 699.898 637.806C712.66 610.063 723.942 581.024 730.785 551.801C730.97 551.246 730.046 550.691 729.861 551.431C715.064 589.347 701.377 627.079 682.512 663.145C676.778 639.656 673.819 616.351 674.928 591.937C674.928 591.752 674.558 591.752 674.558 591.937C673.264 616.166 675.298 640.951 681.772 664.44C681.587 664.625 681.587 664.81 681.402 664.995C671.414 684.045 660.132 701.986 648.48 719.927C632.573 690.889 624.25 657.042 627.394 623.934C627.394 623.75 627.209 623.75 627.209 623.934C624.065 658.336 629.614 691.629 646.445 722.147C646.63 722.332 646.63 722.517 646.815 722.517C636.087 738.978 625.175 755.254 614.632 772.085C613.523 773.75 615.742 775.229 617.037 773.935C637.197 751.925 653.843 726.031 668.64 699.582C697.308 687.93 726.531 673.688 745.952 648.719C746.322 648.349 745.767 647.794 745.397 648.164C725.977 672.578 698.048 684.785 670.119 696.808C675.113 687.745 679.922 678.682 684.361 669.619C688.985 660.371 693.609 650.938 698.048 641.505Z" fill="#007683"/>
<path d="M580.97 722.886C561.735 711.234 533.066 702.171 509.762 691.814C479.429 678.312 467.776 650.753 479.614 637.066C491.451 623.38 520.304 627.819 538.8 650.383C562.474 679.237 580.97 722.886 580.97 722.886Z" fill="url(#paint25_linear)"/>
<path d="M585.039 727.695C557.111 698.842 527.148 671.838 497 645.39C496.815 645.205 496.445 645.574 496.63 645.759C526.038 673.318 555.631 700.507 583.374 729.36C583.929 728.805 584.484 728.25 585.039 727.695Z" fill="#008380"/>
<path d="M582.634 735.464C575.236 708.645 557.11 675.722 544.903 646.499C529.182 608.398 542.129 573.626 564.509 571.407C586.888 569.187 609.083 597.855 606.494 633.922C603.35 680.346 582.634 735.464 582.634 735.464Z" fill="url(#paint26_linear)"/>
<path d="M582.265 743.417C581.895 693.478 577.826 643.54 573.387 594.156C573.387 593.786 572.832 593.971 572.832 594.341C575.791 644.28 579.12 694.033 579.49 743.786C580.23 743.602 581.155 743.417 582.265 743.417Z" fill="#008380"/>
<path d="M347.369 502.048C294.841 523.133 173.139 609.878 214.57 744.157C214.57 744.157 289.847 724.921 317.591 643.91C336.271 589.902 347.554 528.682 347.369 502.048Z" fill="url(#paint27_linear)"/>
<path opacity="0.66" d="M214.385 787.067C215.31 755.809 221.968 726.771 232.326 698.472H232.511C254.521 691.259 276.9 687.375 299.465 682.936C299.65 682.936 299.65 682.566 299.465 682.566C277.085 682.566 255.075 687.375 233.99 694.033C234.175 693.663 234.36 693.108 234.545 692.738C246.197 689.409 257.665 685.34 269.687 682.381C280.969 679.792 292.622 678.682 303.904 676.092C304.459 675.907 304.459 675.168 303.904 675.168C282.264 674.428 256.555 679.792 236.21 688.669C241.204 676.092 247.122 663.515 253.411 651.123C254.151 649.643 254.89 648.164 255.63 646.684C278.565 637.991 302.055 631.518 325.359 624.119C325.914 623.934 325.729 623.195 325.174 623.195C302.239 626.154 279.675 633.552 258.22 642.06C259.699 639.286 260.994 636.512 262.474 633.737C284.854 625.969 306.493 617.091 329.243 610.063C329.428 610.063 329.243 609.878 329.243 609.878C307.233 615.241 284.853 621.53 264.138 630.963C266.913 625.784 269.872 620.42 272.831 615.241C273.201 615.057 273.571 614.687 273.571 614.132C290.957 583.059 310.193 553.096 332.203 525.167C332.572 524.798 331.833 524.243 331.648 524.797C312.782 547.547 295.766 571.592 280.415 596.561C280.599 583.614 275.606 568.632 269.132 558.09C268.947 557.72 268.577 558.09 268.577 558.46C270.797 565.858 273.386 573.256 274.866 580.839C276.161 587.498 276.345 594.341 277.825 600.815C276.161 603.589 274.496 606.364 272.831 609.138C270.057 593.047 268.577 577.14 261.364 562.159C261.364 561.974 261.179 562.159 261.179 562.159C267.098 578.435 268.022 595.821 270.612 612.837C263.214 625.599 256.185 638.546 249.342 651.493C244.903 660.001 240.834 668.324 236.95 677.017C234.73 670.544 230.291 664.995 227.147 658.891C223.448 651.863 220.673 644.65 217.899 637.251C217.344 635.587 214.755 635.957 214.57 637.621C213.83 644.65 217.714 653.528 220.858 659.631C224.373 667.029 228.812 675.722 235.1 680.901C235.1 680.901 235.285 680.901 235.285 681.086C220.673 714.563 210.871 749.335 211.611 787.067C210.871 788.916 214.2 788.916 214.385 787.067Z" fill="#007A52"/>
<path d="M1076.84 531.641C1024.31 552.726 902.61 639.471 944.041 773.75C944.041 773.75 1019.32 754.514 1047.06 673.503C1065.74 619.31 1077.02 558.09 1076.84 531.641Z" fill="url(#paint28_linear)"/>
<path opacity="0.66" d="M943.671 816.475C944.596 785.217 951.254 756.179 961.612 727.88H961.796C983.806 720.667 1006.19 716.783 1028.75 712.344C1028.94 712.344 1028.94 711.974 1028.75 711.974C1006.37 711.974 984.361 716.783 963.276 723.441C963.461 723.071 963.646 722.517 963.831 722.147C975.483 718.818 986.951 714.748 998.973 711.789C1010.26 709.2 1021.91 708.09 1033.19 705.501C1033.74 705.316 1033.74 704.576 1033.19 704.576C1011.55 703.836 985.841 709.2 965.496 718.078C970.489 705.501 976.408 692.924 982.697 680.531C983.437 679.052 984.176 677.572 984.916 676.092C1007.85 667.399 1031.34 660.926 1054.64 653.528C1055.2 653.343 1055.01 652.603 1054.46 652.603C1031.53 655.562 1008.96 662.96 987.506 671.468C988.985 668.694 990.28 665.92 991.76 663.145C1014.14 655.377 1035.78 646.499 1058.53 639.471C1058.71 639.471 1058.53 639.286 1058.53 639.286C1036.52 644.65 1014.14 650.938 993.424 660.371C996.199 655.192 999.158 649.828 1002.12 644.65C1002.49 644.465 1002.86 644.095 1002.86 643.54C1020.24 612.467 1039.48 582.504 1061.49 554.576C1061.86 554.206 1061.12 553.651 1060.93 554.206C1042.07 576.955 1025.05 601 1009.7 625.969C1009.89 613.022 1004.89 598.041 998.418 587.498C998.233 587.128 997.863 587.498 997.863 587.868C1000.08 595.266 1002.67 602.664 1004.15 610.248C1005.45 616.906 1005.63 623.75 1007.11 630.223C1005.45 632.997 1003.78 635.772 1002.12 638.546C999.343 622.455 997.863 606.549 990.65 591.567C990.65 591.382 990.465 591.567 990.465 591.567C996.383 607.843 997.308 625.229 999.898 642.245C992.499 655.007 985.471 667.954 978.628 680.901C974.189 689.409 970.12 697.732 966.236 706.425C964.016 699.952 959.577 694.403 956.433 688.3C952.734 681.271 949.959 674.058 947.185 666.66C946.63 664.995 944.041 665.365 943.856 667.029C943.116 674.058 947 682.936 950.144 689.039C953.658 696.438 958.097 705.131 964.386 710.309C964.386 710.309 964.571 710.309 964.571 710.494C949.959 743.972 940.157 778.744 940.896 816.475C940.341 818.324 943.671 818.324 943.671 816.475Z" fill="#007A52"/>
<path d="M775.175 556.98C829.737 571.776 960.872 643.355 935.533 781.703C935.533 781.703 858.591 771.53 821.414 694.403C796.445 642.8 778.134 583.429 775.175 556.98Z" fill="url(#paint29_linear)"/>
<path opacity="0.66" d="M940.896 824.243C936.273 793.355 926.285 765.242 912.598 738.423H912.413C889.663 733.984 867.099 732.689 843.979 731.025C843.794 731.025 843.794 730.655 843.979 730.655C866.174 728.065 888.554 730.285 910.379 734.354C910.194 733.984 910.009 733.429 909.824 733.059C897.802 731.025 885.964 728.435 873.757 726.955C862.29 725.661 850.637 726.031 839.17 724.736C838.615 724.736 838.43 723.811 838.985 723.811C860.44 720.482 886.519 722.886 907.789 729.175C901.316 717.153 894.102 705.5 886.149 693.848C885.224 692.553 884.3 691.074 883.375 689.779C859.515 683.861 835.656 680.161 811.612 675.537C811.057 675.352 811.242 674.613 811.796 674.613C834.916 674.798 858.221 679.422 880.601 685.34C878.936 682.751 877.086 680.161 875.422 677.757C852.302 672.578 829.737 666.475 806.433 662.22C806.248 662.22 806.248 662.036 806.433 662.036C828.812 664.81 851.932 668.509 873.572 675.167C870.058 670.359 866.729 665.365 863.215 660.556C862.845 660.371 862.475 660.001 862.475 659.446C841.575 630.778 819.01 603.219 793.671 578.065C793.301 577.695 793.856 577.14 794.226 577.51C815.681 597.855 835.286 619.68 853.597 642.8C851.747 629.853 855.076 614.502 860.255 603.404C860.44 603.034 860.81 603.404 860.81 603.589C859.515 611.172 857.851 618.756 857.111 626.524C856.556 633.182 857.296 640.026 856.556 646.684C858.591 649.274 860.625 651.863 862.475 654.452C863.215 638.176 862.845 622.085 868.393 606.363C868.393 606.179 868.578 606.363 868.578 606.363C864.509 623.195 865.804 640.581 865.249 657.782C874.127 669.619 882.635 681.456 890.958 693.663C896.322 701.431 901.501 709.385 906.309 717.523C907.789 710.864 911.488 704.761 913.893 698.472C916.667 691.074 918.517 683.491 920.551 675.907C920.921 674.243 923.51 674.243 923.88 675.907C925.545 682.751 922.586 691.999 920.366 698.472C917.592 706.24 914.448 715.303 908.714 721.222L908.529 721.407C927.025 753.034 940.712 786.327 944.411 823.688C944.411 825.723 941.266 826.092 940.896 824.243Z" fill="#007A52"/>
<path d="M1015.8 718.077C1028.2 699.397 1038.74 671.098 1050.02 648.164C1064.82 618.386 1092.93 608.028 1106.06 620.42C1119.2 632.812 1113.46 661.481 1090.16 679.051C1060.38 701.616 1015.8 718.077 1015.8 718.077Z" fill="url(#paint30_linear)"/>
<path d="M1010.81 721.961C1040.96 695.328 1069.26 666.659 1097 637.806C1097.19 637.621 1096.82 637.251 1096.63 637.436C1067.78 665.549 1039.29 693.848 1009.15 720.482C1009.7 721.037 1010.26 721.407 1010.81 721.961Z" fill="#008380"/>
<path d="M942.376 743.047C929.799 718.263 905.385 689.779 887.629 663.515C864.509 629.298 870.243 592.677 891.698 586.018C913.153 579.36 940.712 602.849 945.521 638.731C951.624 684.97 942.376 743.047 942.376 743.047Z" fill="url(#paint31_linear)"/>
<path d="M943.486 750.815C932.944 701.986 919.072 653.897 904.645 606.363C904.46 605.993 903.905 606.178 904.09 606.548C917.037 654.822 930.354 702.911 940.897 751.74C941.637 751.37 942.561 751.185 943.486 750.815Z" fill="#008380"/>
<path d="M723.017 733.614C736.519 709.2 746.507 673.133 758.159 643.725C773.51 605.439 807.173 589.532 824.744 603.589C842.315 617.646 838.06 653.528 811.057 677.572C776.285 708.645 723.017 733.614 723.017 733.614Z" fill="url(#paint32_linear)"/>
<path d="M717.283 738.978C751.87 703.096 783.868 664.44 815.311 625.969C815.496 625.599 815.126 625.414 814.756 625.599C782.018 663.33 749.651 701.247 715.064 737.313C715.804 737.683 716.544 738.238 717.283 738.978Z" fill="#008380"/>
<path d="M178.416 712.369C159.18 700.716 130.512 691.653 107.207 681.296C76.8742 667.794 65.2219 640.235 77.0591 626.549C88.8964 612.862 117.75 617.301 136.245 639.865C159.92 668.719 178.416 712.369 178.416 712.369Z" fill="url(#paint33_linear)"/>
<path d="M182.485 717.178C154.556 688.324 124.593 661.321 94.4452 634.872C94.2603 634.687 93.8904 635.057 94.0753 635.242C123.483 662.8 153.077 689.989 180.82 718.842C181.56 718.287 181.93 717.732 182.485 717.178Z" fill="#008380"/>
<path d="M192.472 712.739C185.074 685.92 166.948 652.998 154.741 623.774C139.02 585.673 151.967 550.901 174.347 548.682C196.726 546.462 218.921 575.131 216.332 611.197C213.188 657.621 192.472 712.739 192.472 712.739Z" fill="url(#paint34_linear)"/>
<path d="M192.102 720.692C191.733 670.753 187.664 620.815 183.225 571.431C183.225 571.061 182.67 571.246 182.67 571.616C185.629 621.555 188.958 671.308 189.328 721.062C190.068 720.877 191.178 720.692 192.102 720.692Z" fill="#008380"/>
<path opacity="0.51" d="M-138.607 -175.109H1301.39V848.891H-138.607V-175.109Z" fill="url(#paint35_radial)"/>
<path opacity="0.44" d="M1165.62 -124.587L614.632 821.654H273.201L1085.9 -124.587H1165.62ZM1222.77 -94.4389L688.43 884.724L780.909 892.122L1245.34 -85.376L1222.77 -94.4389ZM342.375 -137.164L-6.63858 213.515L-13.1121 348.533C-13.1121 348.533 390.834 -108.496 393.424 -114.599L342.375 -137.164ZM462.782 -112.565L-55.8372 524.242L6.30841 578.62L516.975 -112.565H462.782ZM719.318 -112.565C710.995 -106.461 -23.8396 715.303 -23.8396 715.303L129.12 813.515L761.118 -124.587L719.318 -112.565Z" fill="url(#paint36_linear)"/>
<path d="M1303.04 284.28L-140.829 284.28L-140.829 751.427L1303.04 751.427V284.28Z" fill="url(#paint37_linear)"/>
<path d="M-22.6325 770.831C-22.8066 770.636 -22.9702 770.256 -23.1444 770.061C-24.0045 768.901 -24.8541 767.555 -25.7037 766.21C-43.118 740.208 -58.8188 706.893 -68.2804 658.372L-45.1312 648.761L-73.2279 631.413C-73.2279 631.413 -71.389 615.401 -67.8997 593.184C-67.8576 592.445 -67.6308 591.717 -67.5887 590.978C-66.9458 586.198 -66.1182 581.429 -65.2695 576.29C-64.9375 573.715 -64.4104 570.966 -63.8832 568.217C-59.4237 541.98 -53.4822 512.492 -46.2576 489.747C-46.0519 489.388 -46.0204 488.834 -45.8147 488.475C-45.5879 487.747 -45.3611 487.019 -45.1344 486.291C-43.5471 481.194 -42.1761 476.641 -41.0318 472.816C-40.805 472.087 -40.5677 471.175 -40.341 470.447C-34.1344 449.31 -33.1116 444.367 -33.2332 443.248L-0.913329 441.756L-24.1926 427.646C-24.1926 427.646 -3.84306 395.645 27.585 357.791C35.7903 366.595 79.292 415.945 78.3746 490.551L55.8426 499.086L75.7387 504.295C75.7387 504.295 74.8853 512.768 73.0196 526C72.6771 528.76 72.1394 531.693 71.6017 534.627C67.5957 559.408 60.5788 594.763 49.641 624.151C48.9818 625.966 48.3226 627.781 47.4682 629.77C46.6138 631.759 45.7594 633.749 44.905 635.738C22.8017 688.758 -22.6325 770.831 -22.6325 770.831Z" fill="url(#paint38_linear)"/>
<path opacity="0.52" d="M-39.7231 826.917C-35.0464 806.62 -30.3802 786.507 -25.7036 766.21C-12.6121 708.786 -0.259314 651.319 11.3654 593.625C12.4092 588.312 13.4531 582.999 14.4969 577.687C0.0993623 580.015 -14.7364 580.281 -29.1655 583.164C-42.2809 585.751 -55.428 588.892 -68.0631 592.804C-68.021 592.065 -67.7943 591.337 -67.7522 590.598C-55.6078 585.547 -43.1468 581.441 -30.195 578.474C-15.5602 575.232 0.37777 571.88 15.5197 572.743C15.7464 572.015 15.7885 571.276 16.0153 570.548C1.88085 568.26 -12.7071 567.429 -26.8568 568.66C-35.794 569.448 -44.5887 570.984 -53.2198 572.901C-57.1607 573.788 -61.3495 575.772 -65.2483 575.92C-64.9163 573.346 -64.3891 570.597 -63.862 567.848C-60.4434 566.376 -56.3283 565.684 -53.3001 564.56C-43.8673 561.577 -34.2814 559.16 -24.574 557.86C-9.81765 555.737 4.61721 556.004 18.0293 561.215C21.1923 544.722 24.1602 528.403 26.5847 511.868C14.4441 507.101 2.72557 501.431 -9.63118 497.207C-21.4445 493.199 -33.6692 489.908 -45.9886 488.28C-45.7619 487.552 -45.5351 486.824 -45.3083 486.096C-20.4217 488.255 5.05147 496.376 27.175 508.011C27.1855 507.827 27.196 507.642 27.2066 507.457C5.17776 494.16 -16.6137 479.95 -41.2057 472.62C-40.979 471.892 -40.7417 470.98 -40.5149 470.251C-16.0024 475.724 8.0787 488.768 27.7864 503.785C34.0579 458.755 36.6469 413.329 30.003 367.377C30.0135 367.192 30.2087 367.018 30.3828 367.213C44.6101 426.38 25.8394 537.947 23.2982 550.029C38.8238 540.91 55.5893 532.788 73.0198 526.001C72.6773 528.76 72.1396 531.693 71.6019 534.627C55.5271 540.38 39.8006 546.523 24.2062 553.601C23.6312 553.938 23.0877 553.722 22.5443 553.506C22.0066 556.439 16.4076 583.168 15.8699 586.101C12.0055 605.148 8.14112 624.194 4.27675 643.241C15.0491 636.259 29.5097 632.823 41.8655 630.563C43.7331 630.299 45.6113 629.85 47.2942 629.575C46.4398 631.564 45.5854 633.553 44.731 635.543C43.6126 635.664 42.4836 635.97 41.3651 636.092C28.2707 638.31 16.1053 643.73 3.33815 646.707C-4.9283 687.734 -13.5641 728.739 -23.1021 769.323C-27.7156 788.512 -32.5243 807.875 -37.6813 826.848C-37.9817 828.869 -39.9919 828.383 -39.7231 826.917Z" fill="#004C39"/>
</g>
<defs>
<linearGradient id="paint0_linear" x1="153.797" y1="641.037" x2="1117.99" y2="-34.8776" gradientUnits="userSpaceOnUse">
<stop stop-color="#009E9D"/>
<stop offset="0.2571" stop-color="#2AB6A1"/>
<stop offset="0.9992" stop-color="#A0FAAB"/>
</linearGradient>
<linearGradient id="paint1_linear" x1="1102.3" y1="740.194" x2="1102.3" y2="25.5952" gradientUnits="userSpaceOnUse">
<stop stop-color="#006182"/>
<stop offset="0.3917" stop-color="#4E9E87" stop-opacity="0.6083"/>
<stop offset="1" stop-color="#C4FA8F" stop-opacity="0"/>
</linearGradient>
<linearGradient id="paint2_linear" x1="718.324" y1="740.194" x2="718.324" y2="25.5957" gradientUnits="userSpaceOnUse">
<stop stop-color="#006182"/>
<stop offset="0.3917" stop-color="#4E9E87" stop-opacity="0.6083"/>
<stop offset="1" stop-color="#C4FA8F" stop-opacity="0"/>
</linearGradient>
<linearGradient id="paint3_linear" x1="237.949" y1="740.193" x2="237.949" y2="25.595" gradientUnits="userSpaceOnUse">
<stop stop-color="#006182"/>
<stop offset="0.3917" stop-color="#4E9E87" stop-opacity="0.6083"/>
<stop offset="1" stop-color="#C4FA8F" stop-opacity="0"/>
</linearGradient>
<linearGradient id="paint4_linear" x1="34.4819" y1="740.194" x2="34.4819" y2="25.5947" gradientUnits="userSpaceOnUse">
<stop stop-color="#006182"/>
<stop offset="0.3917" stop-color="#4E9E87" stop-opacity="0.6083"/>
<stop offset="1" stop-color="#C4FA8F" stop-opacity="0"/>
</linearGradient>
<linearGradient id="paint5_linear" x1="880.373" y1="740.194" x2="880.373" y2="25.5953" gradientUnits="userSpaceOnUse">
<stop stop-color="#006182"/>
<stop offset="0.3917" stop-color="#4E9E87" stop-opacity="0.6083"/>
<stop offset="1" stop-color="#C4FA8F" stop-opacity="0"/>
</linearGradient>
<linearGradient id="paint6_linear" x1="462.193" y1="740.193" x2="462.193" y2="25.595" gradientUnits="userSpaceOnUse">
<stop stop-color="#006182"/>
<stop offset="0.3917" stop-color="#4E9E87" stop-opacity="0.6083"/>
<stop offset="1" stop-color="#C4FA8F" stop-opacity="0"/>
</linearGradient>
<linearGradient id="paint7_linear" x1="601.452" y1="657.748" x2="601.452" y2="286.866" gradientUnits="userSpaceOnUse">
<stop stop-color="#00715D"/>
<stop offset="1" stop-color="#00C2A4"/>
</linearGradient>
<linearGradient id="paint8_linear" x1="76.7135" y1="609.801" x2="1098.96" y2="-160.99" gradientUnits="userSpaceOnUse">
<stop stop-color="#008A92"/>
<stop offset="0.0752804" stop-color="#0A9392"/>
<stop offset="1" stop-color="#80FA95"/>
</linearGradient>
<linearGradient id="paint9_linear" x1="1200.57" y1="537.655" x2="1149.61" y2="327.444" gradientUnits="userSpaceOnUse">
<stop stop-color="#00332E"/>
<stop offset="0.1706" stop-color="#004C3C"/>
<stop offset="1" stop-color="#00C281"/>
</linearGradient>
<linearGradient id="paint10_linear" x1="561.914" y1="778.308" x2="561.914" y2="534.922" gradientUnits="userSpaceOnUse">
<stop stop-color="#000E00"/>
<stop offset="0.0681045" stop-color="#001709"/>
<stop offset="1" stop-color="#00897F"/>
</linearGradient>
<linearGradient id="paint11_linear" x1="815.232" y1="757.776" x2="815.232" y2="507.726" gradientUnits="userSpaceOnUse">
<stop stop-color="#000E00"/>
<stop offset="0.0681045" stop-color="#001709"/>
<stop offset="1" stop-color="#00897F"/>
</linearGradient>
<linearGradient id="paint12_linear" x1="1093.15" y1="666.724" x2="988.125" y2="436.346" gradientUnits="userSpaceOnUse">
<stop stop-color="#000E00"/>
<stop offset="0.0681045" stop-color="#001709"/>
<stop offset="1" stop-color="#00897F"/>
</linearGradient>
<linearGradient id="paint13_linear" x1="287.347" y1="661.684" x2="287.347" y2="477.75" gradientUnits="userSpaceOnUse">
<stop stop-color="#000E00"/>
<stop offset="0.0681045" stop-color="#001709"/>
<stop offset="1" stop-color="#00897F"/>
</linearGradient>
<linearGradient id="paint14_linear" x1="86.6264" y1="712.79" x2="86.6264" y2="528.856" gradientUnits="userSpaceOnUse">
<stop stop-color="#000E00"/>
<stop offset="0.0681045" stop-color="#001709"/>
<stop offset="1" stop-color="#00897F"/>
</linearGradient>
<linearGradient id="paint15_linear" x1="893.438" y1="738.881" x2="836.142" y2="511.608" gradientUnits="userSpaceOnUse">
<stop offset="0.00114183" stop-color="#004432"/>
<stop offset="0.2715" stop-color="#00714F"/>
<stop offset="1" stop-color="#00E79A"/>
</linearGradient>
<linearGradient id="paint16_linear" x1="330.018" y1="734.408" x2="469.052" y2="468.853" gradientUnits="userSpaceOnUse">
<stop stop-color="#00332E"/>
<stop offset="0.1706" stop-color="#004C3C"/>
<stop offset="1" stop-color="#00C281"/>
</linearGradient>
<linearGradient id="paint17_linear" x1="487.457" y1="716.195" x2="531.864" y2="526.172" gradientUnits="userSpaceOnUse">
<stop offset="0.00114183" stop-color="#004432"/>
<stop offset="0.2715" stop-color="#00714F"/>
<stop offset="1" stop-color="#00E79A"/>
</linearGradient>
<linearGradient id="paint18_linear" x1="1162.78" y1="575.778" x2="1044.61" y2="338.031" gradientUnits="userSpaceOnUse">
<stop stop-color="#00332E"/>
<stop offset="0.1706" stop-color="#004C3C"/>
<stop offset="1" stop-color="#00C281"/>
</linearGradient>
<linearGradient id="paint19_linear" x1="1069.43" y1="644.237" x2="1043.51" y2="432.305" gradientUnits="userSpaceOnUse">
<stop stop-color="#00332E"/>
<stop offset="0.1706" stop-color="#004C3C"/>
<stop offset="1" stop-color="#00C281"/>
</linearGradient>
<linearGradient id="paint20_linear" x1="956.12" y1="722.887" x2="989.809" y2="363.118" gradientUnits="userSpaceOnUse">
<stop stop-color="#008F9F"/>
<stop offset="1" stop-color="#47FAB0"/>
</linearGradient>
<linearGradient id="paint21_linear" x1="292.501" y1="720.459" x2="477.059" y2="584.576" gradientUnits="userSpaceOnUse">
<stop stop-color="#009C9C"/>
<stop offset="1" stop-color="#4FFA5F"/>
</linearGradient>
<linearGradient id="paint22_linear" x1="1093.66" y1="711.074" x2="1148.95" y2="533.373" gradientUnits="userSpaceOnUse">
<stop stop-color="#00332E"/>
<stop offset="0.1706" stop-color="#004C3C"/>
<stop offset="1" stop-color="#00C281"/>
</linearGradient>
<linearGradient id="paint23_linear" x1="120.528" y1="709.284" x2="81.0071" y2="453.295" gradientUnits="userSpaceOnUse">
<stop offset="0.00114183" stop-color="#004432"/>
<stop offset="0.2715" stop-color="#00714F"/>
<stop offset="1" stop-color="#00E79A"/>
</linearGradient>
<linearGradient id="paint24_linear" x1="670.385" y1="787.015" x2="687.158" y2="558.645" gradientUnits="userSpaceOnUse">
<stop offset="0.00230369" stop-color="#00D073"/>
<stop offset="0.0170386" stop-color="#01D175"/>
<stop offset="1" stop-color="#25FAEB"/>
</linearGradient>
<linearGradient id="paint25_linear" x1="565.953" y1="713.171" x2="483.878" y2="628.573" gradientUnits="userSpaceOnUse">
<stop stop-color="#009C9C"/>
<stop offset="1" stop-color="#4FFA5F"/>
</linearGradient>
<linearGradient id="paint26_linear" x1="577.464" y1="714.061" x2="575.753" y2="567.742" gradientUnits="userSpaceOnUse">
<stop stop-color="#009C9C"/>
<stop offset="1" stop-color="#4FFA5F"/>
</linearGradient>
<linearGradient id="paint27_linear" x1="196.039" y1="636.046" x2="363.804" y2="610.681" gradientUnits="userSpaceOnUse">
<stop stop-color="#008F9F"/>
<stop offset="1" stop-color="#47FAB0"/>
</linearGradient>
<linearGradient id="paint28_linear" x1="931.285" y1="802.649" x2="1055.75" y2="545.95" gradientUnits="userSpaceOnUse">
<stop stop-color="#009C9C"/>
<stop offset="1" stop-color="#4FFA5F"/>
</linearGradient>
<linearGradient id="paint29_linear" x1="941.236" y1="672.085" x2="771.654" y2="666.707" gradientUnits="userSpaceOnUse">
<stop stop-color="#009C9C"/>
<stop offset="1" stop-color="#4FFA5F"/>
</linearGradient>
<linearGradient id="paint30_linear" x1="1026.22" y1="703.666" x2="1114.4" y2="625.454" gradientUnits="userSpaceOnUse">
<stop stop-color="#009C9C"/>
<stop offset="1" stop-color="#4FFA5F"/>
</linearGradient>
<linearGradient id="paint31_linear" x1="932.994" y1="723.104" x2="901.849" y2="580.128" gradientUnits="userSpaceOnUse">
<stop stop-color="#009C9C"/>
<stop offset="1" stop-color="#00FAE8"/>
</linearGradient>
<linearGradient id="paint32_linear" x1="734.318" y1="714.627" x2="835.355" y2="608.779" gradientUnits="userSpaceOnUse">
<stop stop-color="#009C9C"/>
<stop offset="1" stop-color="#4FFA5F"/>
</linearGradient>
<linearGradient id="paint33_linear" x1="150.775" y1="711.161" x2="51.8308" y2="567.73" gradientUnits="userSpaceOnUse">
<stop stop-color="#009C9C"/>
<stop offset="1" stop-color="#4FFA5F"/>
</linearGradient>
<linearGradient id="paint34_linear" x1="187.308" y1="691.307" x2="185.596" y2="544.988" gradientUnits="userSpaceOnUse">
<stop stop-color="#009C9C"/>
<stop offset="1" stop-color="#00FAE8"/>
</linearGradient>
<radialGradient id="paint35_radial" cx="0" cy="0" r="1" gradientUnits="userSpaceOnUse" gradientTransform="translate(-204.843 -273.594) rotate(180) scale(1626.18 1906.89)">
<stop offset="0.00268429" stop-color="#D1FAA8"/>
<stop offset="1" stop-color="#E5FA51" stop-opacity="0"/>
</radialGradient>
<linearGradient id="paint36_linear" x1="922.203" y1="-174.666" x2="440.955" y2="479.505" gradientUnits="userSpaceOnUse">
<stop offset="0.00346554" stop-color="#EAFAC0"/>
<stop offset="0.9988" stop-color="#DAFAD9" stop-opacity="0"/>
</linearGradient>
<linearGradient id="paint37_linear" x1="-59.5673" y1="719.019" x2="-47.7813" y2="284.599" gradientUnits="userSpaceOnUse">
<stop offset="0.00078125" stop-color="#06403C"/>
<stop offset="0.457004" stop-color="#044742" stop-opacity="0.702362"/>
<stop offset="1" stop-color="#005751" stop-opacity="0"/>
</linearGradient>
<linearGradient id="paint38_linear" x1="-25.4697" y1="720.765" x2="30.4061" y2="397.279" gradientUnits="userSpaceOnUse">
<stop stop-color="#00332E"/>
<stop offset="0.1706" stop-color="#004C3C"/>
<stop offset="1" stop-color="#00C281"/>
</linearGradient>
</defs>
</svg>
