<svg id="tiger-paw-computer" width="454" height="265" viewBox="0 0 454 207" fill="none"
    xmlns="http://www.w3.org/2000/svg">
    <link xmlns="http://www.w3.org/1999/xhtml" rel="stylesheet" href="svg-styles.css" type="text/css" />
    <g id="tiger-paw">
        <g id="paw-core">
            <path id="core"
                d="M216.568 163.349C207.921 174.797 194.95 182.462 180.947 184.427C169.105 186.147 157.363 183.985 146.946 178.237C137.267 172.881 129.602 164.872 124.689 154.997C114.567 151.361 105.871 144.875 99.3852 136.129C92.4573 126.745 88.7723 115.592 88.7723 103.947C88.7723 92.3023 92.4573 81.1491 99.3852 71.7646C105.822 63.0188 114.567 56.5333 124.689 52.8974C129.602 43.0216 137.218 35.062 146.946 29.6573C157.363 23.9087 169.105 21.7468 180.947 23.4174C194.311 25.2844 206.447 32.163 215.143 42.7267C217.453 45.5273 220.99 47.0996 224.675 46.903L241.135 45.9696C237.647 44.0533 234.207 42.7268 231.357 41.8424C230.178 41.4985 230.473 39.7296 231.701 39.7787C238.384 39.877 249.045 40.8597 261.918 44.7904L271.008 44.2499C267.274 41.7441 263.392 40.1718 260.346 39.2383C259.413 38.9435 259.658 37.5677 260.641 37.5677C266.832 37.666 277.15 38.6978 289.63 43.169L444.596 34.2267C449.215 33.9811 453.097 37.6168 453.097 42.2354L453.096 165.315C453.096 169.982 449.166 173.618 444.547 173.323L226.592 158.829C222.612 158.583 218.927 160.254 216.568 163.349Z"
                fill="#FFE0CA" />
            <path id="stain"
                d="M434.426 34.8162C421.258 47.4926 394.923 66.6055 375.368 68.7182C351.931 71.2731 369.57 105.175 351.39 107.484C334.783 109.548 323.139 153.031 296.017 163.447C288.5 163.005 283.242 162.514 277.789 162.219C279.607 160.794 282.505 155.488 286.289 152.982C301.717 142.762 294.74 98.2473 308.694 95.4467C322.697 92.6461 307.367 65.1805 318.766 63.6083C323.777 62.9204 332.867 46.3625 335.176 40.4665C376.105 37.9116 418.261 35.7988 434.426 34.8162Z"
                fill="#B56A4A" />
            <path id="shadow-middle" opacity="0.49"
                d="M235.19 101.932C235.19 109.695 234.06 117.409 231.8 124.239C231.259 125.86 229.589 126.647 228.016 126.106C226.395 125.566 225.609 123.895 226.149 122.323C230.227 109.99 230.227 93.8745 226.149 81.1981C225.609 79.5767 226.493 77.9061 228.065 77.4148C229.687 76.8743 231.357 77.7587 231.849 79.331C234.06 86.357 235.19 94.1693 235.19 101.932Z"
                fill="#BF9C82" />
            <path id="shadow-left" opacity="0.5"
                d="M215.143 42.7265C216.077 43.8566 217.256 44.8394 218.534 45.5272L214.554 45.7729C211.016 45.9694 207.577 44.4462 205.366 41.7439C197.013 31.5733 185.319 24.9403 172.446 23.1715C171.857 23.0733 171.316 23.0241 170.727 22.9749C174.068 22.8275 177.507 22.9749 180.897 23.4663C194.311 25.2842 206.447 32.1629 215.143 42.7265Z"
                fill="#BF9C82" />
            <path id="shadow-right" opacity="0.49"
                d="M216.666 163.349C208.019 174.797 195.048 182.462 181.045 184.427C174.166 185.41 167.336 185.115 160.753 183.543C159.328 183.199 159.573 181.136 160.998 181.086C163.357 181.037 165.666 180.792 168.024 180.448C184.042 178.187 198.88 169.442 208.805 156.323C211.507 152.786 215.733 150.869 220.155 151.164L452.998 164.381L452.998 165.315C452.998 169.982 449.067 173.667 444.4 173.323L226.591 158.829C222.71 158.583 219.025 160.254 216.666 163.349Z"
                fill="#BF9C82" />
            <g id="methacarpus">
                <path id="Vector"
                    d="M203.057 72.2571C201.042 59.335 190.577 49.017 177.605 47.1991C162.915 45.1355 149.01 53.7829 144.49 67.8351C143.409 71.1762 140.608 73.6328 137.218 74.3207C123.116 77.0721 112.848 89.552 112.848 103.948C112.848 118.344 123.116 130.824 137.218 133.576C140.657 134.263 143.409 136.72 144.49 140.061C149.01 154.064 162.915 162.761 177.605 160.697C190.577 158.879 201.042 148.561 203.057 135.639C204.088 128.957 203.007 122.373 199.863 116.575C195.637 108.714 195.637 99.2805 199.863 91.4191C202.958 85.5231 204.088 78.9392 203.057 72.2571Z"
                    fill="#F59884" />
                <g id="Group">
                    <path id="Vector_2"
                        d="M183.747 151.902C169.056 153.966 155.151 145.269 150.631 131.266C149.55 127.925 146.75 125.469 143.359 124.781C129.258 122.029 118.989 109.549 118.989 95.1534C118.989 90.584 120.021 86.2111 121.888 82.2313C116.238 87.7834 112.749 95.4973 112.749 103.85C112.749 118.246 123.018 130.726 137.119 133.477C140.559 134.165 143.31 136.622 144.391 139.963C148.912 153.966 162.816 162.663 177.507 160.599C187.629 159.174 196.227 152.59 200.452 143.599C196.03 147.972 190.184 150.969 183.747 151.902Z"
                        fill="#933C29" />
                </g>
                <g id="Group_2">
                    <path id="Vector_3"
                        d="M151.614 63.8553C157.412 59.2367 165.076 56.9766 172.938 58.1067C184.828 59.7772 194.458 69.26 196.325 81.1011C196.669 83.1647 196.718 85.2284 196.62 87.292C197.996 83.3613 198.34 79.1358 197.701 74.8612C195.981 63.9045 187.137 55.1587 176.131 53.5864C166.403 52.2107 157.068 56.387 151.614 63.8553Z"
                        fill="#FDDCCB" />
                </g>
            </g>
        </g>
        <g id="finger-1">
            <path id="finger-1-claw"
                d="M93.5882 34.0305L59.4904 33.4197C58.3073 33.3965 57.7029 32.1685 58.4673 31.2693C62.4925 26.6263 74.079 16.1935 94.2938 20.0952"
                fill="#3C0B0B" />
            <g id="finger-1-core">
                <path id="Vector_4"
                    d="M150.385 33.637C150.14 25.6774 145.423 19.5358 139.822 15.7525C134.171 11.9201 126.9 10.0039 119.382 10.2004C111.865 10.3969 104.74 12.8045 99.2867 16.9317C93.882 21.0097 89.5091 27.4463 89.7548 35.4059C90.0005 43.3655 94.7173 49.5071 100.318 53.2904C105.969 57.1228 113.241 59.039 120.758 58.8425C128.275 58.6459 135.4 56.2384 140.854 52.1112C146.307 47.984 150.582 41.5475 150.385 33.637Z"
                    fill="#F59884" stroke="#FFE0CA" stroke-width="18.6707" />
                <path id="Vector_5"
                    d="M126.506 42.432C120.905 42.5794 115.599 41.2036 111.521 38.5013C109.212 36.929 105.183 33.4897 105.084 28.085C104.986 26.4636 105.33 25.0387 105.87 23.7613C105.527 24.0069 105.183 24.2526 104.888 24.4983C103.905 25.2353 102.726 26.3163 101.596 27.7411C100.122 29.6573 98.9426 32.2122 99.0409 35.3076C99.1883 40.6632 103.168 44.1517 105.477 45.724C109.506 48.4263 114.813 49.8512 120.463 49.6547C126.064 49.5073 131.272 47.7875 135.154 44.7904C136.726 43.6112 139.035 41.4003 140.264 38.354C136.481 40.8598 131.665 42.2846 126.506 42.432Z"
                    fill="#933C29" />
                <path id="Vector_6"
                    d="M123.755 24.0068C119.284 23.3189 114.96 23.7612 111.472 25.3826C110.44 25.8248 109.064 26.6601 107.885 27.7902C108.425 27.4954 108.917 27.2496 109.359 27.1022C113.29 25.4808 118.35 25.0387 123.46 25.9231C128.57 26.8075 133.287 28.9202 136.579 31.8191C137.021 32.2121 137.562 32.7034 138.053 33.2439C137.267 31.3768 135.94 29.9028 135.007 29.0676C132.157 26.4635 128.177 24.6947 123.755 24.0068Z"
                    fill="#FDDCCB" />
            </g>
            <g id="finger-1-down">
                <path id="Vector_7" opacity="0.8"
                    d="M138.397 31.6715C138.397 43.5297 128.058 53.1429 115.304 53.1429C102.551 53.1429 92.2117 43.5297 92.2117 31.6715C92.2117 19.8132 102.551 10.2002 115.304 10.2002C128.058 10.2002 138.397 19.8132 138.397 31.6715Z"
                    fill="#3A1400" />
                <path class="test" id="Vector_8"
                    d="M134.958 31.6715C134.958 43.5297 124.619 53.1429 111.865 53.1429C99.1113 53.1429 88.7723 43.5297 88.7723 31.6715C88.7723 19.8132 99.1113 10.2002 111.865 10.2002C124.619 10.2002 134.958 19.8132 134.958 31.6715Z"
                    fill="#FFE0CA" />
            </g>
        </g>
        <g id="finger-2">
            <path id="finger-2-claw"
                d="M38.0741 80.5836L3.98295 79.9733C2.80218 79.9396 2.2153 78.7248 2.94729 77.8624C6.98195 73.2444 18.5754 62.7391 38.8059 66.6813"
                fill="#3C0B0B" />
            <g id="finger-2-core">
                <path id="Vector_9"
                    d="M70.8384 48.721C61.8961 48.6718 53.3469 51.0302 46.8122 55.354C40.3266 59.6286 34.8236 66.6055 34.7254 75.5969C34.7254 84.5883 40.13 91.6144 46.5665 95.9873C53.1013 100.36 61.6505 102.817 70.5927 102.866C79.535 102.915 88.0842 100.557 94.619 96.2329C101.105 91.9583 106.608 84.9814 106.706 75.99C106.706 66.9986 101.301 59.9725 94.8646 55.5996C88.2808 51.2268 79.7807 48.8192 70.8384 48.721Z"
                    fill="#F59884" stroke="#FFE0CA" stroke-width="18.6707" />
                <path id="Vector_10"
                    d="M96.3877 80.5594C91.327 83.9005 84.6448 85.6692 77.5205 85.6692C70.3961 85.6692 63.714 83.7531 58.7024 80.3629C55.8035 78.4467 50.9393 74.172 50.9393 67.7847C50.9393 66.9494 51.0376 66.1141 51.2341 65.2789C51.3815 64.6401 51.5289 64.0506 51.7746 63.4119C49.2688 65.0824 45.3381 68.4234 44.2572 73.2876C44.0606 74.1229 44.0115 74.9582 43.9624 75.7935C43.9624 82.1808 48.8266 86.4553 51.7254 88.3715C56.737 91.7618 63.4192 93.5797 70.5435 93.678C77.6679 93.678 84.3992 91.9092 89.4108 88.5682C91.6218 87.1433 94.9137 84.3918 96.486 80.4611C96.4368 80.5103 96.3877 80.5103 96.3877 80.5594Z"
                    fill="#933C29" />
                <path id="Vector_11"
                    d="M74.9655 62.4293C68.9221 61.594 63.0261 62.3802 58.3093 64.6403C56.9827 65.3282 55.0665 66.409 53.4942 67.9813C54.1821 67.5882 54.8699 67.2443 55.4104 67.0478C60.7168 64.7385 67.5464 64.0507 74.5724 65.1316C81.5494 66.2126 87.9859 68.9149 92.6044 72.7473C93.2431 73.2878 93.9801 73.9265 94.668 74.7126C93.5379 72.2068 91.7691 70.2906 90.3934 69.0623C86.4627 65.623 81.0089 63.2646 74.9655 62.4293Z"
                    fill="#FDDCCB" />
            </g>
            <g id="finger-2-down">
                <path id="Vector_12" opacity="0.8"
                    d="M89.0671 75.7933C89.0671 87.6516 78.5961 97.2646 65.6796 97.2646C52.763 97.2646 42.2921 87.6516 42.2921 75.7933C42.2921 63.935 52.763 54.322 65.6796 54.322C78.5961 54.322 89.0671 63.935 89.0671 75.7933Z"
                    fill="#3A1400" />
                <path id="Vector_13"
                    d="M85.2837 75.7933C85.2837 87.6516 74.8128 97.2646 61.8962 97.2646C48.9797 97.2646 38.5087 87.6516 38.5087 75.7933C38.5087 63.935 48.9797 54.322 61.8962 54.322C74.8128 54.322 85.2837 63.935 85.2837 75.7933Z"
                    fill="#FFE0CA" />
            </g>
        </g>
        <g id="finger-3">
            <path id="finger-3-claw"
                d="M39.7777 124.79L5.68273 124.457C4.50149 124.458 3.88123 125.656 4.5891 126.539C8.49452 131.266 19.793 142.088 40.1248 138.707"
                fill="#3C0B0B" />
            <g id="finger-3-core">
                <path id="Vector_14"
                    d="M71.9193 157.216C62.9771 157.068 54.477 154.513 48.0405 150.042C41.6532 145.62 36.2485 138.545 36.3959 129.554C36.5433 120.562 42.1445 113.635 48.6792 109.409C55.3123 105.184 63.8615 102.874 72.8037 103.071C81.746 103.218 90.2461 105.773 96.6826 110.244C103.07 114.666 108.475 121.741 108.327 130.733C108.229 139.724 102.579 146.652 96.0438 150.878C89.4108 155.103 80.8125 157.314 71.9193 157.216Z"
                    fill="#F59884" stroke="#FFE0CA" stroke-width="18.6707" />
                <path id="Vector_15"
                    d="M97.96 135.106C92.8501 138.349 86.1189 140.019 79.0436 139.921C71.9193 139.773 65.2863 137.759 60.3238 134.32C57.425 132.305 52.659 127.981 52.7573 121.594C52.8064 120.759 52.8556 119.874 53.0521 119.088C53.1995 118.449 53.396 117.811 53.6417 117.27C51.0867 118.892 47.1069 122.184 46.026 127.048C45.8295 127.834 45.7312 128.669 45.7312 129.554C45.5838 135.941 50.3989 140.265 53.2978 142.279C58.2602 145.718 64.8932 147.684 72.0176 147.88C79.1419 148.028 85.8732 146.308 90.9339 143.065C93.1449 141.64 96.486 138.987 98.1074 135.057C98.0583 135.106 98.0091 135.106 97.96 135.106Z"
                    fill="#933C29" />
                <path id="Vector_16"
                    d="M76.1448 116.239C70.0523 115.551 64.1562 116.435 59.5868 118.843C58.2111 119.58 56.3932 120.661 54.87 122.282C55.5579 121.889 56.2458 121.545 56.7862 121.25C62.0435 118.794 68.8731 117.958 75.8991 118.892C82.9252 119.776 89.3617 122.331 94.0293 126.114C94.6681 126.655 95.4051 127.244 96.1421 128.031C94.9629 125.574 93.0958 123.658 91.7201 122.528C87.7403 119.236 82.2373 116.976 76.1448 116.239Z"
                    fill="#FDDCCB" />
            </g>
            <g id="finger-3-down">
                <path id="Vector_17" opacity="0.8"
                    d="M93.7346 130.135C93.7346 141.993 82.1418 151.606 67.8413 151.606C53.5408 151.606 41.948 141.993 41.948 130.135C41.948 118.277 53.5408 108.664 67.8413 108.664C82.1418 108.664 93.7346 118.277 93.7346 130.135Z"
                    fill="#3A1400" />
                <path id="Vector_18"
                    d="M89.7056 130.135C89.7056 141.993 78.1127 151.606 63.8123 151.606C49.5118 151.606 37.919 141.993 37.919 130.135C37.919 118.277 49.5118 108.664 63.8123 108.664C78.1128 108.664 89.7056 118.277 89.7056 130.135Z"
                    fill="#FFE0CA" />
            </g>
        </g>
        <g id="finger-4">
            <path id="finger-4-claw"
                d="M93.7251 174.334L59.6218 174.312C58.4386 174.313 57.8114 175.529 58.559 176.443C62.4972 181.16 73.8879 191.806 94.1716 188.281"
                fill="#3C0B0B" />
            <g id="finger-4-core">
                <path id="Vector_19"
                    d="M150.434 174.453C150.14 182.413 145.374 188.505 139.674 192.24C133.975 196.023 126.703 197.89 119.186 197.546C111.668 197.251 104.544 194.795 99.1392 190.618C93.7836 186.491 89.4599 180.005 89.7547 172.046C90.0495 164.086 94.8154 157.994 100.515 154.259C106.214 150.476 113.486 148.609 121.004 148.953C128.521 149.248 135.645 151.705 141.05 155.881C146.455 160.057 150.729 166.543 150.434 174.453Z"
                    fill="#F59884" stroke="#FFE0CA" stroke-width="18.6707" />
                <path id="Vector_20"
                    d="M126.408 181.332C120.856 181.283 115.55 179.612 111.619 176.762C109.31 175.092 105.526 171.505 105.625 166.1C105.625 164.479 105.969 163.054 106.558 161.777C106.214 161.973 105.92 162.219 105.526 162.415C104.544 163.103 103.266 164.135 102.136 165.511C100.564 167.378 99.2866 169.835 99.2374 172.979C99.1392 178.384 102.972 181.971 105.232 183.641C109.162 186.54 114.42 188.112 120.021 188.21C125.573 188.26 130.928 186.786 134.908 183.985C136.53 182.855 138.937 180.791 140.264 177.794C136.431 180.103 131.567 181.381 126.408 181.332Z"
                    fill="#933C29" />
                <path id="Vector_21"
                    d="M125.72 162.563C121.397 161.285 117.024 161.187 113.339 162.366C112.258 162.661 110.784 163.3 109.457 164.283C109.998 164.086 110.538 163.89 110.98 163.791C115.107 162.661 120.168 162.956 125.131 164.479C130.093 166.051 134.466 168.705 137.365 171.996C137.758 172.439 138.249 172.979 138.642 173.618C138.102 171.702 137.021 170.031 136.137 169.048C133.729 166.15 129.995 163.84 125.72 162.563Z"
                    fill="#FDDCCB" />
            </g>
            <g id="finger-4-down">
                <path id="Vector_22" opacity="0.8"
                    d="M139.724 174.601C139.724 186.459 129.385 196.072 116.631 196.072C103.877 196.072 93.5382 186.459 93.5382 174.601C93.5382 162.742 103.877 153.129 116.631 153.129C129.385 153.129 139.724 162.742 139.724 174.601Z"
                    fill="#3A1400" />
                <path id="Vector_23"
                    d="M135.94 174.601C135.94 186.459 125.601 196.072 112.848 196.072C100.094 196.072 89.7548 186.459 89.7548 174.601C89.7548 162.742 100.094 153.129 112.848 153.129C125.601 153.129 135.94 162.742 135.94 174.601Z"
                    fill="#FFE0CA" />
            </g>
        </g>
        <g id="shadows">
            <path id="shadow-3" opacity="0.5"
                d="M81.9424 166.101C83.1216 167.575 85.2343 167.722 86.61 166.543L107.737 146.103C108.18 145.71 107.639 145.071 107.148 145.415L82.532 161.482C81.058 162.514 80.7632 164.627 81.9424 166.101Z"
                fill="#BF9C82" />
            <path id="shadow-2" opacity="0.5"
                d="M40.9162 103.947C40.9162 105.814 42.4885 107.288 44.3064 107.19L73.5899 104.389C74.1795 104.34 74.1795 103.505 73.5899 103.505L44.3064 100.704C42.4394 100.606 40.9162 102.08 40.9162 103.947Z"
                fill="#BF9C82" />
            <path id="shadow-1" opacity="0.5"
                d="M80.7634 40.3191C81.9426 38.8451 84.0554 38.6978 85.4311 39.877L106.558 60.3164C107.001 60.7095 106.46 61.3483 105.969 61.0043L81.3531 44.9376C79.8791 43.9058 79.5842 41.7931 80.7634 40.3191Z"
                fill="#BF9C82" />
        </g>
    </g>
</svg>